<svg xmlns="http://www.w3.org/2000/svg" fill="none" viewBox="0 0 48 48">
  <path fill="#000" fill-rule="evenodd" d="M26.6857 36.0827c-2.6472-2.0015-5.8391-.0827-7.3442 1.5335-4.5471 4.883-7.6453.9374-7.6453.9374s1.5899 5.0753 7.8154 5.1595c1.8726.0253 3.5219-.2973 5.7246-2.1768 1.703-1.4532 2.9527-4.3171 1.4495-5.4536Zm-14.9793 1.6991c.1155-.3459.4344-.673 1.2218-.6911 1.2719-.0291 2.7025 1.164 3.9299 1.9072-.5194.285-1.0807.4883-1.6731.5454-.133.0128-.2667.018-.4003.0152-.2442-.005-.4877-.037-.725-.0948-.2808-.0685-.5552-.1722-.8106-.3078-.3603-.1913-.6885-.4319-.9801-.7169-.0543-.0548-.107-.1107-.158-.1686-.1362-.1618-.2709-.3248-.4046-.4886Zm24.3473-20.4493c-3.667 1.9169-3.2057 6.5373-2.1862 9.0952 3.08 7.728-3.0185 9.1169-3.0185 9.1169s6.5679.9132 9.9811-6.0588c1.0266-2.0972 1.5422-4.128.5978-7.6126-.7301-2.6941-3.2921-5.6291-5.3742-4.5407Zm-1.8348 12.5521c.0559.8063-.0194 1.6212-.3095 2.3797-.0605.1583-.1301.3131-.2086.4633-.1552.2972-.3455.5756-.5652.8288-.2807.3235-.6083.6049-.9652.8412-.4263.2822-.8951.5057-1.3867.6475-.2279.06-.4563.1178-.6851.1742-.3905-.2972-.6859-.8456-.2418-1.8431.6623-1.4875 2.8655-2.4771 4.3621-3.4916ZM1.45619 19.3312c5.4396-3.8149 11.68841.2525 14.58401 3.5938 8.748 10.095 15.229 2.4228 15.229 2.4228S27.725 35.3883 15.2634 35.111c-3.7483-.0834-7.02491-.8468-11.29741-4.7648-3.303395-3.0293-5.5985-8.8488-2.5098-11.015Zm18.94361 6.8107c2.6126-1.3486 5.7922-3.9686 8.5092-3.8091 2.0599.121 2.4768 1.2437 2.486 2.108l-.5188.5971-.05.0552-.0368.0394c-.5768.6022-1.2557 1.1123-1.9836 1.518-.6242.3479-1.293.6175-1.9881.7855-.5017.1213-1.0161.1894-1.5323.2012-.3293.0075-.6592-.0076-.9865-.0445-.2247-.0252-.4483-.0607-.6698-.1057-1.1542-.2342-2.2349-.7196-3.2293-1.3451Zm-2.3389-5.3564c5.4396 3.8149 11.6884-.2525 14.584-3.5939 8.7481-10.09486 15.229-2.4228 15.229-2.4228S44.3297 4.72844 31.8681 5.00564c-3.7483.0834-7.0249.8468-11.2974 4.7649-3.3033 3.02926-5.5985 8.84876-2.5098 11.01496Zm18.9443-6.8104c1.1021-.6926 2.3126-1.2153 3.6041-1.4122.2869-.0437.5763-.071.8663-.081.5301-.0183 1.0617.0222 1.5829.1205.6875.1295 1.3542.3593 1.9811.6689.8044.3972 1.5438.9226 2.1892 1.5451.0686.068.1362.1366.2021.2072.1918.212.3811.4263.569.6418-.006.8657-.4179 1.997-2.4862 2.1185-2.7167.1595-5.896-2.46-8.5085-3.8088Z" clip-rule="evenodd"/>
</svg>
