<svg xmlns="http://www.w3.org/2000/svg" fill="none" viewBox="0 0 48 48">
  <path fill="#B20C0C" fill-rule="evenodd" d="M18.2018 39.566c-1.4097-.1707-3.4966-2.5159-5.2736-2.4753-1.6984.0389-1.2173 1.5159-1.2173 1.5159 1.508 2.5153 3.9147 2.1477 6.4909.9594Zm17.2559-10.8144c-.9438 1.4979-4.6996 2.6001-5.6009 4.6246-.8614 1.935 1.0598 2.18 1.0598 2.18 3.6388-.3589 4.5072-3.2676 4.5411-6.8046Zm-17.2769-1.8439c2.8327-.2407 7.1759-4.7835 10.7282-4.5749 3.3952.1994 2.3269 3.12 2.3269 3.12-3.197 4.9245-7.9859 4.0167-13.0551 1.4549Zm16.6047-13.6988c2.8327.2407 7.1759 4.7835 10.7282 4.575 3.3952-.1994 2.3269-3.1201 2.3269-3.1201-3.197-4.92444-7.9859-4.0166-13.0551-1.4549Z" clip-rule="evenodd"/>
  <path fill="#F04E23" fill-rule="evenodd" d="M26.6857 36.0827c-2.6472-2.0015-5.8391-.0827-7.3442 1.5335-4.5471 4.883-7.6453.9374-7.6453.9374s1.5899 5.0753 7.8154 5.1595c1.8726.0253 3.5219-.2973 5.7246-2.1768 1.703-1.4532 2.9527-4.3171 1.4495-5.4536Zm9.368-18.7502c-3.667 1.9169-3.2057 6.5373-2.1862 9.0952 3.08 7.728-3.0185 9.1169-3.0185 9.1169s6.5679.9132 9.9811-6.0588c1.0266-2.0972 1.5422-4.128.5978-7.6126-.7301-2.6941-3.2921-5.6291-5.3742-4.5407ZM1.45619 19.3312c5.4396-3.8149 11.68841.2525 14.58401 3.5938 8.748 10.095 15.229 2.4228 15.229 2.4228S27.725 35.3883 15.2634 35.111c-3.7483-.0834-7.02491-.8468-11.29741-4.7648-3.303395-3.0293-5.5985-8.8488-2.5098-11.015Zm16.60471 1.4543c5.4396 3.8149 11.6884-.2525 14.584-3.5939 8.7481-10.09489 15.229-2.4228 15.229-2.4228S44.3297 4.72841 31.8681 5.00561c-3.7483.0834-7.0249.8468-11.2974 4.7649-3.3033 3.02929-5.5985 8.84879-2.5098 11.01499Z" clip-rule="evenodd"/>
</svg>
