<svg xmlns="http://www.w3.org/2000/svg" fill="none" viewBox="0 0 48 48">
  <path fill="#000" d="M2.0247 6.81155c0-2.88146 1.91526-4.79635 4.79726-4.79635H41.1872c2.882 0 4.7972 1.91489 4.7972 4.79635v6.14585c0 6.7204-2.3986 10.6505-6.6213 10.6505-7.2962 0-16.1246-9.1185-23.5212-9.1185-5.6637 0-10.56126 3.7386-13.8172 11.8997V6.81155ZM45.9935 41.1793c0 2.8815-1.9152 4.7964-4.7972 4.7964H6.82196c-2.882 0-4.79726-1.9149-4.79726-4.7964v-6.1459c0-6.7203 2.39863-10.6504 6.62132-10.6504 7.29618 0 16.12468 9.1185 23.52118 9.1185 5.6637 0 10.5613-3.7386 13.8263-11.8997v19.5775ZM6.72164 0C2.69048 0 0 2.68997 0 6.72036V41.2796C0 45.31 2.69048 48 6.72164 48H41.2784C45.3095 48 48 45.31 48 41.2796V6.72036C48 2.68997 45.3095 0 41.2784 0H6.72164Z"/>
</svg>
