<svg xmlns="http://www.w3.org/2000/svg" fill="none" viewBox="0 0 48 48">
  <path fill="#000" fill-rule="evenodd" d="M25.671 47.3078c-.4432.4432-1.0443.6923-1.671.6922-.6268-.0001-1.2278-.249-1.671-.6922-1.7782-1.7781-4.3381-4.338-4.3381-4.338h4.5059c.9314 0 1.8246-.37 2.4832-1.0286 2.9097-2.9096 10.9896-10.9896 10.9896-10.9896l.0486 6.0091s-7.045 7.0449-10.3472 10.3471ZM9.5253 36.3527c.6574.6573 1.549 1.0266 2.4787 1.0266h15.5442l-4.2147 4.2834H6.3373v-8.4981s1.9404 1.9404 3.188 3.1881Zm32.1374 5.31h-8.4981s1.9404-1.9404 3.1881-3.188c.6573-.6574 1.0266-1.549 1.0266-2.4787V20.4518l4.2834 4.2147v16.9962ZM.6922 25.671C.249 25.2278-.00009997 24.6267 3e-8 24 .00010003 23.3732.249 22.7722.6922 22.329c1.7781-1.7782 4.338-4.3381 4.338-4.3381v4.5059c0 .9314.37 1.8246 1.0286 2.4832 2.9096 2.9097 10.9896 10.9896 10.9896 10.9896l-6.0091.0486S3.9944 28.9732.6922 25.671ZM24 12.9834c6.0803 0 11.0166 4.9363 11.0166 11.0166S30.0803 35.0166 24 35.0166 12.9834 30.0803 12.9834 24 17.9197 12.9834 24 12.9834Zm23.3078 9.3456C47.751 22.7722 48 23.3733 48 24c0 .6268-.249 1.2278-.6922 1.671-1.7781 1.7782-4.338 4.3381-4.338 4.3381v-4.5059c0-.9314-.37-1.8246-1.0286-2.4832-2.9096-2.9097-10.9896-10.9896-10.9896-10.9896l6.0091-.0486s7.0449 7.045 10.3471 10.3472ZM6.3373 6.3373h8.4981s-1.9404 1.9404-3.1881 3.188c-.6573.6574-1.0266 1.549-1.0266 2.4787v15.5442l-4.2834-4.2147V6.3373Zm23.6718-1.3071h-4.5059c-.9314 0-1.8246.37-2.4832 1.0286-2.9097 2.9096-10.9896 10.9896-10.9896 10.9896l-.0486-6.0091S19.0268 3.9944 22.329.6922C22.7722.249 23.3733 0 24 0c.6268 0 1.2278.249 1.671.6922 1.7782 1.7781 4.3381 4.338 4.3381 4.338Zm11.6536 1.3071v8.4981s-1.9404-1.9404-3.188-3.1881c-.6574-.6573-1.549-1.0266-2.4787-1.0266H20.4518l4.2147-4.2834h16.9962Z" clip-rule="evenodd"/>
</svg>
