<svg xmlns="http://www.w3.org/2000/svg" fill="none" viewBox="0 0 48 48">
  <path fill="#000" d="m47.2134 12.1581.2367-.0602.0499 24.5569-7.0611-11.2319c-.7267-1.139-1.1723-2.44-1.2998-3.7924-.1295-1.3527.0647-2.7168.562-3.9768.4845-1.259 1.261-2.3792 2.2632-3.2643 1.0002-.8851 2.1983-1.5088 3.4871-1.8173l1.762-.414ZM42.2453.0376434c.6878.0018605 1.3664.1440026 2.0005.4180736.6324.274074 1.2056.674553 1.6844 1.177913.9855 1.02059 1.5347 2.39862 1.5273 3.83185v5.03642l-2.3223.5646-1.3349.3237c-1.2093.2983-2.4684.3088-3.6813.0307-1.2129-.278-2.3463-.8372-3.3152-1.63422-.8948-.73017-1.6326-1.64253-2.1669-2.67925-.5325-1.03674-.8487-2.17522-.9282-3.34332V0l8.5366.0376434ZM.529581 5.43537C.523664 4.01109 1.0715 2.64266 2.05292 1.6306 3.03416.618537 4.36872.0456099 5.76338.0376434H32.1907V3.13174c-.0148.22308-.0148.44693 0 .67001-.0832 1.16837-.4012 2.30674-.9337 3.34331-.5343 1.03659-1.2739 1.94885-2.1706 2.67926-.9633.79388-2.0931 1.35178-3.3004 1.63098-1.2074.2793-2.4608.2725-3.6654-.0199L.5 6.2936l.029581-.85823ZM5.76338 48c-1.39466-.008-2.72922-.5809-3.71046-1.593C1.0715 45.395.523664 44.0264.529581 42.6022V7.88957L20.263 12.6022c1.2933.3191 2.4929.9502 3.4984 1.8404 1.0058.8902 1.7861 2.0136 2.2797 3.276.4919 1.2623.6805 2.6268.551 3.9791-.1312 1.3523-.5768 2.6529-1.3016 3.7928l-.575.9109-13.5857 21.5834L5.76338 48ZM47.5 42.6322c-.0055 1.4192-.5584 2.7789-1.5402 3.7837C44.978 47.4208 43.6486 47.99 42.2601 48H12.9358l4.6366-7.3777 8.4114-13.3626c.7396-1.1831 1.7602-2.1568 2.9657-2.8317 1.2055-.6748 2.559-1.0293 3.9327-1.0304 1.3867.002 2.7513.3636 3.9623 1.051 1.2129.6872 2.2335 1.678 2.9676 2.8789l7.6805 12.2031.0074 3.1016Z"/>
</svg>
