<svg xmlns="http://www.w3.org/2000/svg" fill="none" viewBox="0 0 48 48">
  <path fill="#000" d="M11.411 12.8037c1.0503 0 1.9018-.8515 1.9018-1.9019C13.3128 9.85148 12.4613 9 11.411 9c-1.0504 0-1.90186.85148-1.90186 1.9018 0 1.0504.85146 1.9019 1.90186 1.9019Zm24.7237 8.4631v9.0337c0 1.9967 1.4802 3.5183 3.4233 3.5183 1.9237 0 3.4233-1.5218 3.4228-3.4602l.0004-9.0918c.0001-1.3129 1.0645-2.3772 2.3774-2.3773h2.3773v11.2208c0 4.5165-3.6614 8.1778-8.1779 8.1778-4.5165 0-8.1779-3.6613-8.1779-8.1778V18.8895h2.3773c1.313 0 2.3773 1.0643 2.3773 2.3773Z"/>
  <path fill="#000" fill-rule="evenodd" d="M25.1992 11.6626h2.3773v24.2483c0 1.3129-1.0644 2.3772-2.3773 2.3772h-2.3773V14.0398c0-1.3129 1.0644-2.3772 2.3773-2.3772Z" clip-rule="evenodd"/>
  <path fill="#000" d="m4.75457 11.6626-.00011 9.0272c1.50495-1.3634 3.42452-2.1807 5.51544-2.1807 4.8316 0 8.7484 4.3639 8.7484 9.7469 0 .0411-.0003.0821-.0007.123.0005.0382.0007.0764.0007.1147-.0007 5.5627-4.2574 9.7944-9.50917 9.7944-5.15907 0-9.358557-4.2317-9.50517029-9.509L0 28.779V14.0398c0-1.321 1.07666-2.3772 2.37728-2.3772h2.37729Zm4.65947 11.2207c-2.73091 0-4.94475 2.448-4.94475 5.4678 0 3.0197 2.21384 5.4677 4.94475 5.4677 2.73096 0 4.94476-2.448 4.94476-5.4677 0-3.0198-2.2138-5.4678-4.94476-5.4678Z"/>
</svg>
