<svg xmlns="http://www.w3.org/2000/svg" fill="none" viewBox="0 0 48 48">
  <path fill="#000" fill-rule="evenodd" d="M31.1885 18.3721h.3226c.1517 0 .2876-.1092.4076-.3276.2734.2701.5476.4051.8227.4051.1567-.115.3084-.3517.4551-.7101 0-.3418-.0683-.5902-.205-.7452-.1467-.1634-.3885-.2451-.7252-.2451-.1.1017-.2309.2976-.3926.5877-.1301.2333-.2267.35-.2901.35h-.3951c-.045-.295-.1492-.5218-.3126-.6801-.135-.1317-.285-.1976-.4501-.1976-.14.0767-.2642.2017-.3726.3751-.1617.2601-.2426.5777-.2426.9528.1684.1567.5277.235 1.0778.235-.1367.2584-.3001.4668-.4901.6252-.2117.1767-.5151.3451-.9102.5051.1217.0817.2767.1526.4651.2126.195.0633.3626.095.5026.095.4185-.4901.6627-.9694.7327-1.4379Zm-.5351-.8702c.0767.0817.1383.1734.185.2751-.0683.035-.155.0525-.2601.0525-.0816 0-.1642-.0117-.2475-.035-.1134-.0317-.1792-.075-.1976-.1301.0117-.0566.0409-.12.0876-.19.055-.0834.1058-.125.1525-.125.0917 0 .185.0508.2801.1525Zm2.168.3526c0 .03-.0016.0617-.005.095-.3334-.0767-.5651-.205-.6952-.3851.0351-.1284.1001-.225.1951-.2901.3368.0717.5051.2651.5051.5802Z" clip-rule="evenodd"/>
  <path fill="#000" d="m12.6053 17.1083.3129-.6782c-.1413-.0576-.2758-.0864-.4034-.0864-.524 0-.9093.4318-1.1558 1.2954-.0707.2473-.1061.4166-.1061.5081.0759.1117.2345.1938.4758.2463.2965.0644.5172.1465.662.2464-.1724.1067-.4396.2024-.8016.287-.3362.0779-.6172.1169-.843.1169-.5465 0-.8197-.2049-.8197-.6147 0-.2472.069-.497.2069-.7493-.0414-.0677-.1061-.0982-.194-.0915-.1034.1711-.1939.3683-.2715.5919-.0931.2658-.1396.4927-.1396.6807 0 .2946.0957.5173.287.668.1758.1372.4172.2058.724.2058.6637 0 1.3111-.1846 1.942-.5538.1465-.3877.2198-.701.2198-.9398 0-.1016-.0905-.1871-.2715-.2565l-.5068-.1423c-.1862-.0524-.2836-.1092-.2922-.1701.1758-.4115.4085-.6173.6981-.6173.0862 0 .1785.0178.2767.0534Zm1.4916 1.9146c.1811-.3522.2716-.6299.2716-.8331 0-.1676-.0496-.3615-.1487-.5817-.0992-.2201-.2125-.3844-.3401-.4927l-.3568.6782c.2413.1591.4008.3446.4784.5562-.0535.1761-.2241.3734-.512.5918-.2448.1863-.5232.3497-.8353.4903.0862.083.2293.1651.4293.2464.2.0812.3594.1219.4784.1219.1827-.1795.3611-.4386.5352-.7773Zm1.8585.5492.4163-.3861-.4008-.3962-.4241.381.4086.4013Zm1.7247-1.3818c.1207.1203.2509.1804.3905.1804.0983 0 .3155-.0415.6516-.1245.5603-.1388 1.0102-.2455 1.3498-.32l.3-.6401-.9749.2489c-.3516-.1473-.5456-.3861-.5818-.7163.1879-.1405.4396-.2108.7551-.2108.1482 0 .2724.0178.3723.0533.0328.0119.0561.0178.0699.0178.0258 0 .0232-.0262-.0078-.0787-.1879-.315-.4292-.4725-.724-.4725-.1862 0-.3965.1025-.631.3074-.2551.2218-.3827.4496-.3827.6832 0 .232.1035.4098.3103.5334-.1448.0153-.2405.0229-.287.0229h-.1914c-.1758 0-.3085-.0677-.3982-.2032-.0776-.1151-.1163-.2633-.1163-.4445h-.2198c0 .1558-.0405.2955-.1216.4191-.1.1524-.237.2286-.4111.2286h-.1526c-.1758 0-.3086-.0677-.3982-.2032-.0776-.1151-.1164-.2633-.1164-.4445h-.2198c0 .1558-.0405.2955-.1215.4191-.1.1524-.237.2286-.4111.2286-.1759 0-.2931-.0906-.3517-.2718-.0328-.1016-.0491-.2641-.0491-.4877v-.7493c0-.3014-.0035-.4987-.0104-.5918-.019-.2574-.0681-.4479-.1474-.5715l-.4732.4877c.081.1812.1362.3886.1655.6223.0155.1202.0284.3353.0388.6452.0224.6265.0672 1.0304.1345 1.2115.0999.2676.3146.4014.6438.4014h.075c.131 0 .262-.0618.3931-.1854.1258-.1186.1991-.243.2198-.3734.0275.1405.0974.2667.2094.3784.1207.1203.2508.1804.3905.1804h.2068c.1311 0 .2621-.0618.3931-.1854.1258-.1186.1991-.243.2198-.3734.0276.1405.0974.2667.2094.3784Z"/>
  <path fill="#000" d="m17.7939 16.3767.3569-.3505-.3802-.3353-.3309.3328-.3621-.3175-.3568.3581.3801.3277.331-.3277.362.3124Zm3.1388-.4445c0-.4047-.0224-.7154-.0672-.9322l-.6129.5233c.1535.4674.2302 1.1447.2302 2.032l.0026.9551.2611-.3861c.1242-.7942.1862-1.5249.1862-2.1921Z"/>
  <path fill="#000" fill-rule="evenodd" d="M26.3293 18.3721h.1327c.2418 0 .4485-.1692.6202-.5076.135.3384.3201.5076.5551.5076.3201 0 .5268-.17.6202-.5101.0217.135.08.2517.1751.3501.1.1067.2158.16.3475.16.1217 0 .2434-.0433.3651-.13.1134-.08.1993-.1776.2576-.2926.065-.1584.1109-.2784.1375-.3601.0584-.1784.0876-.2992.0876-.3626 0-.11-.0334-.2467-.1001-.4101-.06-.1484-.12-.2542-.18-.3176l-.3851.5052c.2134.3084.3201.4851.3201.5301-.1184.1017-.2768.1525-.4752.1525-.2684 0-.4026-.205-.4026-.6151h-.225c0 .145-.0309.2717-.0925.3801-.0901.1584-.2368.2375-.4402.2375-.3067 0-.4601-.2058-.4601-.6176h-.2225c0 .1317-.0275.2542-.0826.3676-.08.165-.2042.2475-.3725.2475h-.2526l.1398.005h-.075c-.2884 0-.4326-.2075-.4326-.6226h-.225c0 .1384-.0326.2651-.0976.3801-.0917.1617-.2292.2425-.4126.2425-.1617 0-.2709-.0675-.3276-.2025-.0366-.0867-.055-.2251-.055-.4151h-.225c0 .14-.0284.2651-.0851.3751-.0816.16-.2108.24-.3876.24-.265 0-.3976-.205-.3976-.6151h-.225c0 .145-.0367.2776-.1101.3976-.0883.145-.2092.2175-.3625.2175h-.0976v-.0025h-.04c-.1467 0-.2518-.11-.3151-.33-.0167-.0584-.055-.2943-.115-.7077-.045-.3118-.1117-.5318-.2001-.6602l-.2976.4451c.0434.1167.0717.2067.0851.2701-.3801.1417-.6719.3034-.8753.4851-.0516.1451-.1117.3451-.18.6002.17.235.5176.3526 1.0428.3526.0966-.1334.1717-.2985.225-.4952.105.4835.3026.7252.5927.7252h.1325c.2601 0 .4585-.1592.5952-.4776.0317.1167.0842.2176.1575.3026.1001.115.2209.1725.3626.1725.2401 0 .4285-.1675.5652-.5026.0733.3367.2434.5051.5101.5051.1667 0 .3109-.0633.4326-.19.1034-.1084.1692-.2334.1976-.3751.025.145.0892.2734.1925.3851.1134.12.2401.18.3801.18Zm-4.2511-1.3778.11.5551c-.0667.0083-.1392.0125-.2175.0125-.3101 0-.5143-.0608-.6127-.1825.2234-.2018.4634-.3301.7202-.3851Z" clip-rule="evenodd"/>
  <path fill="#000" d="M14.9642 30.7284h1.5676v.4568c0 .5565.4511 1.0075 1.0076 1.0076h.0019c.1253-.0001.2269-.1016.2268-.2269v-2.3435c0-.1377-.1116-.2494-.2494-.2494h-3.4573c-.1246 0-.2256.1011-.2256.2257V29.6c0 .6232.5052 1.1284 1.1284 1.1284Z"/>
  <path fill="#000" d="M28.7263 27.1192c-.6024.3405-1.2485-.0941-1.2091-1.156.6563-1.6278 1.3244-3.6252 1.6109-4.5012.0339-.1041.0159-.2182-.0485-.3067-.0643-.0886-.1672-.141-.2767-.141l-1.3053.0001c-.3106 0-.5819.2101-.6596.5108-.1125.4341-.2866 1.1009-.4807 1.8262-.4252 1.5894-.9767 3.4589-1.5232 3.7678-.5392.3047-1.1135-.0115-1.1997-.8426.7221-1.6675 1.4371-3.8863 1.7285-4.8192.0322-.1038.0131-.2168-.0515-.3042-.0645-.0875-.1668-.139-.2756-.1389l-1.3126.0001c-.3106 0-.5819.2101-.6596.5108-.1125.4341-.2866 1.1009-.4806 1.8262-.4253 1.5894-.9659 3.5354-1.7563 3.7451-1.3586.3603-2.016-.5146-1.9902-1.6498.5867-1.5134 1.15-3.1995 1.4069-3.9847.0339-.1041.0158-.2182-.0485-.3067-.0644-.0886-.1673-.141-.2768-.141l-1.3053.0001c-.3106 0-.5819.2101-.6596.5108-.1125.4341-.2866 1.1009-.4807 1.8262-.4252 1.5894-.9767 3.4589-1.5232 3.7678-.5806.3281-1.2871-.1395-1.3159-1.4151.622-1.5753 1.236-3.4121 1.5075-4.2421.0339-.1041.0159-.2182-.0485-.3067-.0643-.0886-.1672-.141-.2767-.141l-1.3053.0001c-.3107 0-.5819.2101-.6597.5108-.1125.4341-.2866 1.1009-.4806 1.8262-.4252 1.5894-.9767 3.4589-1.5232 3.7678-.6367.3598-1.4249-.2373-1.3046-1.8075.567-1.4762 1.104-3.0838 1.3529-3.8448.0339-.1041.0159-.2182-.0485-.3068-.0644-.0886-.1673-.141-.2768-.1409h-1.509c-.3106 0-.5819.2101-.6596.5109-.1125.4341-.2866 1.1009-.4806 1.8261-.4252 1.5894-1.1545 3.114-1.5196 3.7155-.5748.9468-1.3528 1.7254-2.2367 2.1147-1.4412.6346-3.388.4158-3.791-.4826-.941469-2.0987.47536-4.2305 1.36803-5.5736.33787-.5084.60066-.9037.63207-1.1416 0 0-.9107-.2159-1.1897.1579C.729397 24.095-.157603 26.3648.0232966 27.9478.362997 30.9192 3.8908 32.6127 7.1906 30.3425c1.5046-1.0353 2.0028-1.9227 2.6364-3.3038.1-.2179.2027-.4541.3064-.7025.0289.6014.2316 1.3806.6008 1.7941.3566.3994.9139.4866.9936.4879.9418.015 1.7113-.2032 2.345-1.5843.0615-.1341.124-.275.1871-.4215.0683.5473.262 1.1655.5767 1.5179.3566.3994.9139.4866.9936.4879.9418.015 1.7113-.2032 2.345-1.5843.104-.2268.211-.4733.3189-.7329.0791.6125.4213 1.4496.8048 1.8054.6051.5616 1.4154.5223 1.606.5131.0171-.0008.0292-.0014.0357-.0013.9418.015 1.7768-.4365 2.345-1.5843.0142-.0287.0285-.0578.0427-.0872-.0038.4159.1572.8589.3931 1.1836.3147.4331.9139.4866.9936.4879.9418.015 1.7113-.2032 2.345-1.5843.0796-.1736.1609-.3588.2431-.5524-.0066.0211-.0134.0421-.0201.0629-.1655.5092.016 1.1528.3307 1.5859.3146.4331.9139.4866.9935.4879.9418.015 1.7114-.2032 2.345-1.5843.7772-1.6939 1.7141-4.4893 2.0682-5.5719.0339-.1041.0158-.2182-.0485-.3067-.0644-.0886-.1673-.141-.2768-.141l-1.3053.0001c-.3106 0-.5819.2101-.6596.5108-.1125.4341-.2866 1.1009-.4806 1.8262-.4253 1.5894-.9767 3.4589-1.5233 3.7678Z"/>
  <path fill="#000" d="M13.076 29.373c.1378 0 .2494.1117.2494.2494v.8567c0 .1377-.1116.2493-.2494.2493h-2.8143c-.6232 0-1.1284-.5052-1.1284-1.1284v-.0013c0-.0598.0237-.1172.0661-.1596.0423-.0423.0997-.0661.1596-.0661h3.717Zm34.4447-11.52c-.1743.2336-.473.3379-.7548.2635-.8939-.1492-2.5589-.1459-4.3129.1804-1.9833.3689-3.3908 1.4158-4.2111 2.5961 5.3484-.56 4.3155 3.2622 3.2148 4.9957-1.493 2.3511-3.8077 2.8082-5.0904 2.821-.3411.0033-2.5578-.2204-3.1495-2.0742-.6017-1.885-.0679-3.7209.5464-5.5578.5474-1.6368 1.1409-2.8663 2.3328-4.8167.2424-.3999.6798-.6401 1.1474-.6298l.0606.0013c.5222.0111 1.1826.0252 1.6118.0345.0808.0017.1533.0499.1861.1238.0328.0738.02.1599-.0328.221-2.0855 2.4425-3.762 5.1784-4.0508 7.0929-.2775 1.8389.6307 3.6621 2.6788 3.6263 2.7558-.0481 4.2182-2.2889 3.908-2.9784-.6671-1.4826-3.5298-1.3695-4.8752-1.2158-.1471.011-.289-.0569-.3728-.1783-.0838-.1214-.097-.2781-.0347-.4118.5355-1.1238 1.2046-2.1247 2.0895-3.0189 1.4029-1.4177 3.5063-2.1921 5.1078-2.7033 1.2169-.3884 3.2487-.3934 4.1033-.3744.1069.0024.208.049.2791.1288.0712.0797.1061.1855.0963.2919-.0543.6219-.2006 1.1511-.4777 1.5822ZM7.7888 21.1673c.104.1485.129.3384.067.5088l-.4568 1.2552c-.2093.5751-.756.958-1.3681.958h-.3376c-.295 0-.5715-.1439-.7407-.3856-.1692-.2416-.2099-.5507-.109-.8279l.2668-.7331c.2212-.6078.7989-1.0124 1.4457-1.0124h.7775c.1813 0 .3512.0885.4552.237Z"/>
</svg>
