<svg xmlns="http://www.w3.org/2000/svg" fill="none" viewBox="0 0 48 48">
  <path fill="#313C4C" fill-rule="evenodd" d="M31.5111 18.3721h-.3226c-.07.4685-.3142.9478-.7327 1.4379-.14 0-.3076-.0317-.5026-.095-.1884-.06-.3434-.1309-.4651-.2126.3951-.16.6985-.3284.9102-.5051.19-.1584.3534-.3668.4901-.6252-.5501 0-.9094-.0783-1.0778-.235 0-.3751.0809-.6927.2426-.9528.1084-.1734.2326-.2984.3726-.3751.1651 0 .3151.0659.4501.1976.1634.1583.2676.3851.3126.6801h.3951c.0634 0 .16-.1167.2901-.35.1617-.2901.2926-.486.3926-.5877.3367 0 .5785.0817.7252.2451.1367.155.205.4034.205.7452-.1467.3584-.2984.5951-.4551.7101-.2751 0-.5493-.135-.8227-.4051-.12.2184-.2559.3276-.4076.3276Zm-18.5929-1.942-.3129.6782c-.0982-.0356-.1905-.0534-.2767-.0534-.2896 0-.5223.2058-.6981.6173.0086.0609.106.1177.2922.1701l.5068.1423c.181.0694.2715.1549.2715.2565 0 .2388-.0733.5521-.2198.9398-.6309.3692-1.2783.5538-1.942.5538-.3068 0-.5482-.0686-.724-.2058-.1913-.1507-.287-.3734-.287-.668 0-.188.0465-.4149.1396-.6807.0776-.2236.1681-.4208.2715-.5919.0879-.0067.1526.0238.194.0915-.1379.2523-.2069.5021-.2069.7493 0 .4098.2732.6147.8197.6147.2258 0 .5068-.039.843-.1169.362-.0846.6292-.1803.8016-.287-.1448-.0999-.3655-.182-.662-.2464-.2413-.0525-.3999-.1346-.4758-.2463 0-.0915.0354-.2608.1061-.5081.2465-.8636.6318-1.2954 1.1558-1.2954.1276 0 .2621.0288.4034.0864Zm1.4503 1.7597c0 .2032-.0905.4809-.2716.8331-.1741.3387-.3525.5978-.5352.7773-.119 0-.2784-.0407-.4784-.1219-.2-.0813-.3431-.1634-.4293-.2464.3121-.1406.5905-.304.8353-.4903.2879-.2184.4585-.4157.512-.5918-.0776-.2116-.2371-.3971-.4784-.5562l.3568-.6782c.1276.1083.2409.2726.3401.4927.0991.2202.1487.4141.1487.5817Zm2.0032.9962-.4163.3861-.4086-.4013.4241-.381.4008.3962Zm1.6989-.8153c-.1396 0-.2698-.0601-.3905-.1804-.112-.1117-.1818-.2379-.2094-.3784-.0207.1304-.094.2548-.2198.3734-.131.1236-.262.1854-.3931.1854h-.2068c-.1397 0-.2698-.0601-.3905-.1804-.112-.1117-.1819-.2379-.2094-.3784-.0207.1304-.094.2548-.2198.3734-.1311.1236-.2621.1854-.3931.1854h-.075c-.3292 0-.5439-.1338-.6438-.4014-.0673-.1811-.1121-.585-.1345-1.2115-.0104-.3099-.0233-.525-.0388-.6452-.0293-.2337-.0845-.4411-.1655-.6223l.4732-.4877c.0793.1236.1284.3141.1474.5715.0069.0931.0104.2904.0104.5918v.7493c0 .2236.0163.3861.0491.4877.0586.1812.1758.2718.3517.2718.1741 0 .3111-.0762.4111-.2286.081-.1236.1215-.2633.1215-.4191h.2198c0 .1812.0388.3294.1164.4445.0896.1355.2224.2032.3982.2032h.1526c.1741 0 .3111-.0762.4111-.2286.0811-.1236.1216-.2633.1216-.4191h.2198c0 .1812.0387.3294.1163.4445.0897.1355.2224.2032.3982.2032h.1914c.0465 0 .1422-.0076.287-.0229-.2068-.1236-.3103-.3014-.3103-.5334 0-.2336.1276-.4614.3827-.6832.2345-.2049.4448-.3074.631-.3074.2948 0 .5361.1575.724.4725.031.0525.0336.0787.0078.0787-.0138 0-.0371-.0059-.0699-.0178-.0999-.0355-.2241-.0533-.3723-.0533-.3155 0-.5672.0703-.7551.2108.0362.3302.2302.569.5818.7163l.9749-.2489-.3.6401c-.3396.0745-.7895.1812-1.3498.32-.3361.083-.5533.1245-.6516.1245Zm.0802-2.3445-.3569.3505-.362-.3124-.331.3277-.3801-.3277.3568-.3581.3621.3175.3309-.3328.3802.3353ZM20.8655 15c.0448.2168.0672.5275.0672.9322 0 .6672-.062 1.3979-.1862 2.1921l-.2611.3861-.0026-.9551c0-.8873-.0767-1.5646-.2302-2.032L20.8655 15Zm5.5965 3.3721h-.1327c-.14 0-.2667-.06-.3801-.18-.1033-.1117-.1675-.2401-.1925-.3851-.0284.1417-.0942.2667-.1976.3751-.1217.1267-.2659.19-.4326.19-.2667 0-.4368-.1684-.5101-.5051-.1367.3351-.3251.5026-.5652.5026-.1417 0-.2625-.0575-.3626-.1725-.0733-.085-.1258-.1859-.1575-.3026-.1367.3184-.3351.4776-.5952.4776h-.1325c-.2901 0-.4877-.2417-.5927-.7252-.0533.1967-.1284.3618-.225.4952-.5252 0-.8728-.1176-1.0428-.3526.0683-.2551.1284-.4551.18-.6002.2034-.1817.4952-.3434.8753-.4851-.0134-.0634-.0417-.1534-.0851-.2701l.2976-.4451c.0884.1284.1551.3484.2001.6602.06.4134.0983.6493.115.7077.0633.22.1684.33.3151.33h.04v.0025h.0976c.1533 0 .2742-.0725.3625-.2175.0734-.12.1101-.2526.1101-.3976h.225c0 .4101.1326.6151.3976.6151.1768 0 .306-.08.3876-.24.0567-.11.0851-.2351.0851-.3751h.225c0 .19.0184.3284.055.4151.0567.135.1659.2025.3276.2025.1834 0 .3209-.0808.4126-.2425.065-.115.0976-.2417.0976-.3801h.225c0 .4151.1442.6226.4326.6226h.075l-.1398-.005h.2526c.1683 0 .2925-.0825.3725-.2475.0551-.1134.0826-.2359.0826-.3676h.2225c0 .4118.1534.6176.4601.6176.2034 0 .3501-.0791.4402-.2375.0616-.1084.0925-.2351.0925-.3801h.225c0 .4101.1342.6151.4026.6151.1984 0 .3568-.0508.4752-.1525 0-.045-.1067-.2217-.3201-.5301l.3851-.5052c.06.0634.12.1692.18.3176.0667.1634.1001.3001.1001.4101 0 .0634-.0292.1842-.0876.3626-.0266.0817-.0725.2017-.1375.3601-.0583.115-.1442.2126-.2576.2926-.1217.0867-.2434.13-.3651.13-.1317 0-.2475-.0533-.3475-.16-.0951-.0984-.1534-.2151-.1751-.3501-.0934.3401-.3001.5101-.6202.5101-.235 0-.4201-.1692-.5551-.5076-.1717.3384-.3784.5076-.6202.5076Zm-4.2738-.8227-.11-.5551c-.2568.055-.4968.1833-.7202.3851.0984.1217.3026.1825.6127.1825.0783 0 .1508-.0042.2175-.0125Zm8.6502.2276c-.0467-.1017-.1083-.1934-.185-.2751-.0951-.1017-.1884-.1525-.2801-.1525-.0467 0-.0975.0416-.1525.125-.0467.07-.0759.1334-.0876.19.0184.0551.0842.0984.1976.1301.0833.0233.1659.035.2475.035.1051 0 .1918-.0175.2601-.0525Zm1.978.1725c.0034-.0333.005-.065.005-.095 0-.3151-.1683-.5085-.5051-.5802-.095.0651-.16.1617-.1951.2901.1301.1801.3618.3084.6952.3851Z" clip-rule="evenodd"/>
  <path fill="#FDB816" fill-rule="evenodd" d="M16.5318 30.7284h-1.5676c-.6232 0-1.1284-.5052-1.1284-1.1284v-.0013c0-.1246.101-.2257.2256-.2257h3.4573c.1378 0 .2494.1117.2494.2494v2.3435c.0001.1253-.1015.2268-.2268.2269h-.0019c-.5565-.0001-1.0076-.4511-1.0076-1.0076v-.4568Zm10.9854-4.7652c-.0394 1.0619.6067 1.4965 1.2091 1.156.5466-.3089 1.098-2.1784 1.5233-3.7678.194-.7253.3681-1.3921.4806-1.8262.0777-.3007.349-.5108.6596-.5108.3936-.0001.9264-.0001 1.3053-.0001.1095 0 .2124.0524.2768.141.0643.0885.0824.2026.0485.3067-.3541 1.0826-1.291 3.878-2.0682 5.5719-.6336 1.3811-1.4032 1.5993-2.345 1.5843-.0796-.0013-.6789-.0548-.9935-.4879-.3147-.4331-.4962-1.0767-.3307-1.5859.0067-.0208.0135-.0418.0201-.0629-.0822.1936-.1635.3788-.2431.5524-.6337 1.3811-1.4032 1.5993-2.345 1.5843-.0797-.0013-.6789-.0548-.9936-.4879-.2359-.3247-.3969-.7677-.3931-1.1836-.0142.0294-.0285.0585-.0427.0872-.5682 1.1478-1.4032 1.5993-2.345 1.5843-.0796-.0013-.9824.1001-1.6417-.5118-.3835-.3558-.7257-1.1929-.8048-1.8054-.1079.2596-.2149.5061-.3189.7329-.6337 1.3811-1.4032 1.5993-2.345 1.5843-.0797-.0013-.637-.0885-.9936-.4879-.3147-.3524-.5084-.9706-.5767-1.5179-.0631.1465-.1256.2874-.1871.4215-.6337 1.3811-1.4032 1.5993-2.345 1.5843-.0797-.0013-.637-.0885-.9936-.4879-.3692-.4135-.5719-1.1927-.6008-1.7941-.1037.2484-.2064.4846-.3064.7025-.6336 1.3811-1.1318 2.2685-2.6364 3.3038-3.2998 2.2702-6.8276.5767-7.1672996-2.3947C-.1576 26.3648.729401 24.095 2.1838 22.1465c.279-.3738 1.1897-.1579 1.1897-.1579-.1144.8663-3.2978995 3.8221-2.0001 6.7152.403.8984 2.3498 1.1172 3.791.4826.8839-.3893 1.6619-1.1679 2.2367-2.1147.3651-.6015 1.0944-2.1261 1.5196-3.7155.194-.7252.3681-1.392.4806-1.8261.0777-.3008.349-.5109.6596-.5109h1.509c.1095-.0001.2124.0523.2768.1409.0644.0886.0824.2027.0485.3068-.2489.761-.7859 2.3686-1.3529 3.8448-.1203 1.5702.6679 2.1673 1.3046 1.8075.5465-.3089 1.098-2.1784 1.5232-3.7678.194-.7253.3681-1.3921.4806-1.8262.0778-.3007.349-.5108.6597-.5108.3936-.0001.9263-.0001 1.3053-.0001.1095 0 .2124.0524.2767.141.0644.0885.0824.2026.0485.3067-.2715.83-.8855 2.6668-1.5075 4.2421.0288 1.2756.7353 1.7432 1.3159 1.4151.5465-.3089 1.098-2.1784 1.5232-3.7678.1941-.7253.3682-1.3921.4807-1.8262.0777-.3007.349-.5108.6596-.5108.3936-.0001.9264-.0001 1.3053-.0001.1095 0 .2124.0524.2768.141.0643.0885.0824.2026.0485.3067-.2569.7852-.8202 2.4713-1.4069 3.9847-.0258 1.1352.6316 2.0101 1.9902 1.6498.7904-.2097 1.331-2.1557 1.7563-3.7451.194-.7253.3681-1.3921.4806-1.8262.0777-.3007.349-.5108.6596-.5108.3962-.0001.9333-.0001 1.3126-.0001.1088-.0001.2111.0514.2756.1389.0646.0874.0837.2004.0515.3042-.2914.9329-1.0064 3.1517-1.7285 4.8192.0862.8311.6605 1.1473 1.1997.8426.5465-.3089 1.098-2.1784 1.5232-3.7678.1941-.7253.3682-1.3921.4807-1.8262.0777-.3007.349-.5108.6596-.5108.3936-.0001.9264-.0001 1.3053-.0001.1095 0 .2124.0524.2767.141.0644.0885.0824.2026.0485.3067-.2865.876-.9546 2.8734-1.6109 4.5012Zm-14.1918 3.6592c0-.1377-.1116-.2494-.2494-.2494H9.359c-.0599 0-.1173.0238-.1596.0661-.0424.0424-.0661.0998-.0661.1596V29.6c0 .6232.5052 1.1284 1.1284 1.1284h2.8143c.1378 0 .2494-.1116.2494-.2493v-.8567Zm33.4405-11.5059c.2818.0744.5805-.0299.7548-.2635.2771-.4311.4234-.9603.4777-1.5822.0098-.1064-.0251-.2122-.0963-.2919-.0711-.0798-.1722-.1264-.2791-.1288-.8546-.019-2.8864-.014-4.1033.3744-1.6015.5112-3.7049 1.2856-5.1078 2.7033-.8849.8942-1.554 1.8951-2.0895 3.0189-.0623.1337-.0491.2904.0347.4118.0838.1214.2257.1893.3728.1783 1.3454-.1537 4.2081-.2668 4.8752 1.2158.3102.6895-1.1522 2.9303-3.908 2.9784-2.0481.0358-2.9563-1.7874-2.6788-3.6263.2888-1.9145 1.9653-4.6504 4.0508-7.0929.0528-.0611.0656-.1472.0328-.221-.0328-.0739-.1053-.1221-.1861-.1238-.446-.0097-1.1416-.0245-1.6724-.0358-.4676-.0103-.905.2299-1.1474.6298-1.1919 1.9504-1.7854 3.1799-2.3328 4.8167-.6143 1.8369-1.1481 3.6728-.5464 5.5578.5917 1.8538 2.8084 2.0775 3.1495 2.0742 1.2827-.0128 3.5974-.4699 5.0904-2.821 1.1007-1.7335 2.1336-5.5557-3.2148-4.9957.8203-1.1803 2.2278-2.2272 4.2111-2.5961 1.754-.3263 3.419-.3296 4.3129-.1804ZM7.8558 21.6761c.062-.1704.037-.3603-.067-.5088-.104-.1485-.2739-.237-.4552-.237h-.7775c-.6468 0-1.2245.4046-1.4457 1.0124-.0859.2359-.1782.4895-.2668.7331-.1009.2772-.0602.5863.109.8279.1692.2417.4457.3856.7407.3856h.3376c.6121 0 1.1588-.3829 1.3681-.958.1482-.4071.3183-.8746.4568-1.2552Z" clip-rule="evenodd"/>
</svg>
