<svg xmlns="http://www.w3.org/2000/svg" fill="none" viewBox="0 0 48 48">
  <path fill="#008B9A" d="M9.03783 21.1567c-2.12998 0-4.02483 1.0815-5.08909 2.9385-1.04511 1.8237-1.07358 4.0618-.00098 5.881 1.03922 1.7629 3.00083 2.6963 5.01005 2.6963 6.21399 0 10.24759-6.3168 13.51449-11.4328.7454-1.1673 1.4509-2.2721 2.1332-3.2251.3814-.5327.7781-1.0497 1.1944-1.5456.561-.6685 1.1575-1.2993 1.8001-1.8776 2.3813-2.1449 5.3895-3.5762 9.5341-3.5909.0216-.0005.0437-.0005.0658-.0005v7.0146c-1.8797 0-3.6675.6896-5.4126 1.7986-.8144.5175-1.6195 1.1262-2.4201 1.7986-1.8381 1.544-3.5154 3.259-5.1929 4.9742-1.7924 1.8327-3.5851 3.6656-5.5744 5.2904-.6224.5082-1.2542.9869-1.8978 1.4254-.4732.3227-.9528.6244-1.4397.8996C13.342 35.2883 11.2267 36 9.00003 36c-1.94884-.0044-3.84173-.6283-5.40031-1.7986-.36474-.2737-.70836-.5749-1.02695-.8996C.981295 31.6797 0 29.4578 0 27.0073c0-.9403.144323-1.8462.411859-2.6982.570418-1.8134 1.700451-3.3795 3.187371-4.4959 1.55515-1.1674 3.45539-1.7986 5.4008-1.7986 2.40387.0063 4.68357.6989 6.80227 1.7986.9568.4964 1.887 1.0742 2.7976 1.7064.0442.0304.0884.0613.1326.0922.0387.0272.0845.055.1352.0856.0554.0335.1166.0705.1804.1141l.6451.438.0117.0083-1.7004 2.4579c-2.5517-1.8536-5.7268-3.559-8.96667-3.559Zm28.16207-3.1421v6.9213c2.1363.0074 3.8702 1.7604 3.8702 3.8695 0 2.1332-1.7348 3.8426-3.8545 3.869l-.0157.0005.0059-.0005c-.0102-.0032-.0223-.0027-.0339-.0022-.004.0001-.008.0003-.0118.0003v.0024c-.2361 0-.4722-.0147-.7074-.0353-3.1922-.6082-7.0247-3.8911-9.593-6.0924l-.0731-.0623-2.215 2.2136c3.8702 3.4099 8.9839 7.274 14.3812 7.3015h.0938c2.0082-.0103 3.8609-.6779 5.3537-1.7986.3647-.2737.7079-.5749 1.0264-.8996C47.0187 31.6797 48 29.4578 48 27.0068c0-.9393-.1443-1.8457-.4119-2.6977-.5704-1.8134-1.7004-3.3795-3.1878-4.4959-1.4928-1.1208-3.3455-1.7883-5.3537-1.7986h-1.8467Z"/>
</svg>
