<svg xmlns="http://www.w3.org/2000/svg" fill="none" viewBox="0 0 48 48">
  <path fill="#000" fill-rule="evenodd" d="M40.785 32.767C44.768 32.767 48 36 48 39.982c0 3.982-3.232 7.215-7.215 7.215-3.982 0-7.215-3.233-7.215-7.215 0-3.982 3.233-7.215 7.215-7.215ZM20.135 6.95l-7.897 40.247H-.00002289L20.135 6.95ZM34.55 1c-2.012 10.171-5.766 29.147-8.655 43.773-1.27 1.516-3.163 2.424-5.193 2.424h-7.445l8.501-43.321C23.014 2.09 25.074 1 27.299 1h7.251Zm1.02 0H48S35.852 25.272 29.128 38.71l-1.678 3.355C30.265 27.814 33.696 10.47 35.57 1ZM7.21497 1C11.197 1 14.43 4.233 14.43 8.215c0 3.982-3.233 7.215-7.21503 7.215-3.982 0-7.21499289-3.233-7.21499289-7.215C-.00002289 4.233 3.23297 1 7.21497 1Z" clip-rule="evenodd"/>
</svg>
