<svg xmlns="http://www.w3.org/2000/svg" fill="none" viewBox="0 0 48 48">
  <path fill="#000" d="M35.0839 7.8932C27.1874 6.7151 22.6112 6.1734 14.6313 6c18.5435 3.1427 20.5436 4.8772 32.7245 15.441l.0303.0263c-4.7059-6.3458-8.5726-10.168-12.3022-13.5741Z"/>
  <path fill="#000" d="M9.7183 10.913c7.8328-1.0794 12.9987-.7799 20.8951.3982 4.5953 3.9588 11.9161 11.8386 14.6999 19.1189C35.1028 19.5452 28.2771 14.0584 9.7183 10.913Z"/>
  <path fill="#000" d="M0 18.4603c7.6613-1.4806 16.1238-1.7374 25.8796-.6095 8.1928 8.7714 12.1048 16.1603 14.8886 23.4406C30.5577 30.4065 17.7556 22.0332 0 18.4603Z"/>
</svg>
