<svg xmlns="http://www.w3.org/2000/svg" fill="none" viewBox="0 0 48 48">
  <path fill="#4DA2E7" fill-rule="evenodd" d="M0 18.4603c7.6613-1.4806 16.1238-1.7374 25.8796-.6095 8.1928 8.7714 12.1048 16.1603 14.8886 23.4406C30.5577 30.4065 17.7556 22.0332 0 18.4603Z" clip-rule="evenodd"/>
  <path fill="#82BEEE" fill-rule="evenodd" d="M9.7183 10.913c7.8328-1.0794 12.9987-.7799 20.8951.3982 4.5953 3.9588 11.9161 11.8386 14.6999 19.1189C35.1028 19.5452 28.2771 14.0584 9.7183 10.913Z" clip-rule="evenodd"/>
  <path fill="#A6D0F3" fill-rule="evenodd" d="M14.6313 6c7.9799.1734 12.5561.7151 20.4526 1.8932 3.7296 3.4061 7.5963 7.2283 12.3022 13.5741C35.1782 10.8801 33.1902 9.1453 14.6313 6Z" clip-rule="evenodd"/>
</svg>
