<svg xmlns="http://www.w3.org/2000/svg" fill="none" viewBox="0 0 48 48">
  <path fill="#B11116" fill-rule="evenodd" d="M4.3103 31.4657 12 44.7846h5.7339l-7.6597-13.2053 1.4612-2.5308 9.0852 15.7361H36l2.8706-4.972-15.2874.0063L14.4502 24l3.3252-5.7595h-5.8295L4.3103 31.4657Zm36 5.8532L48 24l-2.8669-4.9657-7.6063 13.2361h-2.9223l9.0852-15.7361L36 3.21539h-5.7411L37.908 16.4515l-9.1331 15.8189h-6.6505l2.9148 5.0485h15.2711ZM25.8601 10.6811 24.399 8.15019l-15.2659.0309L12 3.21539h15.3794L35.015 16.4406l-2.9148 5.0485-3.3253-5.7595H10.5088L2.8706 28.972 0 24l7.6897-13.3189h18.1704Z" clip-rule="evenodd"/>
  <path fill="#00A1BF" fill-rule="evenodd" d="M24 18.2604c3.2169 0 5.8287 2.6118 5.8287 5.8287 0 3.2169-2.6118 5.8287-5.8287 5.8287-3.2169 0-5.8287-2.6118-5.8287-5.8287 0-3.2169 2.6118-5.8287 5.8287-5.8287Z" clip-rule="evenodd"/>
</svg>
