<svg xmlns="http://www.w3.org/2000/svg" fill="none" viewBox="0 0 48 48">
  <path fill="#000" fill-rule="evenodd" d="M24 48.0045c-13.2548 0-24-10.7461-24-24.0022C0 10.7462 10.7452 0 24 0s24 10.7462 24 24.0023c0 13.2561-10.7452 24.0022-24 24.0022Zm-8.4904-33.0666h-2.2494c-.8387 0-1.5185.6799-1.5185 1.5185 0 .8387.6798 1.5187 1.5185 1.5187h2.2494c.8384 0 1.5183-.68 1.5183-1.5187 0-.8386-.6799-1.5185-1.5183-1.5185Zm0 9.1116h-2.2494c-.8387 0-1.5185.6799-1.5185 1.5185s.6798 1.5188 1.5185 1.5188h2.2494c.8384 0 1.5183-.6802 1.5183-1.5188 0-.8386-.6799-1.5185-1.5183-1.5185Zm0 9.1116h-2.2494c-.8387 0-1.5185.6798-1.5185 1.5185 0 .8386.6798 1.5187 1.5185 1.5187h2.2494c.8384 0 1.5183-.6801 1.5183-1.5187 0-.8387-.6799-1.5185-1.5183-1.5185Zm19.8522-18.2249H20.2335c-.8384 0-1.5182.6798-1.5182 1.5184 0 .8387.6798 1.5188 1.5182 1.5188h15.1283c.8387 0 1.5185-.6801 1.5185-1.5188 0-.8386-.6798-1.5184-1.5185-1.5184Zm0 9.1115H20.2335c-.8384 0-1.5182.6799-1.5182 1.5185s.6798 1.5187 1.5182 1.5187h15.1283c.8387 0 1.5185-.6801 1.5185-1.5187 0-.8386-.6798-1.5185-1.5185-1.5185Z" clip-rule="evenodd"/>
</svg>
