<svg xmlns="http://www.w3.org/2000/svg" fill="none" viewBox="0 0 48 48">
  <path fill="#1471EA" d="M47.4719 16.0446H9.44729l.33608-3.6642c.14403-1.109.86423-1.8804 1.96843-1.8804h34.6638c.8162 0 1.5844.675 1.5844 1.4946l-.2401 3.2304c-.0089.0988-.0145.1892-.0196.271-.0221.357-.034.5486-.2684.5486Z"/>
  <path fill="#1471EA" fill-rule="evenodd" d="M14.2964 26.9893c1.1522 0 1.9204-.675 1.9204-1.8804 0-.6268-.4321-1.0607-.8642-1.3018-.5535-.2382-3.3213-.1858-5.84805-.1379-2.07552.0393-3.9885.0755-4.37823-.0549-.4321-.0964-.76818-.675-.57613-1.3018.09602-.4339.57613-.8679 1.20027-.8679H47.1838c0 .2112-.0114.3768-.023.5466-.0123.1791-.025.3632-.025.6106-.0185.3346-.0656.7193-.1164 1.1349-.081.6622-.1717 1.4033-.1717 2.1437 0 .3375-.048.7714-.096 1.1571-.048.3375-.096.8196-.096 1.1089-.121.9478-.2054 2.1406-.2901 3.3375-.0833 1.1777-.167 2.3597-.286 3.3161-.0405.2709-.0582.4885-.0734.6753-.039.4781-.0615.7543-.4067 1.2051-.2881.4339-.8162.8196-1.5364.8196H9.39928c-.52812 0-.9122-.1929-1.20027-.4339-.57479-.4618-.50731-1.2307-.43224-2.0862.01899-.2163.03846-.4382.04815-.662l.4321-4.8215H1.09341c-1.53635 0-1.392318-2.3625.04801-2.4589 3.57939-.1692 7.78669-.1158 11.58518-.0675h.0037c.531.0067 1.0539.0134 1.5661.0193Zm24.1494.8678h3.2168l.24-3.2785h-3.1687l-.2881 3.2785Z" clip-rule="evenodd"/>
  <path fill="#1471EA" d="M1.28545 16.0446h4.94512c.38408 0 .67215-.1928.86419-.3375.76818-.675.38409-1.9285-.4321-1.9285H1.23744c-1.1522611.0964-1.536348 2.266.04801 2.266Z"/>
</svg>
