<svg xmlns="http://www.w3.org/2000/svg" fill="none" viewBox="0 0 48 48">
  <path fill="#4C2A93" fill-rule="evenodd" d="M31.5192 34.5659C9.96166 52.8208-11.4402 25.1039 7.01292 6.4251c-8.59279 20.251 7.21348 35.5767 24.50628 28.1408Zm2.9714-18.3708c18.5633 21.3073-8.7209 43.2237-27.65544 25.0356C27.1734 49.5079 42.1936 33.4072 34.4906 16.1951ZM16.4018 13.314C37.8413-5.08003 59.4213 22.4975 41.089 41.2956c8.462-20.3064-7.4427-35.5292-24.6872-27.9816Zm-3.5856 17.2897C-3.64892 7.6279 25.5846-11.5966 42.7142 8.30929 23.2501-1.86357 6.77522 12.7371 12.8162 30.6037Z" clip-rule="evenodd"/>
  <path fill="#F10B7C" fill-rule="evenodd" d="M24 33c4.957 0 9-4.0429 9-8.9999C33 19.043 28.957 15 24 15s-9 4.043-9 9.0001C15 28.9571 19.043 33 24 33Z" clip-rule="evenodd"/>
</svg>
