<svg xmlns="http://www.w3.org/2000/svg" fill="none" viewBox="0 0 48 48">
  <path fill="#000" fill-rule="evenodd" d="M6.12245 41.8776H22.322L25.5216 48H0V0h48v48H35.963l-3.1996-6.1224-9.7482-18.7061h8.1923l10.6701 20.3656V26.1087c-.3778 3.2312-1.6127 6.2021-3.4711 8.679l-6.5933-12.6162h-10.449L30.99 40.5903c-.3281.1385-.6612.2676-.9988.3869l-9.8279-18.8057H12l10.322 19.7061c-8.4524-.7829-15.21828-7.3752-16.19955-15.7689v15.7689Zm0-19.9863C7.087 13.6407 13.6407 7.087 21.8913 6.12245H6.12245V21.8913ZM26.1087 6.12245C34.3593 7.087 40.913 13.6407 41.8775 21.8913V6.12245H26.1087ZM13.6509 23.1715h5.9066L32.5155 48h-5.8996l-12.965-24.8285Z" clip-rule="evenodd"/>
</svg>
