<svg xmlns="http://www.w3.org/2000/svg" fill="none" viewBox="0 0 48 48">
  <path fill="url(#a)" fill-rule="evenodd" d="M.00963531 22.7715C.297889 20.3238 5.38693 14.5274 10.9476 9.56011 16.6984 4.42314 25.1687.0221349 27.6524.00005958 30.0448-.0211256 34.9037 5.61094 39.8853 11.4508c1.3648 1.5999 3.2643 3.8799 5.0274 6.039 1.5395 1.8853 3.0446 3.6471 3.0858 5.1927.0759 2.8303-2.7828 3.1299-15.9907 14.533-4.2742 3.6902-8.4263 7.5527-11.0066 9.8772-.7164.6473-1.6682.9716-2.6316.8967-.9634-.075-1.8535-.5426-2.4607-1.2928-2.2941-2.8264-5.7312-7.0839-7.77518-9.726C4.83361 32.7043-.25097 24.9858.00963531 22.7715ZM15.9432 45.1798s.0606.037.1623.0993c1.3076.8001 2.9788.6895 4.1691-.2759 1.7989-1.462 4.4141-3.5802 6.056-4.8783 4.1653-3.2932 16.9533-13.2666 16.9533-13.2666-3.3875 2.6401-17.2597 15.2225-23.2692 19.8181-.6255.3949-1.3863.5147-2.1032.3317-.717-.183-1.3267-.6528-1.6854-1.2989-.0955-.1725-.1898-.3491-.2829-.5294Zm-.4581-2.1442s.0954.0584.2479.1517c1.2674.7756 2.8813.6977 4.0677-.1966 5.5036-4.1476 20.6595-15.57 20.6595-15.57-3.365 2.6227-15.2835 13.0048-20.8918 17.1434-.6244.3928-1.3834.5119-2.0985.3296-.7153-.1823-1.3239-.65-1.6835-1.2934-.1014-.1839-.202-.3722-.3013-.5647Zm-.5077-2.1426s.1208.0739.3075.1882c1.2376.7574 2.8091.7022 3.9903-.1399 5.093-3.6303 18.4086-13.1218 18.4086-13.1218-3.3402 2.6032-13.4138 10.9543-18.612 14.6375-.6236.3897-1.3799.5074-2.0926.3258-.713-.1818-1.3202-.6468-1.6803-1.2871-.1076-.1964-.2153-.397-.3215-.6027Zm-.3961-2.0127s.1353.0828.341.2086c1.2205.747 2.7677.7045 3.9453-.1082 4.5252-3.123 15.4082-10.6338 15.4082-10.6338-3.3276 2.5934-11.063 8.871-15.6449 12.0128-.6122.3815-1.3521.5017-2.0536.3334-.7016-.1682-1.3061-.6108-1.6776-1.2282-.1049-.1878-.2134-.381-.3184-.5846ZM1.85136 19.917s-.15804.3904-.34676.8567c-.39903.985-.34248 2.0955.15429 3.0353.6475 1.2186 1.62821 3.0388 2.6783 4.8903C6.1377 31.874 11.9898 40.4499 11.9898 40.4499c-2.1303-2.8139-4.33198-5.6436-6.42575-8.6581-1.5977-2.3005-3.12994-4.7906-4.711772-7.6758-.278443-.5088-.384576-1.0937-.302702-1.6676.088296-.637.245087-1.2311 1.301784-2.5314ZM14.2027 36.7445s.2098.1107.5038.2661c1.1362.6003 2.5067.5532 3.5989-.1242 3.845-2.3843 12.6409-7.8387 12.6409-7.8387-3.2818 2.5577-8.7236 6.6541-12.6843 9.2189-.6097.376-1.3444.4937-2.0413.3269-.6971-.1667-1.2986-.6039-1.6714-1.2149-.1139-.2033-.232-.4125-.3466-.6341ZM3.0586 19.1444s-.16857.4655-.35836.9896c-.33695.9308-.27612 1.9589.16821 2.8435.62039 1.2209 1.59485 3.087 2.67598 4.9491 1.48569 2.5588 5.51217 8.9941 5.51217 8.9941-2.13036-2.8139-2.19154-2.8872-4.28531-5.9017-1.60573-2.3121-3.01774-4.696-4.5878-7.581-.2458-.4516-.35657-.9642-.31929-1.4769.04941-.7434.0478-1.4059 1.1944-2.8167Zm10.5962 15.4032s.1389.0933.3464.2325c1.1188.7508 2.5632.8177 3.7471.1738 3.3073-1.7995 9.7139-5.2851 9.7139-5.2851-3.1873 2.3555-6.4031 4.5165-9.637 6.5541-.6134.3852-1.3566.5075-2.0613.3391-.705-.1684-1.312-.6133-1.6841-1.2341-.143-.2549-.2877-.5141-.425-.7803ZM4.46937 18.3749s-.16857.4656-.35818.9897c-.33713.9307-.2763 1.9588.16821 2.8434.62038 1.2211 1.40969 3.0326 2.49082 4.8945 1.48569 2.5588 4.96948 8.7111 4.96948 8.7111-2.07552-2.8493-2.50576-3.6462-4.43863-6.7659-1.48569-2.3982-2.1496-3.3179-3.6574-6.1069-.26846-.496-.49-1.4061-.4174-1.9651.08526-.6855.15822-1.2657 1.2431-2.6008Zm8.72773 14.0366s.1354.0927.3348.2293c.9985.6836 2.2737.8228 3.3968.3706 2.6531-1.0679 7.3059-2.941 7.3059-2.941s-4.2777 2.5378-6.901 4.0941c-1.2711.7543-2.9138.3443-3.6797-.9181-.1539-.2722-.3095-.5495-.4568-.8349ZM5.92009 17.572s-.20888.4528-.35836.9897c-.30448 1.094-.27826 1.9848.06422 2.7874.53762 1.2595 1.03832 2.2059 2.05827 4.1791 1.38454 2.6788 4.30558 8.4999 4.30558 8.4999-2.07554-2.8493-5.38778-9.1014-6.89541-11.8904-.26845-.4958-.49-1.4059-.41758-1.9649.08527-.6855.1584-1.2659 1.24328-2.6008Zm23.60271-7.4728c-.1123-.46485-.4179-.85971-.8399-1.08599-.4221-.22609-.9206-.26205-1.371-.0988C23.67 10.2348 15.4005 13.2328 12.0997 14.4295c-.8114.2943-1.2986 1.1226-1.1605 1.9733.5109 3.1439 1.7151 10.5561 2.3308 14.3457.0942.58.4379 1.0901.9408 1.3959.5026.3059 1.1143.3771 1.6742.1948 3.9721-1.2928 12.178-3.9639 15.8201-5.1494 1.0213-.3326 1.615-1.3931 1.3628-2.4354-.8514-3.52-2.6974-11.1511-3.5451-14.6552ZM7.47605 16.6418c-.21833.4476-.39082.9516-.51193 1.4955-.18391.8258-.14021 1.5652.20227 2.3677.53762 1.2596.8653 1.977 1.79428 3.9944 1.25293 2.721 2.77903 6.1423 2.77903 6.1423-2.24837-3.4179-3.54515-6.2448-5.05296-9.0338-.26845-.496-.5419-1.7199-.46948-2.2791.08544-.6856.17392-1.3521 1.25879-2.687Zm1.60805-.8703c-.21815.4475-.39082.9515-.51193 1.4956-.18391.8258-.04085 1.5298.20245 2.3677.40902 1.4093 2.79118 8.1847 2.79118 8.1847-2.10158-4.1089-2.22537-4.6442-3.36127-7.1491-.23277-.5136-.5089-1.6371-.43648-2.1961.08526-.6858.23117-1.3678 1.31605-2.7028Zm23.9666 11.331s.0931-.1351.2298-.3341c.6849-.9966.9331-2.3765.5485-3.5225-.9756-2.9064-2-6.6041-2-6.6041s2.5331 5.4503 2.8892 6.4539c.4971 1.4014.434 2.7865-.8309 3.5509-.2727.1536-.5506.3089-.8366.4559Zm1.9545-.2442s.0931-.1351.2297-.334c.685-.9968.9843-2.4171.5039-3.5264-1.2247-2.8286-4.7925-10.6666-4.7925-10.6666s5.3728 9.4392 5.7358 10.4402c.6405 1.7671.4247 2.8664-.8403 3.6309-.2728.1536-.5507.3088-.8366.4559Zm2.0012-.2516s.0929-.1351.2297-.3341c.685-.9966.9736-2.5538.5039-3.5264-1.5584-3.2264-6.7937-12.85157-6.7937-12.85157s7.3064 11.25467 7.737 12.62527c.5631 1.7931.3091 2.7356-.8404 3.6309-.2468.1923-.5506.3089-.8365.4559Zm2.0732-.2188s.093-.1353.2298-.3341c.6849-.9966.9826-2.6263.5039-3.5264C37.9785 19.0781 30.45 7.06827 30.45 7.06827S40.2819 20.8444 40.8423 22.2832c.6823 1.7512.2234 2.7535-.9261 3.6488-.2469.1923-.5506.3089-.8366.4559Zm1.8781-.2321s.093-.1351.2296-.3342c.685-.9966 1.0362-2.6567.5039-3.5263C38.9562 17.827 30.45 5.25934 30.45 5.25934 31.6423 6.53294 40.9677 18.6107 42.7203 22.051c.8533 1.6751.2233 2.7536-.9262 3.6489-.2468.1922-.5504.3088-.8364.4559Zm2.1885-.3085s.0929-.1353.2296-.3342c.6851-.9968.9546-3.0423.3539-3.8664C40.2845 16.9212 30.45 3.76052 30.45 3.76052 32.3126 5.59349 42.5283 18.2407 44.9089 21.7423c.6661.9799.2232 2.7537-.9263 3.6489-.2469.1922-.5504.309-.8364.4561ZM30.1245 2.18338c-.0252-.01958-.0496-.03827-.0731-.0559.0075-.00142.0322.01763.0731.0559C32.8936 4.33627 44.7566 17.8124 46.9087 21.4233c.6287 1.0552.2233 2.7537-.9261 3.6488-.2469.1923-.5507.3091-.8366.4561 0 0 .0929-.1353.2297-.3341.685-.9968 1.0617-2.6316.4381-3.6189-2.9847-4.7265-14.6405-18.40911-15.6893-19.39182ZM10.7011 14.9367c-.2182.4476-.3768.8253-.4979 1.3694-.1839.8257-.1627 1.4288-.001 2.286.3792 2.0117.8544 5.0496.8544 5.0496-.8687-2.7655-.9237-2.9307-1.25882-4.0469-.16214-.54-.52585-1.4638-.45343-2.0228.08526-.6857.14127-1.2837 1.35675-2.6353Zm-4.49561.1754C12.259 7.81972 24.2256.32674 27.4622.440678c.979.034537 1.7112.995882 1.7112.995882s-.8988-.38472-1.7112-.38899c-3.4287-.0178-14.9863 7.42409-21.25671 14.06453Zm1.9689-.9662C13.5756 8.31143 24.2256 1.39757 27.4622 1.51151c.979.03454 1.586.88978 1.586.88978s-.7736-.27861-1.586-.28289c-3.4287-.0178-12.7466 6.18626-19.28781 12.0275Zm1.16051-.1517C14.6603 8.74546 24.5405 2.47998 27.4622 2.55048c1.1147.02688 1.4629.87535 1.4629.87535s-.6505-.26401-1.4629-.26846c-3.131-.01745-11.5931 5.59842-18.1273 10.83683Zm1.7217-.5713c5.0535-4.69061 13.8197-9.88865 16.4579-9.71258 1.1125.07424 1.4629.87536 1.4629.87536s-.6507-.25476-1.4629-.26847c-2.6287-.04486-9.7223 4.24079-16.4579 9.10569Zm2.1405-.7535c5.4541-4.20629 12.2536-7.92652 14.3174-7.8432 1.1141.04486 1.4629.87518 1.4629.87518s-.6525-.21257-1.4629-.26847c-1.4823-.10219-7.6747 2.93869-14.3174 7.23649Zm2.7461-.8008c4.8098-3.23031 9.5075-5.78856 11.5713-5.70524 1.1141.04504 1.4629.75715 1.4629.75715s-.5876-.12907-1.5152-.14349c-1.4856-.02297-5.3348 1.72116-11.519 5.09158Zm2.6681-.6087c3.3119-2.17405 7.1104-3.77612 8.9032-3.77612 1.115 0 1.4629.75697 1.4629.75697s-.5901-.2147-1.5152-.14331c-1.841.14225-5.0134 1.46552-8.8509 3.16246Z" clip-rule="evenodd"/>
  <defs>
    <linearGradient id="a" x1="48.0002" x2=".00018311" y1="22.7891" y2="22.7891" gradientUnits="userSpaceOnUse">
      <stop stop-color="#007773"/>
      <stop offset="1" stop-color="#0ED068"/>
    </linearGradient>
  </defs>
</svg>
