<svg xmlns="http://www.w3.org/2000/svg" fill="none" viewBox="0 0 48 48">
  <path fill="#000" fill-rule="evenodd" d="M25.9 2.6h2.824v5.5l4.991-.006L36.619 11h-1.74l-1.3 2.245 1.117.005.007 1.641 1.833.011-.008 2.458 1.874-.006-.019 3.475c.4158.0895.801.2864 1.117.571.0799.069.1535.145.22.227.1011.1272.1858.2666.252.415l.023.054.014.037h.165c.1813.0115.3602.0451.533.1.0962.0311.1901.0688.281.113.6801.3815 1.213.9803 1.513 1.7.057.119.11.24.161.361l.03.075s.227.556.327.838c.105.248.1874.5051.246.768l-.636.2s-.3369-.6398-.853-.64h-3.71l-.64.986h2.222v1.63h1.429V30.1h-1.435v1.244h-2.269l-.006.814h-1.842l.009 9.253-7.822.008v3.631H25.94V48h-3.88v-2.942h-1.767v-3.631l-7.822-.008.009-9.253h-1.843l-.006-.814H8.35501v-1.244h-1.428v-1.854h1.428v-1.63H10.577l-.63999-.986h-3.71c-.5161.0002-.853.64-.853.64l-.636-.2c.0586-.2629.141-.52.246-.768.1-.283.327-.838.327-.838l.03-.075c.051-.122.1-.243.161-.361.3-.7197.8329-1.3185 1.513-1.7.0909-.0442.1848-.0819.281-.113.1729-.055.3519-.0885.533-.1h.165l.015-.037.023-.054c.0662-.1484.1509-.2878.252-.415.0657-.0784.1379-.151.216-.217.3146-.283.6975-.4791 1.111-.569l-.019-3.475 1.87299.006-.005-2.462 1.833-.011.007-1.641 1.117-.005L13.121 11h-1.74l2.9-2.907 4.991.006v-5.5H22.1V0h3.8v2.6Zm.99 41.658v-2.839h-1.768v1.628h-2.243v-1.628h-1.768v2.839h1.764V47.2h2.25v-2.942h1.765Zm7.805-3.639-.001-8.9H13.306v8.9h21.389Zm-3.523-1.069c.0092.0494.0054.1005-.011.148-.0207.062-.0472.1219-.079.179-.0375.0688-.0869.1305-.146.182-.0236.0286-.0565.0481-.093.055-.0377-.0127-.0719-.0339-.1-.062-.042-.0347-.086-.0703-.132-.107-.0351-.0265-.0685-.0553-.1-.086-.0225-.0167-.0379-.0414-.043-.069.028-.059.05-.105.064-.137.048-.1013.0837-.1747.107-.22.0427-.0667.0857-.1377.129-.213l.043-.062c.0132.0127.0276.024.043.034l.057.034c.0724.0529.1394.1129.2.179.0334.0417.0554.0913.064.144l-.003.001Zm-5.356-.992c.3226.0009.6445-.0302.961-.093.2804-.0547.5564-.1295.826-.224.2438-.0877.4746-.2081.686-.358.1998-.1378.3801-.302.536-.488.0427-.0553.1093-.1423.2-.261.043-.06.074-.1.093-.124.019-.024.024-.019.029-.014.0057.0078.0082.0174.007.027l-.007.076c-.0047.0413-.0153.1297-.032.265-.0155.1187-.0239.2383-.025.358-.0059.1785.0243.3565.089.523.0515.1319.1837.2157.325.206.1 0 .1977-.0743.293-.223.1132-.1951.1929-.4077.236-.629l.018-.089c.0061-.0273.0097-.0551.011-.083 0-.046-.012-.069-.036-.069-.024 0-.035.021-.046.062-.011.041-.023.078-.032.11-.052.142-.1117.213-.179.213-.0785.0022-.1559-.0194-.222-.062-.1148-.0958-.1739-.2434-.157-.392v-.107c0-.0827.0073-.2053.022-.368.016-.1807.0373-.3607.064-.54l.15-.722c.0067-.0353.0137-.0707.021-.106l.167-.113.668-.506c.1913-.1233.382-.248.572-.374.1647-.1093.3267-.222.486-.338.2573-.188.4503-.3313.579-.43.1713-.1333.293-.2293.365-.288.072-.0587.1423-.123.211-.193.086-.082.1683-.167.247-.255.0705-.0812.135-.1674.193-.258.058-.0787.1039-.1657.136-.258.0096-.0167.0144-.0357.014-.055 0 .008-.1787.1593-.536.454-.186.1573-.3743.3127-.565.466-.2047.1627-.4143.3203-.629.473-.304.212-.609.4227-.915.632-.2952.2094-.5781.4358-.847.678-.0639.055-.1195.119-.165.19-.0087.0119-.0167.0242-.024.037-.0326.0549-.062.1117-.088.17l-.032.063c-.0606.1131-.1131.2304-.157.351l-.1.392c-.0499.1816-.1297.3536-.236.509-.1474.1954-.335.357-.55.474-.5887.3252-1.2442.511-1.916.543-.162.014-.3787.021-.65.021-.3265.0447-.6585-.0283-.936-.206-.059-.0655-.0942-.149-.1-.237-.007-.09-.018-.134-.032-.134-.038 0-.0677.078-.089.234-.021.1504-.0316.3021-.032.454-.0108.1387.0286.2768.111.389.1159.1044.2626.1683.418.182.1654.0259.3326.0376.5.035l.101.01Zm-2.115-1.079v.006c.1-.098.1593-.158.178-.18.0745-.0845.135-.1803.179-.284.0578-.1444.0997-.2946.125-.448.0299-.1419.0476-.2861.053-.431v-.378c0-.132.0083-.2653.025-.4 0-.125.007-.2.007-.234v-.017c.015-.008.034-.02.056-.034l.211-.144.511-.346c.2-.1287.3973-.2587.592-.39.1707-.114.3373-.232.5-.354.2667-.2.4667-.3507.6-.452.1787-.138.3053-.238.38-.3.0747-.062.1487-.1307.222-.206.0907-.0873.1777-.178.261-.272.0755-.088.1446-.1813.207-.279.0629-.0862.1134-.1808.15-.281.0106-.0186.0164-.0396.017-.061 0 .0093-.187.1697-.561.481-.1947.1667-.3913.3313-.59.494-.2133.172-.4317.3387-.655.5-.3153.222-.6317.4423-.949.661-.2439.1619-.4777.3385-.7.529-.0674.0582-.1263.1255-.175.2-.048.0745-.0904.1523-.127.233l-.012.028v.006l-.242.561c-.0226.0563-.0348.1163-.036.177-.0047.078-.007.1683-.007.271l.007.448c.0067.1461-.0175.2919-.071.428-.0222.0463-.0497.09-.082.13-.0226.0303-.0504.0563-.082.077l-.043.02c-.0339.0039-.0682-.0006-.1-.013-.024.036-.048.069-.072.1-.038.0501-.0903.0874-.15.107-.0283.0154-.0636.01-.086-.013-.033.031-.064.063-.093.094-.0449.0478-.1065.0764-.172.08-.0646.0003-.1291-.0043-.193-.014-.1053.0713-.208.1427-.308.214-.0852.0547-.1848.0825-.286.08-.1699.0148-.3349-.0648-.429-.207-.057-.1043-.084-.2223-.078-.341 0-.054 0-.14.014-.261.012-.1433.0287-.286.05-.428l.122-.816.029-.174c.0084-.035.0108-.0712.007-.107l-.029.013c-.0427.0847-.0997.2093-.171.374-.0713.1647-.1093.256-.114.274-.0333.2187-.0763.534-.129.946-.0527.412-.079.6453-.079.7.0011.0616.0058.123.014.184.0049.0582.0166.1156.035.171.0499.2076.2375.3548.451.354.1975-.0094.3765-.1209.472-.294.1333-.196.2407-.294.322-.294l.1.01c.0272.0036.0548.0036.082 0 .0515-.0198.0987-.0494.139-.087.0408-.0361.0838-.0695.129-.1.0307-.0172.0649-.0274.1-.03.0304-.0021.0599-.0113.086-.027.038-.036.07-.064.1-.084.0242-.019.0508-.0348.079-.047.026-.011.08-.037.161-.077l.043-.034.005-.012Zm-5.229-.779c-.0046.0925-.0167.1844-.036.275-.024.128-.048.2403-.072.337l-.086.337c-.048.128-.086.222-.114.282-.0352.0732-.0746.1443-.118.213-.0297.0482-.0672.0911-.111.127-.0608.0433-.1254.0812-.193.113l-.257.1c-.0551.0171-.1112.0308-.168.041-.0552.0135-.1114.0229-.168.028-.024 0-.038-.008-.043-.024-.0039-.0204.0012-.0416.014-.058.0498-.0669.1107-.1247.18-.171.098-.0733.1947-.1443.29-.213.1093-.0967.1903-.1723.243-.227.0819-.0854.1538-.1801.214-.282.0243-.0452.0448-.0923.061-.141.026-.0707.0677-.1863.125-.347l.086-.248c.0093-.0367.0237-.0813.043-.134.019-.052.043-.079.072-.079.0179.0194.0303.0432.036.069l.002.002Zm-.686-1.915c.005-.0152.0024-.032-.007-.045-.0136-.0165-.0307-.0298-.05-.039-.0883.0192-.1728.053-.25.1-.0919.0468-.1805.0999-.265.159-.0907.0627-.1647.1177-.222.165-.1297.1148-.2516.2381-.365.369-.1519.1706-.2795.3614-.379.567-.0784.1473-.1248.3095-.136.476-.004.0693.0161.1379.057.194.0443.0518.1006.092.164.117.0321.0149.0656.0266.1.035.0287.0067.0763.0197.143.039.0667.0193.1.0483.1.087-.0045.0788-.0305.1549-.075.22-.0615.096-.1347.1841-.218.262-.1044.0988-.2252.1787-.357.236-.186.0856-.3883.13-.593.13-.203.0125-.4047-.0409-.575-.152-.1307-.0952-.2058-.2494-.2-.411.024-.2568.0941-.5071.207-.739l.086-.181c.0573-.1207.1003-.207.129-.259.052-.1.087-.17.1-.211.013-.041.039-.094.068-.159.0105-.0221.0153-.0465.014-.071 0-.039-.017-.058-.05-.058-.014 0-.032.017-.054.052-.022.035-.042.069-.061.1l-.164.318-.207.408c-.0864.1695-.1606.3449-.222.525-.0372.109-.066.2206-.086.334-.0194.1123-.0291.226-.029.34.0011.0975.0155.1944.043.288.0305.1049.0815.2028.15.288.1643.193.4126.2945.665.272.2433.005.4832-.0577.693-.181.106-.0615.2044-.1353.293-.22.085-.0803.1639-.1669.236-.259.1411-.2008.2498-.4225.322-.657.0747-.2161.1159-.4424.122-.671.0148-.1083-.0286-.2168-.114-.285-.0229-.0167-.0482-.0298-.075-.039l-.089-.032-.129-.059c-.0292-.0296-.0469-.0686-.05-.11.0183-.064.0527-.1222.1-.169.0858-.1034.1827-.1969.289-.279.0879-.0783.1866-.1436.293-.194.0712-.0367.1491-.0588.229-.065.0165.0008.0325.0064.046.016l.054.036c.029 0 .062-.026.1-.078.01-.013.037-.064.082-.152.0368-.0673.0702-.1363.1-.207.0191-.0492.0335-.1001.043-.152l-.006.001Zm2.985 2.778-.1.254c-.0425.091-.0941.1774-.154.258-.0401.06-.0893.1133-.146.158-.0679.0385-.1396.0696-.214.093l-.15.055c-.0767.024-.153.0493-.229.076-.0742.025-.151.0411-.229.048l-.029-.014c0-.032.0857-.1007.257-.206l.279-.192c.0473-.032.0997-.071.157-.117.0665-.0541.129-.1129.187-.176.0591-.0605.1042-.1332.132-.213.0007-.0139.0031-.0276.007-.041l-.186.014c-.0789.0029-.1559-.0255-.214-.079-.0529-.0417-.0802-.1082-.072-.175.007-.0449.019-.0889.036-.131.019-.05.062-.142.129-.275.0369-.0767.0801-.1503.129-.22.062-.083.122-.124.179-.124.0964.0006.1878.0434.25.117.0711.0764.1095.1777.107.282 0 .0553-.0047.1105-.014.165l-.025.144c-.007.041-.018.091-.032.148-.012.0508-.0288.1003-.05.148l-.005.003Zm-1.077-.917c-.0047.0927-.0168.1845-.036.275-.024.128-.048.2403-.072.337l-.086.342c-.048.1287-.086.2227-.114.282-.0352.0732-.0746.1443-.118.213-.0299.048-.0674.0909-.111.127-.0609.0433-.1255.0811-.193.113l-.257.1c-.0551.0171-.1112.0308-.168.041-.0552.0135-.1114.0229-.168.028-.024 0-.038-.008-.043-.024-.0039-.0204.0012-.0416.014-.058.0502-.0675.1118-.1257.182-.172.098-.0733.1947-.1443.29-.213.1093-.096.1903-.1717.243-.227.0819-.0855.1538-.1801.214-.282.0243-.0452.0447-.0923.061-.141.026-.0713.0677-.187.125-.347l.086-.248c.01-.037.024-.081.043-.134.019-.053.043-.079.072-.079.0174.0188.0298.0418.036.067Zm11.07.544c0-.055 0-.144.014-.268.012-.1473.0287-.294.05-.44l.122-.839.029-.179c.0086-.036.011-.0732.007-.11l-.029.014c-.0427.0873-.1.2157-.172.385-.072.1693-.11.2633-.114.282-.0333.2247-.0763.549-.129.973-.0527.424-.079.6627-.079.716-.0059.1785.0243.3565.089.523.0515.1319.1837.2157.325.206.1 0 .1977-.0743.293-.223.1132-.1951.1929-.4077.236-.629l.018-.089c.0061-.0273.0097-.0551.011-.083 0-.046-.012-.069-.036-.069-.024 0-.034.021-.046.062l-.032.11c-.0527.142-.1123.213-.179.213-.0785.0022-.1559-.0194-.222-.062-.1148-.0958-.1739-.2434-.157-.392v-.1l.001-.001ZM18.8 35.143c.0092.0496.0054.1005-.011.148-.0209.0619-.0473.1219-.079.179-.0375.0688-.0869.1305-.146.182-.0236.0287-.0565.0482-.093.055-.0377-.0126-.072-.0338-.1-.062-.044-.0367-.0893-.0723-.136-.107-.0351-.0265-.0685-.0552-.1-.086-.0225-.0167-.0379-.0414-.043-.069.0287-.0593.05-.105.064-.137.048-.1.083-.174.107-.22.043-.069.086-.14.129-.213l.043-.062c.0132.013.0276.0247.043.035l.057.034c.0725.0528.1395.1128.2.179.0337.0415.0561.091.065.144Zm3.747-.914c-.0086-.0527-.0307-.1023-.064-.144-.0606-.0662-.1276-.1261-.2-.179l-.057-.034c-.0154-.0099-.0298-.0213-.043-.034l-.043.062c-.0427.0733-.0857.1443-.129.213-.024.046-.0597.1193-.107.22-.014.032-.036.078-.064.137.0052.0276.0205.0522.043.069.0315.0307.0649.0595.1.086.046.034.0913.0693.136.106.0279.0283.0622.0496.1.062.0365-.0068.0695-.0262.093-.055.0594-.0515.1091-.1131.147-.182.0318-.0571.0582-.117.079-.179.0164-.0475.0202-.0986.011-.148h-.002Zm.736-.041c.0092.0496.0054.1005-.011.148-.0208.062-.0472.1219-.079.179-.0374.0689-.0868.1306-.146.182-.0235.0288-.0565.0482-.093.055-.0377-.0127-.0719-.0339-.1-.062-.044-.0367-.0893-.0723-.136-.107-.0351-.0265-.0685-.0552-.1-.086-.0225-.0168-.0378-.0414-.043-.069.029-.059.05-.106.064-.137.0347-.074.0703-.1473.107-.22.0367-.0727.0797-.1437.129-.213l.043-.062c.0131.0128.0275.0242.043.034l.057.035c.0724.0529.1394.1129.2.179.034.0414.0567.0909.066.144h-.001Zm6.567-.051c.0091.0496.0053.1005-.011.148-.0207.062-.0472.1219-.079.179-.0376.0688-.087.1304-.146.182-.0236.0287-.0565.0482-.093.055-.0377-.0126-.0719-.0339-.1-.062-.044-.0367-.0893-.0723-.136-.107-.0352-.0264-.0686-.0551-.1-.086-.0225-.0167-.0379-.0414-.043-.069.0287-.0593.05-.105.064-.137.048-.1.083-.174.107-.22.043-.069.086-.14.129-.213l.043-.062c.0132.013.0276.0247.043.035l.057.034c.0725.0528.1396.1127.2.179.0341.0413.0558.0909.065.144Zm-6.939-.8c-.0089-.0528-.0313-.1024-.065-.144-.0604-.0664-.1274-.1263-.2-.179l-.057-.034c-.0155-.0098-.0299-.0212-.043-.034l-.043.062c-.043.073-.086.144-.129.213-.024.046-.06.119-.107.22-.014.032-.036.078-.065.137.0051.0276.0205.0523.043.069.029.028.063.057.1.09l.136.107c.0285.0267.0627.0466.1.058.0365-.0068.0694-.0263.093-.055.0591-.0515.1085-.1132.146-.182.0317-.0571.0582-.1171.079-.179.0164-.0476.0201-.0985.011-.148l.001-.001Zm-3.35-2.41v-6.5l-2.8-2.8-6.23.004c-1.54199 0-1.87199.569-1.88399 1.483-1.14-.575-2.048.288-2.6 1.725H12.972l3.959 6.088h2.63Zm4.039-.004v-7.417l-2.785-2.026V11.049l-1.271-2.2-4.865-.008-1.1 1.1h1.708l1.87 3.239v7.711l3.2 3.2v6.832H23.6Zm-7.624 0-3.439-5.288h-1.628l3.431 5.288h1.636ZM34.418 9.95l-1.1-1.1h-4.862l-1.271 2.2v10.431L24.4 23.506v7.417h3.243L27.64 24.1l3.2-3.2v-7.711l1.87-3.239h1.708Zm-3.349 20.973 3.959-6.088 6.926-.004c-.549-1.437-1.457-2.303-2.6-1.725-.011-.914-.342-1.483-1.884-1.483h-6.227l-2.8 2.8v6.5h2.626Zm2.591 0 3.436-5.288h-1.629l-3.439 5.288h1.632Zm3.807-1.431-.001-.91h-1.333l-.591.91h1.925Zm-25.009 0-.591-.91h-1.333v.91h1.924ZM25.079 3.4 25.08.8h-2.159v2.6H20.1l-.009 4.8 1.524 2.636v10.236l1.985 1.444v-2.374l-.712-.518V4.836h2.224v14.789l-.712.518v2.374l1.985-1.44V10.84l1.524-2.64-.009-4.8h-2.821Zm7.363 17.427v-7.242l1.639-2.839h-.907L31.642 13.4v7.427h.8Zm-18.5 0h.8v-2.385h-.8v2.385Zm.888-10.081h-.907l1.639 2.839v7.242h.8V13.4l-1.532-2.654Zm18.432 10.081h.8v-2.385h-.8v2.385Z" clip-rule="evenodd"/>
</svg>
