<svg xmlns="http://www.w3.org/2000/svg" fill="none" viewBox="0 0 48 48">
  <path fill="url(#a)" fill-rule="evenodd" d="M25.94 48h-3.88v-2.942h-1.767v-3.631l-7.822-.008.009-9.253h-1.843l-.006-.814H8.355v-1.244H6.927v-1.854h1.428v-1.63h2.222l-.64-.986h-3.71c-.516 0-.853.64-.853.64l-.636-.2c.0586-.2629.141-.52.246-.768.1-.283.327-.838.327-.838l.03-.075c.051-.122.1-.243.161-.361.3-.7197.8329-1.3185 1.513-1.7.0909-.0442.1848-.0819.281-.113.1729-.055.3519-.0885.533-.1h.165l.015-.037.023-.054c.0662-.1484.1509-.2878.252-.415.0657-.0784.1379-.151.216-.217.3146-.283.6975-.4791 1.111-.569l-.019-3.475 1.873.006-.005-2.462 1.833-.011.007-1.641 1.117-.005L13.121 11h-1.74l2.9-2.907 4.991.006v-5.5H22.1V0h3.8v2.6h2.824v5.5l4.991-.006L36.619 11h-1.74l-1.3 2.245 1.117.005.007 1.641 1.833.011-.008 2.458 1.874-.006-.019 3.475c.4158.0895.801.2864 1.117.571.0799.069.1535.145.22.227.1011.1272.1858.2666.252.415l.023.054.014.037h.165c.1811.0115.3601.045.533.1.0962.0311.1901.0688.281.113.6801.3815 1.213.9803 1.513 1.7.057.119.11.24.161.361l.03.075s.227.556.327.838c.105.248.1874.5051.246.768l-.636.2s-.337-.64-.853-.64h-3.71l-.64.986h2.222v1.63h1.429V30.1h-1.435v1.244h-2.269l-.006.814h-1.842l.009 9.253-7.822.008v3.631H25.94V48Z" clip-rule="evenodd"/>
  <path fill="#1F261A" fill-rule="evenodd" d="M25.125 47.2001h-2.25V44.258h-1.764v-2.839h1.768v1.628h2.243v-1.628h1.768v2.839h-1.765v2.9421Zm9.57-6.5811H13.306v-8.9h21.388l.001 8.9Zm-3.523-1.069c.0092.0494.0054.1005-.011.148-.0207.062-.0472.122-.079.179-.0375.0689-.0869.1305-.146.182-.0236.0286-.0565.0481-.093.055-.0377-.0127-.0719-.0339-.1-.062-.042-.0347-.086-.0703-.132-.107-.0351-.0265-.0685-.0553-.1-.086-.0225-.0167-.0379-.0414-.043-.069.028-.059.05-.105.064-.137.048-.1013.0837-.1747.107-.22.0427-.0667.0857-.1377.129-.213l.043-.062c.0132.0127.0276.024.043.034l.057.034c.0724.0529.1394.1129.2.179.0334.0417.0554.0913.064.144l-.003.001Zm-5.356-.992c.3226.0009.6445-.0301.961-.093.2804-.0546.5564-.1295.826-.224.2438-.0877.4746-.2081.686-.358.1998-.1377.3801-.3019.536-.4879.0427-.0554.1093-.1424.2-.2611.043-.06.074-.1.093-.124.019-.024.024-.019.029-.014.0057.0078.0082.0174.007.027l-.007.076c-.0047.0414-.0153.1297-.032.265-.0155.1187-.0239.2383-.025.358-.0059.1785.0243.3565.089.523.0515.1319.1837.2158.325.206.1 0 .1977-.0743.293-.223.1132-.1951.1929-.4077.236-.629l.018-.089c.0061-.0273.0097-.0551.011-.083 0-.046-.012-.069-.036-.069-.024 0-.035.021-.046.062-.011.041-.023.078-.032.11-.052.142-.1117.213-.179.213-.0785.0023-.1559-.0194-.222-.062-.1148-.0957-.1739-.2434-.157-.392v-.107c0-.0827.0073-.2053.022-.368.016-.1806.0373-.3607.064-.54l.15-.722c.0067-.0353.0137-.0707.021-.106l.167-.113.668-.506c.1913-.1232.382-.248.572-.374.1647-.1092.3267-.222.486-.338.2573-.188.4503-.3313.579-.43.1713-.1333.293-.2293.365-.288.072-.0587.1423-.123.211-.193.086-.082.1683-.167.247-.255.0705-.0812.135-.1674.193-.258.058-.0787.1039-.1657.136-.258.0096-.0167.0144-.0357.014-.055 0 .008-.1787.1593-.536.454-.186.1573-.3743.3127-.565.466-.2047.1627-.4143.3204-.629.473-.304.2121-.609.4227-.915.632-.2952.2094-.5781.4358-.847.678-.0639.055-.1195.1191-.165.19-.0087.012-.0167.0242-.024.037-.0326.0549-.062.1117-.088.17l-.032.063c-.0606.1131-.1131.2304-.157.351l-.1.392c-.0499.1816-.1297.3536-.236.509-.1474.1954-.335.357-.55.474-.5887.3252-1.2442.511-1.916.543-.162.014-.3787.021-.65.021-.3265.0447-.6585-.0283-.936-.206-.059-.0654-.0942-.149-.1-.237-.007-.09-.018-.134-.032-.134-.038 0-.0677.0781-.089.234-.021.1504-.0316.3021-.032.454-.0108.1387.0286.2768.111.389.1159.1044.2626.1683.418.182.1654.0259.3326.0377.5.035l.101.01ZM18.472 36.7c-.0046.0925-.0167.1844-.036.275-.024.128-.048.2403-.072.337l-.086.337c-.048.128-.086.222-.114.282-.0352.0732-.0746.1443-.118.213-.0297.0482-.0672.0911-.111.127-.0608.0433-.1254.0812-.193.113l-.257.1c-.0551.0171-.1112.0308-.168.041-.0552.0135-.1114.0229-.168.028-.024 0-.038-.008-.043-.024-.0039-.0204.0012-.0416.014-.058.0498-.0669.1107-.1247.18-.171.098-.0733.1947-.1443.29-.213.1093-.0967.1903-.1723.243-.227.0819-.0854.1538-.1801.214-.282.0243-.0452.0448-.0923.061-.141.026-.0707.0677-.1863.125-.347l.086-.248c.0093-.0367.0237-.0813.043-.134.019-.052.043-.079.072-.079.0179.0194.0303.0432.036.069l.002.002Zm5.229.779v.0061c.1-.098.1593-.1581.178-.1801.0745-.0844.135-.1803.179-.284.0578-.1444.0997-.2946.125-.448.0299-.1419.0476-.2861.053-.431v-.378c0-.132.0083-.2653.025-.4 0-.125.007-.1999.007-.2339v-.0171c.015-.008.034-.02.056-.034l.211-.1439.511-.346c.2-.1287.3973-.2587.592-.39.1707-.114.3373-.232.5-.354.2667-.2.4667-.3508.6-.4521.1787-.138.3053-.238.38-.3.0747-.062.1487-.1307.222-.2059.0907-.0873.1777-.1781.261-.2721.0755-.0879.1446-.1813.207-.279.0629-.0862.1134-.1807.15-.281.0106-.0186.0164-.0396.017-.061 0 .0093-.187.1697-.561.481-.1947.1668-.3913.3313-.59.494-.2133.172-.4317.3387-.655.5-.3153.222-.6317.4424-.949.6611-.2439.1619-.4777.3385-.7.5289-.0674.0583-.1263.1255-.175.2001-.048.0745-.0904.1522-.127.2329l-.012.028v.006l-.242.561c-.0226.0564-.0348.1163-.036.177-.0047.078-.007.1683-.007.271l.007.448c.0067.1461-.0175.2919-.071.428-.0222.0463-.0497.09-.082.13-.0226.0303-.0504.0563-.082.077l-.043.02c-.0339.0039-.0682-.0006-.1-.013-.024.036-.048.0691-.072.1001-.038.05-.0903.0873-.15.1069-.0283.0154-.0636.01-.086-.013-.033.031-.064.0631-.093.0941-.0449.0477-.1065.0763-.172.0799-.0646.0003-.1291-.0043-.193-.014-.1053.0713-.208.1427-.308.214-.0852.0547-.1848.0825-.286.0801-.1699.0148-.3349-.0648-.429-.2071-.057-.1043-.084-.2223-.078-.3409 0-.0541 0-.1401.014-.2611.012-.1433.0287-.286.05-.428l.122-.816.029-.174c.0084-.035.0108-.0712.007-.107l-.029.013c-.0427.0847-.0997.2093-.171.374-.0713.1647-.1093.256-.114.2741-.0333.2187-.0763.534-.129.9459-.0527.412-.079.6454-.079.7001.0011.0615.0058.1229.014.1839.0049.0582.0166.1156.035.171.0499.2076.2375.3549.451.354.1975-.0093.3765-.1209.472-.294.1333-.196.2407-.294.322-.294l.1.0101c.0272.0036.0548.0036.082 0 .0515-.0198.0987-.0494.139-.0871.0408-.036.0838-.0695.129-.0999.0307-.0172.0649-.0275.1-.0301.0304-.0021.0599-.0113.086-.027.038-.036.07-.064.1-.084.0242-.019.0508-.0347.079-.0469.026-.0111.08-.0371.161-.0771l.043-.0339.005-.0121Zm-5.915-2.694c.005-.0152.0024-.0319-.007-.0449-.0136-.0165-.0307-.0298-.05-.0391-.0883.0192-.1728.053-.25.1-.0919.0468-.1805.0999-.265.159-.0907.0627-.1647.1178-.222.165-.1297.1148-.2516.2381-.365.369-.1519.1706-.2795.3614-.379.5671-.0784.1473-.1248.3094-.136.4759-.004.0693.0161.1379.057.194.0443.0518.1006.092.164.117.0321.0149.0656.0266.1.035.0287.0067.0763.0198.143.0391.0667.0192.1.0482.1.0869-.0045.0788-.0305.1549-.075.22-.0615.0961-.1347.1842-.218.2621-.1044.0988-.2252.1787-.357.236-.186.0856-.3883.1299-.593.1299-.203.0125-.4047-.0408-.575-.1519-.1307-.0952-.2058-.2495-.2-.4111.024-.2568.0941-.5071.207-.739l.086-.1809c.0573-.1208.1003-.2071.129-.259.052-.1.087-.1701.1-.2111.013-.041.039-.094.068-.159.0105-.0221.0153-.0464.014-.071 0-.039-.017-.0579-.05-.0579-.014 0-.032.0169-.054.0519s-.042.0691-.061.1001l-.164.3179-.207.408c-.0864.1695-.1606.345-.222.5251-.0372.109-.066.2206-.086.334-.0194.1123-.0291.226-.029.34.0011.0975.0155.1943.043.2879.0305.1049.0815.2028.15.2881.1643.193.4126.2944.665.2719.2433.0051.4832-.0577.693-.1809.106-.0616.2044-.1353.293-.2201.085-.0803.1639-.1669.236-.2589.1411-.2009.2498-.4226.322-.6571.0747-.2161.1159-.4423.122-.6709.0148-.1083-.0286-.2168-.114-.285-.0229-.0167-.0482-.0298-.075-.0391l-.089-.032-.129-.0589c-.0292-.0296-.0469-.0686-.05-.1101.0183-.0639.0527-.1222.1-.1689.0858-.1035.1827-.1969.289-.279.0879-.0783.1866-.1436.293-.194.0712-.0368.1491-.0589.229-.0651.0165.0008.0325.0064.046.0161l.054.036c.029 0 .062-.0261.1-.078.01-.013.037-.064.082-.152.0368-.0673.0702-.1363.1-.207.0191-.0492.0335-.1002.043-.1521l-.006.001Zm2.985 2.778-.1.2541c-.0425.091-.0941.1773-.154.258-.0401.06-.0893.1132-.146.1579-.0679.0385-.1396.0697-.214.093l-.15.0551c-.0767.0239-.153.0493-.229.076-.0742.025-.151.041-.229.048l-.029-.014c0-.0321.0857-.1007.257-.2061l.279-.192c.0473-.032.0997-.071.157-.117.0665-.0541.129-.1129.187-.176.0591-.0605.1042-.1332.132-.213.0007-.0139.0031-.0275.007-.0409l-.186.014c-.0789.0029-.1559-.0256-.214-.0791-.0529-.0416-.0802-.1082-.072-.175.007-.0448.019-.0889.036-.131.019-.05.062-.1419.129-.2749.0369-.0767.0801-.1504.129-.2201.062-.083.122-.124.179-.124.0964.0006.1878.0434.25.117.0711.0765.1095.1777.107.282 0 .0553-.0047.1105-.014.165l-.025.144c-.007.041-.018.091-.032.148-.012.0508-.0288.1004-.05.1481l-.005.0029Zm-1.077-.917c-.0047.0925-.0167.1844-.036.275-.024.128-.048.2404-.072.337l-.086.342c-.048.1287-.086.2228-.114.282-.0352.0732-.0746.1443-.118.213-.0299.048-.0674.091-.111.127-.0609.0434-.1255.0812-.193.113l-.257.1c-.0551.0171-.1112.0308-.168.041-.0552.0135-.1114.0229-.168.028-.024 0-.038-.008-.043-.024-.0039-.0204.0012-.0416.014-.058.0502-.0675.1118-.1257.182-.172.098-.0732.1947-.1443.29-.213.1093-.096.1903-.1717.243-.227.0819-.0855.1538-.1801.214-.282.0243-.0452.0447-.0923.061-.141.026-.0713.0677-.187.125-.347l.086-.248c.01-.0369.024-.081.043-.134.019-.053.043-.079.072-.079.0175.0189.0299.042.036.067Zm11.07.544c0-.055 0-.1439.014-.2679.012-.1474.0287-.2941.05-.4401l.122-.8389.029-.179c.0086-.036.011-.0732.007-.1101l-.029.014c-.0427.0873-.1.2157-.172.385-.072.1693-.11.2633-.114.282-.0333.2248-.0763.549-.129.973-.0527.424-.079.6627-.079.716-.0059.1785.0243.3566.089.5231.0515.1319.1837.2156.325.2059.1 0 .1977-.0743.293-.223.1132-.195.1929-.4077.236-.6289l.018-.089c.0061-.0274.0097-.0551.011-.083 0-.0461-.012-.069-.036-.069-.024 0-.034.021-.046.062l-.032.11c-.0527.1419-.1123.2129-.179.2129-.0785.0022-.1559-.0194-.222-.062-.1148-.0958-.1739-.2433-.157-.392v-.0999l.001-.0011ZM18.8 35.1431c.0092.0495.0054.1004-.011.1479-.0209.062-.0473.122-.079.1791-.0375.0688-.0869.1305-.146.182-.0236.0287-.0565.0481-.093.055-.0377-.0126-.072-.0339-.1-.062-.044-.0368-.0893-.0724-.136-.1071-.0351-.0265-.0685-.0552-.1-.086-.0225-.0167-.0379-.0414-.043-.069.0287-.0593.05-.105.064-.137.048-.1.083-.1739.107-.2199.043-.069.086-.14.129-.2131l.043-.062c.0132.013.0276.0247.043.035l.057.034c.0725.0528.1395.1128.2.1791.0337.0415.0561.0912.065.144Zm3.747-.9141c-.0086-.0527-.0307-.1023-.064-.144-.0606-.0662-.1276-.1261-.2-.179l-.057-.034c-.0154-.0099-.0298-.0213-.043-.034l-.043.062c-.0427.0733-.0857.1443-.129.213-.024.046-.0597.1193-.107.22-.014.0321-.036.078-.064.137.0052.0276.0205.0522.043.069.0315.0307.0649.0595.1.086.046.034.0913.0693.136.106.0279.0283.0622.0496.1.062.0365-.0068.0695-.0262.093-.055.0594-.0514.1091-.113.147-.182.0318-.057.0582-.117.079-.179.0164-.0475.0202-.0985.011-.148h-.002Zm.736-.041c.0092.0495.0054.1004-.011.148-.0208.062-.0472.122-.079.179-.0374.069-.0868.1306-.146.182-.0235.0288-.0565.0482-.093.055-.0377-.0127-.0719-.0339-.1-.062-.044-.0367-.0893-.0723-.136-.107-.0351-.0265-.0685-.0552-.1-.086-.0225-.0168-.0378-.0414-.043-.069.029-.059.05-.106.064-.137.0347-.074.0703-.1473.107-.22.0367-.0727.0797-.1437.129-.213l.043-.062c.0131.0128.0275.0242.043.034l.057.035c.0724.0529.1394.1129.2.179.034.0415.0568.0912.066.144h-.001Zm6.567-.0509c.0091.0495.0053.1003-.011.1479-.0207.062-.0472.122-.079.1791-.0376.0688-.087.1303-.146.1819-.0236.0288-.0565.0482-.093.055-.0377-.0126-.0719-.0339-.1-.062-.044-.0367-.0893-.0723-.136-.1069-.0352-.0265-.0686-.0552-.1-.0861-.0225-.0167-.0379-.0414-.043-.069.0287-.0593.05-.105.064-.137.048-.1.083-.1739.107-.2199.043-.0691.086-.14.129-.2131l.043-.062c.0132.013.0276.0247.043.035l.057.034c.0725.0528.1396.1128.2.179.0342.0415.0559.0912.065.1441Zm-6.939-.8001c-.0089-.0528-.0313-.1024-.065-.1439-.0604-.0664-.1274-.1264-.2-.1791l-.057-.034c-.0155-.0098-.0299-.0212-.043-.034l-.043.062c-.043.0731-.086.1441-.129.2131-.024.046-.06.1189-.107.2199-.014.032-.036.0781-.065.137.0051.0276.0205.0523.043.069.029.028.063.057.1.09l.136.107c.0285.0267.0627.0467.1.0581.0365-.0069.0694-.0263.093-.0551.0591-.0514.1085-.1131.146-.1819.0317-.0571.0582-.1171.079-.1791.0164-.0476.0201-.0984.011-.1479l.001-.0011ZM19.544 8.84905l1.271 2.19995V21.48l2.785 2.0261v7.4169h-3.243v-6.832l-3.2-3.2V13.18l-1.87-3.23895h-1.708l1.1-1.1 4.865.008ZM16.761 21.627l2.8 2.8v6.5h-2.63l-3.959-6.088H6.047c.552-1.437 1.46-2.3 2.6-1.725.012-.914.342-1.483 1.884-1.483l6.23-.004Zm-4.224 4.008 3.439 5.288H14.34l-3.431-5.288h1.628Zm15.106 5.288H24.4v-7.4169l2.785-2.0251V11.05l1.271-2.19995h4.862l1.1 1.1H32.71L30.84 13.189V20.9l-3.2 3.2.003 6.823Zm7.385-6.088-3.959 6.088h-2.626v-6.5l2.8-2.8h6.227c1.542 0 1.873.569 1.884 1.483 1.143-.578 2.051.288 2.6 1.725l-6.926.004Zm-3 6.088 3.439-5.288h1.629l-3.436 5.288h-1.632Zm-19.57-1.431h-1.924v-.91h1.333l.591.91Zm25.009 0h-1.925l.591-.91h1.333l.001.91ZM25.079 3.40005H27.9l.009 4.8L26.385 10.84v10.237l-1.985 1.44v-2.374l.712-.518V4.83605h-2.224V19.624l.712.518v2.374l-1.985-1.444V10.836l-1.524-2.63595.009-4.8h2.821V.800049h2.159l-.001 2.600001ZM13.942 20.827h.8v-2.385h-.8v2.385Zm1.62 0h.8V13.4l-1.532-2.654h-.907l1.639 2.839v7.242Zm17.7 0h.8v-2.385h-.8v2.385Zm-.82 0h-.8V13.4l1.532-2.654h.907l-1.639 2.839v7.242Z" clip-rule="evenodd"/>
  <defs>
    <linearGradient id="a" x1="43.265" x2="4.738" y1="0" y2="0" gradientUnits="userSpaceOnUse">
      <stop stop-color="#D8AC4E"/>
      <stop offset="1" stop-color="#ECE482"/>
    </linearGradient>
  </defs>
</svg>
