<svg xmlns="http://www.w3.org/2000/svg" fill="none" viewBox="0 0 48 48">
  <path fill="#F29200" d="m42.4668 9.78094 5.5298-2.0734V4.2246l-5.7715 2.88743 5.7715-4.63791V0h-2.3043l-5.1682 5.60239L43.9587 0h-3.2489l-2.9244 5.33495c2.0789.84349 3.7453 2.44839 4.6814 4.44599Zm5.5298 9.46026-5.3999-2.2679c.365-.8595.5986-1.7916.6742-2.7738.1078-1.3973-.1167-2.7436-.6059-3.9618l5.3316-1.28938V11.276l-3.1809.8621 3.1809.6089v2.334l-2.5125.0981 2.5125.9302v3.1319ZM0 25.841l25.9014-10.1456c.524 2.0634 1.7799 3.8559 3.4943 5.0598L13.3511 47.9966H6.58975L20.9806 27.1287 0 48V37.5352l17.9716-14.0659L0 32.5091V25.841Zm18.5614 22.1556L29.8977 21.083c1.1444.6924 2.4638 1.1352 3.8885 1.2448.9245.0712 1.8266-.0029 2.6844-.2028l6.8254 25.8716h-5.2937L34.3631 30.551l-.2388 17.4456h-5.4064l1.255-17.0929-4.8613 17.0929h-6.5502Zm18.5779-26.0558 10.8115 25.9491.0458.1067v-12.048l-5.8038-10.0069 5.8038 5.3841v-4.1322l-3.6314-4.8604 3.6314 1.8057V20.958l-5.6765-3.3949c-1.0735 2.0832-2.9449 3.666-5.1808 4.3777ZM39.354 0l-1.9853 5.17821c-.7033-.24455-1.4487-.40358-2.2258-.46336-1.2763-.09839-2.5102.08009-3.6426.48453L30.2449 0h2.5763l.5963 2.2147L33.5008 0h2.3668l-.1719 2.84968L36.5784 0h2.7756Zm-8.3013 5.37242L28.9487 0h-3.0545l1.1192 2.51102L24.9927 0h-4.035l3.3353 3.64883L19.1486 0h-7.9498L26.881 8.99094c.9682-1.61748 2.4346-2.88915 4.1717-3.61852ZM5.74311 0 26.6216 9.4543c-.5312 1.0231-.8695 2.1672-.9637 3.3888-.0609.7906-.0151 1.5646.1242 2.3085L0 22.0861V15.964l16.8458-2.2685L0 12.6197V7.56538l18.0228 2.34113L0 4.71485V0h5.74311Z"/>
</svg>
