<svg xmlns="http://www.w3.org/2000/svg" fill="none" viewBox="0 0 48 48">
  <path fill="#7EC242" fill-rule="evenodd" d="M20.2783 3.75c5.317 0 10.1563 2.04443 13.7733 5.38955-5.711 5.57045-8.6075 11.93555-9.217 13.62065-.091.2776-.3523.3026-.5059.0417-2.1676-5.2203-7.7842-9.1441-13.1755-9.0007-.2338.0083-.3298.2576-.162.4369 4.1372 5.919 1.8494 18.7575 13.208 24.4114.4526.2318.673.0292.7006-.2876 1.6039-13.8575 11.6466-28.1526 22.5928-31.73703.0651-.02501.2722-.05336.4099.09088.1386.14508.1019.35102.0568.42856-2.762 4.46489-4.1455 12.64839-6.5769 19.90649C38.0986 36.8519 31.2019 44.25 20.2783 44.25 9.08087 44.25 0 35.1818 0 24S9.08087 3.75 20.2783 3.75Z" clip-rule="evenodd"/>
</svg>
