<svg xmlns="http://www.w3.org/2000/svg" fill="none" viewBox="0 0 48 48">
  <path fill="#000" d="M23.1843.256947C23.4792.0851568 23.729 0 23.9834 0h.0173c.2598.00393789.5185.095986.8298.273191L36.6622 7.06851c1.0787.67731 1.7952 1.87345 1.7952 3.23499v5.9797L23.9027 7.91368c-.1197-.06596-.2469-.10091-.3666-.10091-.0916 0-.1787.02067-.2544.06153-.0747.04036-.1385.10287-.186.18705-.0549.09795-.0881.22839-.0881.39182l-.0005 9.47753.0005.0876-.0876.0113-.0069.001-.0955.0123-.096.0128-.0124.002-.0935.0142-.092.0143-.0247.0045-.0955.0167-.0936.0167-.0054.0015-.0975.0187-.0955.0202-.0158.0029-.093.0207-.094.0227-.0075.0014c-.4255.1014-.8396.2343-1.2399.3953-.0817.0325-.1594.0655-.2326.0975-.0767.0329-.1529.0679-.2281.1033l-.0025.0005-.0861.0414-.0861.0428-.0128.0054-.0762.0389-.0772.0404-.0342.0177-.0747.0399-.0732.0403-.0252.0138c-.0322.0177-.0683.0384-.1064.0605l-.0218.0124-.0208.0123-.0237.0137-.0762.0448-.0772.0473-.0109.0064-.0782.0492-.0787.0497-.0089.0069c-.2355.1516-.4631.315-.6833.4888-.0475.0379-.09.0719-.1272.1024-.0376.0305-.0806.0664-.1251.1048l-.0015.001-.0074.0064-.0708.0606-.0683.061-.0104.0089-.0618.0561-.0614.0561-.0307.029-.0598.0562-.0589.0566-.0218.0211-.0574.0566-.0569.0576-.0341.0345-.0495.0512-.049.0517-.048.0511-.043.0468-.0431.0473-.0559.0625-.0411.0463-.0395.0452-.0421.0498-.0465.0541-.045.0541-.0327.0414-.0475.0581-.0455.0571-.0267.0349c-.1059.1359-.2089.2762-.3073.4204l-.0579.0851-.0564.0842-.0163.0256-.0683.1063-.046.0744-.05.0822-.0084.0138-.0005.0014-.0451.0763c-.0188.0312-.0317.0541-.0436.0752-.0032.0056-.0062.011-.0093.0164l-.004.0074-.045.0802-.0272.0497-.0277.0502-.0436.0832-.0484.094-.0461.0921-.048.0979-.0405.0872-.0441.0964-.0316.0719-.054.124-.0366.0896-.0381.0941c-.0122.0311-.0213.0549-.0292.0754-.0042.011-.0081.0211-.0119.0309l-.0049.0138-.0005.0019-.0282.0744c-.0213.0585-.0391.1087-.0569.1599l-.0124.036-.0297.0891-.0292.092-.0286.0925-.0193.0655-.0193.064-.0188.0679-.009.0315-.0262.0985-.0222.0896-.0302.1206-.0188.0841c-.0075.032-.0149.065-.0258.1182l-.0198.0945-.0222.1176-.0159.0921-.0197.1161-.0149.098-.0168.1172-.0124.095-.0133.1156-.0109.1014-.0104.1172-.0079.0984-.007.1108-.001.0128-.0014.0167-.0045.0758-.0044.1241-.001.0211-.0025.0739-.002.1092-.001.1098.001.1132.002.1142.0005.0035.003.1102.0054.1137v.0015l.0005.0035.0059.1078.008.1127.0094.1132.0103.1063.0005.0044c.0144.1462.0337.2934.0564.4421l.0169.1073.0193.1068v.0025l.001.0029.0005.004.0188.1038.0212.1068.0005.0025c.0213.1019.0436.2033.0683.3037l.0149.0591.0153.0595v.0015l.001.0035.0282.1058.0287.1038.0005.0015c.0115.0409.0242.0818.0362.1221.0024.0082.0049.0164.0073.0246l.0084.0286.0089.029.001.002.0005.0019.0332.1039.0331.0999.0015.003.0346.1009.0357.0984.001.001.001.0035.0361.0969.0371.096.0059.0138.0376.0935.0401.095.002.0049.0366.0832-6.30281 3.6199v-23.644c0-1.40437.76101-2.63151 1.89511-3.29652l.0653-.03692L23.1843.256947Z"/>
  <path fill="#000" d="m24.9947 10.747 20.5834 11.822c1.2221.7019 1.9099 1.9719 1.9218 3.2813v13.5c.003.348-.0505.6094-.1841.8319-.1331.222-.3429.3987-.6531.5784l-11.8313 6.7958c-1.1291.5907-2.5279.6104-3.714-.0714l-5.0539-2.9022-.1519-.0876.1519-.0867 14.4122-8.2671c.1172-.0704.2102-.1624.2706-.2658.0455-.0792.0723-.1644.0737-.2495.002-.0847-.0198-.1713-.0692-.2535-.0584-.0975-.1549-.1905-.2974-.2722l-8.2504-4.7388-.0767-.0438.0342-.0812.0025-.0069.0376-.0881.0361-.0891.0391-.0995.0331-.0866.0084-.0231.0337-.0911.0321-.0891.0015-.0049.0317-.0935.0307-.0921.0054-.0152.0287-.0911.0277-.0916.002-.0068c.1237-.4175.2157-.8413.2761-1.2666.0119-.0866.0223-.1693.0312-.2485.0094-.0832.0173-.1659.0247-.2486v-.0025l.0074-.0945.006-.096.0005-.0138.0049-.0851.004-.0867.0015-.0379.0024-.0846.002-.1118c.0005-.0364.001-.0777.0005-.122v-.0758l-.0015-.0882-.002-.09-.0004-.0128-.003-.0916-.0045-.093-.001-.0113c-.0153-.2782-.0435-.5568-.0846-.8329-.0084-.0601-.0173-.1137-.0252-.161-.0079-.0472-.0178-.1023-.0287-.1599v-.002l-.002-.0099-.0178-.0905-.0188-.0896-.0025-.0133-.0178-.0817-.0183-.0812-.0099-.0409-.0183-.0787-.0203-.0798-.0074-.0295-.0421-.1556-.0133-.0462-.0198-.069-.0406-.1338-.0193-.0606-.0198-.0615-.0262-.0788-.0401-.1156-.0222-.0611-.0238-.0669-.0247-.066-.0188-.0492-.0273-.0694-.0272-.0679-.0168-.0404c-.0653-.159-.1361-.3175-.2123-.475l-.09-.1831-.001-.0005-.0005-.001-.0129-.0251-.0292-.0566-.0296-.0556-.0416-.0773-.046-.0837-.0084-.0143-.0005-.001-.0441-.0772c-.0227-.0399-.0381-.0655-.0534-.0911l-.0045-.0074-.047-.0792-.0292-.0478-.0311-.0492-.05-.0793-.0574-.0891-.0574-.0851-.0619-.0901-.0544-.0787-.0623-.0862-.047-.063-.0119-.0157-.0693-.0926-.0594-.0768-.0628-.0797c-.0327-.0399-.0524-.0645-.0722-.0881l-.0094-.0118-.001-.0005-.051-.0621c-.0401-.0477-.0752-.0881-.1108-.1289l-.0253-.0286-.0623-.0704-.0653-.0713-.0668-.0709-.0935-.098-.05-.0502-.0233-.0231-.0717-.0719-.0668-.064-.0901-.0866-.0638-.0581c-.0242-.0226-.0495-.0453-.0901-.0812l-.0722-.0645-.0915-.0773-.0723-.0605-.091-.0748-.0777-.0616-.094-.0733-.0762-.0581-.094-.0694-.0832-.0601-.0964-.0674-.0822-.0561-.0796-.0527-.0134-.0088-.0104-.0074-.0134-.0089-.0643-.0413-.1054-.067-.0811-.0502-.0945-.0566-.0945-.0556-.099-.0556-.1009-.0557-.003-.0004-.0975-.0532-.1014-.0522-.0015-.001-.0035-.0009-.0969-.0488-.102-.0497-.1029-.0482-.098-.0448-.0044-.002c-.1341-.0596-.2717-.1171-.4127-.1718l-.1014-.0389-.1029-.0374-.002-.0005-.0035-.0015-.003-.0014-.1004-.0355-.1034-.0349-.001-.0005-.002-.0005c-.0989-.0325-.1989-.0635-.2983-.093l-.0584-.0168-.0599-.0162-.001-.001-.003-.001-.1063-.0285-.1054-.0271-.0015-.0005c-.05-.0123-.1-.0246-.1499-.0359l-.0287-.0064-.0297-.0069-.0015-.0005-.003-.0005-.1064-.0231-.1039-.0217-.0029-.0005-.1049-.0202-.1045-.0187-.0044-.0005-.1019-.0177-.103-.0153-.0148-.0024-.0999-.0138-.1025-.0133-.0059-.001-.0906-.0098V10.747Z"/>
  <path fill="#000" d="m7.62467 19.5811-.0089 16.7242c.00247.1364.03612.2634.09599.3663.04651.0792.10737.1442.18011.188.07323.0443.15982.0684.2563.0674.11331-.0019.24295-.0388.38496-.1201l8.32707-4.7825.0539.0699.0045.0049.0579.0763.0593.0763.0075.0098.0593.0734.0589.0718.0158.0197.0624.0739.0613.0718.004.0045.0653.0738.0648.0728.0109.0119.0648.0699.0663.0699.005.0054c.3013.3155.6239.6064.9644.8707.0692.0537.1365.1044.2009.1516.0672.0493.1355.098.2043.1453l.0015.0009.0792.0537.0801.0532.0114.0078.0717.0468.0738.0463.0326.0206.0718.0443.0717.0429.0248.0152c.0311.0182.0673.0394.1063.0611l.0208.0123.0213.0118.0238.0133.0771.0438.0802.0428.0109.0064.0816.0428.0827.0424.0104.0049c.2498.1265.5061.2417.7674.3436.0569.0226.1074.0423.1529.0585.045.0173.0975.036.1534.0557l.0015.0009.0099.003.0875.03.0876.0296.0129.0039.0796.0251.0797.0246.0406.0128.0782.0227.0791.0226.0297.0079.0777.0211.0787.0207.047.0118.0698.0173.0682.0167.0688.0152.1257.0276.0821.0167.0609.0119.0594.0118.0643.0113.0703.0128.0692.0118.053.0079.0742.0113.0727.0108.0431.0059c.1712.0232.3449.0414.5195.0542l.1029.0079.102.0059.001-.0005h.0014l.0277.002.0639.0029.0633.0025.0876.0029.096.002h.0183l.0891.001c.0455 0 .0757 0 .1063-.0005l.008-.0005.0925-.001.1143-.003.0945-.0039.1059-.0049.1029-.0069.1098-.0079.0955-.0079.1059-.0103.0787-.0089.0198-.0019.1148-.0138.1979-.0271c.0423-.0061.0712-.0114.0971-.0156.0053-.0009.0106-.0017.0157-.0026l.0149-.0029.0015-.0005.0786-.0128c.0619-.0104.1148-.0202.1678-.031l.0371-.0069.0925-.0187.095-.0207.095-.0222.0668-.0157.0653-.0158.0688-.0177.0317-.0084.0989-.0265.0891-.0246.1202-.035.0822-.0256c.0321-.0103.0643-.0197.1162-.0369l.0921-.031.1133-.0394.0881-.0315.1108-.0414.0925-.0364.1114-.0443.0885-.0369.1069-.0458.094-.0418.1064-.0492.0906-.0429.0856-.0423.0148-.0069.0109-.0059.0148-.0069.0683-.0339.1113-.0581.0183-.0099.0654-.0344.0964-.0527.096-.0546.098-.0571.0985-.0596.002-.0015.095-.0581.0964-.0615.0015-.0005.0025-.0024.0906-.0586.0945-.0635.0935-.0645.0881-.062.0034-.003c.1193-.0856.2385-.1752.3563-.2692l.0851-.0685.0836-.0698.0015-.0015.003-.002.0024-.0025.0812-.0684.0826-.0718.001-.0005.0005-.0015c.0787-.0694.1554-.1388.2306-.2102l.044-.0423.044-.0433.001-.0005.0025-.002.0782-.0778.0757-.0768.0015-.001c.0361-.0374.0712-.0738.1059-.1107l.0207-.0217.0203-.0221.0015-.002.0015-.0015.0742-.0802.0703-.0788.002-.0024.0702-.0802.0683-.0803.0005-.001.0025-.0029.0658-.0788.0648-.0807.0094-.0118.0624-.0793.0628-.0817.0035-.0044.0539-.0729.0787.0448 6.2241 3.5746-.1509.0877L16.88 47.4875c-1.2222.7019-2.672.6596-3.8179.0152l-.0644-.0374-11.68771-6.7126c-.3043-.1723-.505191-.3485-.631861-.5749-.126175-.2255-.175655-.4947-.177139-.8516L.5 25.7351c.050965-1.2675.73379-2.4829 1.91934-3.1641l5.20533-2.9899Z"/>
  <path fill="#000" d="M23.9994 33.7165c-3.8649 0-6.9994-3.1348-6.9994-7s3.1345-7 6.9994-7c3.8661 0 7.0006 3.1348 7.0006 7s-3.1345 7-7.0006 7Z"/>
</svg>
