<svg xmlns="http://www.w3.org/2000/svg" fill="none" viewBox="0 0 48 48">
  <path fill="#148C9B" fill-rule="evenodd" d="M4.75791 46.4267c-2.09693-2.097-2.09863-5.4962.00009-7.595l7.7186-7.7185c2.0664-2.0665 2.0646-5.4155-.0019-7.482l-7.71854-7.7186c-2.09693-2.0969-2.09693-5.4979 0-7.59478l.00184-.00184c2.09693-2.09693 5.4979-2.09693 7.5948 0L27.6681 23.6312c2.0646 2.0647 2.0646 5.4155-.0019 7.482L12.3528 46.4266c-2.0987 2.0987-5.49796 2.097-7.59489.0001Zm-3.15882-11.787c-.38387-.3839-.59725-.9059-.59725-1.4476-.00179-.5435.21343-1.0637.59909-1.4494.90765-.9076 2.07358-2.0735 2.97226-2.9722.77312-.7731.77303-2.0252-.00009-2.7983-.89868-.8987-2.0646-2.0646-2.97225-2.9723-.38387-.3839-.59906-.9041-.60085-1.4476 0-.5418.21706-1.0637.60093-1.4476.38387-.3838.90404-.5991 1.44755-.6009.54351.0018 1.06368.2171 1.44755.6009 1.62875 1.6288 4.25846 4.2585 5.86927 5.8693.7713.7713.7714 2.0234-.0017 2.7965l-5.86749 5.8674c-.38566.3857-.90591.6009-1.44763.6009s-1.06552-.2153-1.44939-.5991Z" clip-rule="evenodd"/>
  <path fill="#0D7186" fill-rule="evenodd" d="m19.9975 15.9418 7.6845 7.6845c2.0664 2.0665 2.0664 5.4174 0 7.4838l-2.5866 2.5866-7.6864-7.6863c-2.0646-2.0647-2.0647-5.4154.0018-7.4819l2.5867-2.5867Z" clip-rule="evenodd"/>
  <path fill="#303366" fill-rule="evenodd" d="M41.9608 1.57332c2.0969 2.09693 2.0986 5.4962-.0001 7.59492l-7.7186 7.71856c-2.0664 2.0665-2.0646 5.4155.0019 7.4819l7.7186 7.7186c2.0969 2.097 2.0969 5.4979 0 7.5949l-.0019.0018c-2.0969 2.0969-5.4979 2.0969-7.5948 0L19.0506 24.3687c-2.0646-2.0646-2.0645-5.4154.0019-7.4819L34.3659 1.57341c2.0987-2.098719 5.498-2.097012 7.5949-.00009Zm4.6494 11.78878c.3838.3838.5992.904.5992 1.4458.0018.5435-.2153 1.0655-.5991 1.4493l-2.9723 2.9723c-.7731.7731-.7732 2.0252-.0018 2.7966l2.9741 2.9741c.3838.3838.5991.904.6009 1.4475-.0018.5435-.2171 1.0637-.6009 1.4476-.3839.3838-.9041.5991-1.4476.6009-.5435-.0018-1.0637-.217-1.4476-.6009-1.6306-1.6305-4.2603-4.2602-5.8693-5.8692-.7731-.7732-.773-2.0252.0001-2.7983l5.8674-5.8675c.3839-.3839.9076-.5992 1.4493-.5992.5418 0 1.062.2153 1.4458.5992l.0018.0018Z" clip-rule="evenodd"/>
</svg>
