<svg xmlns="http://www.w3.org/2000/svg" fill="none" viewBox="0 0 48 48">
  <path fill="#000" d="M41.9608 9.16824c2.0987-2.09872 2.097-5.49799 0-7.59492-2.0969-2.096923-5.4962-2.098629-7.5949.00009L19.0525 16.8868c-2.0664 2.0665-2.0665 5.4173-.0018 7.482L34.3659 39.684c2.0969 2.0969 5.4979 2.0969 7.5948 0l.0019-.0018c2.0969-2.097 2.0969-5.4979 0-7.5949l-7.7186-7.7186c-2.0664-2.0664-2.0683-5.4154-.0018-7.4819l7.7186-7.71856Z"/>
  <path fill="#000" d="m26.0235 32.7559-7.6799-7.68c-2.4554-2.4554-2.4549-6.4394.0018-8.8962l.9356-.9355-6.9282-6.92822c-2.0969-2.09693-5.49787-2.09693-7.5948 0l-.00184.00184c-2.09693 2.09688-2.09693 5.49788 0 7.59478l7.71854 7.7186c2.0665 2.0665 2.0683 5.4155.0019 7.482L4.758 38.8317c-2.09872 2.0988-2.09702 5.498-.00009 7.595 2.09693 2.0969 5.49619 2.0986 7.59489-.0001l13.6707-13.6707Zm21.1859-17.948c0-.5418-.2153-1.062-.5992-1.4458l-.0017-.0018c-.3839-.3839-.9041-.5992-1.4458-.5992-.5418 0-1.0655.2153-1.4493.5992l-5.8675 5.8675c-.7731.7731-.7732 2.0251-.0001 2.7983l5.8693 5.8692c.3839.3839.9041.5991 1.4476.6009.5436-.0018 1.0637-.2171 1.4476-.6009.3839-.3839.5991-.9041.6009-1.4476-.0018-.5435-.217-1.0637-.6009-1.4475l-2.9741-2.9741c-.7713-.7714-.7713-2.0235.0018-2.7966l2.9723-2.9723c.3839-.3838.6009-.9058.5991-1.4493Z"/>
  <path fill="#000" d="M1.59909 34.6397c-.38387-.3839-.59725-.9059-.59725-1.4476-.00179-.5435.21343-1.0637.59909-1.4494l2.97226-2.9722c.77312-.7731.77303-2.0252-.00009-2.7983l-2.97225-2.9723c-.38387-.3839-.59906-.9041-.60085-1.4476 0-.5418.21706-1.0637.60093-1.4476.38387-.3838.90404-.5991 1.44755-.6009.54351.0018 1.06368.2171 1.44755.6009l5.86927 5.8693c.7713.7713.7714 2.0234-.0017 2.7965l-5.86749 5.8674c-.38566.3857-.90591.6009-1.44763.6009s-1.06552-.2153-1.44939-.5991Z"/>
</svg>
