<svg xmlns="http://www.w3.org/2000/svg" fill="none" viewBox="0 0 48 48">
  <path fill="#000" d="M30.0154 20.8864c0-3.3741-2.6954-6.1136-6.0154-6.1136s-6.0154 2.7395-6.0154 6.1136C17.9846 24.2606 20.68 27 24 27s6.0154-2.7394 6.0154-6.1136Zm10.8388-7.1956c-2.5996.7056-7.4157 3.4572-9.7247 4.8282.0846.2627.1555.5318.2118.8063.2263.0015.4733.0024.7371.0025h.0993c2.8652-.0014 7.6173-.1084 9.9699-.747 1.332-.3616 2.1237-1.7507 1.7668-3.1002-.297-1.1227-1.2961-1.8666-2.3907-1.8765l-.0154-.0001c-.216-.0006-.4356.0274-.6541.0868Zm-35.00177 4.89c2.59997.7057 8.13067.7622 10.80627.7445.0563-.2745.1272-.5436.2116-.8063-2.3089-1.371-7.12504-4.1226-9.72446-4.8282-1.3321-.3616-2.70332.4404-3.06022 1.7898-.35691 1.3495.43472 2.7386 1.76681 3.1002Zm1.69509-5.7884c2.23686 1.5144 7.45188 3.3681 9.99248 4.2233.1401-.2409.293-.4733.4576-.6963-1.7524-2.0513-5.437-6.222-7.6734-7.73613-1.14658-.77622-2.69951-.46342-3.46582.69815-.7662 1.16158-.45733 2.73478.68914 3.51098ZM37.6177 8.49959c-2.2349 1.52071-5.9144 5.70621-7.6602 7.75961.1663.2209.3211.4512.4633.6901 2.5385-.8612 7.7496-2.7273 9.9831-4.247 1.1448-.779 1.45-2.3529.6811-3.51271-.7689-1.15969-2.3225-1.46885-3.4673-.69ZM11.03 7.82236c1.6294 2.16591 5.9628 5.62974 8.0939 7.27534.2097-.1825.4293-.3536.658-.512-1.0019-2.5192-3.1487-7.66705-4.7775-9.83208-.8358-1.11114-2.405-1.32573-3.5018-.47883-1.0968.84679-1.3086 2.43643-.4726 3.54757Zm21.9459-3.11432c-1.6354 2.17097-3.794 7.34356-4.7932 9.85316.2263.1549.4437.3221.6515.5004 2.1265-1.6394 6.4794-5.11198 8.1143-7.28218.8366-1.11059.6258-2.70034-.4705-3.5479-1.0962-.84756-2.6655-.63407-3.5021.47652Zm-17.1237-.41035c.8565 2.57791 3.858 7.25871 5.3571 9.51321.2568-.1047.5205-.1956.7902-.2713-.1516-2.7147-.5548-8.27952-1.4111-10.85687-.4398-1.32408-1.8581-2.037207-3.1651-1.59152-1.307.44558-2.0109 1.8824-1.5711 3.20648Zm11.5561-1.61552c-.8558 2.57747-1.2581 8.14233-1.4091 10.85693.2697.0759.5335.1666.7902.2713 1.4988-2.2547 4.4994-6.93601 5.3554-9.51414.4397-1.32419-.2646-2.76079-1.5716-3.20626-1.3071-.445358-2.7251.26799-3.1649 1.59217Zm-5.907-.15083c0 2.71928 1.3701 8.12326 2.0812 10.74516.1382-.0077.2774-.0116.4175-.0116s.2793.0039.4176.0116c.7111-2.6219 2.081-8.02588 2.081-10.74516C26.4986 1.13426 25.379 0 24 0c-1.379 0-2.4987 1.13426-2.4987 2.53134Zm9.832 42.61406c.1846.1849.2884.4356.2884.6971v1.1716c0 .2615-.1038.5122-.2884.6972-.1847.1849-.4351.2888-.6963.2887H17.9315c-.2611.0001-.5115-.1038-.6962-.2887-.1847-.185-.2884-.4357-.2884-.6972v-1.1716c0-.2615.1037-.5122.2884-.6971.1847-.185.4351-.2888.6962-.2888H30.637c.2612 0 .5116.1038.6963.2888Zm-6.6037-14.152s4.6346-5.2223 9.0271-7.6899C38.9397 20.3919 46.75 21.068 46.75 21.068s-6.2117 1.8724-9.9579 7.364c-3.3565 4.9203-5.4386 15.0976-5.4386 15.0976s-3.1357-7.6403-6.6239-12.5362Zm-7.7533 12.4269h12.5671c-.0045-.0095-5.2498-10.359-8.8288-14.8711C13.3368 19.2479 1.25 21.2491 1.25 21.2491s6.41886 2.6495 9.743 6.9095c1.756 2.2505 2.8917 6.3363 3.5893 9.7766.6443 3.1769 2.394 5.4851 2.394 5.4851Z"/>
</svg>
