<svg xmlns="http://www.w3.org/2000/svg" fill="none" viewBox="0 0 48 48">
  <path fill="#B27D53" fill-rule="evenodd" d="M44.8426 47.9999H24.7592V28.3585c.2688-3.1655.745-6.0809 1.9129-8.1619.6942.3896 1.9333 2.1123 2.3029 5.4456.906-1.636 2.0093-3.4701 4.0111-4.6333.1349 3.6104-.08 4.9842-1.0918 7.4976-1.4204 3.5286-5.3293 4.3501-5.3293 4.3501v13.3375h16.4718c0-10.8551.2048-21.7122-.0017-32.5654-.0035-.1089-.0096-.2174-.0186-.326-.0499-.5241-.1738-1.0373-.3791-1.5226-.5051-1.1942-1.4704-2.16758-2.6558-2.68668l-.0016-.0007c.3578-.5481.7235-1.0414 1.0853-1.4835.6478.3294 1.243.761 1.7574 1.2754.7269.7268 1.2884 1.61498 1.63 2.58468.2596.7371.385 1.511.3899 2.2917v34.2389Zm-21.6018 0H3.1574V13.761c.0049-.7807.1303-1.5546.3899-2.2917.3416-.9697.9031-1.85788 1.63-2.58468.5144-.5144 1.1096-.946 1.7574-1.2754.3618.4421.7275.9354 1.0853 1.4835l-.0016.0007c-1.1854.5191-2.1507 1.49248-2.6558 2.68668-.2053.4853-.3292.9985-.3791 1.5226-.009.1086-.0151.2171-.0186.326-.2065 10.8532-.0017 21.7103-.0017 32.5654H21.435V32.8566s-3.9089-.8215-5.3293-4.3501c-1.0118-2.5134-1.2267-3.8872-1.0918-7.4976 2.0018 1.1632 3.1051 2.9973 4.0111 4.6333.3696-3.3333 1.6087-5.056 2.3029-5.4456 1.1679 2.081 1.6441 4.9964 1.9129 8.1619v19.6414Zm8.3488-46.77138c-.0166.1643-.0391.3281-.0678.4912-.0402.2285-.0917.4548-.1536.6783-.5094 1.8396-1.6934 3.4045-2.978 4.7798-.2385.2553-.4822.5057-.7282.7537-.2317.2335-.4657.4648-.6994.6962.3819 1.1206.8226 2.22088 1.3171 3.29648.2016.4384.4126.8721.6314 1.3019.6205-.9598 1.3065-1.8774 2.0487-2.7448.5657-.66098 1.1652-1.29428 1.797-1.89348-.4787-.9089-.7532-1.9156-.9279-2.9253-.2527-1.4614-.3018-2.9525-.2393-4.434Zm-15.1792 0c.0166.1643.0391.3281.0678.4912.0402.2285.0917.4548.1536.6783.5094 1.8396 1.6934 3.4045 2.978 4.7798.2385.2553.4822.5057.7282.7537.2317.2335.4657.4648.6994.6962-.3819 1.1206-.8226 2.22088-1.3171 3.29648-.2016.4384-.4126.8721-.6314 1.3019-.6205-.9598-1.3065-1.8774-2.0487-2.7448-.5657-.66098-1.1652-1.29428-1.797-1.89348.4787-.9089.7532-1.9156.9279-2.9253.2527-1.4614.3018-2.9525.2393-4.434Z" clip-rule="evenodd"/>
  <path fill="#000" fill-rule="evenodd" d="M42.9816 4.55519c-3.1724 2.2862-6.8831 7.28241-7.3204 12.53981-.3561 4.2823-1.0878 6.1534-1.6342 6.9546.2421-1.4438.2406-3.4071-.0305-4.99-.6063.2683-1.6125.8866-2.5338 1.8026-.1145-.3746-1.0546-2.299-4.1515-1.4456.149-.4795.3133-.9538.4961-1.4219.4373-1.1197.9667-2.2032 1.5757-3.2404.0041-.0067.008-.0134.0118-.0202.6556-1.1142 1.403-2.1747 2.2265-3.1691.7003-.8458 1.4579-1.64611 2.269-2.38761.0243-.0188.0472-.0397.0686-.0625.5909-.5358 1.21-1.0404 1.8556-1.5086 1.8077-1.3109 3.8489-2.3563 6.0362-2.8509.3741-.0845.7512-.1503 1.1309-.2002Zm-37.9632 0c3.1724 2.2862 6.8831 7.28241 7.3204 12.53981.3561 4.2823 1.0878 6.1534 1.6342 6.9546-.2421-1.4438-.2406-3.4071.0305-4.99.6063.2683 1.6125.8866 2.5338 1.8026.1145-.3746 1.0546-2.299 4.1515-1.4456-.149-.4795-.3133-.9538-.4961-1.4219-.4373-1.1197-.9667-2.2032-1.5757-3.2404-.0041-.0067-.008-.0134-.0118-.0202-.6556-1.1142-1.403-2.1747-2.2265-3.1691-.7003-.8458-1.4579-1.64611-2.269-2.38761-.0243-.0188-.0472-.0397-.0686-.0625-.5909-.5358-1.21-1.0404-1.8556-1.5086-1.8077-1.3109-3.8489-2.3563-6.0362-2.8509-.3741-.0845-.7512-.1503-1.1309-.2002ZM25.9178 19.8861c-.3473-.2539-.8968-.7101-1.9305-.7069-1.0338.0033-1.57.4619-1.9051.7069-.258-1.624-1.3247-3.5721-2.2619-5.4556.4208-.7955 1.6789-3.5615 2.0146-4.60871.8915-2.7807 1.6694-6.1893 2.1651-8.0272.4764 1.843 1.2548 5.3691 2.1651 8.0272.3563 1.04041 1.5938 3.81321 2.0146 4.60871-.9372 1.8835-2.0039 3.8316-2.2619 5.4556Zm7.0129-16.65871c.2399-1.9042 2.3911-2.0447 3.7176-1.6005 1.9062.6384 2.5637 2.419 1.0326 3.4078-.7389.4772-1.5327.8665-2.2512 1.3679-.6035.4212-1.1856.8726-1.7454 1.3504l-.009-.0197c-.6447-2.0726-.8786-3.4426-.7446-4.5059Zm-17.8614 0c-.2399-1.9042-2.3911-2.0447-3.7176-1.6005-1.9062.6384-2.5637 2.419-1.0326 3.4078.7389.4772 1.5327.8665 2.2512 1.3679.6035.4212 1.1856.8726 1.7454 1.3504l.009-.0197c.6447-2.0726.8786-3.4426.7446-4.5059Zm10.3888-.8886C25.2372.834591 26.8115-.146709 27.9376.0179909c.7401.1082001 2.7487.6211001 2.1841 2.3438991-.2201.6717-.5476 1.3066-.932 1.899-.673 1.037-1.5169 1.9456-2.3823 2.8227-.085.0852-.1702.1702-.2554.2551-.3347-1.1283-.6108-2.2738-.8307-3.43-.0992-.5215-.1861-1.0449-.2632-1.5699Zm-2.9162 0C22.7628.834591 21.1885-.146709 20.0624.0179909 19.3223.126191 17.3137.639091 17.8783 2.36189c.2201.6717.5476 1.3066.932 1.899.673 1.037 1.5169 1.9456 2.3823 2.8227.085.0852.1702.1702.2554.2551.3347-1.1283.6108-2.2738.8307-3.43.0992-.5215.1861-1.0449.2632-1.5699Z" clip-rule="evenodd"/>
</svg>
