<svg xmlns="http://www.w3.org/2000/svg" fill="none" viewBox="0 0 48 48">
  <path fill="#000" fill-rule="evenodd" d="M3 48h42v-.4429H3V48Zm0-.6397h42v-1.0542H3v1.0542Zm25.0712-35.8098-3.0033 18.9999s-.2071 3.3536 1.5262 5.2511c.8381.9175 1.8644 1.1723 2.8172 1.7199.841.4833 1.7983 1.3606 1.946 2.4005.2324 1.6361-1.4998 1.855-2.4208 1.5057-.9797-.3716-1.7237-.5065-2.7029-.4652-2.1794.0919-2.6708 1.6671-2.6636 2.242.0247 1.9645 1.8799 2.6894 1.8799 2.6894s-1.8284.0101-3.246.0229c-8.3436.0755-11.2027-5.6484-12.2684-12.2541L6.368 11.5505h21.7032Zm14.34 34.322H27.8226s-3.1121-.0598-3.0743-2.2811c.0307-1.8 2.0111-2.3796 4.3313-1.6045.6292.2102 1.6381.214 2.8799.3762 1.2584.1643 2.7604-.0586 4.6533.7734.1485.0653.4886-.0035.8899.0092.3638.0115.7932.1094.8905.0761.5459-.1871.8251-.4775 1.3585-.4656.2078.0046.3906.1797.5132.3293.1547-.1267.2512-.2226.4452-.2234.4531-.0021.6298.6693.9118 1.0888.7696.1731 1.3372 1.1159 1.4619 1.605.0254.0996-.2322.2373-.3112.1716-.3626-.3012-1.8455-2.2534-2.0703-2.2518-.0993.0007.1543.5215.2061.6964-.396-.254-1.1069-1.2422-1.3921-.9527-.3511.3565.8738 1.2183.3617 1.3929-.2769.0944-.874-.4669-1.595-.6975-.5968-.1908-1.8103-.0801-1.9793-.1841-1.3742-.8457-4.8162-.7258-7.349-.9202-.4306-.0331-.939-.2886-1.5652-.3426-.8423-.0726-1.7139.2258-1.7046 1.2107.0045.4874.4539 1.4198 1.7733 1.4597 3.2493.0981 8.7411-.0449 8.7411-.0449l-.6978-.5112s-6.2584-.0399-7.679-.102c-.6604-.0289-.8328-.7484-.7624-.9626.1578-.4806.9146-.3454.9146-.3454s.8121.1005 1.2286.1222c1.2999.0676 4.8745.3521 6.536.846.4757.1414 1.3218.0848 1.9054.1913 1.0673.1949 1.5066.4319 2.3068 1.0523l.631-.0041s-.0968-.5666-.0131-.6972c.0836-.1307.2225-.0935.3721-.0377.1496.0557.3018.2597.4234.2939.1216.0342.1644-.1323.2989-.1054.2793.0558.5003.4274.6581.6786.0707.1124.089.357.0893.3604Zm-21.3454-3.3694c-.1795.5903.0608.97.5543 1.183l-2.816.8219c-.3745.1093-.7666-.1056-.8759-.4801-.0906-.3104.087-.6344.3964-.7247l2.7412-.8001Zm2.471-.7081c-.0626.5215-.1493.9793-.2224 1.3966l-1.1473.3349c-.3367-.0664-.6869-.2292-.738-.6155-.0338-.2552.1214-.457.3225-.6081l1.7852-.5079Zm-2.4543-.892c-.3666.5016-.1908.9596.4284 1.2198l-2.8085.8198c-.3745.1093-.7667-.1057-.876-.4801-.0906-.3105.087-.6345.3964-.7248l2.8597-.8347Zm10.6008-17.9714c-1.4824.6913-3.5977 2.8597-4.4574 4.5692-.0611.1214-.2007.3881-.3104.5928-.2107.3929-.6046 1.316-.7005 1.6415-.2508.8519-.3107 1.0954-.4048 1.6449-.283 1.6527-.0362 2.9644.7181 3.8171.5568.6295 1.0088.8914 2.9682 1.7196.25.1057.4404.2007.8646.4314 1.5551.846 2.1969 2.6254 1.5675 4.2223-.1009.2559-.1529.2668 1.1659.3767 1.5082.1257 2.6604.3253 3.0702.5292-.1719-2.1798-.604-8.0595-.7494-9.4162-.0197-.1843-.1162-.2082-.2168-.2098-.3285-.0053-.9166-.0133-1.2669-.199.1458-.184.2892-.3085.5283-.4556l-.653-.0267c-.9595-.0948-1.1826-.5324-.2936-.9882 0 0-1.2384.1495-1.2365-.9075.0003-.2019.0281-.2765.2069-.2309.1687.043.561.0356.5592-.0107-.0041-.1107-.2334-.1649-.3517-.2118-.2757-.109-.4027-.3126-.4844-.5576-.0812-.2429.02-.3024.3776-.4642.4778-.2161.4944-.4125.0769-.4125-.8685 0-.8553-1.3464-.0503-2.0462.4029-.3502.4286-.4687.153-.5586-.4111-.1342-.983-.8278-.9541-1.4676.042-.9316 2.1599-1.4209 2.5036-.5684.0907.225.4893.2695.4785-.0128-.0055-.1442.2622-.3954.5708-.5259.1365-.0577-.2268-.2963-.4911-.4264-.4408-.2171-1.3871-.2849-2.0841-.1554-.6746.1253-.809.1696-1.1043.3073ZM23.619 40.1627c.0108.4989-.0121.9489-.0525 1.3601l-1.4514.4237c-.7625-.0887-1.0288-.6088-.607-1.1677l2.1109-.6161Zm.4833 1.3628s.2299-3.9002-1.0459-6.6044c-1.3705-2.905-4.4937-6.0009-6.2873-8.046-.1845-.2105-.4433-.7935-.4054-1.2366.1641-1.917 2.8826-1.4729 2.8826-1.4729s.0722.6227.1872.9103c.8968 2.2439 3.672 5.0323 4.9848 7.6231 1.3395 2.6434 2.7591 7.988 2.7591 7.988-1.5101-.1803-2.5479.0872-3.0751.8385Zm-3.2749-2.148c-.2024.7109.1202.9995.5052 1.1974l-2.8012.8176c-.3744.1093-.7666-.1057-.8759-.4801-.0906-.3104.087-.6344.3964-.7248l2.7755-.8101Zm2.6562-.7752c.0699.47.1097.9043.1272 1.3076l-1.5278.446c-.3348-.0082-.6019-.1162-.7449-.3074-.1678-.2244-.165-.5726.1361-.8597l2.0094-.5865Zm-2.9904-.7176c-.3094.4499-.0728.9862.5013 1.1985l-2.8679.8371c-.1798.0525-.3731.0314-.5374-.0587-.1642-.09-.286-.2416-.3385-.4214l-.0003-.001c-.0903-.3094.0873-.6335.3967-.7238l2.8461-.8307Zm2.6878-.7845c.1127.449.1998.8706.2656 1.2673l-1.8534.541c-.7407-.0644-.9088-.5123-.6607-1.152l2.2485-.6563Zm-3.2024-.6605c-.223.8367.1708 1.0303.6228 1.1631l-2.9299.8552c-.3744.1092-.7666-.1057-.8759-.4802-.0906-.3104.087-.6344.3964-.7247l2.7866-.8134Zm2.7709-.8087c.1448.4336.2677.8452.3714 1.2364l-2.1047.6143c-.3539-.0902-.586-.4021-.64-.5996-.0727-.2654.0295-.4662.1593-.6049l2.214-.6462Zm-3.3766-.5623c-.2456.4912-.0184 1.0185.5542 1.1357l-2.8999.8465c-.1788.0521-.371.0312-.5344-.0584-.1633-.0895-.2844-.2403-.3366-.4191-.0438-.1502-.0258-.3102.0496-.4456.0753-.1355.2019-.2351.3512-.2766l2.8159-.7825Zm2.7726-.8496c.2093.3876.3879.7824.5267 1.1841l-2.2418.6543c-.2927-.0319-.6391-.1685-.7256-.6195-.0396-.1771.0594-.3737.1876-.5251l2.2531-.6938Zm-3.593-.4749c-.1876.6278.1366.9726.5989 1.0915l-2.9176.8516c-.3567.1041-.7307-.0981-.839-.4536-.0439-.144-.0281-.2988.0436-.4302.0716-.1314.1931-.2286.3371-.2695l2.777-.7898Zm2.7422-.8624c.2648.3647.5102.7368.7276 1.1159l-2.345.6845c-.524-.0452-.8972-.4912-.69-1.0714l2.3074-.729Zm-3.8896-.395c.1707.6415.3709.9683.6287 1.0799l-2.7277.7962c-.1702.0497-.3531.0297-.5086-.0555-.1554-.0852-.2707-.2287-.3203-.3989-.0406-.1391-.0244-.2879.0449-.4143.0693-.1265.186-.2202.3245-.2606l2.5585-.7468Zm2.9018-.847c.2861.3338.564.6747.8256 1.0225l-2.4692.7207c-.4366-.0861-.8695-.5733-.5579-1.1006l2.2015-.6426Zm-4.0555-.3905c.052.0249.1004.0519.1356.0792.2787.2156-.0898.6092.7268.946l-2.8987.846c-.3575.1044-.732-.1009-.8363-.4584-.0411-.1408-.0247-.2915.0455-.4196s.1884-.223.3286-.2639l2.4985-.7293Zm17.0394-3.2263c.1833-.0351.1835.2399.0189.6604-.1774.4533-.7707.4959-.7147.5875.2453.4016 1.0244.2424 1.2335.3104.1516.0493-.0816.5811-.5791.9075-.3636.2387-.2435.3508.236.3851.2197.0157.5292-.2022.8233-.1993.1045.001.0814.5555-.2185.7824-.702.5314-.1313.5094.7479.2614.4908-.1384.4024.0149.2145.3732-.1137.2169-.3445.3295-.2757.3968.092.09.8279.2058 1.3765-.4877.1019-.1288.1291-.3159-.144-.5197-.9607-.7169-1.3526-1.575-1.6744-2.8662-.1081-.4343-.1662-2.166-.0785-2.555.0546-.242-.0078-.2347-.615.0722-1.4649.7406-1.7149 2.1525-.3507 1.891Zm3.9949.9743c-2.0247.0178-2.5585 1.3619-.9982 2.3099.2452.1488.1921.1944.1922.4.0001.2923.2867.472.5261.4929.5343.0465.8263-.1483.9245-.8133.048-.3259.1399-.496.4716-.9414.1575-.2115.2292-.3493.1871-.3647-.0783-.0287-.2838.0186-.4465.2939-.5459.9241-1.9433.7108-2.2571.0433-.2183-.4643.1702-1.0977 1.5711-1.1029.987-.0035 1.0234.0364 1.1145.3694.0727.266.2427.1578.6002-.3823.5893-.8903.5121-1.0438-.0896-.716-.5699.3104-1.0651.4047-1.7959.4112Zm-18.1031 1.3965c.3073.3281.6164.6645.9184 1.0088l-2.3894.6974c-.23-.0568-.4482-.1925-.6125-.4098-.1382-.1827-.1287-.4772.0742-.7099l2.0093-.5865Zm-3.6821-.4952c-.1584.5924.0138.8562.5937 1.0439l-2.9101.8494c-.1705.0498-.3537.0298-.5093-.0556-.1557-.0853-.2711-.229-.3209-.3994-.0414-.1419-.0242-.2935.0476-.4217.0717-.1282.1919-.2222.3336-.2609l2.7654-.7557Zm2.4894-.7666c.2994.319.6136.6475.9324.9851l-2.3231.678c-.6143-.1252-.8097-.6293-.5195-1.0724l1.9102-.5907Zm-3.6458-.4792c-.0443.6634.391.879.8413.9598l-2.9855.8714c-.3952.1154-.8106-.1034-.9391-.4945-.0159-.0484-.0316-.0964-.0469-.1429-.0381-.116-.0255-.2427.0347-.3489.0602-.1062.1624-.1821.2814-.209l2.8141-.6359Zm22.4756 1.1969c.3945-.0026.7389.0243 1.1059.4053.0345.0359.0767-.0846.1031-.1406.0596-.1265.1771-.2604.0548-.3468-.2414-.1705-.9336-.2132-1.4632-.0515-.3156.0965-.1765.1361.1994.1336Zm-19.9392-1.9595c.2587.314.5501.6396.8616.9762l-2.0627.602c-.8116-.0209-.9537-.6733-.8927-1.0436l.2819-.1744 1.8119-.3602ZM13.5 27.3198c.103.4862.4019.7159.7183.914l-3.1247.7798c-.2395.0598-.4902-.041-.6218-.2499-.085-.135-.1849-.2936-.2813-.4467-.0841-.1336-.0932-.3011-.024-.443.0692-.1418.2068-.2378.3639-.2537l2.9696-.3005Zm23.2915.7553c-.1005.1669-.248.3918-.4916.6023-.1684.1455 1.7478-.016 2.2393-.2976.345-.1976.7256-.1625.8232-.1373.1429.037.1185-.1733-.0117-.5552-.2662-.7803-.7284-1.0148-1.3692-.7931-.4152.1437-.7703.4836-1.19 1.1809Zm-.0606-1.6341c-.184.1689-.4402.4222-.6242.5506-.7458.52-1.0802 1.0352-.7923 1.3198.4907.4854 1.4052-.33 1.419-1.3062.0059-.4113.3593-.8093 1.3363-.9255.2607-.031.3332-.1316.0461-.1265-.2914.0052-.5676.0106-.6136.0261-.2967.1001-.4794.1938-.7713.4617Zm-20.6923.2351c.1589.3044.3754.6229.6341.9549l-2.0123.4925c-.4163-.205-.9968-.8584-.509-1.2884l.0006-.0041 1.8866-.1549Zm21.7405-.2032c.2688-.035.6635-.0828.9366.0206.5928.2242 1.0087.7914 1.0275 1.2005.01.2176.1433.3192.2056.071.0418-.1663.2196-.5845.2283-.9875.0016-.0754-.0084-.2062-.0722-.2465-.0679-.0428-.3517-.0154-.4802-.0385-.1693-.0306-.4374-.0935-.5796-.1682-.3247-.1705-.9703-.1178-1.3239-.016-.081.0233-.2113.1996.0579.1646Zm-24.3912.6499-3.1286.0872c-.2843.0079-.531-.1944-.579-.4747-.0173-.1006-.0361-.2104-.0553-.3228-.0441-.2572.0351-.5202.2138-.7104.1788-.1901.4364-.2855.6959-.2574.956.1033 1.7411.1935 2.2197.2472.0721.7403.4537 1.2353.6335 1.4309Zm21.6138-.3458c.3062.3033.879.2053 1.1062-.0877.6108-.7875 1.1012-.992 1.8583-.9952.256-.001.1394-.1173-.093-.3358-.3092-.2906-.5038-.3175-.8775-.2966-.2853.0159-.3838-.002-.3837-.0882.0003-.3488-.6054-.5638-1.0208-.3071-.7303.4513-1.0552 1.6495-.5895 2.1106Zm2.5108-1.3257c.0244.0376-.6161.219-.8752.4021-.1082.0764-.1711.1546-.271.2084-.0215.0116-.4078.0043-.5536-.1638-.1582-.1824-.0682-.6013.2253-.5971.1779.0025.075.1494.0088.3158-.0368.0926-.0216.213.0372.2309.5392.1642.3759-.6875.0543-.7422-.2362-.0401-.6956.1347-.7225.5036-.0126.1725.0072.3356.2185.4984.1783.1373.3971.0995.576.0853-.2377.2471-.4842.4535-.7664.4383-.3752-.0202-.4219-.6968-.1795-1.1802.1424-.284.4897-.6039.7641-.5906.374.0183.3339.2654.5045.4366.099.0995.8406-.0592.9795.1545Zm-21.4943.9275-2.3029.0979c-.6338-.4648-.6618-2.2842-.3448-2.5192.6594.7744 1.5958 1.0562 2.5532 1.204-.0337.1585-.0553.3334-.0633.5262-.0075.1813.0062.5061.1578.6911Zm18.6304-2.0023c-.1913.1766-.2575.1674-.4735-.1556-.2273-.3399-.5229-.4841-.7953-.4875-.6289-.0081-1.1634.576-1.2082.6649-.0381.0756.0739.1031.1103.2404.1204.4544.5832 1.0911 1.2045 1.1257.4773.0266.8875-.1422 1.2108-.6596.3166-.5067.6299-.844.9687-.9654.4768-.171.9306.0186 1.3568.4535.0677.0691.2754.1005.3413.0977.1295-.0057.4347.2199.5877.4046.3136.3784.4558.3932.3809.1467-.0557-.1833-.7012-.873-1.0627-.9907-.3275-.1066-.6878-.6835-1.2353-.7971-.2395-.0498-.4403.1104-.6387.2816-.2551.2199-.6733.5726-.7473.6408Zm-21.9149 1.0094c-.4836-.0844-1.8338-.3187-2.7942-.474-.1819-.0293-.3445-.1298-.4521-.2793-.1077-.1494-.1515-.3355-.1217-.5173.0256-.1567.0531-.3245.0794-.4855.0314-.1921.1497-.359.3205-.4523.1708-.0934.3752-.1027.5538-.0254.8604.3723 1.9474.8586 2.4162 1.069-.0396.3624-.0176.8935-.0019 1.1648Zm3.2502-.4527c-.8611-.1291-1.4277-.3431-2.3607-1.1047-.5105-.5982.6319-2.0974 1.1692-1.6911.3325 1.1302.9272 1.5553 1.6274 2.0739-.1871.179-.3378.4142-.4359.7219Zm.5925-.8531c-.562-.4966-1.1274-1.2142-1.313-1.8594-.0417-.145-.0587-.3849.0033-.4861.4228-.6911 1.4961-.6037 1.877-.5493.0743.0106.1192.0901.1126.1433-.0977.7843.0427 1.3823.2445 1.8898.0131.033.0666.4919-.0053.5039-.3367.0565-.6546.1641-.9191.3578Zm-3.7838-.168-2.5195-1.3245c-.1842-.0969-.3223-.2631-.3838-.4619-.0614-.1988-.0412-.414.0563-.5978.0109-.0207.0219-.0414.033-.0623.1254-.2366.3513-.4036.6143-.4542.2629-.0506.5347.0208.7389.194l1.8962 1.6083c-.1645.2774-.3393.7064-.4354 1.0984Zm5.1818-.2389c-.3231-.4413-.4138-1.6066-.3636-2.3071.0096-.1338.1057-.1785.142-.177.6887.0297 1.2062.2197 1.7398.7083.0621.0569.0765.2047.0487.2438-.3299.4628-.464.9859-.4362 1.5592-.348-.0201-.7412-.0457-1.1307-.0272Zm-4.6025-1.0822c-.4825-.401-1.8553-1.5517-1.9896-1.7699-.2009-1.1939.9165-1.8976 1.6539-1.6281.2034.2923.9308 1.8392 1.201 2.4188-.4146.329-.6953.7232-.8653.9792Zm5.7435-1.5903c.3932-.4698 1.2966-1.5378 1.676-1.8935.2746-.2574.7653-.3855.9984-.1979.2129.1714.5803.5509.6469.8471.0949.4218-.0097.7136-.3451.9302-.3931.254-1.6086.9212-2.1199 1.2-.2387-.4014-.513-.6891-.8563-.8859Zm-4.6199.4188c-.3042-.5995-1.082-2.1406-1.2629-2.5767-.0547-.1319-.0835-.3359.0321-.4675.4265-.4859 1.4187-.8304 1.9451-.777.2299.0233.3108.1415.3179.325.0251.6504.0713 2.319.087 2.8968-.3977.1335-.7901.3663-1.1192.5994Zm3.0491-.7741c.2445-.6493.7691-2.0388.9397-2.4651.0495-.1236.1477-.4565.3248-.5517.1972-.106.669-.1536.9917-.0736.3228.08.6752.3521.7876.5667.1125.2146.0533.4636-.0785.6676-.2546.3941-1.1918 1.5798-1.6091 2.1039-.3676-.1594-.809-.2347-1.3562-.2478Zm-1.6642.1015c-.011-.6639-.0345-2.5355.0373-3.058.0344-.2498.2144-.4521.4568-.5217.3109-.0895 1.1399-.0934 1.4541.0129.2565.0868.4736.3158.434.5837-.0731.4957-.7151 2.1866-.9836 2.8799-.3516.0034-.7439.0284-1.1839.0699-.0711.0067-.1428.018-.2147.0333Zm12.2334-9.4661H6.3245l-.0483-.2991h21.8849l-.0473.2991Zm.137-.8667H6.1847l-.1024-.6345c.0747-.0175.1485-.0389.2212-.0649.2385-.0851.4587-.216.6485-.3836.1797-.1587.3308-.3477.4566-.5514.0938-.1518.174-.3119.2436-.4762.0146-.0346.0279-.0699.0411-.1052V7.584c-.0189.0049-.0374.0113-.0554.019-.1071.0461-.1835.137-.2353.2391-.0339.0666-.0567.1381-.0839.2075-.0127.0322-.0261.064-.0392.0959-.033.0751-.0668.1494-.1036.2228-.0926.1777-.1991.3477-.3318.4986-.2167.2466-.4961.4254-.8142.5092l-.0122.0031-1.2733-7.892h24.9174l-1.2543 7.9357c-.0807-.0104-.1609-.0261-.2393-.0468-.3181-.0838-.5974-.2626-.8142-.5092-.1326-.1509-.2392-.3209-.3318-.4986-.0368-.0734-.0706-.1477-.1036-.2228-.0131-.0319-.0265-.0637-.0391-.0959-.0273-.0694-.0501-.1409-.084-.2075-.0518-.1021-.1282-.193-.2353-.2391-.018-.0077-.0365-.0141-.0554-.019v.6143c.0132.0353.0265.0706.0412.1052.0696.1643.1497.3244.2435.4762.1259.2037.2769.3927.4566.5514.1898.1676.4101.2985.6486.3836.1461.0522.2968.0861.4498.1068l-.0937.5926Zm-13.4862-.9739s.1784-.0018.2291-.0047c.1259-.0072.252-.0273.3739-.0594.3181-.0838.5974-.2626.8142-.5092.1326-.1509.2392-.3209.3318-.4986.0367-.0734.0705-.1477.1036-.2228.013-.0319.0265-.0637.0391-.0959.0273-.0694.0501-.1409.0839-.2075.0518-.1021.1283-.193.2353-.2391.018-.0077.0366-.0141.0555-.019v.6143c-.0132.0353-.0265.0706-.0412.1052-.0696.1643-.1498.3244-.2436.4762-.1258.2037-.2769.3927-.4566.5514-.1897.1676-.41.2985-.6485.3836-.2009.0718-.4102.1089-.6225.1248-.0629.003-.2665.0059-.2665.0059-.0662.0001-.1825-.0031-.2414-.0059-.2123-.0159-.4216-.053-.6225-.1248-.2385-.0851-.4588-.216-.6485-.3836-.1797-.1587-.3308-.3477-.4566-.5514-.0938-.1518-.174-.3119-.2436-.4762-.0147-.0346-.028-.0699-.0412-.1052V7.584c.0189.0049.0375.0113.0555.019.107.0461.1835.137.2353.2391.0338.0666.0566.1381.0839.2075.0126.0322.0261.064.0391.0959.0331.0751.0669.1494.1036.2228.0926.1777.1992.3477.3318.4986.2168.2466.4961.4254.8142.5092.1219.0321.248.0522.3739.0594.0541.0031.1748.001.229.0047Zm9.3377.4051s-.195-.003-.254-.0058c-.2122-.0159-.4216-.053-.6225-.1248-.2385-.0851-.4587-.216-.6485-.3836-.1797-.1587-.3308-.3477-.4566-.5514-.0938-.1518-.174-.3119-.2436-.4762-.0146-.0346-.0279-.0699-.0411-.1052V7.584c.0189.0049.0374.0113.0554.019.1071.0461.1835.137.2353.2391.0339.0666.0567.1381.0839.2075.0127.0322.0261.064.0392.0959.033.0751.0668.1494.1036.2228.0926.1777.1991.3477.3318.4986.2167.2466.4961.4254.8142.5092.1219.0321.2479.0522.3738.0594.0542.0031.1749.001.2291.0047 0 0 .1783-.0018.2291-.0047.1258-.0072.2519-.0273.3738-.0594.3181-.0838.5974-.2626.8142-.5092.1326-.1509.2392-.3209.3318-.4986.0368-.0734.0706-.1477.1036-.2228.0131-.0319.0265-.0637.0391-.0959.0273-.0694.0501-.1409.084-.2075.0518-.1021.1282-.193.2353-.2391.018-.0077.0365-.0141.0554-.019v.6143c-.0132.0353-.0265.0706-.0411.1052-.0696.1643-.1498.3244-.2436.4762-.1259.2037-.2769.3927-.4566.5514-.1898.1676-.4101.2985-.6486.3836-.2008.0718-.4102.1089-.6224.1248-.0629.003-.191.0065-.254.0058Zm-4.6579-.4057c.0581-.0028.1674-.0012.2182-.0041.1258-.0072.2519-.0273.3738-.0594.3181-.0838.5974-.2626.8142-.5092.1326-.1509.2392-.3209.3318-.4986.0368-.0734.0706-.1477.1036-.2228.013-.0319.0265-.0637.0391-.0959.0273-.0694.0501-.1409.0839-.2075.0518-.1021.1283-.193.2353-.2391.018-.0077.0366-.0141.0555-.019v.6143c-.0132.0353-.0265.0706-.0412.1052-.0696.1643-.1497.3244-.2436.4762-.1258.2037-.2768.3927-.4565.5514-.1898.1676-.4101.2985-.6486.3836-.2009.0718-.4102.1089-.6224.1248-.0629.003-.191.0065-.254.0058-.063.0007-.1911-.0028-.254-.0058-.2123-.0159-.4216-.053-.6225-.1248-.2385-.0851-.4588-.216-.6485-.3836-.1797-.1587-.3308-.3477-.4566-.5514-.0938-.1518-.174-.3119-.2436-.4762-.0147-.0346-.028-.0699-.0412-.1052V7.584c.019.0049.0375.0113.0555.019.1071.0461.1835.137.2353.2391.0338.0666.0567.1381.0839.2075.0126.0322.0261.064.0391.0959.0331.0751.0669.1494.1037.2228.0925.1777.1991.3477.3317.4986.2168.2466.4961.4254.8143.5092.1218.0321.2479.0522.3738.0594.0541.0031.24.0041.24.0041Zm-9.5777-.0041c.0542.0031.4074.0029.4582 0 .1259-.0072.252-.0273.3738-.0594.3182-.0838.5975-.2626.8143-.5092.1326-.1509.2392-.3209.3317-.4986.0368-.0734.0706-.1477.1037-.2228.013-.0319.0265-.0637.0391-.0959.0272-.0694.0501-.1409.0839-.2075.0518-.1021.1282-.193.2353-.2391.018-.0077.0365-.0141.0555-.019v.6143c-.0132.0353-.0265.0706-.0412.1052-.0696.1643-.1498.3244-.2436.4762-.1258.2037-.2769.3927-.4566.5514-.1898.1676-.41.2985-.6485.3836-.2009.0718-.4102.1089-.6225.1248-.0629.003-.449.0028-.508 0-.2122-.0159-.4215-.053-.6224-.1248-.2385-.0851-.4588-.216-.6486-.3836-.1797-.1587-.3307-.3477-.4565-.5514-.0939-.1518-.174-.3119-.2436-.4762-.0147-.0346-.028-.0699-.0412-.1052V7.584c.0189.0049.0374.0113.0555.019.107.0461.1835.137.2353.2391.0338.0666.0566.1381.0839.2075.0126.0322.0261.064.0391.0959.033.0751.0668.1494.1036.2228.0926.1777.1992.3477.3318.4986.2168.2466.4961.4254.8142.5092.1219.0321.248.0522.3738.0594ZM7.6305 7.3996c-.0679.0595-.1405.1232-.1595.1399-.0031.0027-.0071.004-.0112.0037-.0349-.0036-.0833-.0227-.111-.068-.0051-.009-.0029-.0203.005-.0268.054-.0476.2775-.2444.3687-.3247.0223-.0196.0557-.0196.078 0 .1019.0898.3686.3247.3686.3247.008.0065.0101.0178.0051.0268-.0278.0453-.0762.0644-.1111.068-.004.0003-.0081-.001-.0112-.0037-.0311-.0273-.2058-.1805-.2682-.2353-.0127-.0112-.0317-.0112-.0445 0-.0373.0328-.1087.0954-.1087.0954Zm4.6688 0c-.0678.0595-.1405.1232-.1595.1399-.0031.0027-.0071.004-.0112.0037-.0348-.0036-.0832-.0227-.111-.068-.005-.009-.0029-.0203.005-.0268.0541-.0476.2775-.2444.3687-.3247.0223-.0196.0557-.0196.078 0 .1019.0898.3686.3247.3686.3247.008.0065.0101.0178.0051.0268-.0278.0453-.0762.0644-.111.068-.0041.0003-.0082-.001-.0112-.0037-.0312-.0273-.2058-.1805-.2683-.2353-.0127-.0112-.0317-.0112-.0444 0-.0374.0328-.1088.0954-.1088.0954Zm4.6688 0c-.0678.0595-.1404.1232-.1595.1399-.0031.0027-.0071.004-.0112.0037-.0348-.0036-.0832-.0227-.111-.068-.005-.009-.0029-.0203.0051-.0268.054-.0476.2774-.2444.3686-.3247.0223-.0196.0557-.0196.078 0 .102.0898.3686.3247.3686.3247.008.0065.0101.0178.0051.0268-.0278.0453-.0762.0644-.111.068-.0041.0003-.0081-.001-.0112-.0037-.0312-.0273-.2058-.1805-.2683-.2353-.0127-.0112-.0317-.0112-.0444 0-.0374.0328-.1088.0954-.1088.0954Zm4.6689 0c-.0679.0595-.1405.1232-.1596.1399-.003.0027-.0071.004-.0112.0037-.0348-.0036-.0832-.0227-.111-.068-.005-.009-.0029-.0203.0051-.0268.054-.0476.2775-.2444.3686-.3247.0223-.0196.0557-.0196.078 0 .102.0898.3687.3247.3687.3247.0079.0065.01.0178.005.0268-.0278.0453-.0762.0644-.111.068-.0041.0003-.0081-.001-.0112-.0037-.0312-.0273-.2058-.1805-.2683-.2353-.0127-.0112-.0317-.0112-.0444 0-.0374.0328-.1087.0954-.1087.0954Zm4.6688 0c-.0679.0595-.1405.1232-.1595.1399-.0031.0027-.0072.004-.0112.0037-.0349-.0036-.0833-.0227-.1111-.068-.005-.009-.0029-.0203.0051-.0268.054-.0476.2775-.2444.3687-.3247.0222-.0196.0557-.0196.0779 0 .102.0898.3687.3247.3687.3247.0079.0065.0101.0178.005.0268-.0277.0453-.0761.0644-.111.068-.0041.0003-.0081-.001-.0112-.0037-.0311-.0273-.2058-.1805-.2682-.2353-.0127-.0112-.0318-.0112-.0445 0-.0373.0328-.1087.0954-.1087.0954Zm.131-2.1897.6597-.6123s.7962-.7888 1.0077-.9751c.1212-.1067.2473-.1009.2473-.1009s-.7938 1.4752-.7907 2.3466c.0034.9523-.6254 1.4829-.6254 1.4829l-.4986-.4391-.4986.4391s-.6288-.5306-.6254-1.4829c.0031-.8714-.7907-2.3466-.7907-2.3466s.1261-.0058.2473.1009c.2115.1863 1.0077.9751 1.0077.9751l.6597.6123Zm-18.6753 0 .6597-.6123s.7962-.7888 1.0077-.9751c.1212-.1067.2473-.1009.2473-.1009s-.7938 1.4752-.7907 2.3466c.0034.9523-.6254 1.4829-.6254 1.4829l-.4986-.4391-.4986.4391s-.6288-.5306-.6254-1.4829c.0031-.8714-.7907-2.3466-.7907-2.3466s.1261-.0058.2473.1009c.2115.1863 1.0077.9751 1.0077.9751l.6597.6123Zm4.6688 0 .6597-.6123s.7962-.7888 1.0077-.9751c.1212-.1067.2473-.1009.2473-.1009s-.7938 1.4752-.7907 2.3466c.0034.9523-.6254 1.4829-.6254 1.4829l-.4986-.4391-.4986.4391s-.6288-.5306-.6254-1.4829c.0031-.8714-.7907-2.3466-.7907-2.3466s.1262-.0058.2473.1009c.2115.1863 1.0077.9751 1.0077.9751l.6597.6123Zm4.6688 0 .6597-.6123s.7962-.7888 1.0077-.9751c.1212-.1067.2473-.1009.2473-.1009s-.7937 1.4752-.7907 2.3466c.0034.9523-.6254 1.4829-.6254 1.4829l-.4986-.4391-.4986.4391s-.6287-.5306-.6254-1.4829c.0031-.8714-.7906-2.3466-.7906-2.3466s.1261-.0058.2473.1009c.2115.1863 1.0077.9751 1.0077.9751l.6596.6123Zm4.6689 0 .6596-.6123s.7962-.7888 1.0077-.9751c.1212-.1067.2473-.1009.2473-.1009s-.7937 1.4752-.7906 2.3466c.0033.9523-.6254 1.4829-.6254 1.4829l-.4986-.4391-.4986.4391s-.6288-.5306-.6254-1.4829c.003-.8714-.7907-2.3466-.7907-2.3466s.1261-.0058.2473.1009c.2115.1863 1.0077.9751 1.0077.9751l.6597.6123Zm-5.2261-.7234c-.3318-.3077-.733-.6801-.9694-.8999-.0547-.0507-.085-.1225-.0832-.1971.0018-.0746.0356-.1448.0927-.1928.0578-.0503.1332-.0715.2073-.0602.0742.0113.1399.0539.1804.117l.6667 1.0331c-.0436.059-.0761.1267-.0945.1999Zm9.3376 0c-.3317-.3077-.733-.6801-.9694-.8999-.0547-.0507-.085-.1225-.0832-.1971.0019-.0746.0356-.1448.0928-.1928.0578-.0503.1332-.0715.2073-.0602.0741.0113.1398.0539.1803.117l.6667 1.0331c-.0435.059-.076.1267-.0945.1999Zm-14.0064 0c-.3318-.3077-.7331-.6801-.9694-.8999-.0548-.0507-.0851-.1225-.0832-.1971.0018-.0746.0356-.1448.0927-.1928.0578-.0503.1332-.0715.2073-.0602.0741.0113.1398.0539.1804.117l.6666 1.0331c-.0435.059-.076.1267-.0944.1999Zm9.3376 0c-.3317-.3077-.733-.6801-.9694-.8999-.0547-.0507-.085-.1225-.0832-.1971.0018-.0746.0356-.1448.0927-.1928.0578-.0503.1332-.0715.2074-.0602.0741.0113.1398.0539.1803.117l.6667 1.0331c-.0435.059-.0761.1267-.0945.1999Zm-14.0065 0c-.3317-.3077-.733-.6801-.9694-.8999-.0547-.0507-.085-.1225-.0832-.1971.0019-.0746.0356-.1448.0928-.1928.0578-.0503.1332-.0715.2073-.0602.0741.0113.1398.0539.1803.117l.6667 1.0331c-.0435.059-.076.1267-.0945.1999Zm1.0195-.2007c.2344-.3631.5033-.7794.6667-1.0318.0405-.0627.1059-.105.1797-.1162.0738-.0112.1488.0099.206.0578.0596.0482.0935.1188.0953.1938.0017.0749-.0288.147-.0839.1979l-.969.8983c-.0185-.0732-.0512-.1408-.0948-.1998Zm18.6753 0c.2344-.3631.5033-.7794.6667-1.0318.0405-.0627.1059-.105.1797-.1162.0738-.0112.1488.0099.206.0578.0596.0482.0935.1188.0952.1938.0018.0749-.0287.147-.0838.1979l-.969.8983c-.0185-.0732-.0512-.1408-.0948-.1998Zm-4.6689 0c.2345-.3631.5034-.7794.6668-1.0318.0404-.0627.1059-.105.1797-.1162.0737-.0112.1488.0099.2059.0578.0596.0482.0936.1188.0953.1938.0018.0749-.0288.147-.0838.1979l-.969.8983c-.0186-.0732-.0512-.1408-.0949-.1998Zm-4.6688 0c.2345-.3631.5034-.7794.6668-1.0318.0404-.0627.1059-.105.1796-.1162.0738-.0112.1488.0099.206.0578.0596.0482.0935.1188.0953.1938.0018.0749-.0288.147-.0839.1979l-.9689.8983c-.0186-.0732-.0512-.1408-.0949-.1998Zm-4.6688 0c.2344-.3631.5033-.7794.6667-1.0318.0405-.0627.1059-.105.1797-.1162.0738-.0112.1488.0099.206.0578.0596.0482.0935.1188.0953.1938.0017.0749-.0288.147-.0839.1979l-.9689.8983c-.0186-.0732-.0512-.1408-.0949-.1998Zm8.4722-.0679c-.194-.3785-.4132-.806-.547-1.0678-.0341-.0664-.038-.1442-.0108-.2137s.083-.1239.1531-.1495c.0715-.0275.1496-.0215.2154.0144.0658.036.1129.0985.1295.1716l.2548 1.1185c-.0735.0287-.1397.072-.195.1265Zm-4.6688 0c-.194-.3785-.4132-.806-.5471-1.0678-.034-.0664-.038-.1442-.0107-.2137.0272-.0695.0829-.1239.153-.1495.0716-.0275.1497-.0215.2155.0144.0658.036.1129.0985.1294.1716l.2549 1.1185c-.0735.0287-.1397.072-.195.1265Zm-4.6688 0c-.1941-.3785-.4132-.806-.5471-1.0678-.0341-.0664-.038-.1442-.0107-.2137.0272-.0695.0829-.1239.153-.1495.0716-.0275.1496-.0215.2154.0144.0658.036.113.0985.1295.1716l.2549 1.1185c-.0736.0287-.1398.072-.195.1265Zm14.0065 0c-.1941-.3785-.4132-.806-.5471-1.0678-.0341-.0664-.038-.1442-.0108-.2137s.083-.1239.1531-.1495c.0715-.0275.1496-.0215.2154.0144.0658.036.113.0985.1295.1716l.2548 1.1185c-.0735.0287-.1397.072-.1949.1265Zm-18.6753 0c-.1941-.3785-.4132-.806-.5471-1.0678-.0341-.0664-.038-.1442-.0108-.2137.0273-.0695.083-.1239.1531-.1495.0715-.0275.1496-.0215.2154.0144.0658.036.113.0985.1295.1716l.2548 1.1185c-.0735.0287-.1397.072-.1949.1265Zm5.2793-.1269c.0915-.4013.1924-.8432.2554-1.1179.0166-.0728.0636-.1349.1291-.1706.0655-.0357.1432-.0416.2134-.0161l.002-.0008c.0705.0257.1265.0804.1538.1502.0273.0699.0232.1481-.0112.2147l-.5473 1.0666c-.0554-.0543-.1216-.0976-.1952-.1261Zm14.0064 0c.0916-.4013.1925-.8432.2555-1.1179.0166-.0728.0636-.1349.1291-.1706.0655-.0357.1432-.0416.2133-.0161l.0021-.0008c.0704.0257.1264.0804.1537.1502.0273.0699.0233.1481-.0111.2147l-.5473 1.0666c-.0554-.0543-.1217-.0976-.1953-.1261Zm-18.6753 0c.0916-.4013.1925-.8432.2555-1.1179.0166-.0728.0636-.1349.1291-.1706.0655-.0357.1432-.0416.2133-.0161l.0021-.0008c.0704.0257.1264.0804.1537.1502.0273.0699.0233.1481-.0111.2147L8.164 4.2171c-.0554-.0543-.1217-.0976-.1953-.1261Zm9.3377 0c.0915-.4013.1924-.8432.2554-1.1179.0166-.0728.0636-.1349.1292-.1706.0655-.0357.1432-.0416.2133-.0161l.002-.0008c.0705.0257.1265.0804.1538.1502.0273.0699.0232.1481-.0111.2147l-.5474 1.0666c-.0553-.0543-.1216-.0976-.1952-.1261Zm4.6688 0c.0916-.4013.1925-.8432.2555-1.1179.0165-.0728.0636-.1349.1291-.1706.0655-.0357.1432-.0416.2133-.0161l.0021-.0008c.0704.0257.1264.0804.1537.1502.0273.0699.0232.1481-.0111.2147l-.5474 1.0666c-.0553-.0543-.1216-.0976-.1952-.1261Zm4.3558-.0288c-.0559-.5009-.1206-1.0807-.1574-1.414-.0083-.0743.0154-.1488.0653-.2046.0499-.0558.1211-.0877.196-.0878.0777-.0014.1493.0308.1994.0869.0501.0561.0738.1309.0653.2056l-.1582 1.4137c-.0339-.0063-.0689-.0095-.1046-.0095-.0361 0-.0715.0033-.1058.0097Zm-4.6688 0c-.0559-.5009-.1206-1.0807-.1574-1.414-.0084-.0743.0154-.1488.0653-.2046.0498-.0558.1211-.0877.196-.0878.0777-.0014.1493.0308.1994.0869.05.0561.0738.1309.0653.2056l-.1582 1.4137c-.0339-.0063-.0689-.0095-.1046-.0095-.0362 0-.0715.0033-.1058.0097Zm-9.3376 0c-.056-.5009-.1206-1.0807-.1575-1.414-.0083-.0743.0154-.1488.0653-.2046.0499-.0558.1212-.0877.196-.0878.0777-.0014.1494.0308.1994.0869.0501.0561.0738.1309.0653.2056l-.1582 1.4137c-.0339-.0063-.0689-.0095-.1046-.0095-.0361 0-.0715.0033-.1057.0097Zm-4.6689 0c-.0559-.5009-.1206-1.0807-.1574-1.414-.0083-.0743.0154-.1488.0653-.2046.0499-.0558.1211-.0877.196-.0878.0777-.0014.1493.0308.1994.0869.0501.0561.0738.1309.0653.2056L7.8661 4.062c-.0339-.0063-.0689-.0095-.1046-.0095-.0361 0-.0715.0033-.1058.0097Zm9.3377 0c-.056-.5009-.1206-1.0807-.1575-1.414-.0083-.0743.0155-.1488.0653-.2046.0499-.0558.1212-.0877.196-.0878.0778-.0014.1494.0308.1994.0869.0501.0561.0739.1309.0654.2056l-.1582 1.4137c-.034-.0063-.0689-.0095-.1047-.0095-.0361 0-.0714.0033-.1057.0097ZM29.7515.9196H4.6528L4.5045 0h25.3924l-.1454.9196Z" clip-rule="evenodd"/>
</svg>
