<svg xmlns="http://www.w3.org/2000/svg" fill="none" viewBox="0 0 48 48">
  <path fill="#000" fill-rule="evenodd" d="M6.62 11.3873c5.3673-4.43393 10.2588-7.07454 14.6745-7.92181 3.1264-.60833 6.3643-.2382 9.2728 1.06 8 3.59818 9.2545 13.06361 6.8491 19.18361C40.02 12.3909 34.7582 7.65822 29.9873 6.24185c-2.8109-.83454-6-.6-8.7582.28182-4.9909 1.59091-8.5455 5.24183-11.24546 7.42183-1.87091.3-3.20727-.2236-3.37091-2.5582H6.62Z" clip-rule="evenodd"/>
  <path fill="#000" fill-rule="evenodd" d="M15.86 13.7709c-.9455 4.7709-.2018 9.0036 3.0164 10.9182 2.5454 1.5145 6.109 1.4363 8.7927.3818 2.4582-.9655 4.4782-2.7273 6.9091-4.5582 1.7291-.3146 2.3636.6273 2.2672 1.6854-2.9981 2.4073-6.0472 4.251-9.1927 5.0437-2.3054.58-4.4764.5563-6.7018-.3182-5.9545-2.34-6.7382-9.0909-5.0909-13.1527Z" clip-rule="evenodd"/>
  <path fill="#000" fill-rule="evenodd" d="M26.1782 22.1037c-.6455.2109-1.2055.5018-1.5273 1.0218-.0454.1818.0546.1637.1236.1909l.3819.0819c.1254.0218.1127.0818.1091.1818 0 .0545-.0146.1072-.02.1618-.4998-.025-.9958-.1012-1.48-.2273v-.0054c.6218-1.04 1.4218-1.5219 2.4127-1.4055ZM26.3 20.151c-1.3564.4236-2.5582.92-3.2982 1.6363-.1636.1928.1127.2746.2491.34l.4873.2328-.3546 1.0545c-.7355-.2176-1.4356-.541-2.0781-.96 1.1763-1.4636 2.8727-2.1818 4.9945-2.3036Zm2.3255-2.3491c-2.293.2509-4.5366.8384-6.6582 1.7436-.1473.0946-.1964.2273-.1273.4746l.2.9382-1.0236 1.2854c-.5942-.393-1.1195-.8814-1.5546-1.4454l-.0073.0072c1.5128-2.0382 7.6637-3.7654 9.171-3.0036Zm3.6218-2.3927c-4.0655-.2764-7.7382.5-11.2837 2.0145-.1145.0527-.1818.16-.1454.3873.0363.2273.1818 1.0436 0 1.1891-.5957.4181-1.1508.891-1.6582 1.4127-.3832-.5433-.7-1.1305-.9436-1.7491 3.3891-2.9873 10.5872-4.4182 14.0309-3.2545Zm.4127-2.0146c-4.0145-.7963-7.9891-.2454-11.6727 1.3946-.3164.14-.3637.3836-.4146.6818-.0509.2982-.1109.5891-.1672.8836-.7.2564-1.4782.8-2.3728 1.7673-.2308-.6928-.3367-1.4211-.3127-2.1509 3.4782-2.8346 11.9036-4.4655 14.94-2.5764Zm-7.9327-2.1345c-2.2364.7091-3.4691.5818-3.8346 2.5454l-3.1582 1.7164c.0732-.7331.2231-1.4564.4473-2.1582 2.0272-1.1134 4.2492-1.8275 6.5455-2.1036Zm.3382-1.69821c-1.3928.33818-2.4964.14364-3.0091 1.52731-1.2073.3309-2.4419 1.0018-3.6928 1.8272.3221-.7556.7731-1.4496 1.3328-2.0509 1.8272-.88361 3.6054-1.19634 5.3691-1.30361Zm2.5709-1.16364c3.1072.82909 4.5363 2.50365 5.4945 4.41275-2.7-3.76202-6.7436-4.83498-12.242-2.96663l-.1399.04796.0384-.02893c1.6676-1.26023 3.7302-2.02926 6.849-1.46515Z" clip-rule="evenodd"/>
  <path fill="#000" d="m36.7273 44.3073.9618.78-.9618.7782-.9537-.7702-.9518.7702-.9536-.7702-.9537.7702-.9618-.7782.9618-.78.9537.7718.9536-.7718.9518.7718.9537-.7718Zm-2.5364-5.4782v3.9055H35.48c.0855.0063.1604-.0566.1691-.1419v-1.3218l1.1382-.7963v3.0491c-.001.4263-.3464.7717-.7728.7727h-3.1254v-4.5582l1.3018-.9091Zm-9.22 0v3.9055h1.0727c.0852.0053.1596-.0571.1691-.1419v-1.3218l1.1382-.7963v2.26h1.2412c.0768-.0044.1409-.0636.1497-.1419v-1.3218l1.1382-.7963v2.26h1.2412c.0768-.0044.1409-.0636.1497-.1419v-1.3218l1.1382-.7963v3.0491c-.004.4251-.3476.7687-.7728.7727h-1.7745l.0002-.6127c-.0761.3481-.3845.6092-.7547.6127h-1.78v-.5874c-.0846.3359-.3875.5849-.7491.5874h-2.9091v-4.5582l1.3018-.9091Zm-1.8127 1.6455v3.0491c-.004.4258-.3488.7697-.7746.7727h-1.7727v-1.5618h1.2382c.0851.0053.1595-.0571.1691-.1419v-1.3218l1.14-.7963Zm-11.2128-.9219 2.84 2.4946c.4728.4836.6746 2.2491-1.0818 2.2491h-1.7727v-1.5618h1.24c.2491.0872.5673-.2055.3636-.4509l-1.6163-1.3673.0272-1.3637Zm4.8109-.7254v3.9018h2.1073c.1673-.0109.2018-.1163.0855-.2109l-1.84-1.5364s.5172-.3868 1.0418-.7779l.1048-.0782c.4884-.364.9535-.7096.9806-.7257l1.6364-.0236-2.1564 1.6073.971.7654c.8527.6127.6945 1.8182-.0946 2.3636-.34.2346-.7618.151-1.1745.1819h-2.9637v-4.5582l1.3018-.9091Zm2.9473-.1291-2.5854 1.9109-.0109-.74 1.5981-1.16.9982-.0109Zm13.4109-2.0764c.0777-.0025.1539.0212.2164.0673.0631.0459.0992.1202.0964.1982 0 .16-.0928.2382-.2782.2382-.1855 0-.3073-.0782-.3073-.2382-.0095-.0742.0165-.1486.0701-.2008.0537-.0522.1287-.0761.2026-.0647Zm10.9837-2.4836v.6291c0 .1982.1581.3.4763.3054h.3528c.2018 0 .3036-.1054.3036-.3181v-.6164h.4309v.6436c-.0041.0972.0352.1911.1073.2564.0716.0659.1663.1011.2636.0982.2055 0 .3091-.0909.3091-.2709v-.7273h.4236v.6436c-.0024.0971.0382.1902.1109.2546.0724.0662.1675.102.2655.1.2036 0 .3055-.0909.3055-.2709v-.7273h.429v.6709c.0068.1834-.0447.3642-.1472.5164-.1055.1453-.277.228-.4564.22-.2354-.0015-.4571-.1107-.6018-.2964-.1241.1738-.3197.2826-.5327.2964-.2423-.0173-.4624-.1472-.5946-.3509-.141.1772-.3489.2883-.5745.3072l-.3946.0073h-.1709v-.0164c-.1196-.0186-.2268-.084-.2982-.1818.0122.3249-.0837.6446-.2727.9091-.1928.265-.5054.4158-.8327.4018h-.5655l-.0709-.4381h.6018c.1783.0016.3507-.0632.4837-.1819.1363-.115.2137-.2852.2109-.4636v-1.4h.4382Zm-28.88-1.6855.06.4364-1.1382.4255 1.2073 1.3363c.0942.1136.2016.2155.32.3037.1267.0782.2729.1192.4218.1181h.0782c.14 0 .229-.0454.2654-.1054.0335-.1031.0459-.212.0364-.32v-1.9418H16.9V34.84c.0122.1826-.0539.3618-.1818.4927-.1401.1238-.3224.1889-.5091.1819h-.3328V35.5c-.2239-.0168-.4304-.127-.569-.3036-.0855.2109-.2873.3182-.6019.3182h-1.2963c-.0677-.0009-.1351-.007-.2018-.0182-.0834-.036-.1598-.0865-.2255-.1491-.1144.1041-.2618.1646-.4164.1709l-.7836-.0091h-.1691v-.0164c-.1203-.018-.2284-.0835-.3-.1818.0127.3247-.0826.6444-.2709.9091-.193.2647-.5054.4155-.8327.4018h-.57276l-.07091-.4381h.60367c.1783.0023.351-.0626.4836-.1819.1363-.115.2137-.2852.2109-.4636v-1.4H11.3v.6291c0 .1982.16.3.4763.3054h.6419c.0905.0103.1814-.0159.2527-.0727.055-.0756.0803-.1688.0709-.2618v-.6h.4382v.6c-.015.1052.0223.2111.1.2836.0909.0418.1912.0594.2909.0509h1.1254c.1146 0 .1819-.0745.1819-.2254.0012-.0478-.0164-.0942-.0491-.1291l-1.1382-1.1945-.08-.491 1.6073-.58Zm-6.77822 1.3037c.2909-.0273.56385.1442.66545.4182.08203.2714.11648.555.10182.8381v.5455l.00546.0055c.00415.284-.11608.5557-.32909.7436-.20556.1991-.48112.3094-.76728.3073h-.56727l-.05455-.4382h.54546c.18828.0062.37199-.0587.51454-.1818.13897-.1237.21783-.3013.21637-.4873-.27284.0187-.54601-.0313-.79455-.1455-.23233-.1532-.35993-.4231-.33091-.7 0-.3636.08728-.62.26182-.7691.15653-.1055.34474-.1537.53273-.1363Zm23.56912.3727v.6291c0 .1982.16.3.4763.3055h.6764c.0906.0104.1816-.0158.2527-.0728.0537-.0762.0782-.1691.0691-.2618v-.6h.4364v.66c.0041.1777-.0538.3512-.1637.4909-.1093.142-.279.2241-.4581.2218l-.8146.0073h-.12V35.5c-.1394-.0114-.2665-.084-.3473-.1982.0127.3247-.0825.6444-.2709.9091-.1929.2647-.5054.4155-.8327.4018h-.5673l-.0709-.4381h.6037c.1783.0023.351-.0626.4836-.1819.1363-.115.2137-.2852.2109-.4636v-1.4h.4364ZM5.28907 36.1055c.17515 0 .28868.073.30075.2159l.00088.0232-.00089.0231c-.00572.0597-.03371.1155-.07892.156-.05247.0481-.12151.0742-.19273.0727-.07592.0023-.15034-.0214-.21091-.0673-.05952-.0415-.09538-.1092-.09636-.1818 0-.16.09273-.2418.27818-.2418Zm-.83818 0c.17515 0 .28867.073.30075.2159l.00088.0232-.00089.0231c-.00573.0597-.03371.1155-.07892.156-.05247.0481-.12152.0742-.19273.0727-.07592.0023-.15035-.0214-.21091-.0673-.05952-.0415-.09539-.1092-.09636-.1818 0-.16.09272-.2418.27818-.2418Zm28.26541-.1037c.2073 0 .311.0891.311.2691 0 .1564-.0928.2328-.2819.2328s-.3036-.0764-.3036-.2328c-.0017-.0722.0266-.142.0782-.1927.0527-.0506.1233-.078.1963-.0764Zm.8382 0c.1958 0 .2991.0795.31.24l.0009.0291c0 .1564-.0945.2328-.2818.2328s-.3036-.0764-.3036-.2328c-.0026-.0724.0258-.1425.0782-.1927.0524-.0509.1232-.0784.1963-.0764Zm8.4709-3.5454.0655.4382-1.1309.4236.8963 1.0036c.0891.1091.1699.2245.2419.3455.0501.0743.0785.1613.0818.2509 0 .3982-.2237.5964-.6673.5964l-1.2036-.0055h-.1618c-.1914.0077-.3795-.0507-.5328-.1654-.1188.1016-.2675.1617-.4236.1709h-2.3018c-.1783.0013-.3468-.0816-.4546-.2237-.1125-.1378-.1724-.3111-.1691-.4891v-.66h.4364v.6c-.0105.0934.0156.1873.0727.2619.072.0567.1635.0828.2546.0727h2.0327c.09.0105.1805-.0157.2509-.0727.0554-.0755.0806-.1688.0709-.2619v-.6h.4437v.6c0 .2237.16.3346.4818.3346h1.2036c.1146 0 .1727-.0673.1727-.2037.0018-.0557-.0185-.1099-.0563-.1509l-1.1346-1.1945-.0727-.4873 1.6036-.5836Zm-16.6036 1.3127c.5952 0 .8921.3.8909.9l-1 .5709c-.2269.1321-.4778.2174-.7382.2509-.1072.0128-.3072.02-.6018.0218l-.0036-.0036h-.1818c-.1841.0039-.3641-.0544-.511-.1654-.1177.1021-.2661.1622-.4218.1709h-2.3c-.1777.001-.3455-.0819-.4527-.2237-.1136-.1373-.1742-.3108-.1709-.4891v-.66h.4327v.6c-.01.0937.0168.1875.0746.2619.072.0567.1634.0828.2545.0727h2.0346c.09.0105.1804-.0157.2509-.0727.0544-.0759.079-.1691.0691-.2619v-.6h.4454v.6c0 .2109.1436.3237.4309.3346.3617.0136.7228-.0419 1.0636-.1637l.3164-.1654c.1212-.0655.2994-.1655.5346-.3-.0531-.1158-.1574-.2-.2819-.2273-.1283-.0175-.2578-.0242-.3872-.02h-.7655l-.06-.4309h1.0782ZM3.41089 32.4509l.06.4364-1.13818.4254 1.21454 1.3491.31273.3146c.10108.0713.22401.1047.34727.0945h.60182c.09055.0103.18146-.0159.25273-.0727.05504-.0756.08028-.1688.07091-.2618v-.6h.43636v.6c0 .1454.03455.24.10182.2836.08609.0408.18138.0584.27636.0509.20762.0068.41545-.0017.62182-.0254.09818-.0364.14545-.1673.14545-.3946v-.5145h.44729v.66c.00105.1803-.06358.3548-.18183.4909-.1106.1413-.28055.2233-.46.2218h-.71636c-.07548-.0023-.15076-.009-.22546-.02-.08187-.0357-.15645-.0863-.22-.1491-.11439.1041-.2618.1647-.41636.1709h-.94182v-.0182c-.20476-.0257-.39037-.1333-.51455-.2981-.07636.2091-.26363.3145-.56181.3145H.632706c-.179127.0023-.34888-.0799-.458182-.2218-.1130846-.1383-.17305294-.3124-.16909045-.4909v-.66H.441797v.6c-.008584.0924.016608.1847.070909.26.071454.0579.16314.0847.254546.0745H2.90362c.14545 0 .21818-.0509.21818-.1563-.00989-.0771-.04813-.1478-.10728-.1982l-1.13454-1.1946-.08182-.4909 1.61273-.58Zm23.89271.2546v2.8036h-.4254v-2.8036h.4254Zm-9.2018 0v2.8036h-.4236v-2.8036h.4236Zm10.8073.6945.9854 1.0418c.1297.132.2022.3096.2018.4946h-.0127c.0052.1643-.0676.3214-.1963.4236-.116.0917-.2579.1437-.4049.1489l-1.4006.0002-.06-.4382h1.3873c.1618 0 .2418-.0563.2418-.1691 0-.0595-.0228-.1167-.0637-.16l-.9854-1.0454.3073-.2964Zm-20.75639.9364c-.04185.1069-.05984.2217-.05273.3363-.01886.1557.07356.3035.22182.3546.14853.0369.3017.0516.45454.0436v-.4491c0-.2836-.11454-.4272-.34182-.4272-.1139-.0137-.2249.0422-.28181.1418Zm38.71999-1.0037c.1818 0 .3109.0782.3109.2328.0028.0728-.0264.1433-.08.1927-.0533.0507-.1246.0781-.1982.0764-.078.0009-.1539-.0255-.2145-.0746-.0593-.0469-.0929-.119-.0909-.1945 0-.1546.0909-.2328.2727-.2328Zm-.8327 0c.1854 0 .2982.0782.2982.2328.0007.0719-.0283.1409-.08.1909-.0518.0511-.1219.0793-.1946.0782-.0775.0012-.1529-.0252-.2127-.0746-.0593-.0469-.0929-.119-.0909-.1945 0-.1546.0945-.2328.28-.2328Zm-39.63275-.1436c.21091 0 .32.0873.32.26.00138.0824-.03077.1618-.08909.22-.05629.0578-.13384.0901-.21454.0891-.22182 0-.33273-.1036-.33273-.3091 0-.1818.10545-.26.31636-.26Zm5.91815-.0236c.1873 0 .3.08.3.2418l-.0091.0054c.0011.0694-.0281.1358-.08.1819-.0493.0462-.1142.0721-.1818.0727-.2054 0-.3091-.0873-.3091-.26 0-.1727.0928-.2418.28-.2418Zm.8291 0c.1873 0 .3.08.3.2418v.0054c.0011.0694-.0281.1358-.08.1819-.0516.0484-.1202.0745-.1909.0727-.2054 0-.3091-.0873-.3091-.26 0-.1727.0928-.2418.28-.2418Zm8.1309-.0018c.1873 0 .3037.08.3037.24v.0036c.0003.0692-.0287.1353-.08.1818-.0534.048-.1229.074-.1946.0727-.2072 0-.3109-.0854-.3109-.2581 0-.1728.0946-.24.2818-.24Zm.8455 0c.1909 0 .3.08.3.24v.0036c.0004.0692-.0287.1353-.08.1818-.0537.0486-.124.0746-.1964.0727-.2072 0-.3109-.0854-.3109-.2581 0-.1728.0964-.24.2873-.24Zm16.3327 0c.1909 0 .3018.08.3018.24v.0036c.0009.0697-.029.1362-.0818.1818-.0537.0486-.124.0746-.1963.0727-.2055 0-.3091-.0854-.3091-.2581 0-.1728.0945-.24.2854-.24Zm-.8436 0c.1891 0 .3036.08.3036.24v.0036c.0002.0695-.0297.1358-.0818.1818-.0525.0482-.1215.0742-.1927.0727-.2073 0-.3109-.0854-.3109-.2581 0-.1728.0927-.24.2818-.24Zm-12.4691-.4455c.2127 0 .3164.0873.3164.2618 0 .0805-.032.1578-.089.2147-.0569.057-.1342.089-.2147.089-.2218 0-.3309-.1-.3309-.3037 0-.1818.1055-.2618.3182-.2618Zm21.2982-.0145c.1872 0 .3072.08.3072.2363v.0091c-.0003.0695-.03.1355-.0818.1818-.0533.0496-.1235.0769-.1963.0764-.0767.0014-.1514-.0244-.2109-.0727-.0616-.0458-.0979-.1179-.0982-.1946 0-.1563.0927-.2363.28-.2363Z"/>
</svg>
