<svg xmlns="http://www.w3.org/2000/svg" fill="none" viewBox="0 0 48 48">
  <path fill="#FF9700" fill-rule="evenodd" d="M32.0793 27.6494c1.042 0 1.888.8459 1.888 1.8879 0 1.042-.846 1.888-1.888 1.888-1.042 0-1.8879-.846-1.8879-1.888 0-1.042.8459-1.8879 1.8879-1.8879Z" clip-rule="evenodd"/>
  <path fill="#025577" fill-rule="evenodd" d="M25.1261 35.2763h-3.8233l2.8944-5.5496-3.277-12.3881h3.8475l1.5617 7.8587 3.9941-7.8587h3.8495l-9.0469 17.9377Zm-21.4584-3.851H0s1.0193-8.9991 1.5202-13.4493c.2046-1.8185 2.2954-5.4929 6.5004-5.4143 7.0223.1314 5.8178 5.5439 5.7629 6.7313-.1924 4.1574-4.2685 5.4529-5.3592 5.6516-1.4464.2634-4.0728.213-4.0728.213l-.6838 6.2677Zm35.3446 0h-3.5166s.4555-8.3888.6495-11.9622c.0482-.8869.7814-1.5813 1.6696-1.5813h1.9397l-.7422 13.5435Zm4.6199 0h-3.5166s.3552-6.5404.5719-10.5311c.0917-1.6895 1.4884-3.0124 3.1804-3.0124H48l-.0447 2.8437s-1.3565.0178-2.4355.0319c-.734.0097-1.3351.5863-1.3753 1.3193l-.5123 9.3486ZM14.8141 17.3547l.0017 2.1832s2.8291.209 2.6482 3.5502c-7.3674.8156-7.9295 2.8449-8.0425 4.1165-.2135 2.4015 1.5304 4.094 4.4734 4.0811 5.9041-.0259 7.2107-5.9265 7.2137-8.3077.0078-6.2296-6.2945-5.6233-6.2945-5.6233Zm2.1352 8.1035c-5.58.6407-4.1606 2.5739-3.9134 2.8382.5373.5742 3.2752.5033 3.9134-2.8382ZM4.898 21.8772s-.2644-6.0084 2.9248-5.9169c2.0239.0581 1.9695 1.8214 1.951 2.7942-.0355 1.8748-1.0732 2.4935-1.6329 2.8442-.8185.513-3.2429.2785-3.2429.2785ZM38.3277 12c1.0971 0 1.9879.8908 1.9879 1.988 0 1.0971-.8908 1.9879-1.9879 1.9879-1.0972 0-1.988-.8908-1.988-1.9879 0-1.0972.8908-1.988 1.988-1.988Z" clip-rule="evenodd"/>
</svg>
