<svg xmlns="http://www.w3.org/2000/svg" fill="none" viewBox="0 0 48 48">
  <path fill="#14763E" fill-rule="evenodd" d="M27.0228.20752C38.7799 1.69579 47.9221 11.7752 47.9221 23.9206c0 13.1649-10.7415 23.9024-23.9115 23.9024C10.8408 47.823.0991287 37.0855.0991287 23.9206c0-3.4229.7261463-6.6817 2.0323213-9.6304l1.23593 1.5888.0719.0885s.23494.2771.51423.5185c.25539.2178.58268.4141.81316.5089.176.0708.35079.1317.53448.1672.80912.1587 1.63929.1492 2.24021.1218.47797-.0216.81863-.0482.81863-.0482 3.12441-.1458 4.31981 1.2621 5.13251 2.2203.7452.8761 8.0367 10.5874 8.0367 10.5874l3.6253-3.6286s-3.044-3.8798-4.3945-5.6191c-1.5097-1.9433-2.6034-3.3402-3.2707-3.9037-1.4578-1.2284-4.6819-1.374-5.4199-1.5009 0 0-2.72166-.3326-4.34576-1.9976-.38238-.3921-.6475-.7384-.6475-.7384l-2.3323-2.86366c.59731-.81112 1.24452-1.58344 1.93704-2.31237l2.51536 3.23873c.49074.6258.75869.9888 1.25446 1.4829 1.2628 1.2599 3.0469 1.4303 3.0469 1.4303 3.7211.6696 5.7531.8461 6.9325 2.2121 1.4153 1.638 1.6887 2.0127 2.8715 3.5373.4358.5616 3.856 5.0319 3.856 5.0319l3.5129-3.5191s-2.2491-2.8968-3.5555-4.6135c-.6392-.8408-1.6518-2.1531-2.3984-2.6888-1.5394-1.102-2.9095-.9384-4.3056-1.0862-1.1992-.1281-2.3054-.1525-3.7438-.837 0 0-.6219-.1384-1.9058-1.79155-1.2855-1.65177-1.6458-2.13076-1.6458-2.13076L10.36 4.31421c.8112-.56654 1.6589-1.08415 2.5388-1.54849l2.7155 3.52092 1.3561 1.76692c1.9538 2.49374 3.217 2.52244 4.5191 2.67554 2.0658.2448 4.0109.1141 5.6932 1.3821.9735.7333 1.4823 1.5114 2.1827 2.4131 1.0574 1.3607 3.3367 4.3248 3.3367 4.3248l3.5159-3.5203s-2.0241-2.6154-2.8105-3.6091c-.2609-.3285-.7091-.7448-1.3728-1.1754-1.0491-.68227-2.0964-.89202-4.783-1.28852-2.6857-.3961-3.5588-.86219-4.8279-2.24975-.6066-.66373-.9426-1.13465-1.3511-1.66104L17.5556.905419c1.0968-.308488 2.225-.540432 3.3785-.689654L23.3305 3.5226c.8043.97533 1.5216 2.24511 3.5636 3.15449 2.4573 1.09412 4.3133.83758 5.9955 1.2722 0 0 .4583.11153.963.33298.5353.23616.8837.5887 1.2185.96645.5561.62743 1.0432 1.23908 1.1546 1.38308.0229.0285 2.0857 2.5993 2.0857 2.5993l3.4748-3.47737s-.8022-1.02474-1.4386-1.82904c-.3939-.49755-.5654-.67684-.896-.87873-.2614-.15912-.5893-.31764-1.0319-.42232-.5053-.11778-1.1949-.20511-2.3846-.25311-3.1329-.12463-4.2904-.37371-6.2841-2.7604l-1.4793-1.79375L27.0228.20752Z" clip-rule="evenodd"/>
</svg>
