<svg xmlns="http://www.w3.org/2000/svg" fill="none" viewBox="0 0 48 48">
  <path fill="#000" fill-rule="evenodd" d="M24 33c3.3115 0 6 2.6885 6 6s-2.6885 6-6 6-6-2.6885-6-6 2.6885-6 6-6Zm19.3688-1.5306H4.63139C1.71992 28.2209 0 24.2141 0 19.8814c0-4.0832 1.52747-7.8768 4.14019-11.01923H17.4267c-4.758 2.06223-8.02335 6.29193-8.02335 11.17013 0 4.0093 2.20575 7.5807 5.63325 9.8705h17.9268c3.4275-2.29 5.6332-5.8612 5.6332-9.8705 0-4.8782-3.2653-9.1079-8.0233-11.17013h13.2865C46.4724 12.0046 48 15.7982 48 19.8814c0 4.3327-1.72 8.3394-4.6312 11.588Zm-17.9446-5.8621H11.9724c5.1116-1.947 8.6799-6.3378 8.6799-11.4372 0-4.87818-3.2654-9.108-8.0234-11.1701h13.2865c2.6128 3.14248 4.1402 6.93604 4.1402 11.0192 0 4.3326-1.7198 8.3394-4.6314 11.5881Z" clip-rule="evenodd"/>
</svg>
