<svg xmlns="http://www.w3.org/2000/svg" fill="none" viewBox="0 0 48 48">
  <path fill="#FDB913" fill-rule="evenodd" d="M9.94407 11.714C1.95139 17.0148 1.61955 22.9508 1 27.6874c7.6702 3.1223 9.653 4.8201 13.4382 8.0247 1.5438-3.0887 1.7187-5.3686 1.4014-8.8569 1.8312 2.6354 1.8225 14.5612-6.42036 18.6518 4.59906.7529 9.32596 2.7085 14.09396 2.4735-.6785-14.297-3.2247-23.2363-13.56913-36.2665ZM18.4426.117889C33.3135-.817646 36.6504 4.00296 41.5682 7.92227 36.1479 17.548 34.8326 23.3306 33.5368 29.818c-4.172-1.9436-6.2753-3.9084-8.8353-7.8139C24.974 26.2756 35.0036 37.5346 47 34.9643c-4.1774 4.6031-8.896 8.7992-14.0687 12.5112C23.6525 34.5754 18.4426 22.3075 18.4426.117889Z" clip-rule="evenodd"/>
</svg>
