<svg xmlns="http://www.w3.org/2000/svg" fill="none" viewBox="0 0 48 48">
  <path fill="#2D2A68" d="M31.8103 47.9992H47.5V8.12359C42.014-4.84106 22.5335.357977 21.1418 5.61712c4.8179-2.69091 8.8278-3.23498 10.6685 1.03522V47.9992ZM16.1897.00069979H.5V39.8764c5.48602 12.9647 24.9665 7.7656 26.3581 2.5065-4.818 2.6909-8.8277 3.235-10.6684-1.0354V.00069979Z"/>
  <path fill="#2D2A68" d="M31.6847 23.9999c0 4.2043-3.4521 7.6333-7.6848 7.6333-4.2325 0-7.6847-3.429-7.6847-7.6333 0-4.2041 3.4522-7.6332 7.6847-7.6332 4.2327 0 7.6848 3.4291 7.6848 7.6332Z"/>
</svg>
