<svg xmlns="http://www.w3.org/2000/svg" fill="none" viewBox="0 0 48 48">
  <path fill="#000" fill-rule="evenodd" d="M36.4725 17.759c.3535.2692.6184.6408.7892 1.0487.5151-.0017 1.0298-.0013 1.5449 0 .0027 1.9178-.0004 3.8361.0018 5.7543.3746-.003.7496-.0048 1.1247.0009.0009.5028.0009 1.0061.0004 1.5094-.3759.0026-.7514 0-1.1269.0018.0005.6091.0036 1.2177-.0013 1.8264-.5564.0008-1.1124.0013-1.6688 0-.0022-.5889 0-1.1778-.0008-1.7663-1.906-.0009-3.8115.0005-5.7174-.0009.0821-.7456.375-1.4632.8278-2.06.5144-.6818 1.1356-1.2642 1.7546-1.8487l.1092-.1032c.3091-.2926.6161-.5872.9073-.8965.3328-.3417.606-.7668.664-1.249.0373-.357-.0158-.7536-.2635-1.0298-.2451-.2736-.6342-.3623-.9881-.3399-.3052.0189-.6162.1401-.8098.3847-.2262.2832-.2758.6565-.3145 1.0052-.5608-.0628-1.1233-.1098-1.6841-.1726.0676-.6982.2911-1.4312.8295-1.913.5714-.5098 1.3561-.7197 2.1097-.7162.6715-.0062 1.3742.1423 1.9121.5647Zm.6662 3.1791c-.216.4471-.4927.8643-.8234 1.2345-.3346.3612-.6952.696-1.0571 1.0295l-.1447.1335c-.1688.1557-.3372.3119-.5026.4711-.2292.2187-.4356.4615-.6042.7303 1.0456.0022 2.0917.0075 3.1377.0013-.001-.3599-.0007-.7199-.0002-1.0799l.0012-.72c.0007-.6001.0001-1.2002-.0067-1.8003ZM34.7392 9.60694c.2916-.20289.5854-.40314.8792-.6034.2903.19762.5749.40403.8634.60384-.2864.48092-.5736.96092-.8625 1.44042-.2929-.4809-.5824-.9635-.8801-1.44086Zm3.2506.15154c.379-.12735.7589-.25119 1.1375-.38031.2476.31049.5002.61658.7478.92753-.4611.4308-.9217.8616-1.3811 1.2942-.1726-.6127-.3421-1.2262-.5042-1.84142Zm3.2291 1.18782c.4528-.0118.906.0084 1.3584-.0267.1805.4207.3386.851.4989 1.2801-.6513.303-1.3004.6117-1.9499.9187.0245-.7242.0619-1.4479.0926-2.1721Zm3.05 2.4502c.4792.1638.9517.3474 1.429.5173.0036.5024.0071 1.0052.0066 1.5081-.7935.058-1.5871.1212-2.3798.1897.3132-.7387.6333-1.4751.9442-2.2151Zm.3865 5.4802c.61-.6179 1.2367-1.2191 1.851-1.8321.4006.3746.8116.7386 1.2126 1.1132-.2064.498-.4067.9982-.6048 1.4997-.8216-.2547-1.6363-.53-2.4588-.7808Zm-.0444 3.7429c.87-.3619 1.7356-.7347 2.6047-1.0992.2613.5366.5256 1.072.7825 1.6108-.4132.4203-.8067.859-1.2199 1.2784-.7181-.6021-1.4554-1.1813-2.1673-1.79Zm-1.7759 3.3825c1.0825.0026 2.1642.0351 3.2462.0575.0123.6833.0545 1.3653.0624 2.0491-.6254.253-1.2459.5182-1.8726.769-.4747-.9605-.9538-1.9187-1.436-2.8756Zm-3.1264 4.4728c.0163-.6442.0053-1.2898.0505-1.9332 1.018.5705 2.0395 1.1353 3.0579 1.7048-.3215.6592-.6447 1.3175-.9635 1.9784-.7299-.0434-1.4558-.1348-2.1844-.1993.0136-.5169.0048-1.0347.0395-1.5507Zm-6.1877 2.0667c.6824-1.1665 1.3974-2.3166 2.093-3.4769.7053 1.1704 1.4176 2.3368 2.1123 3.5133-.6758.4528-1.3486.9108-2.0196 1.3706-.051.0303-.1164.0988-.1713.033-.6689-.4831-1.3566-.9442-2.0144-1.44Zm-31.85835-4.609c.28193-.2446.563-.491.84186-.7391.10013.1155.20114.2305.30302.3447-.18137.1577-.3645.314-.54675.4717.14712.216.28326.4396.43081.6556.13131.2442.4699.1933.68772.1116-.01054-.1146-.02591-.2284-.04172-.3421.14405-.0369.28809-.0729.43389-.1028.03338.1476.01757.3228.12033.4453.18489.0953.4071.0672.60648.0426.05094-.1532-.00176-.3092-.03865-.4589.14273-.0299.28502-.0593.42731-.09.06279.216.13482.4418.0931.6688-.05095.2231-.28282.3526-.49845.3623-.27008.0031-.56432.0417-.80146-.1172-.37724.1853-.84582.166-1.21911-.0207-.15326.0707-.3118.141-.48439.1397-.45453.003-.90905 0-1.363583.0013-.196304-.0044-.433889-.033-.5463133-.217-.1154987-.2064-.0368893-.451.0052699-.667.1493134.0268.2977494.0557.4479414.0781-.003952.0883-.014492.177-.009222.2662.070265.0799.181372.0729.277987.0742.38163-.0013.76282-.0009 1.14401 0 .08432-.0035.18752.0092.24066-.0729-.09838-.3158-.33991-.5573-.51074-.8344Zm7.43143-.0014c.28413-.2437.56519-.491.84669-.7374.10193.1094.20733.2166.29163.3408-.1612.1748-.36057.3092-.53141.4743.17742.2749.31401.5911.57311.8015.1317.0733.3908.0048.3724-.1796-.0022-.3926-.1098-.7743-.1827-1.1576.1502-.0282.3004-.0541.4519-.0721.0918.4792.2218.9574.2213 1.4484.0093.1585-.1045.2964-.2428.3596-.3171.1498-.6974.1256-1.00042-.0452-.2894.1467-.62009.166-.93804.13-.09529-.0189-.18093-.0654-.26569-.1102-.24329.1251-.55026.1778-.80673.0672.02196.2999-.19499.5445-.4396.6842-.18093.0997-.36099.2046-.5529.2819-.09266-.1159-.1436-.2591-.2086-.3913.26525-.1453.61438-.231.75008-.5305.05665-.2213-.07026-.4308-.14185-.6328.13966-.0531.28063-.1041.42204-.1537.0584.1001.07904.242.18971.3004.15766.0527.33201.0307.48439-.0303-.00834-.1151-.02371-.2293-.03996-.3435.14448-.0377.28941-.0729.43565-.1032.03908.1643.00395.4177.20157.4836.20509.0382.41764.0281.62316-.0022-.00834-.0707-.01976-.1428-.05884-.2038-.13526-.2363-.30258-.4528-.45409-.6785Zm2.39082-.5202c.1501-.0005.3003-.0005.4505 0 .0005.631.0009 1.2625 0 1.8941h-.4505c-.0009-.6316-.0009-1.2631 0-1.8941Zm4.9598.0042c.1357-.0009.2714-.0009.4076 0 .0004.1388.0004.2771 0 .4163-.1358 0-.2719 0-.4076-.0004-.0004-.1388-.0004-.2771 0-.4159Zm1.4374-.0043c.1498-.0004.2999-.0004.4501.0005.0005.631.0009 1.2621-.0004 1.8932-.1498.0004-.2999.0004-.4497.0004-.0009-.6315-.0004-1.263 0-1.8941Zm-13.43826.0961c.13526-.0009.27008-.0009.40534 0 .00044.1375.00044.2753 0 .4132-.13526.0005-.27008.0005-.40534.0005-.00044-.1379-.00044-.2762 0-.4137Zm3.60855.0975c.13262-.0008.26569-.0008.39832 0 .00087.1322.00087.2644.00044.3966-.13307.0009-.26614.0009-.39876.0004-.00088-.1326-.00088-.2648 0-.397Zm.52127-.0004c.13087-.0004.26218-.0004.39305.0013v.3948c-.13131.0018-.26218.0018-.39348.0013-.00044-.1326-.00044-.2648.00043-.3974Zm5.14784-.011c.137-.0008.2736-.0008.4106-.0004v.4141c-.137 0-.2736 0-.4106-.0004-.0004-.1379-.0004-.2758 0-.4133Zm.5621-.0004c.1362-.0004.2719-.0004.408.0004.0004.1375.0004.2754 0 .4133-.1361.0004-.2718.0004-.408.0004-.0004-.1383-.0004-.2762 0-.4141Zm4.7433.4523c.1305-.0851.2622-.1677.3949-.2498.1875.3214.4558.6258.4879 1.0113.0175.2574-.213.4581-.4541.4866-.2719.0277-.5459.0053-.8186.0119-.0009-.1568-.0013-.3136.0013-.4699.2701.0127.5586.0751.8138-.0474-.1265-.2561-.2772-.4989-.4252-.7427Zm-3.0121-.0742c.4857.1116.9683.2367 1.454.3492.0119.1343.0251.2696.0115.4044-.0453.0734-.1458.0852-.2161.1278-.2696.1129-.4901.3276-.7778.3997-.2375.0531-.4826.0597-.725.0522-.1177.0004-.2235-.0562-.3219-.1133-.1291.0694-.2719.1181-.4203.1142-.5125 0-1.025.0009-1.5375 0-.2363-.0031-.5068-.1217-.5801-.3645-.0492-.1889.0228-.3781.0496-.5639.1563.0215.3118.0505.4681.0742-.0158.0909-.0382.181-.0434.2736.0544.0984.1796.1098.2806.1138.3522.0035.7048-.0009 1.057.0017.1221-.0013.2583.0049.3588-.0773.0444-.0997-.0013-.2103-.0057-.3131.1502-.0246.2995-.054.4497-.0777.0308.159-.007.4312.2104.4611.3926.0246.7857-.0615 1.1484-.209-.1822-.0475-.3654-.091-.5494-.1287-.0061.0224-.018.0672-.0237.09-.1445-.036-.2877-.0764-.4304-.1177.0488-.1655.0936-.3316.1432-.4967Zm-10.66848.5635c.16292-.2046.35484-.422.61921-.4857.25207-.0312.45321.2134.46858.4479.01098.2657.00527.5323.00351.7984-.00219.2438-.19323.4317-.38426.5569-.20333.1234-.41983.2226-.63722.3184-.06675-.1305-.13218-.2613-.19147-.3953.26437-.1273.54939-.2297.76589-.4361-.20509-.0426-.43257-.043-.61043-.1651-.19674-.151-.18664-.4602-.03381-.6394Zm16.48418-.1721c.1432-.0299.2859-.0624.4313-.08.0593.267.1914.5854.0008.83-.2288.2508-.6214.2201-.9217.148.0149.228-.1085.4388-.2864.5731-.2182.1643-.4725.2706-.714.3957-.0655-.1352-.1349-.2687-.2007-.404.2481-.1318.5485-.2139.7158-.4554.1374-.2297-.0264-.4857-.1063-.7062.1405-.0536.282-.1045.4234-.1559.0658.1177.0944.3127.2621.3202.1489.0061.3338.0496.4554-.0615.0128-.1379-.0373-.2705-.0597-.404Zm-16.20928.4584c.11154-.1309.24724-.2398.40139-.3162.00747.1427.00703.2863.00615.4299-.13878-.0263-.27755-.0575-.40754-.1137Zm-2.51506.8941c.13087-.0009.26218-.0009.39348-.0004.00088.1344.00088.2687.00044.4031-.1313 0-.26305 0-.39479-.0008 0-.1344 0-.2679.00087-.4019Zm.51471.4027c-.00044-.1348-.00044-.2687.00088-.4031.13174-.0005.26349-.0005.39567.0004.00088.134.00088.2679.00044.4023-.13218.0004-.26481.0004-.39699.0004Zm17.97783-.4023c.1309-.0013.2622-.0013.3935-.0008.0008.1343.0008.2687.0008.4031-.1326 0-.2652 0-.3974-.0018.0013-.1335.0026-.267.0031-.4005Zm.519-.0008c.1318-.0005.264-.0005.3961.0004.0009.134-.0004.2683-.003.4027-.1313 0-.2626 0-.3935-.0004-.0004-.1344-.0004-.2688.0004-.4027Zm-.256.5129c.1318-.0022.264-.0027.3962-.0018 0 .1348-.0014.2697-.0027.4049-.1322 0-.2639-.0004-.3961-.0013 0-.1344.0013-.2683.0026-.4018Zm13.7062-19.0446c.0619-.0628.1304.0145.1875.0461.6346.4514 1.2775.8919 1.9099 1.3465-.6781 1.1321-1.3588 2.2629-2.0329 3.3973-.7044-1.13-1.3904-2.2718-2.0803-3.411.6733-.458 1.3417-.9222 2.0158-1.3789Zm-6.3643 1.69c.7562.0303 1.5103.0944 2.2652.1449.0035 1.2011.0079 2.4022.011 3.6033-1.0444-.5433-2.0887-1.0861-3.133-1.6293-.1059-.0233-.0387-.1287-.0158-.1924.2925-.6416.5849-1.2832.8726-1.9265Zm-4.0938 4.1157c.6332-.2499 1.2656-.5042 1.9011-.7488.4694.9749.9376 1.9507 1.407 2.9257-.5731-.0097-1.1448-.0461-1.7175-.0554-.5173-.039-1.0373-.0215-1.5542-.0676-.0031-.6851-.0228-1.3693-.0364-2.0539Zm-1.8335 5.0178c.4255-.4348.8287-.8906 1.2595-1.3206.7426.6184 1.4962 1.2235 2.2423 1.8379-.8989.3764-1.7935.7633-2.692 1.141-.271-.5525-.5419-1.105-.8098-1.6583Zm.8752 3.4562c.8226.2455 1.6394.5116 2.4619.7584-.6051.6214-1.223 1.2301-1.837 1.8422-.4005-.3702-.8115-.7294-1.2147-1.0965.1994-.5002.3944-1.0022.5898-1.5041Zm1.4457 4.1992c.7532-.0496 1.5085-.0668 2.2613-.119-.3083.6939-.639 1.3776-.953 2.0689-.4458-.1695-.8845-.3566-1.3298-.527-.0009-.4743.0167-.9486.0215-1.4229Zm2.5884 3.2297c.6451-.2824 1.2885-.5682 1.9327-.8524-.0469.7123-.09 1.4246-.1479 2.1361-.4471-.0123-.8946-.0272-1.3421-.0281-.1458-.419-.3035-.8344-.4427-1.2556Zm3.1936 1.9401c.4598-.4383.9025-.8946 1.3574-1.3381.1831.6139.3808 1.2243.5538 1.8414-.3794.1343-.7554.2788-1.1365.4092-.257-.3056-.5183-.6073-.7747-.9125Zm3.4729.6535c.2643-.4132.505-.8414.7786-1.249.2507.426.5107.8472.7536 1.278-.2618.1682-.5182.3434-.776.5173-.2534-.1809-.5072-.3601-.7562-.5463ZM3.72009 31.1056c.21256-.0018.42511-.0018.63766 0v.6253c-.21255.0022-.4251.0018-.63766.0005v-.6258Zm4.18301 1.3885c.44179-.3794.88754-.7549 1.32757-1.1366.15766.1643.30258.34.45541.5086-.28984.2402-.57969.48-.86909.7202.23187.3601.56871.6908.60648 1.1388.03645.321-.1906.6091-.47386.732-.37987.1889-.81551.1177-1.22393.1283-.21563.0096-.40842-.0918-.59418-.1867-.33684.1897-.73647.2187-1.11371.1739-.16951-.0202-.32058-.1014-.47209-.1726-.32454.1739-.70793.2367-1.06847.1555-.10935-.0228-.19631-.0957-.27975-.1647-.2064.1744-.49361.2433-.7514.1449.0729.2833.14317.5679.1985.8551-.53094.1814-1.04651.4071-1.58712.5573-.34957.1023-.71934.1572-1.081644.1005-.480439-.0887-.8901733-.5076-.9244277-1.0021-.05621225-.6324.1976217-1.2323.3719667-1.8274.223532.0866.449259.1682.674985.2499-.111984.448-.327171.8819-.299504 1.3544 0 .2108.14053.4115.339034.4831.26393.1027.55026.0254.81288-.0404.30741-.094.60121-.2258.90203-.3386-.13087-.5257-.26964-1.0487-.40051-1.574.24373-.0641.48922-.1212.73339-.1835.06324.1993.07729.422.20114.5972.0729.1072.25778.1665.34561.0452.12516-.1703.13746-.3908.16908-.5924.24066.0422.48263.0756.72241.1225-.04347.1586-.06806.3246-.03908.4888.15502.0554.41017.1028.47912-.097.00351-.1687-.06192-.3281-.09925-.4906.21695-.0628.43213-.1326.64732-.2015.05929.2029.06895.422.16337.6135.13394.2358.4475.2499.68421.2007.07465-.0242.19718-.0404.20464-.1375.00308-.159-.04655-.3127-.06938-.4681.22397-.051.4475-.1028.67015-.1595.05051.2012.05182.4177.1379.6092.10979.1875.35747.1695.54587.1769.25208-.0092.52963.0519.75096-.1032-.03513-.1901-.14975-.3487-.25339-.5063-.17347-.2631-.36099-.5165-.54324-.7738Zm6.1368-.8243c.2354-.0018.4708-.0009.7066-.0009.0004.7321-.0009 1.4646.0004 2.1971.1208.0049.2424.0202.3628.0018.137-.0382.2463-.1388.3329-.2473.1668-.2165.299-.4584.4699-.6714.1919-.2323.5349-.3637.8221-.2372.1787.0734.2674.2613.3131.4383.0812.3043.1796.6087.1981.9253.0281.3895-.354.7347-.737.6921-.3271-.029-.5638-.2837-.8238-.4558-.1388.1489-.3206.2639-.5288.2709-.3741.0189-.7457-.0509-1.1163-.0904v-2.8225Zm3.7157-.0008c.2359-.0004.4721-.0004.7084 0 .0009.7326-.0018 1.4646.0013 2.1972.2051.0013.426.05.6188-.0404.173-.0975.0768-.3233.0456-.4743.2267-.0457.4541-.087.6812-.1309.0377.1994.05.419.1761.588.0751.1098.2477.0844.3127-.0237.1102-.1699.1049-.3821.1471-.574.2222.0409.4435.0848.6675.1182-.0123.1611-.0799.3223-.0514.4848.17.1155.4357.0812.5573-.09-.0017-.2007-.0843-.3904-.1295-.5837.2257-.0527.4523-.1014.6793-.148.0571.3017.1704.5986.1581.9091-.0373.3641-.3961.5836-.7228.6579-.2995.0575-.6596.0553-.8827-.1862-.1313.1177-.2912.2182-.4734.2147-.2385.0211-.4572-.1058-.614-.2749-.191.2367-.5103.2802-.7953.2758-.3636.0026-.7242-.0549-1.0847-.0953.0004-.9416 0-1.8831.0004-2.8243Zm-14.46983.27c.21431-.0035.42905-.0022.6438-.0017v.6323c-.21475.0005-.42949.0018-.6438-.0017v-.6289Zm.87658-.0004c.21211-.0026.42466-.0022.63722-.0004v.6306c-.21256.0018-.42511.0022-.63722 0-.00044-.2103-.00044-.4202 0-.6302Zm7.13275 1.5489c0-.2156-.0022-.4317.0027-.6473.209 0 .418-.0026.6271.0044.0031.2143.0013.4286.0013.6429-.2104.0005-.4207.0005-.6311 0Zm1.0224-.444c.2262-.0523.4536-.0992.6824-.1414.1634.7312.3386 1.4602.5082 2.1905-.6768.235-1.339.5292-2.0478.654-.3865.068-.816.0219-1.1313-.2293-.2833-.2112-.44707-.5634-.43917-.9152-.01844-.5608.22837-1.0768.38647-1.6021.2292.0558.4593.1085.6868.1713-.1357.4682-.3548.9376-.3012 1.4365.0527.3026.3812.469.6671.4431.4848-.0417.9336-.2433 1.3894-.3983-.1365-.5358-.2621-1.0742-.4009-1.6091Zm3.7118.7751c.1164-.1717.2244-.357.3935-.483.0856.0571.115.1607.1431.2538.051.1823.0993.3759.0532.5652-.2117-.0839-.401-.2117-.5898-.336Zm-9.78448 1.411c.19982 0 .39964 0 .59946.0005-.00044.2059.00132.4119-.00044.6178h-.59858c-.00131-.2059-.00088-.4123-.00044-.6183Zm.80014.0005c.20465-.0005.40885-.0009.6135.0004 0 .2055.00044.4111-.00044.617-.2042.0005-.40841.0005-.61218.0005-.00132-.2064-.00088-.4124-.00088-.6179Zm2.88616 2.1655c-.04304-.1818-.16161-.3421-.16644-.5327.25122.2692.42772.6157.44882.9872.04.4563-.1098.9539-.46112 1.26.03294-.1748.11067-.3364.15634-.5072.11818-.39.12208-.8129.0224-1.2073ZM.460678 39.1179c-.614382-.5827-.614382-1.6749.003074-2.2546-.035133.2147-.139213.4097-.185325.6223-.090466.3522-.084757.7246.003074 1.0768.044794.1897.163806.3579.179177.5555Zm2.575202-1.7236c.08344-.0009.16688-.0009.25032-.0005.00044.2675 0 .5354.00044.8028.24461.0084.49713-.0088.71934-.1225-.1862-.0531-.38207-.0088-.56607-.072.02547-.0944.05182-.188.07685-.282.28457.0523.56432.1283.84538.1963-.00088.0791-.00132.1586-.0022.2385-.20596.0764-.3768.2301-.59023.2863-.24241.0185-.48702.0088-.72987-.0004-.02899-.3482-.01274-.6978-.00396-1.0465Zm.7277.0079c.08081-.0005.16161 0 .24242.0004-.00044.0795-.00044.1594-.00044.2398-.08037 0-.16073 0-.2411.0004-.00044-.0808-.00088-.1607-.00088-.2406Zm3.54796 1.0328c-.00088-.3474-.00088-.6943 0-1.0412.08783-.0005.17567-.0005.2635 0 .00175.2692-.00088.5384.00175.808.09179-.0031.18357-.007.27536-.0154-.0202-.1076-.04568-.2138-.07115-.3201.083-.0202.16688-.0386.2512-.054.0325.1383.06544.278.06939.4211.1155-.0211.23144-.0373.34737-.0562-.00351-.0562-.00702-.112-.01097-.1673.0786-.0158.15721-.0325.23582-.0483.02021.0742.03953.1484.05973.2235.03821.0031.07641.007.11462.0119.02372-.0786.04523-.1572.06544-.2363.07992.0141.15941.0299.23934.0448-.00439.0646-.00835.1296-.01142.195.06675-.0066.13306-.0141.19982-.022-.01625-.0825-.03338-.1642-.05226-.245.08388-.0185.16776-.0373.25164-.0558.02195.1502.11989.3342-.00176.4651-.13131.1497-.35836.1405-.52919.0729-.12823.0632-.2736.0544-.39349-.0224-.13614.068-.28984.0782-.43872.0966-.01888.0878.00835.1713.05578.245-.065.0532-.13043.1059-.19587.1586-.1155-.1177-.15941-.2784-.14229-.4401-.19454.0211-.38997.0049-.58364-.0184Zm-5.48772-.324c.23802-.1695.49273-.4054.80541-.3759.34386.0856.25515.6877-.08124.7184-.2187.0154-.43916.0092-.65786-.0048.02459.1036.04962.2081.07334.3131-.27008.09-.53358.2121-.81903.2459-.210798.0281-.443991-.1036-.489224-.3197-.050943-.2398.058847-.4721.127355-.696.087393.0197.174346.0404.261739.0619-.052699.1633-.122086.3272-.115938.5024-.006148.1111.109788.1871.211238.1862.18313-.0114.35264-.0883.52347-.1476-.0404-.1958-.08958-.3895-.13921-.5827.08564-.0216.17127-.0431.25691-.0633.01449.0536.02854.1076.04304.1621Zm4.91593-.3247c.0931-.0303.23583-.0391.28414.0672.05797.1239.08519.2604.10408.3957.03557.1721-.15942.3351-.32322.2736-.07993-.0356-.14976-.0892-.22793-.1278-.10715.036-.21475.0711-.32893.0777.00791.0659.01625.1327.02372.1998-.20729.1349-.44399.2464-.69827.2258-.20992.0087-.42686-.1177-.4923-.3224-.06148-.2169 0-.4431.09838-.6385.08256.0294.16468.0602.2468.0909-.0606.1625-.18927.39-.03469.538.21255.1563.48878.0268.68992-.0874-.09398-.0501-.19235-.0944-.27535-.1612-.0123-.0887.05797-.1585.09134-.2341.14448.0918.32498.1507.49406.0971.14184-.1076.19059-.3052.34825-.3944Zm-4.62607.405c.1436-.083.28765-.1765.45541-.1994.00044.0624-.00088.1256-.00308.1889-.14975.0254-.3017.0232-.45233.0105Zm4.56634-.0123c.05402-.0637.10979-.1256.16908-.184.02459.1036.04787.2077.06631.3131-.07992-.0404-.15897-.083-.23539-.1291Z" clip-rule="evenodd"/>
</svg>
