<svg xmlns="http://www.w3.org/2000/svg" fill="none" viewBox="0 0 48 48">
  <path fill="#000" fill-rule="evenodd" d="M15.1109 43.7199c.1181-.0862.2343-.1746.3475-.2668.2411-.1965.4698-.4086.6811-.6369.0984-.1063.193-.216.2834-.3293.0723-.0906.1417-.1838.2104-.2774.1165-.1588.2293-.3206.3381-.485.3046-.4602.5787-.9405.8223-1.4358.1171-.238.2266-.4796.3301-.7238.0205-.0487.0408-.0976.0608-.1465.0067-.0163.0199-.049.0199-.049.1944.1996.3931.3948.5967.585.5232.4886 1.0756.9455 1.65 1.3722.2131.1583.4292.3124.6482.4625.1195.0819.2395.1631.3613.2415.1637.1055.3306.2061.5.3022.3756.213.7634.4041 1.1585.5779.1633.0718.3281.1402.4936.2069.0559.0221.1119.0442.168.0661-.8179 1.7984-2.236 3.3497-3.6815 4.5663-1.8966-1.1819-3.7047-2.54-4.9884-4.0301ZM4.1528 35.6178c.1134.0436.2274.0847.3428.1222.2427.0786.4905.1424.7418.1871.1155.0207.2317.0373.3484.0496.1068.0112.2139.0186.3211.0247.1426.0082.2854.0134.4282.0156.4533.0072.9071-.0156 1.3573-.0686.1955-.0231.39-.0525.5839-.0862.0828-.015.0827-.015.1654-.0307-.0422.2142-.0808.4288-.1137.6446-.072.4732-.1197.95-.1438 1.428-.0132.2611-.0193.5224-.0184.7838.0006.2031.0052.4059.0201.6086.0324.4407.106.8766.206 1.3066.0143.06.029.1198.0441.1796.1261-.0173.2518-.0367.3769-.0603.2652-.0502.5274-.1167.7833-.2031.1187-.04.2361-.0843.3516-.133.0924-.0391.1837-.0812.2745-.1238.1265-.0594.2519-.1211.376-.1852.5776-.2982 1.1272-.6479 1.6457-1.0401.0614-.0467.1224-.094.183-.1418.0604-.0481.1204-.0966.1801-.1456.0732.2632.1516.5249.2379.784.1905.5722.4145 1.1331.6691 1.6796.0852.1831.1739.3645.266.5443.0558.109.1123.2179.1716.3251.0762.1381.1565.2739.2405.4073.235.3734.4987.7271.78 1.0667.0459.0546.0922.1091.1387.1631-1.3234.9507-2.9632 1.5088-4.4852 1.8249-.9412-1.5072-1.7798-3.1594-2.1897-4.7621-.8719.1124-1.7879.0633-2.6776-.0834-.5421-.088-1.0779-.2116-1.5903-.3563-.209-1.5543-.2827-3.2316-.0153-4.7252Zm19.628 7.5659c.0718-.1603.1404-.3221.203-.4862.1335-.3494.2434-.7081.3243-1.0734.0404-.1822.0736-.366.099-.5509.0229-.1666.0389-.3342.0532-.5018.018-.2103.0314-.4209.0402-.6317.0272-.6455.0118-1.2929-.0467-1.9364-.026-.2863-.0611-.5717-.1036-.856-.0124-.0806-.0254-.1612-.0388-.2416l.0696.0188.0699.0188c.334.0883.6696.17 1.007.2438.8512.1864 1.7121.3269 2.5774.428.3067.0358.6139.0667.9215.0928.2032.0173.4066.0334.6102.0448.2538.0143.508.0217.7621.023.5847.003 1.1694-.0262 1.7515-.0801.273-.0253.5452-.0568.8172-.0916.435 2.4154.0001 4.9851-.7334 7.2468-1.2038-.1001-2.3929-.2382-3.5367-.4247-1.7511-.2838-3.4019-.6839-4.8469-1.2424Zm-10.7937-4.7658c.2286-.2092.4481-.4282.6603-.6543.2639-.2811.5167-.5729.7574-.8742.1908-.2391.3743-.4842.546-.7375.1596-.2355.3095-.478.4343-.734.013-.0276.0258-.0552.0382-.083.103.2664.2298.5229.3645.7745.1673.3125.3486.6176.5393.9163.2471.387.5107.7636.7917 1.1266.2221.287.4553.5653.703.8302l-.0999.2462-.0194.0471c-.111.2674-.2295.5316-.3573.7914-.2267.4608-.4806.9081-.7622 1.3374-.1131.1725-.2306.3421-.3526.5084-.0983.1338-.1986.2661-.3063.3925-.1984.2329-.4167.447-.6477.6473-.0296.0252-.0591.0505-.0892.0752-.2581-.3237-.4952-.6656-.7044-1.023-.0912-.1558-.1756-.3153-.2578-.4759-.0973-.1899-.1906-.3818-.2801-.5754-.2232-.4837-.4218-.9788-.5935-1.4832-.0854-.2508-.1633-.5041-.2359-.759l-.0481-.173-.0803-.1206Zm5.419.442.0025-.007c.1404-.3961.2616-.799.3626-1.2071.1662-.6712.2777-1.3564.3277-2.0463.0217-.2991.0308-.5985.0296-.8984-.0005-.0494-.0012-.0988-.002-.1483.3161.2102.637.4129.9646.6047.5022.2939 1.019.5629 1.5489.803.5462.2475 1.106.4642 1.6757.6509.1538.0504.3084.0984.4636.1443l.0489.2919.0094.0583c.0403.2539.0744.5088.101.7645.0684.6598.0898 1.3245.0648 1.9873-.0092.2444-.0248.4886-.0466.7321-.0186.2076-.0414.4146-.0767.6199-.0775.4524-.2038.8967-.3693 1.3244l-.0332-.014c-.1564-.0671-.312-.136-.466-.2084-.3216-.1509-.6371-.3149-.9434-.4951-.1138-.0668-.2262-.1358-.3371-.2072-.1361-.0878-.2701-.1789-.4034-.2708-.2651-.183-.526-.3721-.7821-.5674-.6562-.5008-1.2803-1.0433-1.8626-1.6287-.0928-.0938-.185-.1881-.2769-.2826Zm-9.4315-3.1455c.5015-.1266.9926-.2956 1.47-.494.2421-.1007.4809-.2096.7152-.3275.319-.1605.6292-.338.9244-.5394.0439-.0306.0438-.0305.0874-.0616-.0353.2888-.0469.5798-.0473.8707-.0005.3333.0138.6667.0385.999.0286.3844.0714.7676.1296 1.1486.0465.3048.1032.6078.1734.9078l-.2109.1733c-.1946.1587-.3939.3113-.5987.4566-.3859.2738-.7896.5225-1.2081.743-.1443.0761-.2902.1487-.4378.2179-.1288.0604-.2583.1189-.3911.17-.2597.0998-.5288.177-.8015.232l-.0011-.0055c-.0655-.3305-.1139-.664-.1358-1.0004-.0113-.1727-.0145-.3457-.0151-.5187-.0006-.1896.0026-.3794.0096-.5689.0161-.433.0521-.8653.1086-1.2949.0277-.21.0609-.4191.0977-.6277.0108-.0589.0218-.1177.033-.1766l.06-.3037Zm6.7488-.9899c.4298-.953.6979-1.9439.7815-2.9269.5113.8611 1.226 1.6606 2.1149 2.3724l.008.4639c.0013.1184.0013.2369-.001.3554-.0057.2881-.023.576-.0513.8628-.0629.6387-.1801 1.2717-.3458 1.8916-.0638.2388-.1353.4755-.2129.7102l-.0202-.0229c-.0736-.0841-.1464-.1688-.2177-.2547-.1985-.2393-.3877-.4863-.569-.7388-.2058-.2868-.4015-.5808-.5868-.8812-.1494-.2423-.2921-.4888-.4249-.7407-.1071-.2029-.208-.4093-.2935-.6224l-.1813-.4687Zm-2.9985-.8379c.7511-.5936 1.3985-1.2944 1.9087-2.0826.0069.9483.1897 1.9171.5325 2.8789l-.2077.4664-.0073.0162c-.0904.1926-.1989.376-.3143.5545-.1277.1977-.2642.3896-.4058.5774-.2044.271-.4197.5338-.6439.7885-.223.2536-.4549.4994-.6966.7352l-.0017-.008c-.1203-.6049-.1978-1.2179-.2374-1.8334-.0161-.2505-.0259-.5016-.027-.7527-.0011-.2457.0062-.4913.0282-.736.0046-.046.0045-.0459.0096-.0919l.0627-.5125Zm25.9643-7.1259c2.4013 1.9872 4.0595 4.765 5.1768 7.5522-3.7843 1.592-7.5914 2.8515-10.9682 3.2911l-.0081-.045c-.0451-.2394-.0978-.4771-.1603-.7125-.1246-.4685-.2861-.9276-.4876-1.3686-.0693-.1518-.1434-.3015-.2222-.4488-.0768-.1434-.1579-.2845-.2402-.4248-.1789-.3052-.3671-.6047-.5644-.8982-.401-.5965-.839-1.168-1.3106-1.7102-.2232-.2567-.4543-.5062-.6916-.7498-.0506-.0516-.1015-.1029-.1526-.154.407-.1052.8121-.2178 1.2147-.339.9216-.2772 1.8307-.5954 2.7261-.9483.477-.188.9502-.386 1.4194-.593.2214-.0977.4424-.1968.6615-.2999.2222-.1045.4423-.2134.6604-.3262.9219-.4769 1.8051-1.0251 2.6563-1.619.0971-.0681.194-.1368.2906-.206Zm-10.1973 4.4706.2652.2655.0494.0498.0492.0502c.2306.2365.455.4788.6718.7281.4899.5634.9427 1.1594 1.3539 1.7828.1622.2459.3179.4961.4669.7502.079.1348.157.2703.2307.4081.0604.1128.1178.2272.1723.343.2352.5.4143 1.0249.5444 1.5619l-.0347.0037c-.2247.0226-.4495.043-.6748.0585-.5058.0351-1.0131.0495-1.5201.038-.1744-.0039-.3487-.0111-.5229-.0215-.1815-.0109-.3629-.0253-.5441-.0408-.41-.0348-.8194-.0783-1.2275-.1308-.765-.0984-1.5261-.2288-2.2791-.3961-.3059-.068-.6102-.1426-.9131-.2227-.1148-.0308-.2295-.0617-.3441-.0929-.0685-.3746-.167-.7439-.2811-1.1071-.1839-.5857-.4099-1.1583-.6631-1.7173-.1541-.3401-.3186-.6758-.4972-1.0036-.064-.1173-.1299-.2337-.1989-.3481-.0653-.1084-.133-.2158-.2093-.3167-.0129-.0167-.026-.0331-.0396-.0492l.07.0046.0703.0044c.3381.0194.6767.0298 1.0154.0289.6246-.0018 1.2491-.0378 1.8704-.1005.8308-.084 1.6566-.2163 2.4739-.3869.216-.0451.4312-.0931.6458-.1435Zm-9.3958 2.7005c-.0897-1.1369-.3637-2.2033-.8216-3.1384.9505.4837 2.0812.8088 3.3584.9633l.3385.3994.0048.006c.0062.0077.0062.0077.0122.0155.0546.0723.1035.149.151.2262.0634.103.1236.2079.1821.3137.1564.2824.3009.5716.4374.8641.1846.3958.3543.7989.506 1.2085.1712.4627.3198.9344.4278 1.416l-.0501-.0157c-.2545-.081-.5074-.1668-.758-.2595-.4043-.1496-.8025-.3157-1.1933-.4979-.4346-.2027-.8598-.4253-1.2749-.6654-.2206-.1278-.438-.2607-.6533-.3972-.0722-.0461-.1441-.0926-.2158-.1394-.1507-.0993-.3011-.1992-.4512-.2992Zm-16.69-4.929c.2761.3178.5736.6164.902.8799.0961.0771.1946.1511.2956.2218.0771.0538.1557.1055.2347.1565.1232.0795.248.1565.3743.2312.3707.2188.7543.4156 1.1487.5881.2054.0899.4139.1721.6244.2493.0784.028.0784.028.157.0554-.1434.191-.2824.3852-.4152.5838-.2708.4052-.5178.8262-.7408 1.2596-.0852.1656-.1669.333-.2451.502-.0415.0897-.0824.1797-.1208.2709-.0427.1013-.0827.2037-.1202.3071-.1347.3713-.2358.7534-.3152 1.1401-.0112.0563-.0221.1127-.0327.1693-1.2757-.4899-2.5034-1.3988-3.5602-2.3688.399-1.4696.976-3.0135 1.8135-4.2462Zm4.2296 2.559c.1581.0479.3184.0888.4799.1241.2382.0522.4789.0926.7206.124.2791.0363.5597.0606.8407.0745.3403.0168.6813.0181 1.0217.002.0477-.0025.0954-.0054.1431-.0085.0443-.0032.0886-.0067.1329-.0106l-.0333.0542c-.1111.1829-.2175.3684-.318.5573-.2369.4457-.4431.9077-.62 1.3804-.1427.3813-.2664.7698-.3717 1.1631-.0247.092-.0482.1842-.0707.2766l-.2931.0558c-.2103.0383-.4214.0711-.6338.0962-.4282.0504-.8599.0721-1.291.0653-.1359-.0021-.2718-.0071-.4075-.0149-.1292-.0074-.2583-.0169-.3867-.0331-.2767-.035-.5505-.0962-.8169-.1788l.0012-.0051c.077-.3219.1708-.6395.2915-.9479.0632-.1617.1349-.3199.2088-.477.0763-.1619.1559-.3221.2388-.4805.1901-.3631.3978-.7169.623-1.0592.0948-.1441.1931-.2858.2936-.4259.0504-.0692.0504-.0691.1013-.1381l.1456-.1939Zm3.9768.2224c.8831-.1508 1.7322-.4478 2.508-.8895-.4257.8296-.7141 1.7502-.8661 2.7241l-.4135.294c-.372.2591-.7721.4757-1.1827.6666-.4994.2322-1.0165.4258-1.5454.5791l.0017-.0064c.1411-.5215.3129-1.0342.5217-1.5326.137-.327.2893-.6476.4575-.9595.0775-.1437.1586-.285.2425-.425.0914-.1507.1837-.3008.2763-.4508Zm-.8835-2.9558c.8319.3278 1.6956.4994 2.5576.4952-.7394.5343-1.3991 1.2188-1.9595 2.0106l-.4367.0377-.0411.0032c-.2468.018-.4944.024-.7419.0213-.2574-.0028-.5147-.015-.7711-.0367-.2709-.0228-.5411-.0563-.8089-.1032-.1838-.0322-.367-.0702-.5475-.118l.0055-.0065c.0966-.1129.1948-.2244.2954-.3337.2399-.2604.4921-.5097.7563-.7453.2421-.216.4941-.4207.7558-.6122.1283-.0939.2591-.184.3916-.2717.0495-.0323.0991-.0642.1489-.0958.1315-.0822.2635-.1637.3956-.2449Zm13.5566-.8688.5312.2106c.1635.0661.3259.1344.4868.2067.3565.1599.7059.3356 1.0473.5256.6853.3813 1.3388.8195 1.9555 1.3041.2511.1971.4955.4024.7346.614l-.0253.0056c-.9967.2175-2.0052.3815-3.022.4676-.4965.0421-.9949.0661-1.4933.0675-.2595.0007-.5189-.0056-.7781-.0171-.0687-.0034-.1375-.007-.2062-.0109-.1822-.0113-.3644-.0233-.5465-.0355-.7343-.9641-1.5935-1.7469-2.537-2.3023 1.1941-.1017 2.4949-.4498 3.853-1.0359ZM6.334 26.455l.0161.0172c.2867.3031.5897.5908.909.8592.3375.2838.6932.5461 1.0662.7812.172.1085.3478.2105.5266.3073.0531.0284.1064.0563.16.0839.0534.027.107.0537.1609.08l-.0528.0325c-.1766.1104-.3502.2253-.5198.3462-.3994.2846-.7779.5985-1.1342.9357-.2871.2717-.5598.5585-.8177.8581-.0603.0701-.1196.1409-.1782.2123l-.2398-.0834c-.2005-.0717-.3991-.1482-.5949-.2319-.3764-.161-.7427-.3454-1.097-.5506-.1451-.0842-.2882-.1718-.4292-.2628-.1275-.0823-.253-.1672-.374-.2589-.2111-.16-.4085-.3365-.5963-.5231-.0303-.0306-.0604-.0612-.0902-.0922.193-.2541.4021-.4962.6315-.7181.1244-.1204.2555-.2333.3889-.3435.1477-.122.2985-.2402.4523-.3545.3019-.2243.615-.4335.9382-.6257.171-.1017.3449-.198.5208-.2908.0752-.0388.0751-.0388.1506-.0771l.203-.101Zm23.2819-2.6736.4834.076.0831.0134c.3919.0645.7822.1378 1.1705.2217.9162.1977 1.8206.4501 2.7076.7535.3419.117.6813.2417 1.0178.3738.1639.0643.3276.1297.4895.1993.1502.0644.2989.1322.446.2033.3899.1886.7683.4004 1.1338.6329.1823.116.3611.2374.5371.3628.055.0397.1098.0796.1643.1198l-.0228.0156-.0573.0388c-.745.5024-1.5148.9682-2.3144 1.3785-.1934.0992-.3884.1952-.5851.2877-.2155.1013-.4328.1988-.6506.2949-.4024.1776-.8078.3484-1.2161.5119-.7723.3092-1.5551.5924-2.3475.8456-.4016.1282-.8057.2481-1.212.3608-.1128.031-.2258.0614-.339.0914-.156.0409-.3122.0813-.4683.1216-.0321-.0298-.0644-.0596-.0968-.0891-.3963-.3617-.8099-.7041-1.2397-1.0249-.6945-.5182-1.4317-.9799-2.2048-1.3711-.3298-.1669-.6662-.3195-1.0078-.4604-.0562-.0227-.1125-.0453-.1689-.0676.2841-.137.5652-.2797.8426-.4298.7264-.3927 1.4291-.8291 2.1089-1.2979.7775-.5362 1.5255-1.115 2.2453-1.7267.1687-.1435.3357-.2888.5012-.4358ZM2.4061 29.0028C1.4261 27.8619.6306 26.3158 0 24.7622c.9779-1.2429 2.1835-2.4795 3.5183-3.2519l-.0107-.0426c-.4501-1.8043-.5609-3.9797-.5011-6.1287.5903-.2881 1.2103-.5474 1.85-.7637 1.0534-.3523 2.1451-.574 3.2041-.5552-.1169.65-.2035 1.3057-.2348 1.9658-.0078.1634-.0122.327-.0129.4906-.0006.1466.0022.2932.0057.4399.0056.2386.0149.4772.028.7156.0501.9125.1574 1.8215.3321 2.7186.0186.0937.0378.1873.0576.2806-.2475-.0198-.4955-.0316-.7438-.0338-.5201-.0047-1.0405.0305-1.5554.1043-.1745.025-.3484.0545-.5215.0882-.0999.0196-.1997.0399-.2988.0635-.1096.0262-.2182.0562-.3258.0897-.2748.0855-.5424.1936-.8018.318-.1242.0595-.2462.1233-.367.1894-.0521.0291-.052.0291-.1039.0584.1269.4933.2821.9792.483 1.4475.0579.135.1194.2683.185.3997.0493.0987.1009.1963.1531.2936.0807.15.164.2988.2498.4461.2483.4257.5184.8388.8106 1.2355.1496.2031.3056.401.4661.5955.0409.0487.0785.094.12.1421-.2121.1055-.4215.216-.627.3339-.4326.2483-.8488.5252-1.2456.8274-.1349.1029-.2676.2086-.398.3172-.0755.0628-.1505.1262-.2236.1917-.081.0728-.1599.1477-.2367.2248-.276.277-.5232.5804-.7509.8981-.033.0467-.0657.0936-.098.1408Zm7.8851-3.4798c.5851.7995 1.2649 1.4509 2.0208 1.921-.884.1048-1.7677.3963-2.6119.84l-.3604-.1759-.0505-.0251-.0503-.0254c-.2555-.1317-.5044-.2752-.7456-.4318-.6085-.3953-1.1664-.866-1.6725-1.3859l.0384-.0157c.2326-.0945.4682-.1812.7072-.2582.5471-.176 1.1105-.3033 1.6812-.372.1279-.0155.2565-.0243.3849-.0334.0899-.006.1799-.0115.2699-.0167l.3888-.0209Zm12.3211-1.5075.5768-.1023c.2067-.0362.4136-.0717.6208-.1053.1611-.0262.3224-.0516.4841-.0736.1626-.0221.326-.0398.4893-.0563 1.3825-.1385 2.7796-.1212 4.1606.0265l-.0564.0485c-.3158.2694-.6358.5338-.9622.7904-.9043.7108-1.8522 1.3678-2.8466 1.9459-.3621.2105-.7306.4092-1.1047.5975-.0604.0299-.1208.0597-.1814.0893l-.5344.2578c-1.2549-.4128-2.5053-.5991-3.6909-.5528 1.063-.7146 2.0926-1.6813 3.045-2.8656ZM8.0606 14.0201c.4427-2.4538 1.4578-5.20951 2.6724-7.90135 1.99.26027 4.0892.89571 5.7037 2.23382C18.301 5.61084 20.9577 2.84947 23.844.25c1.671 2.00711 3.1319 4.52223 3.6554 7.42525 2.0684-1.19064 4.3984-2.18102 6.8548-3.00641 1.6171-.54327 3.2855-1.01432 4.9658-1.42516-.2079 3.76397-.9204 7.76112-2.5497 11.34992 3.8399.0792 7.7089 1.2088 11.2297 2.7455-2.8117 3.6205-5.9657 7.0101-9.3108 9.4216l-.0435-.0359-.0437-.0357c-.2481-.2007-.5025-.3936-.7645-.5758-.4635-.3225-.949-.6132-1.4535-.8666-.1865-.0936-.3756-.1823-.5669-.2655-.1838-.0799-.3699-.1545-.5564-.2277-.3717-.146-.747-.2831-1.1253-.411-.7942-.2685-1.602-.4968-2.4195-.6826-.3692-.084-.7404-.1585-1.113-.2255-.0851-.015-.1702-.0297-.2553-.044-.0849-.014-.1697-.0276-.2547-.041l.0709-.0658c.3361-.3138.6665-.6334.9903-.9599.7543-.7609 1.474-1.556 2.1593-2.3798.3243-.3898.6408-.7861.9496-1.1883.1457-.1898.2903-.3804.4311-.5739.1486-.2042.293-.4115.4333-.6215.384-.5747.7371-1.17 1.0605-1.781.1626-.3071.3171-.6183.4654-.9326.0394-.0841.0784-.1686.117-.253l-.0674-.0013-.0673-.0011c-.3582-.0049-.7164-.0016-1.0744.0123-.6894.0267-1.3774.0904-2.0594.1945-.2634.0402-.5258.0864-.787.1388-.2392.048-.4773.1013-.7151.1559-.4419.1016-.882.2114-1.3199.3294-.8744.2357-1.7399.5045-2.5931.8082-.3937.1403-.7844.2884-1.1726.4431-.0879.0354-.1756.071-.2633.1068-.0869.036-.1737.072-.2604.1085l.0278-.0839c.1298-.3955.2516-.7935.3636-1.1944.2619-.9376.4734-1.8894.6337-2.8497.0664-.3978.124-.797.1728-1.1974.0242-.1989.0471-.3982.0649-.5978.0183-.2052.0313-.4109.039-.6167.0212-.56947.0017-1.14019-.0563-1.70691-.0314-.30595-.0745-.6105-.1271-.91344-.0031-.01774-.0063-.03547-.0094-.0532-.2742.15969-.5464.32248-.8153.49088-.5456.34172-1.0788.70367-1.5943 1.08956-.2438.18253-.4836.37037-.7187.56402-.1697.13965-.3363.28299-.5026.42669-.2572.2221-.5117.4474-.7633.676-.7182.6525-1.4129 1.3312-2.079 2.0373-.2931.3107-.5802.6271-.8621.9482-.0782.0896-.1561.1796-.2337.2698-.0764.0895-.1524.1793-.228.2693l-.0166-.0675c-.0786-.3153-.1648-.6285-.2606-.939-.2193-.7109-.4855-1.4074-.7997-2.0817-.1277-.2741-.2633-.5444-.407-.8104-.0703-.1302-.1418-.2599-.2175-.3869-.0697-.1169-.1429-.2317-.2196-.3442-.2183-.32038-.4644-.62162-.7336-.90052-.1561-.16169-.32-.31527-.49-.46223-.0401-.03436-.0805-.06832-.1211-.10198-.15.2222-.2975.4459-.4406.67251-.3165.5011-.6141 1.01442-.886 1.54122-.115.2229-.2254.4482-.3305.6759-.0775.1678-.1521.337-.2259.5065-.1119.2571-.2207.5157-.3261.7756-.2906.7166-.5559 1.4436-.7917 2.1801-.0999.3118-.194.6255-.2833.9406-.0266.0946-.0528.1895-.0786.2844-.0189.0706-.0378.1411-.0562.2118-.0061.0234-.0183.0703-.0183.0703l-.0411-.0348c-.2063-.1731-.4178-.3398-.6356-.4982-.4221-.3069-.8659-.5841-1.3276-.8273-.2402-.1267-.4853-.2441-.7346-.3518-.1154-.0499-.2316-.0987-.3495-.1426-.1092-.0409-.22-.0778-.3318-.1108-.3061-.0905-.6205-.1519-.9376-.1878-.1499-.0169-.3002-.0274-.4509-.0342-.065-.0023-.0652-.0022-.1302-.0039ZM9.96 25.0392c-.2292.0123-.4587.0253-.6871.0482-.1372.0137-.2739.0331-.4101.0546-.647.102-1.2827.2732-1.8962.5026-.1697.0633-.3376.1314-.5037.2035l-.103-.1118c-.154-.1812-.3038-.3658-.4477-.5553-.3046-.401-.585-.8205-.8417-1.2537-.1005-.1696-.1975-.3414-.2908-.5151-.0868-.1614-.1706-.3241-.2469-.4908-.1716-.3746-.3124-.764-.4272-1.1597l.0018-.0009c.2993-.1484.6084-.2763.9298-.3687.1708-.0491.3447-.0859.5192-.1192.1946-.0371.3903-.0683.5868-.0938.4311-.0558.8658-.083 1.3004-.0812.2068.0009.4134.0089.6198.0225.0971.007.1943.0144.2914.0223.0226.0931.0461.1861.0705.279.2475.9414.5809 1.8633 1.0252 2.7301.1355.2641.282.5222.4382.7747.0236.0375.0474.0751.0713.1127-.0133-.0206-.0394-.0178-.0752.0025l.0752-.0025Zm.5954.0031-.2089-.3275c-.138-.2197-.2683-.444-.3896-.6735-.3173-.6006-.5773-1.2307-.7903-1.8755-.1036-.3136-.1969-.6308-.2784-.9508l.0325.0052c.1724.0289.3442.0614.5149.0995.3572.0798.7097.1813 1.0543.3048.3383.1211.669.2635.9891.4269.1489.0759.295.157.4392.2414.0536.032.0535.0319.1069.0643l.3665.2264c.1218 1.1645.4011 2.2093.8319 3.0973-.8139-.3884-1.7183-.5984-2.6681-.6385Zm9.3398-3.6272.5229-.4334c.2653-.2176.5352-.4292.8109-.6334.7391-.5475 1.5139-1.0463 2.3124-1.5025.4098-.234.8261-.4567 1.2477-.6688.1807-.0908.3626-.1794.5451-.2667.0633-.03.1266-.06.19-.0897-.3742.9649-.806 1.9078-1.2927 2.8211-.4195.7871-.8794 1.5549-1.4067 2.2747-.0511.0685-.051.0685-.1027.1367l-.4171.543c-1.3916.3455-2.6426.8574-3.7091 1.5172.599-1.093 1.038-2.3446 1.2993-3.6982Zm-7.0332.9011-.0248-.4567c-.0101-.2083-.0164-.4167-.0176-.6253-.0037-.6447.0358-1.2895.108-1.93.0813-.7213.2043-1.4377.3603-2.1465l.0063.0063c.1612.1619.3181.3278.4693.4991.2832.3211.5474.6591.7905 1.0117.2406.3492.4606.7127.6579 1.0882.1036.1973.2002.3982.2917.6014l.2235.5061c-.4983 1.2717-.7912 2.4897-.8667 3.6175-.5017-.8413-1.184-1.5747-1.9984-2.1718Zm3.3673-1.4897.2455-.4337.0549-.098c.2598-.4662.5192-.9326.786-1.3949.3107-.5382.6299-1.0716.9619-1.5968.36-.5695.7354-1.1292 1.1338-1.6725.0112-.0152.0224-.0304.0336-.0455l.0013.0077c.1385.8151.2056 1.6419.2232 2.4681.0076.3623.0052.7248-.0089 1.087-.0158.4049-.047.8089-.1 1.2108-.0053.0374-.0105.075-.016.1125-.0356.234-.0733.4677-.1116.7013-1.0806.9819-1.953 2.0182-2.5904 3.0723.0072-1.1414-.2025-2.3002-.6133-3.4183Zm6.837 2.5998c.0727-.0946.1444-.1895.2145-.2859.2554-.3512.4936-.7149.7202-1.0853.2564-.4191.4978-.8472.7269-1.2819.5006-.9498.9445-1.9308 1.3252-2.9349.0395-.1043.0782-.2089.1162-.3137l.5001-.2099.0855-.0356c.4063-.1677.8156-.3279 1.2283-.4789.9923-.3633 2.0022-.678 3.0239-.947.4004-.1054.8026-.2039 1.2064-.2956.1784-.0405.3569-.0801.5361-.1168.19-.0389.3807-.0744.572-.1066.8775-.1477 1.7671-.2269 2.6568-.2414l-.0149.0297c-.3941.7839-.8339 1.5444-1.3266 2.2704-.1129.1665-.2285.3311-.3469.4937-.1382.1901-.2803.3773-.4233.5636-.2618.341-.5293.6777-.8024 1.0097-.7162.871-1.4712 1.7101-2.265 2.5109-.2966.2991-.599.5923-.906.8806-.1463.1367-.2929.2728-.4396.4089-.259-.0332-.5186-.062-.7787-.086-1.3665-.1258-2.7465-.1264-4.1112.0232-.1124.0123-.2248.0252-.3369.0404-.2333.0317-.4657.0701-.698.1086-.1542.0261-.3086.0525-.4626.0798ZM8.7599 20.6895l-.0462-.2174-.0113-.0542c-.1776-.8659-.2893-1.744-.3455-2.6261-.0188-.2954-.0315-.5912-.0385-.8873-.0057-.2457-.0078-.4914.0004-.7373.0154-.4619.061-.9218.124-1.3796.0116-.0809.0236-.1618.0361-.2426.3531.0343.7026.0995 1.0411.2066.185.0584.3646.1308.5426.2077.1901.0822.3776.1703.5623.264.4289.2176.8421.466 1.2366.7412.197.1374.3887.282.5763.4319.0534.0431.1065.0866.1592.1305.0901.0755.1799.1514.2696.2275-.0189.0806-.0373.1614-.0553.2422-.152.6839-.2742 1.3747-.3593 2.0702-.0779.6374-.1247 1.2789-.1317 1.9211-.003.2727.0021.5452.0137.8176.0026.053.0053.106.0082.159-.2074-.1281-.4191-.2486-.6362-.3595-.5005-.2555-1.0254-.4622-1.5645-.6202-.3965-.1162-.8006-.2061-1.2088-.27-.0575-.009-.1151-.0174-.1728-.0253Zm11.2645-.0501.0027-.0167c.0756-.4814.1141-.9683.1331-1.4552.02-.5121.0176-1.0252-.0042-1.5372-.0224-.5251-.0651-1.0496-.1336-1.5708-.0446-.339-.1-.6769-.1717-1.0112l.2903-.3455.0559-.0662c.268-.3154.5411-.6263.8202-.9318.6802-.7442 1.3931-1.4583 2.1323-2.1437.3429-.3179.6916-.6297 1.0455-.9353.1316-.1136.2632-.2273.3966-.3387.1621-.1353.3264-.2678.4929-.39757.4074-.31737.8273-.61851 1.2566-.90533.2375-.15878.4782-.31246.7207-.46343.018-.01102.036-.02214.054-.03316l.0058.04929c.0275.24344.0488.48738.062.73202.022.40683.0227.81488.0019 1.22188-.0083.1616-.02.323-.0351.4841-.0166.1762-.037.3521-.0584.5278-.0405.3327-.0872.6648-.1402.9958-.1513.9455-.3531 1.8829-.6045 2.8068-.115.423-.2413.8428-.3766 1.2597-.0647.1971-.13.3939-.1954.5908-.1819.081-.3629.1639-.543.2486-1.3112.6178-2.5794 1.332-3.77 2.1603-.3821.2658-.7549.5442-1.1195.8336-.0542.0435-.1083.0872-.1622.131-.0533.0436-.1065.0875-.1596.1315.0057-.0048.0066-.012.0035-.0214Zm-6.6059-4.0518.083-.3196c.0801-.3047.1649-.6083.2553-.9101.2296-.7664.4927-1.5226.7838-2.2676.1396-.3575.2858-.7123.4381-1.0645.1517-.3512.3089-.6998.4802-1.0418.3228-.6444.6866-1.26678 1.0758-1.87297l.0236.02294c.1053.10369.2076.21038.306.32068.1984.2227.3812.45913.5462.70755.1339.2016.2533.4117.3683.6245.1175.2177.2296.4384.3361.6618.3297.6914.6068 1.4079.8326 2.14.0864.2798.1647.562.2366.8459.0419.1676.0831.3353.1241.503-.3912.5043-.7569 1.0284-1.1075 1.5616-.5894.8963-1.1345 1.8206-1.6622 2.7544-.1829.3256-.363.6527-.547.9777-.1259-.2851-.2619-.5653-.4107-.8391-.3256-.599-.7066-1.1676-1.1355-1.6971-.267-.3298-.5526-.6445-.8549-.942-.0567-.0557-.114-.1108-.1719-.1653Z" clip-rule="evenodd"/>
</svg>
