<svg xmlns="http://www.w3.org/2000/svg" fill="none" viewBox="0 0 48 48">
  <path fill="#000" d="M14.1858 16.416v6.8649c5.8427-4.245 12.0238-6.2154 18.828-6.344l.7132-.0135v6.4474c2.4654-1.9283 4.9309-4.3226 7.3964-7.2661L41.085.0666504C32.9508 9.84575 24.1383 16.0947 14.1858 16.416Zm7.0425 25.555c0 3.3207 2.7084 6.0291 6.0291 6.0291 3.321 0 6.0294-2.7084 6.0294-6.0291 0-3.321-2.7084-6.0294-6.0294-6.0294-3.3207 0-6.0291 2.7084-6.0291 6.0294Z"/>
  <path fill="#000" d="M33.027 31.6507V17.6368c-8.979.1698-17.958 3.6045-26.9376 14.3253l.0384 16.038C14.262 38.221 23.0748 31.972 33.027 31.6507Z"/>
</svg>
