<svg xmlns="http://www.w3.org/2000/svg" fill="none" viewBox="0 0 48 48">
  <path fill="#1F1F48" d="M14.1858 16.416V30.43c8.979-.1698 17.958-3.6045 26.9376-14.3253L41.085.0666504C32.9508 9.84575 24.1383 16.0947 14.1858 16.416Zm19.101 25.555c0 3.3207-2.7084 6.0291-6.0294 6.0291-3.3207 0-6.0291-2.7084-6.0291-6.0291 0-3.321 2.7084-6.0294 6.0291-6.0294 3.321 0 6.0294 2.7084 6.0294 6.0294Z"/>
  <path fill="#AFB2AE" fill-rule="evenodd" d="M33.027 17.6367v14.0139C23.0748 31.9719 14.262 38.2209 6.1278 48l-.0384-16.038C15.069 21.2412 24.048 17.8065 33.027 17.6367Z" clip-rule="evenodd"/>
</svg>
