<svg xmlns="http://www.w3.org/2000/svg" fill="none" viewBox="0 0 48 48">
  <path fill="#E95B00" fill-rule="evenodd" d="M7.64991 34.9634c-3.12962-3.6115-5.05549-8.2696-5.14654-13.3711C2.29492 9.91778 11.7753.214107 23.6205.00335437L24.0752 0l.3043.00335437C36.2242.214107 45.7051 9.91778 45.4966 21.5923c-.091 5.1015-2.0169 9.7596-5.1465 13.3706.5357.3269.9996.8363 1.3547 1.5412.4034.7947.3814 1.7381-.0508 2.5018-.7231 1.2984-1.5368 3.0031-2.2403 4.4368-.4825.9825-.921 1.848-1.3566 2.4396-.4854.6586-1.0259 1.0619-1.5564 1.2512-1.3254.5639-2.6461.8487-3.9615.8664-.0867.0009-.173-.0043-.2583-.0167-1.9412-.2748-3.0486-1.1197-3.5239-2.2767-1.5521-.6122-3.1325-.9443-4.7527-.9458h-.0465c-1.6101.0072-3.1765.3388-4.7147.9453-.4754 1.1575-1.5828 2.0024-3.524 2.2772-.0858.0124-.1721.0176-.2583.0167-1.3154-.0177-2.6361-.3025-3.9615-.8664-.5305-.1893-1.0715-.5926-1.55644-1.2512-.43606-.5916-.87452-1.4571-1.35659-2.4396-.70346-1.4337-1.51714-3.1384-2.23449-4.4263-.43894-.7756-.45953-1.719-.0594-2.507.35652-.7078.82131-1.2187 1.35753-1.546Zm1.24065.2963c-3.43198-3.5833-5.574-8.3843-5.6684-13.6803C3.02042 10.2972 12.1865.923304 23.6334.720199l.4471-.003355.2861.003355C35.8135.923304 44.9796 10.2972 44.7778 21.5794c-.0944 5.296-2.2368 10.097-5.6688 13.6807.805.1233 1.4888.6438 1.9546 1.568.2947.5802.2794 1.2688-.0383 1.8299-.7284 1.308-1.5488 3.0251-2.2575 4.4697-.46.9372-.8741 1.7654-1.29 2.3303-.3891.528-.8132.8611-1.2387 1.0074-1.2416.5309-2.4779.8014-3.7094.8176-.0494.0005-.0988-.0023-.1477-.0095-1.76-.249-2.7323-1.0084-3.0553-2.1099-1.7361-.7255-3.5053-1.1183-5.3243-1.1197h-.0479c-1.8056.0081-3.5599.4004-5.2817 1.1197-.323 1.1015-1.2948 1.8609-3.0548 2.1099-.0489.0072-.0983.01-.1477.0095-1.232-.0162-2.4683-.2867-3.7099-.8176-.425-.1463-.8491-.4794-1.2382-1.0074-.4159-.5649-.82996-1.3931-1.29046-2.3307-.70873-1.4442-1.5291-3.1613-2.25412-4.4636-.32058-.5663-.33591-1.2549-.04264-1.8322.46673-.9272 1.15102-1.4481 1.95558-1.5718Z" clip-rule="evenodd"/>
  <path fill="#4E4E4E" fill-rule="evenodd" d="M23.9503 43.0888c-2.0974.0095-4.1301.4999-6.1231 1.4002-.0881 1.0165-.8692 1.6301-2.3442 1.8394-1.1232-.0153-2.2503-.2671-3.3826-.7565-.7087-.2136-1.29-1.4012-2.0078-2.8635-.71594-1.459-1.54496-3.1929-2.28053-4.5138-.16292-.2881-.17107-.6384-.02108-.9333.43846-.8707 1.15774-1.2181 1.99632-1.0064.21709.0544.40059.1992.50369.3976.1231.2375.2817.5433.2817.5433.8971.2939 1.8118.531 2.765.6461l.1179-.0979c-.0259-.0148-.0504-.0325-.0748-.0473-5.42399-3.4074-9.07929-9.3429-9.20052-16.1333C3.98764 10.8045 12.7344 1.87071 23.6499 1.67668l.437-.00334c.0872.00048.1749.00191.2621.00334 10.9161.19403 19.6628 9.12782 19.4701 19.88672-.1212 6.7904-3.7765 12.7259-9.2005 16.1333-.0244.0148-.0488.0325-.0747.0473l.1179.0979c.9531-.1151 1.8679-.3522 2.7649-.6461 0 0 .1586-.3058.2818-.5433.103-.1984.2865-.3432.5036-.3976.8386-.2117 1.5579.1357 1.9963 1.0064.15.2949.1419.6452-.021.9333-.7356 1.3209-1.5646 3.0548-2.2805 4.5138-.7179 1.4623-1.2991 2.6499-2.0078 2.8635-1.1324.4894-2.2594.7412-3.3827.7565-1.4749-.2093-2.256-.8229-2.3442-1.8394-2.0088-.9075-4.0578-1.3983-6.1725-1.4002h-.0494Zm-13.0886-5.1226s.5252 1.4442.8074 2.1591c.3656.9243 1.3844 3.3869 1.3844 3.3869.2386.583.7236 1.0236-.5257 1.6788.0154.044.0302.087.0465.1448.7657.25 1.4577.4861 2.1756.4732.0862-.0454.1739-.0765.2472-.1071l-3.4224-7.0375c-.3599-.7403-.4567-.7794-.713-.6982Zm26.2761 0s-.5252 1.4442-.8075 2.1591c-.3656.9243-1.3844 3.3869-1.3844 3.3869-.2386.583-.7236 1.0236.5257 1.6788-.0153.044-.0302.087-.0465.1448-.7657.25-1.4577.4861-2.1755.4732-.0863-.0454-.174-.0765-.2473-.1071l3.4224-7.0375c.3599-.7403.4567-.7794.7131-.6982Zm-4.6492-.7919c-2.4046-1.3013-5.4379-1.8145-8.4889-1.729l-.1035-.0024c-4.3712-.1037-8.6921 1.027-11.1642 3.9498-.047.3833 2.1999 4.648 2.6705 5.266.2085.2012.2823.2289.4591.2547 2.0725-1.7529 5.0991-2.4951 8.1381-2.4531l.0714-.0009c3.0151-.0292 6.0101.7144 8.0668 2.454.1768-.0258.2506-.0535.459-.2547.4706-.618 2.7175-4.8827 2.6706-5.266-.7514-.8889-1.6738-1.6114-2.7166-2.1844-.0167.0243-.0513.0621-.104.1123-.1375.1295-.2894.2499-.4557.3589-.1677.1108-.3383.1988-.5127.2666l-.4337.1783c-.1461.044-.2952.0889-.4447.1333-.149.0464-.2985.0846-.4485.1161-.011.0029-.0211.0058-.0307.0082l-.1615.2404c-.0709.1127-.1399.2255-.2074.3397l-.1103.2008c-.08.139-.1514.2824-.2127.4325-.0618.1495-.1188.2986-.1725.4477l-.001.002c-.068.1878-.0944.3359-.08.4454.0148.1099.0767.1844.1864.2241.0393.0143.0767.0153.1112.0033.034-.0119.0661-.0306.0953-.0554.0297-.0249.0571-.0531.0815-.0851.0249-.0325.046-.0621.0632-.0893.0316-.045.0556-.0626.0724-.0526.0172.0095.0187.0344.0043.0741-.0388.0869-.0905.1859-.1552.2972-.0647.1114-.1371.2132-.2176.3059-.08.0922-.1644.1639-.2521.2145-.0877.0507-.1744.0607-.2606.0297-.0925-.0335-.1563-.0856-.1908-.1558-.0345-.0703-.0522-.1486-.0531-.2347-.0005-.086.0115-.1725.0349-.259.024-.087.0475-.1615.07-.2246l.001-.0005c.0388-.0984.0833-.1997.1327-.3068.0498-.1075.0982-.2122.1433-.3164.023-.0434.0335-.0735.0316-.0893-.0024-.0158-.0331-.0014-.093.0401-.1634.1205-.3249.2232-.4835.3111-.1581.0865-.3282.1549-.507.206-.265.077-.5362.1152-.8151.1138-.2784-.001-.5582-.0321-.8405-.0923-.2185-.0459-.4399-.1051-.6617-.1797-.2229-.074-.451-.1668-.6843-.2762-.103-.0483-.1927-.1003-.2713-.1539-.0771-.0545-.1399-.1171-.1859-.1902-.0465-.0731-.0771-.1586-.0901-.2566-.0129-.098-.0029-.2136.0302-.3474.0225-.0851.0546-.1721.0949-.261.0383-.0879.0824-.172.1308-.2518.0431-.0712.0781-.1013.1031-.0927.0239.009.0249.0568.0019.1409-.0202.0789-.0259.1515-.0173.2184.0091.067.0374.1291.0843.1879.1179.1395.2593.248.4241.3254.1654.0779.3316.1491.4994.2131.6071.2376 1.2784.3666 2.0121.3876.1485.0048.2947-.0024.4375-.0215.1442-.0196.2837-.0569.4207-.1123.2094-.0822.3848-.1955.5248-.3403.1404-.1462.1758-.1744.2918-.3679.0244-.0464.0517-.0861.0824-.119l.2976-.3045c.0508-.0511.1039-.1013.159-.1505-.0095-.0072.0106-.0358.0604-.087.0647-.0554.1294-.1123.1936-.171.0647-.0588.1371-.1066.2161-.1415.0671-.0277.1553-.0631.2665-.1056.0973-.0373.5803-.2084.724-.2657.288-.1162.5727-.2438.8559-.3843l.1533-.0669Zm3.1598 7.6435c-.1677-.0793-.4159-.2146-.4102-.5066.3685-.1099.8367-.1309 1.0174.4555-.1802.1323-.4744.1137-.6072.0511Zm-23.2974 0c.1677-.0793.4159-.2146.4097-.5066-.368-.1099-.8362-.1309-1.0168.4555.1801.1323.4744.1137.6071.0511Zm-2.68395-8.1156c-.8477-.2672-1.4855.3971-1.31539 1.0724l3.18284 6.551c.3172-.389.6306-.4287.9411-.4473l-2.80855-7.1761Zm28.66535 0c.8477-.2672 1.4855.3971 1.3154 1.0724l-3.1828 6.551c-.3173-.389-.6306-.4287-.9412-.4473l2.8086-7.1761Zm-8.7132 5.9077c.0182-.0497.0968-.1371.2358-.2628.1389-.1257.2218-.1835.2482-.174.0863.0311.1548.1013.2051.2108.0498.1099.0608.204.0321.2834-.0264.0726-.0968.151-.2113.2351-.115.0836-.1936.118-.2367.1027-.0202-.0071-.0734-.0716-.1611-.1926-.0301-.0406-.0603-.0812-.0905-.1223-.0226-.0301-.0297-.0573-.0216-.0803Zm-12.1686.0817c-.0024-.0176.0311-.1142.1011-.291.0699-.1763.1155-.2662.1365-.2695.059-.0096.1342.0157.2262.076.0921.064.1433.1285.1539.1945.0124.0764-.0125.1801-.0738.3106-.0618.1271-.1102.1935-.1447.1993-.0178.0024-.0461-.0081-.0854-.032-.0397-.0239-.079-.0493-.1188-.0746-.046-.0177-.0886-.0349-.1289-.0516-.0402-.0172-.0623-.0378-.0661-.0617Zm-.4845-.5906c-.0043-.0278.0316-.1367.1088-.3269.0767-.1897.1255-.2868.1461-.2901.0456-.0067.1165.0139.2138.0626.0934.0492.16.0994.2003.1501.0364-.0841.0747-.1687.115-.2533.056-.1195.091-.1797.1049-.1821.0628-.01.1452.0162.2478.0784.104.0688.1614.1395.1729.2126.0135.0832-.0172.1931-.092.3293-.0728.1257-.1284.1912-.1667.1974-.0278.0043-.0757-.0148-.1428-.0574-.0959-.0631-.1744-.108-.2353-.1338-.0968.2681-.185.4081-.265.421-.0139.002-.0848-.0296-.2132-.0946-.128-.065-.1931-.1027-.1946-.1132Zm14.4309-3.1847c.0043-.0039.0086-.0082.013-.012.0172-.0162.0311-.0263.0417-.0301.0105-.0033.0153.0019.0139.0162-.0015.0149-.0159.0431-.0422.0856-.162.271-.3134.5496-.4548.8368-.3795.7708-.1035.2055-.299.6882v.0004c-.0685.1883-.0949.3374-.0805.4474.0148.1094.0767.1844.1864.2236.0393.0144.0767.0153.1107.0034.0345-.012.0666-.0301.0958-.055.0297-.0248.0571-.0535.082-.0855.0244-.0325.0455-.0622.0627-.0894.0312-.0449.0556-.0626.0724-.0526.0173.0101.0187.0344.0043.0746-.0388.0865-.0905.1859-.1552.2967-.0647.1114-.1371.2137-.2176.3059-.0805.0922-.1643.1639-.252.2151-.0877.0501-.1745.0602-.2607.0291-.093-.0334-.1562-.0851-.1907-.1553-.0345-.0707-.0523-.1486-.0528-.2351-.0009-.0861.0106-.1726.0346-.2591.0239-.0865.0469-.1615.0699-.2241l.0082-.0076c.0575-.1573.1476-.3561.2693-.596.275-.5424-.1337.2395.4044-.7847.0465-.0879.103-.172.1701-.2528.0388-.0454.0863-.0989.1414-.1591l.2247-.2246Zm-11.4882.4506c.2971-.0396.5851-.0903.8645-.1524.2794-.0617.5544-.1496.8252-.2638.2405-.1023.4725-.2218.6953-.358.2223-.1366.4361-.2815.6397-.4349.2871-.216.5554-.4425.8051-.6795.2491-.2371.505-.4755.7662-.7159.0776-.0731.1557-.1424.2348-.2079.0786-.066.1634-.1276.2544-.1845.0844-.0525.1443-.0683.1797-.0473.0355.0211.0369.0736.0039.1573-.0221.0635-.0456.1295-.0705.1978-.0249.0679-.0541.1309-.0877.1897-.0163.0311-.0345.0564-.0546.0755s-.0465.0383-.0791.0579c-.0464.0248-.1111.0764-.1955.1534-.0838.0774-.1907.1782-.321.3015-.1519.1453-.3034.293-.4543.443-.151.1501-.3048.2982-.4619.444-.1572.1457-.3168.2877-.4783.4248-.1619.1382-.3297.2667-.5036.3867-.7289.5103-1.5425.8363-2.4406.9782l-.5918.0803c-.1648.0205-.3042.0277-.4197.021-.1265-.0086-.2516-.0224-.3762-.042-.1241-.0196-.2453-.0502-.3623-.0923-.0455-.0177-.0819-.0315-.1083-.0415-.0268-.0101-.0508-.0153-.0723-.0153-.0211 0-.0412.0086-.0599.0253-.0187.0172-.0427.0463-.0719.086-.0263.0363-.0537.0779-.0819.1252-.0283.0473-.0619.1042-.1011.1706-.0748.1152-.1687.2022-.2828.261-.1136.0588-.24.0779-.379.0573-.0767-.0129-.1467-.0268-.2099-.0416-.0628-.0148-.1342-.0124-.2128.0072-.0723.0182-.1413.0435-.2074.075-.0667.032-.1304.0779-.1927.1377-.0934.0855-.1548.1247-.1845.1171-.0297-.0077-.0144-.0679.046-.1807.0685-.1319.1486-.26.241-.3852.093-.1247.1975-.2375.3135-.3374.0594-.0525.1241-.1008.1936-.1457.0694-.0445.1447-.0698.2261-.0755.0671-.0034.1342.0033.2013.0215.0671.0176.1351.0301.2041.0368.0762.0095.1438.0009.2018-.0263.058-.0268.1097-.0669.1548-.1205.0522-.0544.0982-.1118.1389-.1715.0403-.0597.0805-.1195.1212-.1792.0585-.0803.1141-.1343.1668-.1625.0527-.0277.1323-.0306.2396-.0086.2425.0435.4686.0693.6785.0769.2099.0077.4323-.0052.6656-.0387Zm10.2701-.4765c.0168-.0463.0949-.1323.2339-.258.1389-.1252.2218-.1835.2486-.174.0863.0311.1544.1014.2047.2113.0503.1094.0608.2035.0321.2829-.0264.0731-.0963.1505-.2104.2327-.114.0822-.1926.1157-.2357.0999-.0202-.0067-.0738-.0712-.161-.1921-.0317-.0373-.0624-.0765-.0926-.1176-.0215-.0334-.0277-.0621-.0196-.0851Zm2.3615-2.3082c.4059.1725 1.4989.8258 1.3935.7938.0556-.0349.2046-.13.2616-.1653 5.2913-3.2889 8.8641-9.0557 8.9815-15.6588.1869-10.4105-8.2766-19.05419-18.8394-19.242l-.3379-.00288c-.1126 0-.2252.00097-.3378.00288-10.5629.18781-19.02639 8.8315-18.83999 19.242.11788 6.6031 3.69076 12.3699 8.98199 15.6588.057.0353.1802.1142.2363.1491-.0115-.0359 1.0561-.6505 1.2593-.7006-.151-.0316-.2995-.0746-.4442-.1295-.5109-.1936-.9594-.5286-1.3312-.9248-.082-.0874-.1611-.1782-.2358-.2724-.0762-.0956-.1486-.194-.2152-.2963l-.0766-.1252c-.1735-.054-.3417-.1219-.5032-.206-.4361-.227-.8079-.5639-1.1108-.9481-.0498-.0636-.0982-.1286-.1447-.195-.0771-.1099-.1495-.2236-.2166-.3403-.0531-.0927-.103-.1873-.1475-.2848l-.0782-.1792c.0326-.0067.0642-.0129.0968-.0196-.2688-.1242-.5218-.281-.7461-.4741-.37277-.3206-.65693-.7335-.86347-1.177-.03402-.0731-.06615-.1477-.09634-.2227-.04983-.1247-.09392-.2519-.13226-.3809-.03066-.1023-.0575-.206-.07858-.3106l-.03449-.1926.22664.0076c-.35843-.2284-.68282-.5132-.932-.8583-.28752-.3981-.4682-.8654-.56548-1.3448-.01581-.0788-.0297-.1586-.04167-.2384-.01917-.1334-.03258-.2672-.04025-.4015-.00575-.1065-.00768-.2136-.00336-.3206l.01102-.195c.05894.0162.11836.032.1773.0482.09728.0273.19311.0607.28751.0971.08338.032.16629.0669.24775.1041-.03162-.0205-.06277-.0415-.09344-.0631-.06661-.0458-.13179-.0936-.19552-.1433-.38623-.3011-.72501-.6705-.95406-1.1054-.22858-.4344-.34167-.9223-.37042-1.4107-.00479-.0803-.00719-.1611-.00767-.2418-.00048-.1348.00526-.2691.01676-.4029.00959-.1066.02254-.2127.04171-.3183l.03881-.1916c.05607.0243.11261.0482.16867.0726.09249.0406.18258.0875.27075.1367.11021.0612.30715.184.29996.1768-.05846-.0559-.11546-.1137-.17057-.173-.33352-.3579-.60905-.7766-.76623-1.2421-.1567-.4649-.19026-.9648-.14138-1.4508.00814-.0803.01869-.1606.03115-.2404.02108-.1329.04792-.2648.08098-.3952.02588-.1037.05561-.2065.09155-.3073l.0685-.1831c.05175.0325.10352.0655.15527.098.08482.055.16626.1152.24533.1778.1083.0851.2123.1758.31245.2705.04073.0396.08146.0793.12123.1204l.00527-.0124c-.07667-.0994-.1495-.2022-.21754-.3078-.04361-.0679-.08579-.1371-.12556-.2074-.24152-.4253-.41307-.8961-.45811-1.3849-.04457-.4889.03835-.9826.19888-1.4442.02636-.0765.05509-.152.08576-.227.05079-.1243.10782-.2466.16963-.3656.04984-.0951.10256-.1883.16054-.2782l.10878-.1624c.04312.0439.08577.0874.12842.1314.06997.0726.13515.15.19792.2294.00815.01.01628.0205.02442.031-.11548-.3842-.17298-.7861-.14518-1.1866.03402-.4898.19455-.9639.42695-1.3945.03834-.0712.07859-.1414.12124-.2103.06996-.1147.14566-.226.22617-.334.06373-.0856.13084-.1697.20271-.249l.13369-.1429c.03499.0497.07043.0999.10541.1501.05751.0831.10974.1696.15861.2576l.00193.0033c-.01868-.3728.01581-.7484.12267-1.1068.13992-.4703.40062-.8984.72168-1.2683.05272-.0607.10786-.1205.16386-.1788.0939-.0965.1917-.1887.2938-.2767.0814-.0697.1653-.13714.2525-.19879l.1615-.11087.0934.22896c.0489-.28965.1328-.57256.2588-.83827.2103-.44397.5338-.82677.9071-1.14361.0618-.05209.1251-.10274.1898-.15149.1073-.08124.2185-.1577.3325-.22891.0911-.05687.184-.11039.2799-.15818l.1768-.08459c.0144.05926.0292.11851.0436.17777.023.09844.0398.19833.0537.29773.0182.1362.0306.27383.0364.41099.0024.05687.0038.11373.0038.1706l.0268-.01098c.0767-.19163.1764-.37371.3029-.53763.0364-.04779.0757-.09415.1164-.13811.2353-.25377.5329-.44446.8502-.58018.1557-.06643.3172-.12137.482-.15865l.2018-.04111c-.001.06404-.0024.12808-.0039.19212-.0024.07264-.0091.14529-.0182.21745-.011.09032-.0268.18016-.046.26905-.0834.37754-.2391.74552-.4888 1.0442-.1653.19785-.3685.36082-.5908.49129l-.0034.01146c.0527-.00526.105-.00955.1577-.01337.081-.00526.1624-.00813.2439-.00909.0335-.00048.0335-.00048.0666-.00048.1179.00095.2353.00526.3527.01769l.1945.02341c-.021.06165-.0416.12329-.0637.18494-.0364.10036-.0791.19881-.1246.29534-.0546.11518-.1145.22844-.1787.33831-.0403.0693-.0824.1377-.127.2046-.2736.4143-.6215.7866-1.0456 1.0514-.1557.097-.3206.1787-.4912.2465-.0158.0693-.034.1382-.0536.2065-.0384.1319-.0829.2624-.1333.3904-.0292.0746-.0608.1487-.0939.2213-.2151.4693-.517.9056-.9176 1.2363-.1409.1166-.2928.2194-.4515.3087-.0009.0206-.0023.0407-.0033.0607-.0086.1372-.0235.2744-.0446.4101-.0124.0793-.0268.1582-.0436.2361-.1073.5051-.3067.9964-.6253 1.4064-.1265.1625-.2698.3111-.4255.4454.011.0693.0196.1386.0263.2084.0139.1366.0211.2743.0216.4119.0004.0798-.001.1601-.0048.2399-.0254.5157-.1438 1.0323-.39247 1.4872-.10543.1936-.2329.3737-.37666.541l.04984.1061c.04217.0918.07812.1864.1107.282.04505.1299.08385.2618.11644.3957.01917.0779.03595.1562.0508.2346.09488.5075.09919 1.0375-.03738 1.5379-.05942.2179-.14472.4282-.24919.6279l.05897.087c.05606.0841.10636.1716.15428.2605.06469.1213.12413.2456.1778.3727.03114.0736.06038.1482.08721.2237.17446.486.26306 1.0083.20796 1.524-.0503.4683-.21564.919-.44565 1.3281l-.13179.2193c.01964.0187.03883.0373.05799.0564.01294-.0296.0254-.0588.03882-.0874.05558-.1224.11645-.2423.18306-.3594.05271-.0932.10923-.1845.17057-.272l.1145-.1586c.0412.0454.0825.0908.1237.1362.067.075.1294.1548.1893.2361.0814.1108.1576.226.2285.3441.0412.0683.081.1381.1184.2093.241.4564.4025.961.4202 1.4795.0048.1348 0 .2691-.0134.4029l.012-.0287c.0503.0344.1011.0689.1514.1033.0829.0578.1625.1209.2396.1863.105.0889.2061.1831.3024.2815.0561.0569.1107.1157.1634.1764.3412.388.6158.8415.7538 1.3414.0258.0927.0465.1859.0632.2801.082.0339.162.0721.2411.1127.1231.0626.2429.131.3594.2046.0675.043.1341.0879.1998.1343.413.2944.7787.6643 1.0279 1.1082.0512.0923.0977.1864.1394.2834.0609.0177.1212.0373.1811.0583.1304.0449.2588.0965.3844.1539.0728.033.1451.0683.2161.1056.4586.2394.8788.5639 1.1884.9807.2856.3847.472.8358.5803 1.2998.0182.0784.034.1568.0479.2356.0062.034.0115.0679.0168.1018l.01-.0033c1.7615-.6323 3.5087-.9099 6.1141-.9138.125-.0047.2506-.0081.3761-.0095l.3762.0095c2.9207.0043 4.7627.3527 6.7547 1.1585-.024-.0803-.0441-.1616-.0609-.2438-.0761-.3684-.0853-.7565.0144-1.1211.0997-.3651.3053-.6949.5588-.9735.113-.1247.2367-.2413.3708-.3436l.1663-.1209c.0254.0588.0513.1176.0767.1759.0278.0673.0522.1357.0743.205.0273.087.0503.1744.0699.2633.0317.1453.0527.2939.0609.4435.0469-.0268.0944-.0516.1428-.075-.07-.3585-.0757-.7346.0216-1.0887.0996-.3646.3047-.6948.5582-.9735.1136-.1247.2372-.2413.3714-.3436l.1663-.1209.0762.1764c.0282.0669.0527.1357.0742.205.0274.0865.0508.1744.07.2633.0316.1453.0527.2939.0608.443.0072-.0043.0149-.0081.0221-.0124-.0637-.347-.0657-.7092.0278-1.0509.1001-.3651.3052-.6949.5587-.9735.1136-.1247.2367-.2413.3709-.3436l.1663-.1209.1035.2437c.0063-.0697.0158-.1395.0297-.2083.0729-.3713.2535-.715.4859-1.0117.104-.1324.219-.2576.345-.3694l.1572-.1324.1122.2169c-.0015-.0497-.001-.0998.0014-.15.0182-.3776.1471-.7441.334-1.071.0834-.1462.1787-.2867.2875-.4153l.1361-.1539c.0378.0517.0752.1038.1131.1554.0422.0592.0805.1209.1169.1839.0455.0784.0872.1597.1256.2419.0622.1352.1154.2757.1557.4196.0268-.0244.0546-.0478.0824-.0712-.1878-.2868-.3278-.6098-.3766-.9506-.0537-.3747.0028-.7584.1246-1.1144.0541-.1597.1212-.3154.2036-.4626l.1045-.1769c.0465.044.0934.0875.1399.1315.0527.0501.1025.1037.15.1586.0594.0684.116.14.1692.2136.0867.1209.1653.249.2324.3828l.0364-.0468c-.2281-.2643-.4112-.5716-.5041-.9094-.1002-.3647-.092-.7527-.0163-1.1212.034-.1649.081-.3278.1442-.4841l.081-.1883c.0522.0373.104.0751.1557.1128.0585.043.1146.0898.1687.1386.0681.0607.1328.1242.1946.1911.0235.0249.0627.0693.0656.0727 0 .0005.0005.0005 0 0-.1107-.1367-.2056-.2853-.2798-.4449-.1587-.3436-.2142-.7279-.1999-1.104.0063-.1682.0254-.3364.0628-.5008l.0489-.1993c.0575.0287.115.0574.1725.086.0585.0301.116.0631.172.0985-.0335-.0416-.0652-.0841-.0949-.1286-.2118-.3135-.3282-.6838-.3747-1.0571-.0206-.1672-.0283-.3364-.0182-.5046l.0163-.2046c.0614.0191.1227.0382.184.0574.0695.0224.1371.0487.2042.0774.0833.0358.1653.076.2453.1195.1313.0707.2578.1519.3766.2432.0044-.021.0091-.0425.0139-.0635-.2525-.1367-.484-.3135-.6684-.5334-.2435-.2901-.3978-.6466-.4826-1.0131-.0378-.1639-.0632-.3317-.0709-.4999l-.0043-.205c.0627.0124.1255.0253.1883.0377.0575.0125.1145.0273.1706.044-.0144-.0129-.0287-.0258-.0431-.0392-.2756-.2595-.4706-.5954-.5981-.9496-.057-.1586-.1016-.3221-.1289-.4884l-.0287-.2031c.0637.0053.1279.0105.1917.0158.0723.0067.1447.0177.2161.0311.0153.0028.0306.0057.0455.0086-.0244-.0158-.0484-.0325-.0724-.0497-.3067-.2223-.5434-.531-.7149-.866-.0767-.1501-.1419-.3063-.1902-.4679l-.0547-.1978c.0685-.0029.1371-.0067.2056-.0091l.162.0014c-.0226-.009-.0451-.0186-.0671-.0286-.345-.1577-.6378-.4134-.8726-.7083-.105-.1319-.1999-.2724-.2794-.421l-.0925-.183c.0666-.0168.1327-.034.1993-.0497.0758-.0172.2123-.0464.2123-.0464-.0503-.0177-.1001-.0373-.149-.0592-.3215-.1429-.6019-.369-.8333-.6313-.1117-.1262-.2137-.2619-.3009-.4063l-.1016-.1782c.0656-.0201.1308-.0406.1969-.0597.0269-.0077.0537-.0149.081-.0211-.3326-.1476-.6196-.3852-.8544-.66-.1093-.128-.2094-.2652-.2938-.4114l-.0987-.1797.1471-.0425c-.3407-.1558-.6315-.4072-.8654-.6973-.1059-.1309-.2017-.271-.2822-.4191l-.0935-.18255c.0135-.00383.0082-.0024.0187-.00527-.2559-.1319-.4849-.31493-.6819-.52329-.1159-.12282-.2228-.25473-.3143-.39619l-.1078-.1749c.0647-.02199.1294-.04493.1945-.06595.1016-.03202.2051-.05734.3096-.07694.1591-.0301.3206-.04731.482-.05113h.1232c-.0565-.12138-.1035-.24755-.1418-.37515-.0484-.16153-.0849-.32688-.1031-.49462l-.0182-.20407c.0638.00861.127.01721.1907.02534.0719.01099.1438.02532.2142.04252.0887.02151.1764.04732.2626.07647.1745.05974.345.13525.5046.22891.0048-.18016.0288-.35985.0685-.53524.0369-.16439.0873-.32641.1534-.48125l.0853-.18685c.0513.03871.1021.07741.1533.11612.0575.04444.1126.09224.1658.14147.0666.06212.1304.12711.1908.19497.2664.29773.4787.6528.5697 1.04372.0053.02342.0216.05592.0216.05592l.0484-.09653.0934-.16822c.0479.04253.0959.08507.1438.1276.0537.04874.1049.10083.1543.15436.0613.0669.1198.13715.1749.20931.2204.28913.3924.62223.4667.97922l.1011-.19642c.0489.04109.0982.08219.1471.12329.0556.04779.1079.09798.1587.15007.0632.06547.1236.1338.1806.20453.1955.24277.3565.51855.4514.81575l.1462.1185c.056.0464.1092.0961.161.1472.0642.0641.1255.1315.184.2012.2559.3068.4557.6686.5333 1.0624.0024.011.0043.022.0063.033l.0392-.0693c.0475.0425.0954.085.1428.128.0537.0493.1045.1014.1534.1554.0609.0673.1188.1376.1735.2102.24.3193.4212.6911.4787 1.0882.0359.249.0235.5028-.0235.7494l.0005-.0015c.0637-.1032.1341-.2026.2108-.2963l.1342-.1553c.0383.0511.0767.1028.115.1539.0427.0588.0819.1199.1193.1825.0465.0779.0891.1582.1284.2404.1716.3604.276.7599.2535 1.1608-.0057.0994-.0186.1974-.0383.2944l.1519-.1367c.0316.056.0633.1114.0944.1673.035.064.0661.1295.0949.1964.0359.0832.0685.1682.0968.2547.1246.379.1768.7886.103 1.1833-.0206.1094-.0498.217-.0877.3216l.0781-.0597.1572-.1104c.0249.0588.0494.118.0738.1768.0273.0679.0508.1367.0714.206.0259.0875.0479.1754.0661.2643.0791.3914.0824.8043-.0369 1.1875-.0522.1673-.1265.3269-.2171.4765l.1275-.0793.1677-.0942c.0187.0617.0369.1228.0551.184.0202.0698.0365.141.0499.2122.0168.0894.0292.1792.0378.2695.0379.3972-.0014.8086-.16 1.1776-.0973.226-.2358.4315-.4006.6146l.0062-.0034c.1145-.0655.2339-.1233.3565-.1716l.1931-.0707c.0087.0636.0168.1271.0249.1902.0087.0722.013.1448.0149.2175.0024.0908.0005.1816-.0053.2724-.0263.3981-.1312.7976-.3474 1.1364-.1365.2146-.3134.4005-.5127.5587.1097-.0387.2214-.0712.3349-.0951l.2023-.0383c-.0024.0641-.0043.1281-.0067.1917-.0034.0726-.0111.1452-.0211.2169-.0125.0899-.0293.1792-.0499.2676-.0915.3886-.2602.7661-.529 1.0648-.2439.2719-.5602.4722-.8966.6103-.0814.0334-.1638.064-.2482.0898 0 .0306-.001.0612-.0019.0918.1615-.0808.3321-.1434.506-.1907.163-.044.3302-.076.4984-.0899l.2056-.0129c-.0106.0631-.0206.1262-.0312.1898-.0124.0712-.0287.1424-.0479.2122-.024.0879-.0517.1744-.0834.2594-.1389.3738-.3541.7269-.6579.9903-.276.2394-.6153.399-.9665.4941-.1083.0296-.2191.0535-.3302.0703-.0091.052-.0197.1037-.0316.1553.1734-.0483.3531-.0779.5328-.0913.0623-.0048.1251-.0072.1879-.0081.0234-.0005.0469-.0005.0704-.0005l.2612.0158.1912.0243c-.0235.0645-.0465.1291-.071.1931-.0618.1567-.1399.3073-.2285.4502-.1994.3197-.4606.6074-.785.8038-.3244.1964-.701.2944-1.0772.3231-.0637.0047-.1284.0076-.1926.0086-.0058.0157-.012.031-.0182.0468h.0009c.0968-.0124.1946-.0186.2923-.0206l.1888.0034c.1055.0052.2109.0162.3153.033l.2569.053.185.0521c-.0326.0602-.0647.1204-.0983.1802-.0834.1462-.183.2838-.2918.4129-.2434.2872-.5439.5342-.8932.6814-.2688.1128-.5592.1644-.8506.1702.1131.0095.2252.0253.3364.0473.1122.0225.2238.0506.3326.0874l.1936.0698c-.0369.0574-.0734.1157-.1112.1725-.0944.1401-.2032.27-.3211.3905-.2635.269-.5812.4937-.9406.615-.1553.0526-.3158.0851-.4783.1009-.0052-.0015.1495.0377.23.065l.1936.0697c-.0369.0579-.0733.1157-.1111.173-.0944.1396-.2032.2696-.3211.39-.264.2691-.5813.4937-.9406.615-.3594.1214-.7485.1362-1.1218.0827-.0786-.0114-.1572-.0253-.2348-.043-.0125.0292-.0259.0574-.0393.0856l.1591-.0034c.1821.0019.3632.0215.5419.0569.1122.0224.2238.0506.3326.087l.1936.0697c-.0374.0579-.0733.1157-.1112.173-.0944.1401-.2032.27-.3215.3905-.2636.269-.5813.4932-.9402.615-.1773.0598-.3613.0937-.5477.1061Zm-16.5135-.2657c-.3565-.1066-.6982-.2638-.9996-.4827-.3484-.2528-.6349-.5811-.864-.9438-.2511.0177-.5008.0588-.7442.1214l-.0086.0019c.1121.1544.2357.3001.368.4368.0489.0511.0997.1003.151.1486.3253.303.7058.5539 1.1294.6953.2315.077.4725.1214.715.1391-.0192.0091.15-.0698.253-.1166Zm15.8402-.0693c.0642.0129.1284.023.1931.0311.3287.0406.6704.022.9824-.0947.2626-.0979.4974-.259.7006-.4501.0445-.0421.0877-.0856.1293-.1305l.1289-.1496c-.056-.0143-.113-.0263-.1701-.0368-.1452-.0263-.2928-.0406-.4408-.0425h-.0307c-.103.0009-.2061.0081-.3076.0234-.0547.0784-.1151.1534-.1807.2237-.2497.2662-.5702.4597-.9095.5911l-.0949.0349Zm-14.8464-.3536c-.1159-.2552-.2563-.4994-.4245-.724-.1668-.2237-.3608-.4273-.5837-.596-.2578-.195-.551-.3388-.8572-.4401-.1577-.0521-.3192-.0932-.4821-.1243-.2118-.0401-.427-.0635-.6426-.0712h-.0082c.001.0024.0015.0053.0024.0081.0714.1955.1567.3857.2559.5687.0786.1448.1663.2849.2631.4182.1888.26.414.4951.6766.6815.2415.1715.5118.3001.7931.3933.1461.0483.2952.087.4461.1171l.1792-.076c-.183-.1238-.3623-.2533-.5405-.3838-.2013-.151-.4011-.3044-.5947-.4659-.1945-.1611-.3853-.3269-.5664-.5075l.001-.001c.2338.1037.4571.2227.6771.3465.2204.1233.4355.2547.6488.388.2113.1362.4217.2739.6263.4196l.0906.0645.0397-.0157Zm14.8536.0411c.0105-.0043.0211-.0086.0321-.0129.3062-.1252.5947-.3088.8094-.563.1802-.2136.3057-.4693.3881-.7345.0182-.0588.0345-.1181.0489-.1773l.0383-.194-.1888.0597c-.058.0205-.115.043-.1715.0674-.2712.118-.5262.2824-.725.5032-.1984.2208-.3341.4917-.4222.7732-.0029.0105-.0062.0211-.0096.0316.0819-.0961.1672-.1888.254-.281.1164-.12.2348-.238.3608-.3499.1255-.1127.2559-.2207.3997-.3177l.0009.0009c-.0728.1572-.1591.3025-.2501.444-.0911.1419-.1888.2776-.289.4114-.0896.1152-.1802.2294-.276.3389Zm.2995-1.5068c.0033-.1472-.0086-.2949-.0326-.4392-.0101-.0607-.022-.1209-.0364-.1802l-.0522-.1907-.1424.1377c-.0421.0439-.0833.0898-.1226.1366-.1898.2266-.3441.4875-.4222.7738-.0781.2857-.0781.5887-.0302.8798.0091.054.0331.1548.0331.1548.0014-.0048.0028-.01.0038-.0148.0973-.3637.2636-.7145.517-.9964.0849-.0946.1788-.1802.2794-.2576l.0053-.0038Zm-15.0007 1.1149c-.0388-.1902-.0915-.3775-.1595-.5596-.0973-.261-.2267-.5109-.3935-.7345-.1921-.2591-.4332-.4799-.6991-.6624-.1423-.098-.2918-.1854-.4466-.2633-.1864-.0937-.3795-.173-.5779-.238l-.0082-.0029c.0005.0034.0005.0057.0005.0086.0134.2079.0417.4143.0858.6179.0053.0249.011.0497.0167.0741.3633.0937.714.2366 1.0284.4411.0743.0483.1462.0999.2152.1544.1979.1562.3747.3374.5309.5343.1557.1964.2909.4086.4073.6303Zm16.2356-.8091c.0642.0124.1284.0225.1931.0306.3287.0406.6704.022.9828-.0946.2621-.0975.4974-.259.7001-.4497.0446-.0421.0877-.086.1294-.131l.1289-.1495c-.0637-.0163-.1284-.0297-.1936-.0407-.138-.0239-.2774-.0368-.4174-.0382h-.0306c-.1031.0005-.2056.0081-.3072.0234-.0551.0784-.115.1529-.1811.2232-.2497.2667-.5698.4602-.9095.5912-.0312.0124-.0628.0238-.0949.0353Zm-20.0039-.0186c.0848-.0206.2741-.0574.2904-.0602-.3623-.1577-.7021-.3695-.9877-.6433-.3105-.2977-.5491-.6624-.726-1.0533-.057-.0038-.114-.0062-.1705-.0076-.0403-.001-.0806-.0014-.1203-.0014-.1467.0009-.2928.009-.439.0243l-.033.0038c.0139.0254.0277.0507.0416.0756.1793.3154.3973.6102.6556.8664.2041.2021.4346.3799.6886.5156.2506.1338.5223.2246.8003.2801l-.0015.0005.0015-.0005Zm1.0053-1.0399c-.1605-.3164-.368-.6098-.6302-.8507-.2228-.2055-.481-.3708-.7547-.5008-.3229-.1529-.6684-.259-1.0197-.3221l-.0331-.0053c.001.0024.0015.0053.002.0081.0436.2036.1016.4039.1749.5984.0579.1543.1255.3049.2032.4502.1466.2757.3311.5328.5568.7493.2261.2165.4907.3904.7724.5266.0753.0364.1519.0698.2296.1014-.0432-.0923-.0834-.1855-.1208-.2801-.0335-.0865-.0887-.2523-.0868-.2471-.1485-.1486-.2951-.2996-.437-.4554-.1706-.1859-.3368-.3766-.4911-.5797l.0009-.0014c.2171.1352.4222.2834.623.4363.1481.1118.2923.2275.4351.345l.1121-.0019c.1548.0015.3096.0115.4634.0292Zm19.0499.7278c.3018-.1252.5855-.3073.7973-.5582.1802-.2131.3057-.4688.3886-.7345.0183-.0583.0341-.1176.0484-.1773l.0389-.1936-.1893.0593c-.0575.0206-.115.043-.1711.0674-.2712.118-.5266.2824-.725.5032-.1476.1639-.2607.356-.345.5592l.1586-.0268.0081-.0081c.1165-.1205.2348-.2385.3613-.3503.1256-.1123.2559-.2208.3992-.3178l.0014.0009c-.0728.1573-.1595.3025-.2506.444-.0905.1424-.1888.2781-.2889.4115-.0729.0941-.1467.1873-.2233.2781-.0029.0143-.0058.0287-.0086.043Zm-.5013-.3828c.1006-.3087.2545-.6026.472-.8449.0868-.0961.1821-.183.2847-.2614.0033-.1472-.0087-.2944-.0326-.4392-.0096-.0607-.0221-.1204-.036-.1802l-.0527-.1902-.1418.1372c-.0427.0444-.0839.0898-.1232.1371-.1897.2261-.344.4875-.4221.7733-.0781.2862-.0781.5888-.0302.8803l.0028.0157.0791-.0277Zm-18.3656-1.1818c-.0383-.0851-.0814-.1682-.1289-.249-.1581-.2686-.3646-.5071-.5975-.714-.2732-.2428-.5827-.4444-.9105-.605l-.0077-.0033c-.0004.0028-.0004.0057-.0009.0086-.0158.2141-.0158.4296.0014.6442.0015.0181.0034.0368.0048.0549.4107.1682.795.4038 1.1089.7178.2314.2313.4217.5004.5745.7885l-.0306-.2595c-.0096-.1065-.0135-.3832-.0135-.3832Zm20.2867.4898c.0494.0086.0997.0163.1495.0225.3287.0406.6704.022.9828-.0946.2622-.0975.4974-.2591.7001-.4497.0446-.0421.0877-.0861.1294-.131l.1289-.1496c-.0637-.0162-.1284-.0296-.1936-.0406-.138-.0239-.2774-.0368-.4173-.0382h-.0307c-.103.0005-.2056.0081-.3072.0229-.0551.0789-.115.1534-.1811.2237-.2497.2666-.5698.4602-.9095.5911-.0139.0053-.0278.011-.0417.0158-.0034.0091-.0067.0182-.0096.0277Zm.1035-.9367c.0891-.0898.1797-.1777.2751-.2618.125-.1123.2554-.2208.3991-.3178l.0015.0009c-.0734.1572-.1596.3025-.2507.444-.0905.1419-.1887.2776-.2889.4114-.0335.0431-.0666.0856-.1006.1281-.0082.0497-.0178.0985-.0283.1477.2631-.1223.507-.2906.6943-.5128.1802-.2136.3058-.4688.3887-.7345.0177-.0588.034-.1176.0484-.1773l.0383-.1936-.1888.0593c-.058.0205-.115.043-.1711.0674-.2717.118-.5266.2824-.725.5032-.1275.1415-.2286.3035-.3086.4755l.2166-.0397Zm-23.4072.2691c-.4169-.2662-.7925-.6065-1.0623-1.0232-.2334-.3608-.3824-.7703-.4648-1.1914-.23245-.0712-.47205-.1214-.71356-.151l-.03308-.0038c.00096.0024.00144.0052.0024.0081.05415.2007.12365.3976.20751.5883.06613.1505.14184.2973.22714.4382.16148.2672.35989.5138.59709.7178.2314.1993.4974.3556.7777.4751.1308.0554.4088.1438.4088.1438.0177-.0009.0354-.0014.0531-.0019Zm22.8331-.1219c.1007-.2838.2473-.5524.449-.777.0863-.0961.1821-.1831.2847-.2614.0033-.1472-.0087-.2944-.0326-.4392-.0101-.0607-.022-.1204-.0359-.1802l-.0528-.1907-.1418.1377c-.0426.0444-.0839.0898-.1232.1366-.1897.2266-.344.4875-.4221.7738-.0752.2743-.0781.5639-.036.8439l.1107-.0435Zm-22.1473-.7813c-.0134-.0593-.0278-.1176-.0441-.1759-.0752-.2681-.1826-.5281-.3292-.7656-.1701-.2743-.3915-.5142-.6407-.7187-.1337-.1095-.2755-.2094-.4226-.3001-.1778-.109-.3638-.2046-.5559-.2863l-.0077-.0029v.0081c-.0048.2084.0058.4163.0326.6227.0211.1635.0522.3255.0939.4846.0825.3102.2075.6108.3848.8789.1682.2533.38.4755.6163.6667.127.1032.3977.2733.3977.2733-.0273-.0884-.0513-.1778-.0729-.2676-.011-.0464-.0215-.0932-.0311-.14-.0364-.0564-.0728-.1133-.1092-.1697-.1328-.2131-.2636-.4282-.3863-.6485-.1231-.2198-.241-.4435-.3445-.6767l.0009-.001c.1802.1816.346.3723.5066.5668.1557.1878.3038.3804.4494.5749l-.171-.0148.183.0158c.1006.0095.2008.0253.3.0444.0503.0096.1001.0201.15.0316Zm24.0876.0325-.0264.0793c.0187.0014.0369.0024.0556.0033.3307.0168.6699-.0262.9728-.1653.2544-.1161.4773-.2944.6656-.4994.0417-.0449.0814-.0918.1198-.1395l.1179-.1587c-.1352-.0239-.2717-.0358-.4083-.0392-.024-.0005-.0479-.0005-.0719-.0005-.1581.0019-.3167.0182-.4706.0526-.0493.0822-.1035.1615-.1638.2361-.2118.2614-.4874.4654-.7869.6179l-.0038.0134Zm-23.689-.5759c-.0153-.163-.044-.325-.0876-.4827-.0877-.3187-.2382-.6174-.426-.8884-.094-.1357-.1975-.2647-.3082-.3866-.1399-.1544-.2913-.2982-.4528-.4301l-.0067-.0052c-.001.0028-.0019.0057-.0029.0081-.0628.1983-.1107.4014-.1432.6069-.0039.0253-.0077.0502-.0111.0755.3609.2576.6809.5744.9143.952.2224.3589.3628.7632.4399 1.177.0259.0082.0513.0158.0772.0244-.0024-.032-.0039-.0636-.0053-.0956-.0053-.1343-.0048-.269.0019-.4028.0024-.0512.0058-.1018.0105-.1525Zm23.8131-.0569-.0283.2318c.1998-.1285.38-.2881.52-.4807.1643-.2261.2707-.4899.334-.7609.0139-.0597.0258-.1194.0354-.1801l.0245-.196-.1841.0732c-.056.0243-.1116.0511-.1662.0793-.2617.1371-.5046.3197-.6862.5543-.1361.1754-.2349.3757-.3043.586.0522-.0158.1054-.0301.1581-.0426l.0067-.0076c.1073-.1281.2171-.2547.335-.3756.1164-.121.2386-.2385.3752-.3456l.0009.001c-.0613.162-.137.313-.2175.4607-.0628.1161-.1304.2289-.1998.3398l-.0034.063Zm-.7931.0306c.0772-.3187.2099-.627.4117-.8874.0781-.1004.1653-.1926.2597-.2772l.0048-.0043c-.0067-.1467-.0297-.293-.0642-.4358-.0144-.0593-.0307-.1186-.0494-.1769l-.0661-.1859-.001.001c-.045.0473-.0886.096-.1308.1462-.0388.0473-.0767.0956-.1126.1453-.1725.2399-.3072.5114-.3647.8019-.057.2911-.035.5936.0345.8803.0019.0086.0039.0167.0063.0253.0234-.011.0474-.022.0718-.0325Zm-10.052-3.1512c1.29.4707 2.6696.6834 4.0588.616-1.6317.5285-3.3012.5911-4.8672.2624l-.0129.3221-.8075 1.1082-.8074-1.1082-.013-.3221c-1.566.3287-3.236.2661-4.8671-.2624 1.3887.0674 2.7688-.1453 4.0587-.616-2.1127-1.1035-3.8115-3.0007-4.6074-5.4413-1.1793-3.6168-.0642-7.5862 2.8277-10.0665-3.1425 4.6361-2.0112 10.898 2.4971 14.1615l-.3134-7.728v-6.0793c.4883-.2337.91-.5869 1.2248-1.0261.3148.4392.7365.7924 1.2243 1.0261v6.0793l-.3129 7.728c4.5078-3.2635 5.6397-9.5254 2.4971-14.1615 2.8919 2.4803 4.007 6.4497 2.8277 10.0665-.7959 2.4406-2.4947 4.3378-4.6074 5.4413Zm11.9429 2.2236c.0446-.0019.0887-.0052.1328-.0095.3297-.0311.6588-.1233.9387-.3044.2348-.152.4289-.3604.5856-.5907.0345-.0507.0671-.1023.0982-.1553l.0935-.174c-.0278-.001-.0551-.0009-.0829-.0009-.0551.0004-.1103.0019-.1654.0057-.2348.0153-.4705.0607-.6905.1453l-.0024.0057c-.0359.0865-.0776.1711-.1255.2518-.186.314-.4567.5726-.7595.7738l-.0115.0076c-.0034.0148-.0072.0301-.0111.0449ZM8.56488 27.3392c-.02492-.0148-.0503-.0291-.07569-.0435-.19408-.1084-.39726-.2012-.60619-.2776l-.00816-.0029c0 .0029.00002.0057.0005.0086.00575.2079.02732.4153.06469.6198.02923.1621.06853.3226.11837.4794.09536.2972.23047.583.414.8368.17826.247.40063.4607.64549.6418.14616.108.30093.205.46098.291-.01821-.0186-.0369-.0377-.05511-.0564-.33879-.3536-.62104-.7679-.78445-1.231-.14328-.4048-.19264-.8378-.17443-1.266Zm1.84302 1.915c.0196-.4077-.0259-.8201-.1663-1.2048-.1069-.2925-.26692-.5644-.45812-.81-.22474-.2877-.4926-.542-.78635-.759l-.00673-.0047c-.00048.0024-.00144.0052-.0024.0081-.05271.2012-.09054.4062-.11307.6131-.01725.1635-.02492.3283-.02108.4932.00718.3116.05605.6242.16004.9185.10446.2949.2626.5687.45284.8163.09632.1252.20078.2437.31196.356.06421.0645.12987.1267.19791.1869l-.00479-.1047c-.09153-.2279-.17395-.4592-.25446-.691-.08002-.2385-.15669-.4774-.22474-.7202-.06852-.2423-.13129-.487-.17729-.7379l.00096-.0005c.13322.218.25012.4421.36033.6686.11165.2261.2142.4555.31339.6863.022.0521.0436.1042.0652.1562l.1227.0402c.0776.0263.1542.0564.23.0894Zm27.2512.3264-.0105.2251c.2003-.1654.3747-.3637.4955-.5941.1294-.2475.1964-.5242.2194-.8014.0053-.0607.0082-.1224.0092-.1835l-.0048-.1969-.1711.0984c-.0522.0325-.1031.0669-.1529.1033-.2391.1734-.4528.389-.5985.6475-.1097.195-.1787.4101-.2166.6304l.1366-.0464.0201-.0339c.0872-.1424.1778-.2834.2765-.4201.0982-.1367.2018-.2705.3211-.3962l.0009.0005c-.0369.1692-.0896.3298-.148.4879-.0532.1467-.1141.2896-.1778.4316l.0009.0478Zm-.7427.0645c.0326-.3173.1183-.6304.275-.9085.0638-.1128.138-.2184.2214-.3168-.0287-.1444-.0724-.2858-.1275-.422-.0225-.0569-.0474-.1128-.0742-.1678l-.0925-.1744-.1093.1644c-.0316.0526-.0618.1061-.0901.1606-.136.2619-.23.55-.2438.8458-.0144.2944.0507.5883.1595.8607l.0815-.042Zm-26.1779-.2323c.047-.1257.0877-.2542.1203-.3842.0704-.2786.1064-.5668.0934-.8545-.0139-.313-.0862-.6217-.1979-.9137-.1327-.3484-.3196-.6753-.5434-.973l-.0201-.0263c-.0015.0024-.0029.0048-.0043.0072-.1074.1782-.20177.3646-.28132.5567-.00958.0234-.01915.0473-.02825.0712.29087.3341.52807.7164.66747 1.1379.1438.4344.1816.8989.1467 1.3539-.0063-.0034.0258.0133.0474.0248Zm27.9993-1.0504c.0642-.0134.1275-.0296.1902-.0483.3177-.0927.6235-.2456.8635-.4759.2018-.1936.3532-.4349.4634-.6906.024-.0559.046-.1133.0666-.1711l.0585-.1883-.1941.0392c-.0594.0143-.1188.0311-.1773.0492-.1821.0574-.3594.1353-.5218.2361-.0192.0937-.0446.1864-.0767.2772-.1227.3431-.3398.648-.5985.9027-.0245.0239-.0484.0473-.0738.0698Zm-.3201-.6786c.0134-.0387.0273-.0774.0412-.1161.0589-.1563.1207-.3121.1917-.4645.0704-.153.1471-.304.2401-.4498l.0014.0005c-.0043.173-.0259.3408-.0532.5066-.0264.1663-.0623.3297-.1006.4922-.0264.1023-.0532.2041-.0829.3054l.0048.0741c.2237-.2332.4087-.5104.5022-.8215.0805-.2672.0934-.5515.0637-.8282-.0067-.0607-.0153-.1214-.0264-.1816l-.0417-.1931-.1495.1295c-.045.0416-.0886.0851-.1303.13-.2022.2155-.3709.4674-.4648.7489-.0762.2284-.1016.4707-.0916.7111l.1055-.0473-.0096.0038Zm-.3771.1993c-.0302-.3221-.0063-.6514.0963-.9592.0412-.1223.0944-.2399.1572-.3526-.0556-.1362-.1256-.2667-.2052-.39-.033-.0516-.068-.1023-.1049-.151l-.1241-.1539-.0757.1826c-.0211.0573-.0407.1151-.058.1739-.0838.2829-.1212.584-.0791.8774.0422.293.163.5706.323.8187l.0705-.0459Zm-7.6077-1.0638c-.0058.0081-.0115.0162-.0173.0229 3.7895-2.184 5.0862-7.0169 2.8953-10.7947-1.0743-1.8528-2.8545-3.1923-4.9371-3.7118 4.5806 3.4327 5.5026 9.9178 2.0591 14.4836ZM14.688 16.0475c-2.1904 3.7778-.8937 8.6107 2.8958 10.7947-.0057-.0067-.0115-.0148-.0173-.0229-3.4434-4.5658-2.5219-11.0509 2.0587-14.4836-2.0821.5195-3.8628 1.859-4.9372 3.7118Zm-5.6995 10.075c.05846.0363.16197.1094.15718.1066.12315-.4803.16053-.9897.05224-1.4762-.06422-.2877-.1773-.5635-.32202-.8196-.1797-.3174-.40733-.6079-.66562-.865l-.02349-.0234c-.00095.0028-.00237.0052-.00333.0081-.0805.1916-.14711.3895-.19839.5911-.04073.1597-.0714.3217-.09104.4851-.03642.3097-.0321.626.02971.9324.06134.3063.17919.5997.33301.8717.08099.1433.17205.281.27125.4129.04744.063.09678.1247.14805.1854l.02109-.0856c-.05942-.2413-.10924-.4845-.15668-.7283-.04553-.247-.08818-.4946-.12077-.7445-.03402-.2495-.06134-.5009-.07189-.7556l.00147-.0005c.10111.2347.18495.4727.26258.7126.07859.2394.14712.4812.21325.7235.03785.1453.07475.2906.10973.4363l.05367.033Zm-1.34463-2.2819c-.19024-.152-.39483-.2858-.60855-.402l-.02925-.0157c0 .0028-.00049.0057-.00097.0086-.02396.2136-.03162.4291-.02252.6442.00671.1572.02302.3144.04937.4697.05367.3164.15143.6266.30429.91.14041.2604.32539.4951.53623.7025.12938.1276.2688.2451.41543.3527-.01581-.0211-.0316-.0421-.04694-.0636-.2856-.3971-.50602-.8473-.60282-1.3286-.08482-.421-.07238-.8563.00573-1.2778Zm31.89183 2.517c.0618-.0215.1226-.0454.1821-.0717.3038-.1319.5884-.3211.7973-.5796.1759-.2175.2957-.4756.3728-.7427.0168-.0588.0321-.1185.0451-.1782l.0345-.1946-.1879.0636c-.0575.0215-.114.0454-.1701.0707-.173.0798-.3393.1788-.4878.2992-.0067.0956-.0206.1907-.0412.2844-.0786.356-.2559.6857-.4806.9706-.0211.0262-.0422.0525-.0642.0783Zm-30.12121-.0038c.10016-.1663.18882-.3398.26262-.5195.10878-.2657.18495-.5462.21275-.8325.03019-.312.00191-.6274-.0671-.9328-.08242-.3632-.22185-.7135-.40107-1.0394l-.01629-.0287c-.00192.0019-.00383.0043-.00527.0062-.1313.162-.25109.3326-.35699.5123-.01294.022-.02542.044-.03788.0659.24104.3719.42217.7838.50028 1.2201.08482.4712.05081.9577-.0594 1.4222-.01006.0421-.02062.0841-.03165.1262ZM38.78 25.9529c-.0676-.3107-.0834-.6347-.0211-.9472.0254-.1267.0632-.2504.1116-.3699-.0723-.1281-.1576-.249-.252-.3613-.0398-.0473-.081-.0927-.1232-.1367l-.1428-.1376-.0517.1907c-.0144.0597-.0264.1199-.036.1801-.0479.2911-.0474.594.0312.8798.0781.2834.231.542.4183.7666l.0657-.0645Zm.6732.0363c.1754-.2471.3086-.5271.3589-.8268.0465-.2757.0235-.5591-.0407-.8296-.0144-.0597-.0307-.119-.0489-.1773l-.0656-.1864-.1323.1472c-.0393.0468-.0767.0951-.1131.1448-.173.2394-.3086.5104-.3666.801-.0445.2212-.0426.4492-.0091.6724l.1117-.0799c.0038-.0167.0077-.0339.0115-.0506.0388-.1625.0805-.3245.1323-.4846.0503-.1606.1073-.3202.1816-.4765l.0014.0005c.0173.1721.0172.3412.011.509-.0053.1682-.0206.335-.0383.5008-.0086.0684-.0177.1372-.0278.205l.034.131Zm.7447-1.6168c.057-.0315.1131-.0649.1682-.1003.2774-.1797.5271-.4134.691-.7025.138-.2428.2137-.5171.2463-.7933.0067-.0612.012-.1224.0148-.1835l.002-.1974-.1745.0932c-.0532.031-.1054.0635-.1562.0979-.1576.1071-.3057.2318-.4322.3747.0086.0956.011.1912.0057.2872-.0191.3642-.1399.7178-.3148 1.0361-.0163.0296-.0331.0588-.0503.0879Zm-1.3269-.2494c.0532.0659.104.1338.1509.204.0058-.0095.0116-.0195.0173-.0291-.0589-.0554-.115-.1137-.1682-.1749Zm.8444-.5979c.0095-.1113.0215-.2231.0378-.335.024-.1663.0537-.3331.1016-.4994h.0009c.0456.1668.0734.3341.0944.5009.0226.1668.035.3335.0446.5003.0048.1276.0086.2552.0077.3828.0033.011.0067.022.01.0335l.0053-.0105c.1538-.292.2564-.618.2569-.9501.0004-.2791-.0685-.5553-.1764-.8115-.0239-.0568-.0493-.1123-.0771-.1672l-.0954-.173-.1064.1668c-.0306.053-.0603.1065-.0877.1615-.1317.2643-.2209.5539-.2305.8502-.0052.1648.0139.3292.0523.4893.0134-.0124.162-.1386.162-.1386Zm-.3964.3838c-.0761-.2404-.1173-.4918-.1092-.7441.0043-.129.0216-.2571.0493-.3828-.092-.1147-.1964-.2203-.3081-.3154-.0465-.0401-.0948-.0784-.1442-.1147l-.1625-.1123-.0206.1964c-.0038.0612-.0057.1224-.0057.1835.0005.2954.0508.594.1754.8631.0992.2141.2429.4043.4106.5701l.115-.1438Zm-30.53798-.7876c.04121-.0487.08098-.098.1198-.1486.27074-.3522.48446-.7541.58413-1.1885.06565-.2872.08194-.585.06133-.8784-.02587-.3637-.10639-.7231-.22906-1.0657l-.0115-.0311c-.00191.0019-.00431.0038-.00623.0058-.15574.1385-.30092.2886-.43365.4492-.01629.0196-.03212.0392-.04841.0592.17922.4048.29232.8402.30046 1.2837.00863.4783-.10256.9538-.28513 1.3945-.01629.0401-.03353.0803-.05174.1199Zm-1.91104-3.2745-.0024.0081c-.05607.2002-.0968.4048-.1222.6112-.02012.1635-.03019.3283-.02875.4927.00288.3121.04697.6251.14712.9214.09967.2963.25349.5725.44038.8225.09871.1324.20654.2576.32155.3756.00575.0062.01676.0167.01676.0167-.0115-.0224-.02298-.0449-.03449-.0674-.21851-.4372-.36515-.9166-.38384-1.4069-.01677-.4291.06469-.8573.20845-1.2607l.00046-.0005c-.16388-.1796-.34453-.3445-.53669-.4927l-.02635-.02Zm1.65705 3.1297c.07715-.1744.14184-.3546.19119-.5386.07524-.2772.11599-.5648.10784-.8521-.0091-.3135-.0762-.6231-.18306-.9175-.05655-.1558-.12411-.3073-.20079-.4545-.09919-.1907-.21372-.3737-.34167-.5467l-.00479-.0072c-.00192.0024-.00333.0048-.00477.0072-.11405.1825-.21373.3737-.29806.5715-.06517.1525-.12078.3093-.16534.4689-.08338.3015-.12698.6155-.11117.9285.01485.303.0834.6022.18882.8865.05655.152.12313.3001.19836.444l.104-.2261.02539-.0482c-.00527-.1123-.00959-.2251-.01342-.3374-.00527-.2514-.00814-.5023-.00047-.7541.00623-.2519.01868-.5042.04887-.7575h.00143c.06278.2471.10734.496.14616.745.03929.2485.06902.498.09537.7479.01486.1544.02875.3088.04025.4631l.17586.1773Zm31.93397-.6284c.0517-.0397.1015-.0817.1499-.1257.2454-.2213.4543-.4918.5698-.8033.0968-.2619.128-.5449.1155-.8225-.0029-.0612-.0077-.1224-.0148-.183l-.0293-.1955-.1576.12c-.0475.0387-.0935.0793-.1385.1213-.1385.1305-.2645.2772-.3666.4387.0239.0928.0417.1869.0518.283.0397.3622-.0226.7307-.1448 1.0724-.011.032-.023.0635-.0354.0946Zm-.9229-.2801c-.1237-.2356-.2119-.4898-.2459-.7541-.0167-.1281-.0206-.2571-.0129-.3857-.1093-.0984-.2295-.1858-.3551-.2623-.0522-.032-.1059-.0621-.1605-.0903l-.1788-.0846.0115.1969c.0058.0611.0139.1218.024.1825.0479.2911.1457.5778.3115.8239.1394.2065.3244.379.5295.52l.0767-.1463Zm.6416-.2141c.0311.0521.0608.1057.0891.1597.0839-.2868.1193-.5902.0714-.8861-.0441-.2757-.1567-.5376-.3043-.7732-.0326-.0521-.0666-.1027-.103-.1525l-.1217-.1557-.0781.1815c-.0221.0569-.0427.1147-.0609.1735-.0877.2815-.1294.5816-.091.876.022.1735.0723.3417.1413.5023l.1284-.1611c-.0095-.1214-.0167-.2432-.0181-.366-.0039-.1678-.001-.337.0196-.509h.0014c.0714.1572.1256.3178.1735.4789.0489.161.0877.324.1236.4869.0101.0483.0197.0961.0288.1448Zm.3019-1.5569c.0469-.045.0925-.0923.1361-.1406.2209-.2456.4006-.5362.483-.8578.0695-.2705.0709-.5553.0292-.8301-.0086-.0607-.0201-.1209-.0335-.1806l-.0494-.1912-.1442.1353c-.0432.0434-.0848.0889-.1251.1352-.1246.1443-.2343.3035-.3191.4746.0335.0893.0608.1816.081.2752.0771.3565.0531.7298-.0326 1.082-.0077.033-.0163.0655-.0254.098Zm-.9896-.25c-.1269-.2036-.2252-.4244-.2808-.6576-.0292-.1238-.046-.2499-.0522-.3761l-.0005-.0067c-.1188-.0865-.2472-.161-.38-.2241-.0556-.0263-.1121-.0507-.1691-.0731l-.1869-.066.0321.195c.012.0598.0264.1195.0426.1787.0782.2844.2046.5597.3954.7871.1471.1754.3292.3183.5271.4325l.0723-.1897Zm.1036-1.9708c-.0216.0616-.0413.1237-.0585.1868-.0163.0588-.0302.1185-.0422.1788-.058.2891-.0685.5921 0 .8807.034.1424.0868.2796.1529.4101l.1011-.1663.046.0439c-.0206-.1118-.0388-.2246-.0522-.3383-.0206-.1668-.0355-.3355-.0331-.5085l.001-.0005c.0876.1496.1581.3035.2223.4588.0656.1553.1212.313.1739.4717.0436.1386.0863.2781.1218.4191.0024-.011.0047-.022.0076-.0335.0714-.3221.0848-.6633-.0014-.984-.0728-.2695-.2118-.518-.3834-.7374-.0378-.0482-.0771-.0955-.1179-.1409l-.1375-.1424-.0004.0019ZM9.90808 16.7199s-.25207.1773-.38528.2509c-.06901.0382-.13898.075-.21038.1094.07667.4282.08435.8703-.0091 1.2961-.10254.4674-.32058.9042-.59995 1.2913-.0254.0353-.05174.0702-.07809.1046.05127-.0377.10159-.0764.15094-.1171.34454-.2805.64548-.6222.84339-1.0222.13034-.2643.21513-.5496.26305-.8401.05798-.3541.06375-.7164.02542-1.0729ZM8.401 19.5863l.00337-.0043c.30764-.4033.54628-.8693.63494-1.3715.05223-.2982.05221-.6041.01339-.9038-.04552-.3536-.14326-.7005-.28031-1.0293l-.01296-.0306c-.00191.0019-.00383.0038-.00623.0057-.14807.1467-.28511.304-.4097.4707-.09871.1324-.18929.2705-.27027.4139-.15239.2724-.26929.5663-.33015.8731-.06038.3063-.06374.6222-.02589.9319.01965.1635.05129.3255.09202.4851.00862.033.01771.0659.02682.0984l.13369-.1983c.02827-.1591.05991-.3178.09201-.476.05271-.2456.10832-.4908.17397-.734.06421-.2433.13513-.4861.2233-.7255h.00144c.00335.2552-.01056.5075-.03069.7584-.01916.2514-.04839.5009-.08002.7499-.02396.171-.04888.3421-.07715.5123l.12842.1739Zm-.8774-3.4399-.0043.0072c-.10063.1825-.18785.3718-.26021.5668-.0575.1543-.10543.3125-.14185.4731-.06996.3039-.09918.6189-.07043.93.02827.3111.11453.6155.23816.9018.06517.1515.14137.2977.22571.4396.00335.0053.0067.011.01006.0168l.00333.0052c-.00623-.0253-.01246-.0506-.01869-.076-.11596-.4951-.14517-1.016-.03591-1.5149.08769-.4005.25972-.778.48302-1.1211-.12123-.2199-.26405-.4282-.42362-.6218l-.00527-.0067Zm31.714 2.1114c-.1438-.1826-.2626-.3847-.3426-.6036-.0437-.1195-.0753-.2423-.0964-.367l-.0009-.0063c-.1284-.0726-.2645-.1314-.404-.1787-.0579-.0196-.1169-.0373-.1763-.0526l-.1931-.0439.0546.1902c.0192.0578.0402.1156.0633.1725.1106.2734.2693.5319.4854.7355.1643.1548.3589.2743.5659.3646l.0441-.2107Zm1.0259.1495c.0413-.0501.0805-.1022.1184-.1553.1902-.27.3345-.5792.3786-.9084.0369-.2767.0052-.5597-.0681-.8278-.0163-.0592-.0345-.1175-.0546-.1758l-.0719-.184-.127.1515c-.0378.0482-.0742.0979-.1083.1486-.1068.1582-.1974.3288-.2611.5085.0436.0851.0814.1735.1126.2643.1183.345.1385.7182.0953 1.0786-.0043.0334-.0086.0664-.0139.0998Zm-.2592-.323c.0134-.2858-.0206-.5754-.1275-.8416-.104-.259-.2712-.4898-.4672-.6877-.0431-.0435-.0882-.0855-.1342-.1261l-.1528-.1253-.0364.1941c-.0091.0607-.0163.1214-.0211.1825-.0235.2944.0019.596.1035.8746.046.1247.1064.2432.1778.3546l.0556-.1319.0824-.1735-.0269.0564c-.0172-.0612-.0335-.1228-.0484-.1845-.0407-.1634-.0747-.3292-.0929-.5013l.0014-.0005c.1045.1382.1922.2829.2746.4297.0829.1467.1567.2967.2281.4478.0091.021.0187.042.0282.063l.1558.1697Zm-1.2081-1.6172c-.1437-.1501-.2683-.3173-.3641-.5023-.059-.1128-.1059-.2308-.1428-.3517l-.002-.0062c-.1365-.0555-.2789-.0966-.4231-.1257-.0604-.012-.1212-.022-.1821-.0301l-.1969-.0187.0786.1812c.0263.0554.0546.1099.0848.1634.1447.2571.3349.4937.5755.6681.1653.12.3517.2084.5463.2705l.0163-.1778c.0029-.0234.0062-.0473.0095-.0707Zm-28.83112-.151c.15572-.1324.29802-.2796.42172-.4421.1902-.2494.3321-.5328.4341-.8291.1208-.3522.1869-.7231.2056-1.0944l.0014-.0335c-.0028.001-.0052.002-.0081.0029-.1969.0688-.3886.152-.5731.2495-.0225.0119-.0451.0239-.0676.0363.0096.4425-.0527.8879-.2161 1.3003-.162.4106-.41688.78-.72069 1.0992l.21514-.1314c.09297-.0531.30763-.1577.30763-.1577Zm29.91992.2222c.035-.0554.0671-.1118.0977-.1692.1548-.292.2583-.6174.2598-.9496.0014-.279-.0667-.5558-.1735-.8124-.024-.0564-.0494-.1123-.0767-.1668l-.0949-.1734-.1068.1663c-.0312.0525-.0604.1065-.0882.161-.0858.1701-.1538.3508-.1941.5376.0547.0789.1036.1616.1457.2476.1615.3274.2295.6949.2319 1.0576.0005.0334 0 .0674-.0009.1013Zm-30.7259-.0588c.11261-.1128.21851-.2318.31579-.3579.17586-.2275.32393-.4779.42696-.7465.11215-.293.16915-.6045.18355-.9176.0167-.3718-.024-.746-.11023-1.1082l-.00816-.032c-.00239.0019-.0043.0033-.0067.0052-.16963.1209-.33065.2543-.48016.3996-.11836.1147-.23002.2365-.33257.3655-.19982.2514-.36609.531-.47486.834-.10255.2858-.15383.5883-.16581.8908-.00383.0922-.00382.184-.00047.2757.05798-.0588.11835-.1156.18017-.1706l.16484-.1376.00526.01.0048-.0124c.09152-.2342.18546-.4669.28897-.6968.10254-.2303.21132-.4583.33687-.681l.00094.0005c-.0369.2523-.09104.4994-.15142.7441-.05894.2447-.12745.4865-.19885.7273-.03067.1004-.06231.2003-.09442.2997.00671.0153.01293.0306.01916.0463.03498.086.06711.1735.09634.2619Zm30.4326-.1539c-.0158-.3101-.0863-.6212-.2386-.8936-.1366-.2438-.3316-.4516-.5516-.6227-.0484-.0378-.0982-.0736-.149-.108l-.1677-.1047-.011.1969c-.0015.0612-.0005.1228.0024.184.0139.2944.0776.5907.2146.854.0508.0984.1117.1916.1802.2786l.0853-.2609.0172.011c-.0186-.0459-.0373-.0913-.0546-.1377-.0613-.1567-.1164-.3163-.1562-.485l.001-.0005c.1217.1233.2271.2557.3277.3909.1012.1348.1936.2743.2832.4153.0374.0607.0743.1209.1103.1825l.1068.0999Zm-30.50545-2.615c-.08194-.2289-.18544-.4497-.3062-.6605l-.01678-.0286c-.00192.0024-.00335.0047-.00527.0067-.13274.1696-.25302.3488-.35796.5366-.07715.1377-.14661.2796-.20555.4258-.11741.2892-.19698.5955-.21854.9071-.02157.3116.01485.6255.09105.928.04025.1597.09155.3169.15241.4698.00335.0081.00621.0158.00956.0239.00048.0038-.00383-.0483-.00623-.0774-.03546-.5075.01917-1.026.20701-1.5016.15047-.3813.38096-.7264.6565-1.0298Zm29.09525 1.113c-.2104-.1319-.4026-.2939-.5583-.4874-.08-.0994-.1495-.2055-.2099-.3169 0 0-.1088-.0234-.162-.0296-.0743-.0086-.149-.0129-.2242-.0153-.0278-.0005-.0561-.0005-.0844-.0005-.0522.001-.1039.0029-.1562.0062l-.1969.0206c.0584.0917.1231.1797.1926.2638.2113.2542.4725.4745.7792.6035.1984.0837.4106.1286.6248.1449l-.0047-.1893Zm.47-2.2571c-.0129.0359-.1375.6671-.1385.7403.069.0669.1333.1386.1922.2145.2233.2892.3623.6356.437.9907.0072.033.0135.066.0192.0994.023-.0611.0436-.1228.0623-.1849.0934-.3169.1303-.6562.0661-.9821-.0541-.2738-.1754-.5314-.3311-.7618-.0345-.0511-.0704-.1003-.1083-.1491l-.1275-.151-.0714.184Zm.1831 1.9068c-.0762-.3054-.208-.6007-.4145-.8411-.1816-.2122-.4145-.3775-.6637-.5018-.0551-.0277-.1107-.053-.1677-.0764l-.185-.0698.0278.1954c.011.0603.024.12.0388.1797.0724.2858.1936.564.38.7948.1021.1266.2219.2375.3532.3335l.0359-.2097c-.0647-.0899-.1274-.1812-.1869-.2753-.091-.1419-.1768-.2877-.2496-.4449l.0014-.001c.1433.0975.2731.206.3982.3192.126.1119.2444.2304.3604.3508.0527.0569.1049.1137.1567.1716.0388.0239.0771.0492.115.075Zm-28.5633-1.1364c.0268.1175.0733.3512.0733.3512.3704-.2466.7025-.5577.9378-.9371.1553-.2504.2669-.5267.3426-.811.0935-.3527.1337-.7188.1285-1.0825l-.0005-.0334c-.0029.0014-.0053.0024-.0082.0033-.1921.0818-.3781.1769-.5559.2858-.1404.086-.276.1807-.4044.2844-.2429.1964-.461.4258-.6311.6886-.17059.2624-.29133.5544-.37135.8559-.01581.0602-.0302.1205-.04314.1811l.20941-.1424.18448-.1099.0268.0789c.1328-.1964.2679-.3914.4112-.5821.15-.2026.3062-.4014.4768-.5912l.0014.0005c-.0915.2385-.1984.4674-.3105.693-.1112.2265-.231.4473-.3532.6671-.0378.066-.0757.1324-.1145.1983l.0005.0015Zm1.0408.1983c.0029.0612.0038.087.0038.087.1227-.0784.2392-.1663.3479-.2638.2315-.2079.4241-.4564.5813-.724.1807-.3078.3167-.6418.4097-.9864l.0019-.0081c-.0024.0004-.0052.0009-.0081.0009-.2142.0253-.4265.0669-.6345.1248-.0177.0047-.0354.01-.0532.0152-.0872.4335-.2458.855-.495 1.222-.1706.2509-.379.4736-.6119.6676.0882-.032.1778-.0616.2684-.0865l.1897-.0487Zm25.8439-.2475c-.1778-.11-.3412-.2423-.4806-.3981-.0858-.0966-.162-.2008-.2286-.3111-.0887-.012-.1778-.0187-.2674-.0206-.0197 0-.0398-.0005-.0594-.0005-.1654.0015-.3302.0187-.4927.0492l-.0014.0005c.0633.0884.1323.173.2061.2533.2237.2433.4959.4502.8088.5634.185.0669.3796.1014.5755.1109l-.0004-.0024c-.0211-.0721-.0599-.2446-.0599-.2446Zm-26.349-2.271c-.0052-.043-.0115-.0856-.0182-.1281-.0325-.2055-.081-.4081-.1437-.6064l-.0029-.0082c-.0019.002-.0043.0034-.0062.0053-.2828.2313-.5372.4989-.74711.7971-.18401.2624-.33303.5501-.42456.8574-.08913.2996-.12268.6141-.11453.9256.00479.1649.02063.3293.0465.4918.00144.0086.00286.0172.0043.0258l.01103-.0779c.07284-.4831.22953-.9586.49692-1.3711.23435-.3603.54775-.6638.89845-.9113Zm27.523 1.5985c.0288-.2336.022-.4716-.0355-.7005-.068-.271-.2022-.5219-.3699-.7446-.0369-.0487-.0757-.0965-.1155-.1429l-.1351-.1448-.0618.1873c-.0173.0588-.0326.1186-.0461.1783-.0407.1859-.0613.378-.0541.5687l.0043.0038c.0705.0621.1366.1286.1979.2003.2377.2771.3949.6164.4874.9672.0072.0268.0139.0535.0201.0798l.0081.0062c.0039-.0119.0125-.0463.0125-.0463.0182-.1396.0484-.2777.0877-.4125Zm-1.9427-1.0633c.0106.0645.023.1286.0379.1921.0139.0598.0297.119.0479.1778.0868.282.2224.553.4198.7747.0647.0722.1356.1386.2108.1993l-.0038-.2887.047.0105c-.0202-.0272-.0403-.0549-.0599-.0831-.0978-.1367-.1912-.2781-.2717-.4316l.0009-.0009c.1481.0903.2837.1921.4145.2982.1313.1056.2554.2179.3776.3326l.0273.0263c.0393.0153.0782.0315.117.0483.0345.0157.069.0315.1035.0482-.0925-.2609-.2291-.508-.4207-.7096-.1927-.2027-.4332-.3556-.6887-.4674-.056-.0249-.113-.0473-.171-.0679l-.1888-.0602.0004.0014Zm-1.2971-.3101c-.0633.0009-.1265.0038-.1898.009l-.2463.0321c.0618.0893.1294.1754.2018.2566.2194.2471.4882.4583.7997.5773.1984.0755.4097.1133.622.1233l-.0843-.2375c-.184-.1157-.3522-.2552-.4946-.4196-.0833-.0965-.1562-.2003-.2204-.3097l-.0029-.0052c-.0421-.0067-.2616-.0416-.3852-.0263Zm-9.0045.5233c-.6762.474-1.6106.3125-2.086-.3623-.4753.6748-1.4098.8363-2.0859.3623-.5674-.3972-.7864-1.1312-.529-1.77398.1447.76558.8846 1.26978 1.6522 1.12448.4045-.0755.7567-.324.9627-.6796.2061.3556.5583.6041.9622.6796.7682.1453 1.5081-.3589 1.6528-1.12448.2573.64278.0383 1.37678-.529 1.77398Zm11.2854-.8999c-.0072-.0774-.0191-.1539-.0369-.2299-.0632-.2719-.1936-.5252-.357-.75028-.0364-.0497-.0737-.09796-.1135-.14479l-.1323-.1472-.0652.18639c-.0182.05878-.0345.11756-.0488.1773-.0437.18538-.0681.37708-.0642.56778.0709.064.1379.1333.1993.2074.2046.2475.346.5419.4365.8487.0115.0072.023.0143.0345.0215.0101-.1797.0408-.3589.0863-.5324.0172-.0664.0613-.2045.0613-.2045Zm-1.9373-.6246c.0091.065.0205.129.0344.1931.0125.0597.0278.119.0446.1777.0824.2839.2128.5573.4068.7819.0542.063.1132.1214.1754.1758-.0086-.0578-.0153-.1166-.0196-.1749l-.011-.205.0235.0043c-.0853-.1257-.1658-.2552-.2358-.3947l.001-.001c.1466.0927.2803.1969.4092.3054.0632.053.1251.107.1859.1629l.2779.0904c.0288.011.0575.022.0858.0339-.0838-.1964-.1955-.3804-.3407-.5381-.1888-.206-.427-.3632-.6804-.4789-.0556-.0258-.1127-.0492-.1702-.0712l-.1873-.063.0005.0014ZM12.8221 11.335l.0191-.0005c.1447-.0564.2847-.1238.4179-.2031.2774-.1654.5213-.3828.7298-.6285.1073-.1261.2056-.2599.2956-.3995.1165-.18062.2186-.37082.3058-.56723l.0038-.00765-.206-.00335c-.0762.00143-.1524.00383-.2281.00909-.0921.00573-.1841.01481-.2756.02676-.1524.41577-.3738.80768-.6761 1.13258-.2818.3025-.6259.5415-.9958.7245l.2899-.0511c.1059-.0153.2128-.0268.3197-.032Zm-.7845-.1549c.104-.0497.206-.1042.3048-.1634.2391-.1434.4619-.3164.6522-.5204.2199-.2361.3929-.5133.5242-.8072.0676-.15102.1241-.30729.1711-.46595.0613-.20646.1059-.41721.1346-.63035l.001-.0086c-.0029.00095-.0058.00143-.0082.00239-.2022.05113-.4011.1166-.5932.19737-.1524.06403-.3005.13667-.4433.21982-.2702.15675-.5209.35031-.7293.584-.2032.22748-.3642.48982-.4883.76752-.0417.0941-.0795.1892-.1136.2862.0259-.0124.0518-.0243.0782-.0363.0972-.0439.1969-.085.298-.1199l.0863-.0282c.1653-.1788.3335-.3561.5084-.52763.1797-.17682.3642-.34982.5626-.51135l.0009.00096c-.127.22127-.2678.43154-.413.63752-.1448.2064-.2967.4067-.4514.605-.0259.0325-.0513.0645-.0772.097.0019.0502.0029.1004.0029.1506.0004.0903-.0024.1806-.0077.2709Zm23.2428-.3393c-.2616-.1424-.5017-.3273-.69-.5582-.082-.1003-.1534-.2083-.2147-.32158-.0527-.00956-.1059-.01721-.1596-.02294-.0743-.00813-.149-.01196-.2243-.01339l-.2156.00527-.2218.02388c.0594.09126.1246.17876.1945.26186.2128.2533.4754.4717.783.5993.1821.075.3752.1181.5712.1362l.2219.0072c-.0158-.0387-.0307-.0779-.0446-.1176ZM12.8613 8.63008c.0072-.24277-.0086-.48603-.044-.72593l-.0048-.0325c-.0024.00144-.0048.00287-.0072.00431-.1797.10561-.3517.2246-.5137.35603-.128.1037-.2497.21552-.3632.335-.2209.23321-.4112.49749-.5459.78948-.1274.27575-.2051.573-.2434.87363-.022.172-.0316.346-.0297.5194l.023-.0755c.1524-.4855.393-.94859.7413-1.32326.2799-.30012.6201-.53811.9876-.72066Zm22.7986 1.37732c-.0723-.1563-.1639-.30349-.2769-.43444-.1836-.21075-.417-.3742-.6671-.49749-.0551-.02677-.1111-.05209-.1682-.07551l-.1854-.06786.0292.19498c.011.06021.0244.11995.0398.17921.0742.28578.1974.56296.3848.79281.1025.1252.2223.2347.3536.3293-.0206-.1051-.0354-.2122-.0431-.3192v-.0005c-.0374-.0535-.0738-.1075-.1093-.1625-.092-.14146-.1787-.28674-.252-.44349l.0009-.00096c.1438.09653.2746.20455.4006.31637.0302.02677.0595.05353.0887.08029 0 0-.0125-.00239.0508.00955.0714.01434.1418.0325.2118.05353.0474.01386.0949.02963.1418.04591Zm1.9144.4052-.0034-.0028.0034.0033v-.0005Zm-1.3585-.1414c.0728-.29059.0954-.59644.0355-.8913-.0556-.27336-.1788-.52999-.3364-.75986-.0345-.05018-.071-.09989-.1093-.14768l-.1279-.15053-.0705.18447c-.0201.05783-.0378.1166-.0536.17586-.0489.18399-.0786.37468-.0796.56536 0 0 .1347.13906.1931.21313.1653.21123.2856.454.368.70875.0614.0315.1217.0654.1807.1018Zm-2.0227-.7403c-.2415-.11708-.4653-.27096-.6512-.46499-.0877-.09223-.1663-.19211-.2358-.2982l-.0033-.00527-.1917-.01098c-.0153-.00048-.0307-.00048-.046-.00048-.195.00143-.3896.02485-.5803.06786h-.0015c.0662.0865.1385.16869.2147.24659.232.2356.5109.43298.8276.53572.0542.01721.1088.03203.1639.04446.0709-.00622.1423-.01005.2132-.01148.0312-.00048.0628-.00048.0939 0 .0791.00143.1582.00574.2372.01387l-.0407-.1171Zm.3901-.82914c-.0839-.14767-.1855-.28531-.3067-.40479-.1994-.19593-.4452-.34073-.7044-.44396-.057-.02246-.115-.04349-.1735-.06212l-.1902-.05353.0445.19212c.0159.05926.0336.11803.0537.17586.0968.27909.2411.54529.4462.75986.1035.10801.2199.20119.3459.281l-.0014-.00764c-.0163-.09319-.0283-.18734-.035-.28196v-.00669c-.0412-.05018-.0819-.10084-.1212-.15293-.1026-.13334-.2003-.27145-.2861-.42198l.0009-.00095c.1515.08506.29.18207.4241.28386l.0072.00574.1567.03345c.0714.01625.1414.0368.2104.05926.0436.01434.0862.02915.1289.0454Zm.5669.28817c.0608-.31398.0656-.64372-.023-.9534-.0772-.2681-.2205-.5147-.3954-.73118-.0383-.04779-.0785-.09416-.1202-.13908l-.1395-.14002-.0561.18973c-.0153.05878-.0282.11899-.0392.17921-.0345.18733-.0489.37992-.035.57012.0738.0607.1442.12618.2089.19739.195.21218.3407.4645.4452.73212.0522.03011.1039.06166.1543.09511Zm-21.0155-.57778c-.0058.10083-.0178.2012-.0331.30061-.0058.03918-.0125.07836-.0192.11754.1122-.08841.2152-.18876.3038-.30154.173-.22031.2899-.48076.3633-.74982.0162-.05926.0301-.11948.0421-.17969l.0321-.19594c-.0009.00048-.0014.00048-.0024.00048-.0623.02007-.1246.04206-.1854.06595-.057.02246-.1136.04731-.1692.07359-.2678.1276-.518.30156-.7087.52999-.0733.08746-.137.18161-.1921.28053l.0091-.00239c.1169-.03441.2357-.06452.356-.08746l.0546-.00955c.1184-.11279.2411-.22222.3771-.32067l.001.00047c-.0656.15484-.1437.29965-.2276.44015l-.0014.03775Z" clip-rule="evenodd"/>
</svg>
