<svg xmlns="http://www.w3.org/2000/svg" fill="none" viewBox="0 0 48 48">
  <path fill="#832D6A" fill-rule="evenodd" d="M37.1744 37.7056c-3.3117 3.1862-7.7329 4.9678-12.3285 4.9678-7.339 0-13.957-4.5436-16.59398-11.3924-.0501-.1353-.166-.2361-.3069-.2668-.1399-.0354-.2886.0029-.3938.1016L.142316 37.877c-.0878997.0781-.1392997.1894-.1418997.3069-.0052.1173.0385.2317.1206997.3155C4.88082 43.5251 11.506 46.3755 18.4279 46.3755c7.6568 0 14.9111-3.4879 19.6927-9.468.0095-.0112.0147-.0255.0147-.0403 0-.0342-.0281-.0622-.0623-.0622-.0183 0-.0358.008-.0476.022-.2724.2964-.5561.5893-.851.8786Zm-9.4263-23.4928c7.5848 2.1926 12.8434 9.1867 12.8434 17.0821 0 4.0675-1.3957 8.0144-3.9527 11.1777-.0927.1111-.1223.2624-.0783.4001.0394.139.1474.2486.2858.2901l9.5597 3.0335c.0423.0131.0864.0198.1307.0198.1929 0 .3641-.1273.4197-.3121C47.6485 43.5735 48 41.1551 48 38.724c0-12.4076-9.1564-23.0641-21.4225-24.9324-.0312-.0055-.0617.0139-.0699.0444-.0015.0054-.0022.011-.0022.0166 0 .0293.0203.0549.0488.0617.4008.0847.7987.1842 1.1939.2985Zm-15.6308 19.911c-.3448-1.3955-.5191-2.8276-.5191-4.2651 0-9.7546 8.0268-17.7815 17.7815-17.7815.9245 0 1.8476.0721 2.7608.2156.0213.0031.0428.0047.0642.0047.2416 0 .4403-.1987.4403-.4403 0-.03-.003-.0599-.0091-.0893L30.483 1.97315c-.024-.1147-.0945-.2144-.1947-.2752-.0989-.0641-.2202-.0841-.3345-.055-11.3082 2.7027-19.351 12.89425-19.351 24.52105 0 3.1407.5869 6.254 1.7304 9.1792.0117.0292.0435.0455.0741.038.027-.007.046-.0314.046-.0594 0-.0071-.0012-.0143-.0037-.021-.1228-.3852-.235-.7812-.3323-1.177Z" clip-rule="evenodd"/>
  <path fill="url(#a)" d="m31.8124 11.2114-1.8903-8.59445c-.0135-.0663-.0542-.1239-.1122-.1587-.0573-.0363-.1275-.0464-.1927-.0276C19.0726 5.18195 11.5667 14.6462 11.2896 25.5404c-.0013.0322.023.0602.055.0635.0313.0051.0614-.0156.0678-.0466 2.1748-9.0583 10.8747-15.1285 20.1269-14.0432.0098.0012.0196.0018.0294.0018.137 0 .2498-.1128.2498-.2498 0-.0184-.0021-.0367-.0061-.0547Z"/>
  <path fill="url(#b)" d="m37.7417 42.7268 8.387 2.6608c.0243.0077.0497.0115.0752.0115.1122 0 .2116-.075.2423-.1829 2.8828-10.5055-1.5599-21.7318-10.851-27.4196-.0092-.0049-.0194-.0075-.0299-.0075-.0348 0-.0635.0287-.0635.0636 0 .0161.0062.0317.0172.0434 6.7552 6.4136 7.6618 16.9813 2.0978 24.4517-.0483.065-.0617.1498-.036.2265.0264.0735.0862.1301.1609.1525Z"/>
  <path fill="url(#c)" d="M7.4856 32.1043.986899 38.0315c-.0517.0447-.0817.1095-.082647.1778-.001253.0678.024747.1334.072047.1821C8.6331 46.1453 20.5811 47.9127 30.1549 42.7076c.0291-.015.0413-.0508.0275-.0804-.0117-.0291-.0439-.0448-.074-.036-8.9325 2.6457-18.5398-1.8532-22.2269-10.4086-.0306-.0744-.0968-.1286-.1757-.1439-.0798-.0184-.1635.0066-.2202.0656Z"/>
  <path fill="#FAA61A" fill-rule="evenodd" d="M24.2645 20.0034c4.79-.7809 9.3128 2.4739 10.0938 7.2639.7809 4.7899-2.4739 9.3128-7.2638 10.0937-4.79.781-9.3129-2.4738-10.0938-7.2638-.781-4.7899 2.4738-9.3128 7.2638-10.0938Z" clip-rule="evenodd"/>
  <path fill="url(#d)" fill-rule="evenodd" d="M33.2944 25.8628c-1.5534-4.2038-6.2275-6.3557-10.4314-4.8023s-6.3557 6.2276-4.8023 10.4314c1.5534 4.2039 6.2275 6.3557 10.4314 4.8023 4.2038-1.5534 6.3557-6.2275 4.8023-10.4314Z" clip-rule="evenodd"/>
  <defs>
    <radialGradient id="a" cx="0" cy="0" r="1" gradientTransform="matrix(12.5 -6.5 7.0084 13.47771 18.5 12.0002)" gradientUnits="userSpaceOnUse">
      <stop stop-color="#EC008C" stop-opacity=".407843"/>
      <stop offset="1" stop-color="#621A4F"/>
    </radialGradient>
    <radialGradient id="b" cx="0" cy="0" r="1" gradientTransform="matrix(-.5 -10.5 55.13592 -2.62551 46 33.9999)" gradientUnits="userSpaceOnUse">
      <stop stop-color="#EC008C" stop-opacity=".407843"/>
      <stop offset="1" stop-color="#621A4F"/>
    </radialGradient>
    <radialGradient id="c" cx="0" cy="0" r="1" gradientTransform="matrix(11.5 4 -3.76419 10.82204 13 43.4998)" gradientUnits="userSpaceOnUse">
      <stop stop-color="#EC008C" stop-opacity=".407843"/>
      <stop offset="1" stop-color="#621A4F"/>
    </radialGradient>
    <radialGradient id="d" cx="0" cy="0" r="1" gradientTransform="rotate(180 10.9852 12.21095) scale(11.9031)" gradientUnits="userSpaceOnUse">
      <stop stop-color="#FFE293"/>
      <stop offset="1" stop-color="#FAA61A"/>
    </radialGradient>
  </defs>
</svg>
