<svg xmlns="http://www.w3.org/2000/svg" fill="none" viewBox="0 0 48 48">
  <path fill="#007D3D" d="M9.29032 7.4184H36L27.8197 0H2.83491C.478179 0 0 3.30658 0 3.30658V26.8124S.631878 38 16.0361 38c15.4041 0 13.5256-10.3995 13.5256-10.3995s-1.4175 6.3048-9.9052 6.3048c-8.4876 0-10.36618-7.247-10.36618-7.247V7.4184Z"/>
  <path fill="#007D3D" d="M36.7097 40.5816H10L18.1803 48h24.9848C45.5218 48 46 44.6934 46 44.6934V21.2047S45.3681 10 29.9639 10c-15.4041 0-13.5256 10.3995-13.5256 10.3995s1.4175-6.3048 9.9052-6.3048c8.4876 0 10.3662 7.247 10.3662 7.247v19.2399Z"/>
  <path fill="#FFF400" d="M23.4049 32.8231c4.8985 0 8.8695-3.9811 8.8695-8.892 0-4.911-3.971-8.892-8.8695-8.892s-8.8695 3.981-8.8695 8.892c0 4.9109 3.971 8.892 8.8695 8.892Z"/>
</svg>
