<svg xmlns="http://www.w3.org/2000/svg" fill="none" viewBox="0 0 48 48">
  <path fill="#000" d="M31.2787 7.40398c0 4.07802-3.2476 7.40402-7.2295 7.40402-3.982 0-7.2295-3.326-7.2295-7.40402C16.8197 3.32594 20.0672 0 24.0492 0c3.9819 0 7.2295 3.32594 7.2295 7.40398ZM16.7213 16.571c0 3.0236-2.4082 5.4899-5.3605 5.4899C8.40821 22.0609 6 19.5946 6 16.571c0-3.0239 2.40821-5.4902 5.3608-5.4902 2.9523 0 5.3605 2.4663 5.3605 5.4902ZM42 16.6717c0 3.0236-2.408 5.4899-5.3605 5.4899-2.9526 0-5.3608-2.4663-5.3608-5.4899 0-3.0239 2.4082-5.4902 5.3608-5.4902 2.9525 0 5.3605 2.4663 5.3605 5.4902ZM24.0492 29.4145c2.9526 0 5.3605-2.4663 5.3605-5.4899 0-3.0238-2.4079-5.4902-5.3605-5.4902s-5.3606 2.4664-5.3606 5.4902c0 3.0236 2.408 5.4899 5.3606 5.4899ZM13.2295 33.041c1.9232 0 3.4918-1.6065 3.4918-3.5761 0-1.9697-1.5686-3.5761-3.4918-3.5761s-3.49184 1.6064-3.49184 3.5761c0 1.9696 1.56864 3.5761 3.49184 3.5761Zm25.1803-3.5761c0 1.9696-1.5686 3.5761-3.4916 3.5761-1.9232 0-3.4918-1.6065-3.4918-3.5761 0-1.9697 1.5686-3.5761 3.4918-3.5761 1.923 0 3.4916 1.6064 3.4916 3.5761ZM24 40.4953c1.9232 0 3.4918-1.6064 3.4918-3.5761 0-1.9697-1.5686-3.5761-3.4918-3.5761s-3.4918 1.6064-3.4918 3.5761c0 1.9697 1.5686 3.5761 3.4918 3.5761Zm-7.082 1.9642c0 1.0264-.8173 1.8637-1.8195 1.8637-1.0023 0-1.8198-.8373-1.8198-1.8637 0-1.0264.8175-1.8635 1.8198-1.8635 1.0022 0 1.8195.8371 1.8195 1.8635Zm16.2296 1.8637c1.0022 0 1.8196-.8373 1.8196-1.8637 0-1.0264-.8174-1.8635-1.8196-1.8635-1.0022 0-1.8195.8371-1.8195 1.8635s.8173 1.8637 1.8195 1.8637Zm-7.2295 1.8131c0 1.0264-.8176 1.8637-1.8198 1.8637-1.0022 0-1.8195-.8373-1.8195-1.8637 0-1.0264.8173-1.8635 1.8195-1.8635 1.0022 0 1.8198.8371 1.8198 1.8635Z"/>
</svg>
