<svg xmlns="http://www.w3.org/2000/svg" fill="none" viewBox="0 0 48 48">
  <path fill="#029A4C" d="m24.0562 0 5.2952 5.30122L16.07 18.6517c-3.9038 3.9258-10.55807 2.3042-13.08072-3.4254.17207.0154.34384.0315.51524.0475 2.46171.2306 4.84522.4538 6.89078-1.6315L24.0562 0Z"/>
  <path fill="#029A4C" d="M5.29521 18.7098 0 24.0118l13.6269 13.6756c2.0833 2.049 1.8599 4.4357 1.6292 6.8997-.016.1711-.0321.3426-.0474.5143 5.7239-2.5247 7.3436-9.1858 3.4219-13.0951L5.29521 18.7098Z"/>
  <path fill="#029A4C" d="M18.6822 42.6992 23.9782 48l13.6597-13.6419c2.0469-2.086 4.4313-1.8623 6.8929-1.6314.1706.016.3415.0321.5127.0474-2.5214-5.73-9.1758-7.3516-13.0803-3.4258l-13.281 13.3509Z"/>
  <path fill="#029A4C" d="M42.7048 29.2786 48 23.9766 34.3731 10.3014c-2.0831-2.04874-1.8599-4.43554-1.6296-6.89895.016-.17134.0321-.34306.0474-.51506-5.7231 2.52431-7.3428 9.18621-3.4215 13.09511l13.3354 13.2961Z"/>
  <path fill="#EB8C30" fill-rule="evenodd" d="M16.5 24.0016c0-4.1417 3.3583-7.5016 7.5006-7.5016 4.1407 0 7.4994 3.3599 7.4994 7.5016 0 4.1427-3.3587 7.4984-7.4998 7.4984-4.1419 0-7.5002-3.3576-7.5002-7.4984Z" clip-rule="evenodd"/>
</svg>
