<svg xmlns="http://www.w3.org/2000/svg" fill="none" viewBox="0 0 48 48">
  <path fill="#000" fill-rule="evenodd" d="M24.4049 32.823c-4.8985 0-8.8695-3.9811-8.8695-8.892 0-2.0629.7007-3.9617 1.8764-5.4702C17.7176 15.4518 19.8106 10 30.9639 10 46.3681 10 47 21.2047 47 21.2047v23.4887S46.5218 48 44.1651 48H19.1803L11 40.5816h26.7097V21.3417s-1.8786-7.247-10.3662-7.247c-2.7919 0-4.8188.6821-6.2819 1.5976 1.0318-.4212 2.1605-.6533 3.3433-.6533 4.8985 0 8.8695 3.9811 8.8695 8.892 0 2.5689-1.0866 4.8833-2.8241 6.5066C29.8136 33.5168 27.1501 38 17.0361 38 1.63188 38 1 26.8124 1 26.8124V3.30658S1.47818 0 3.83491 0H28.8197L37 7.4184H10.2903v19.2399s1.8786 7.247 10.3662 7.247c2.5072 0 4.3974-.5501 5.8164-1.3253-.6635.1589-1.356.243-2.068.243Z" clip-rule="evenodd"/>
</svg>
