<svg xmlns="http://www.w3.org/2000/svg" fill="none" viewBox="0 0 48 48">
  <path fill="#000" d="M29.3514 5.30122 24.0562 0 10.3953 13.6423c-2.04556 2.0853-4.42907 1.8621-6.89078 1.6315-.1714-.016-.34317-.0321-.51524-.0475 2.52265 5.7296 9.17692 7.3512 13.08072 3.4254L29.3514 5.30122Z"/>
  <path fill="#000" d="M5.29521 18.7098 18.6306 32.0063c3.9217 3.9093 2.302 10.5704-3.4219 13.0951.0153-.1717.0314-.3432.0474-.5143.2307-2.464.4541-4.8507-1.6292-6.8997L0 24.0118l5.29521-5.302Z"/>
  <path fill="#000" d="m23.9782 48-5.296-5.3008 13.281-13.3509c3.9045-3.9258 10.5589-2.3042 13.0803 3.4258-.1712-.0153-.3421-.0314-.5127-.0474-2.4616-.2309-4.846-.4546-6.8929 1.6314L23.9782 48Z"/>
  <path fill="#000" d="m48 23.9766-5.2952 5.302-13.3354-13.2961c-3.9213-3.9089-2.3016-10.5708 3.4215-13.09511-.0153.172-.0314.34372-.0474.51506-.2303 2.46341-.4535 4.85021 1.6296 6.89895L48 23.9766ZM24.0006 16.5c-4.1423 0-7.5006 3.3599-7.5006 7.5016 0 4.1408 3.3583 7.4984 7.5002 7.4984 4.1411 0 7.4998-3.3557 7.4998-7.4984 0-4.1417-3.3587-7.5016-7.4994-7.5016Z"/>
</svg>
