<svg xmlns="http://www.w3.org/2000/svg" fill="none" viewBox="0 0 48 48">
  <path fill="#000" fill-rule="evenodd" d="M37.1744 37.7056c-3.3117 3.1862-7.7329 4.9678-12.3285 4.9678-7.339 0-13.957-4.5436-16.59398-11.3925-.0501-.1353-.166-.236-.3069-.2667-.1399-.0355-.2886.0029-.3938.1016L.142316 37.877c-.0878997.0782-.1392997.1895-.1418997.307-.0052.1172.0385.2316.1206997.3154C4.88082 43.5251 11.506 46.3755 18.4279 46.3755c7.6568 0 14.9111-3.4878 19.6927-9.468.0095-.0112.0147-.0255.0147-.0402 0-.0342-.0281-.0623-.0623-.0623-.0183 0-.0358.0081-.0476.0221-.2724.2963-.5561.5892-.851.8785Zm-9.4263-23.4928c7.5848 2.1926 12.8434 9.1867 12.8434 17.0821 0 4.0675-1.3957 8.0144-3.9527 11.1778-.0927.1111-.1223.2623-.0783.4001.0394.139.1474.2485.2858.29l9.5597 3.0334c.0423.0133.0864.02.1307.02.1929 0 .3641-.1274.4197-.3121.6921-2.3305 1.0436-4.7489 1.0436-7.18 0-12.4076-9.1564-23.0643-21.4225-24.9326-.0312-.0054-.0617.014-.0699.0445-.0015.0054-.0022.011-.0022.0165 0 .0293.0203.055.0488.0618.4008.0847.7987.1842 1.1939.2985Zm-3.4836 5.7906c4.79-.7809 9.3128 2.4739 10.0938 7.2638.7809 4.79-2.4739 9.3129-7.2638 10.0938-4.79.781-9.3129-2.4738-10.0938-7.2638-.781-4.79 2.4738-9.3128 7.2638-10.0938ZM12.1173 34.1239c-.3448-1.3955-.5191-2.8277-.5191-4.2652 0-9.7547 8.0268-17.7815 17.7815-17.7815.9245 0 1.8476.0721 2.7608.2156.0213.0031.0428.0047.0642.0047.2416 0 .4403-.1987.4403-.4403 0-.03-.003-.06-.0091-.0894L30.483 1.97319c-.024-.1147-.0945-.2144-.1947-.2752-.0989-.0641-.2202-.0841-.3345-.0551-11.3082 2.7028-19.351 12.89431-19.351 24.52111 0 3.1407.5869 6.254 1.7304 9.1792.0117.0292.0435.0456.0741.0381.027-.007.046-.0316.046-.0595 0-.0071-.0012-.0142-.0037-.021-.1228-.3852-.235-.7811-.3323-1.1769Z" clip-rule="evenodd"/>
</svg>
