<svg xmlns="http://www.w3.org/2000/svg" fill="none" viewBox="0 0 48 48">
  <path fill="#000" fill-rule="evenodd" d="M24.0381 2.93737c2.4431 0 4.426 2.00359 4.426 4.47516 0 2.47183-1.9831 4.47547-4.426 4.47547-2.4469 0-4.4301-2.00364-4.4301-4.47547 0-2.47157 1.9832-4.47516 4.4301-4.47516ZM34.3442 0c2.4475 0 4.4293 2.00386 4.4293 4.47543.0002 2.47183-1.9818 4.47569-4.4295 4.47569-2.4435 0-4.4266-2.00386-4.4266-4.47569C29.9174 2.00386 31.9008 0 34.3442 0ZM14.593 7.51631c2.4459 0 4.4284 2.0044 4.4284 4.47709 0 2.471-1.9825 4.4751-4.4284 4.4751-2.4455 0-4.4284-2.0041-4.4284-4.4751 0-2.47269 1.9829-4.47709 4.4284-4.47709Zm9.3499 27.99659.0676-7.0719c.2933-.0141 3.2458-.1303 5.0608.7845.6646.3346.733.766.7319 1.2226-.0011 2.1231-5.7359 5.1545-6.2997 5.442C16.2413 39.5957 6 40.2257 6 40.2257L6.09625 48c4.38175-.6073 12.28715-1.5009 21.82705-6.6695 4.7185-2.5567 9.8252-6.7652 8.8727-12.789-.9204-5.8113-7.0067-7.4488-12.7384-7.1979l-.0675 7.0722c-.2904.0144-3.2448.1309-5.0601-.7836-.6649-.3347-.7319-.7658-.7319-1.223.0006-2.1233 5.7349-5.1547 6.2992-5.4414C31.7603 17.2614 42 16.6314 42 16.6314l-.096-7.77458c-4.3831.60861-12.2874 1.50148-21.8265 6.66978-4.7193 2.5564-9.8244 6.7652-8.8711 12.789.9201 5.8126 7.0065 7.4488 12.7365 7.1973Z" clip-rule="evenodd"/>
</svg>
