<svg xmlns="http://www.w3.org/2000/svg" fill="none" viewBox="0 0 48 48">
  <path fill="#000" d="M24.5493 39.0123c-.0107-.0073-.0203-.0114-.029-.012l-.0016-.0001c-.0082.0001-.0167.0064-.0255.0188l-.3046.5154c-.0067.0118-.01.0202-.01.0253 0 .0052.0033.0128.01.0231.0534.0367.1025.0761.1473.1179.0448.0418.0905.0833.1372.1244.0024.002.0049.0038.0075.0054.0033.0021.0069.004.0106.0056.0059.0026.0128.0033.024.0012.0094-.0022.0208-.0078.0341-.0166.0134-.0088.0288-.0235.0462-.044.028-.0294.0537-.0606.077-.0937.0234-.033.0466-.0686.0692-.1068.0281-.0469.0478-.0925.0592-.1365.0113-.0441.0117-.0867.001-.1278-.0067-.0353-.0188-.0672-.0361-.0958-.0174-.0287-.0374-.0555-.0601-.0804-.0227-.025-.0478-.0474-.0752-.0672-.0274-.0198-.0544-.0385-.0812-.0562Zm12.8741-.1173c-.0114-.0078-.0221-.0122-.032-.013-.01-.0007-.0199.0067-.03.0225l-.3418.5764c-.0071.0143-.011.0249-.0117.0319-.0007.0071.0039.0146.0139.0225.0598.0409.1146.0851.1645.1322.0498.0473.1004.0938.1516.1395.0072.0094.0186.0113.0342.0059.0157-.0055.0321-.0146.0492-.0272.0171-.0126.0334-.026.0491-.0401.0157-.0143.0271-.026.0342-.0355.0242-.0268.0474-.0547.0694-.0839.0221-.0291.0431-.0618.0631-.098.0327-.0536.0551-.1048.0673-.1536.0121-.0488.0124-.0961.001-.1417-.0086-.0394-.0224-.0753-.0416-.1075-.0193-.0323-.0416-.0622-.0673-.0898-.0256-.0275-.0534-.0531-.0833-.0768-.0299-.0236-.0599-.0449-.0898-.0638Z"/>
  <path fill="#000" d="M24.8276 38.167c-.0114-.0074-.0217-.0115-.0309-.0122l-.0017-.0001c-.0087.0002-.0178.0064-.027.0189l-.2693.429-.003-.0233-.0121-.0419c-.0013-.0044-.0029-.0088-.0049-.0131-.002-.0044-.0043-.0088-.0071-.0133-.0119-.0249-.024-.0455-.036-.0616l-.012-.0155-.0341-.0396-.0442-.0397-.0319-.0264-.0402-.0287-.0401-.0241-.006-.0044-.004-.0023c-.0107-.0029-.0187-.0014-.03.0111l-.006.0087-.3067.5133c-.0067.0117-.01.0209-.01.0275 0 .0066.004.0136.012.0209l.0422.0298c.0133.0096.0266.0202.04.0319l.014.0132.0301.0251.0301.0267c.02.0184.0393.0363.058.054l.0201.0176c.0107.0117.0221.022.0341.0308l.014.0132c.0081.0089.0174.0133.0281.0133.0066.0014.0153 0 .026-.0044.0027-.0015.005-.0026.0071-.0034.002-.0007.0043-.0025.0069-.0055l.0236-.0176.0306-.0308c.0053-.0059.0103-.011.015-.0155.0047-.0044.009-.0094.0131-.0154l.0239-.0286.0321-.044.0141-.0221c.004-.0044.0086-.011.014-.0198l.0111-.0165.0159-.0286c.0014-.0026.003-.0049.0047-.0071.0008-.001.0016-.002.0024-.0029l.0241-.0418.016-.0353.0024-.008c.0447.0306.0862.0629.1248.0968.0476.0418.0961.0833.1458.1244.0057.0044.012.0081.0192.0111.0062.0025.0134.0031.0255.001.0099-.0021.0219-.0077.0362-.0165.0141-.0088.0304-.0235.0488-.044.0298-.0294.0572-.0606.082-.0936.0248-.033.0493-.0687.0734-.1069.0298-.047.0507-.0925.0628-.1365.012-.0441.0124-.0867.001-.1278-.007-.0353-.0198-.0672-.0383-.0958-.0184-.0287-.0397-.0554-.0638-.0804-.0241-.025-.0507-.0474-.0798-.0672-.029-.0198-.0578-.0386-.0861-.0561Zm3.2463-3.9465c.0094-.0496.0102-.0818.0023-.0968-.0141-.0091-.0266-.0038-.0376.0157-.0517.1097-.0936.2061-.1257.2895-.0321.0834-.07.1783-.1138.285-.0393.0961-.069.2001-.0893.312-.0185.1017-.0455.3497-.0807.7437l-.0039.0121.0004.0275-.0075.0829c-.0094.0541-.036.1307-.0798.2298l-.2005.3846-.0062.0075c-.083.1637-.1245.3056-.1245.4257-.0016.1007.0199.1761.0646.2265.0446.0502.103.0882.175.1137.0298.0121.0689.024.1174.036.0486.0121.0956.0256.141.0406.0454.015.0842.0331.1162.0541.0321.021.0474.0466.0459.0766 0 .0661-.0302.1471-.0905.2433-.0603.0961-.146.1892-.2572.2794-.1112.09-.2388.1659-.3829.2275-.1927.0841-.3923.1261-.5989.1261-.2491 0-.4405-.0525-.5744-.1577-.1339-.1051-.2079-.247-.2221-.4257-.0171-.1697.0252-.4018.127-.6962.0453-.1321.1029-.2707.1725-.4157.0698-.1449.1391-.2879.208-.4291.0141-.0346.0231-.0586.027-.0721.0039-.0136.0035-.0225-.0035-.027-.0141-.006-.0306.0052-.0493.0338l-.0235.0383c-.0878.1472-.1735.3011-.2573.4617-.0838.1608-.1585.3252-.2243.4934-.0658.1683-.1198.3388-.1621.5115-.0422.1727-.0657.3446-.0704.5159 0 .0946.0133.1941.0399.2985.0266.1044.0752.2032.1457.2963.155.1832.382.277.6811.2815.2631 0 .4957-.0668.6977-.2004.1049-.0587.2021-.1315.2913-.2186.0892-.0872.1644-.1749.2254-.2635.1457-.1923.2596-.4187.3419-.6793.0822-.2606.1233-.4915.1233-.6928 0-.1337-.0383-.2253-.1151-.2748-.0235-.0181-.0834-.0436-.1797-.0766-.0963-.0331-.1621-.0609-.1973-.0834-.0347-.0222-.05-.0442-.0434-.0675.0125-.0421.0555-.1262.1291-.2524.0287-.0467.052-.0768.0699-.0905.0178.0443.0392.0865.064.1266.0893.1426.2208.2147.3946.2163.1629 0 .3196-.1082.4699-.3245.1205-.1772.2286-.2838.3241-.3199.0337-.0113.0827-.0119.1467-.0021l.013.0021c.0909.0165.1699-.0165.2373-.0991.0674-.0826.1167-.1717.148-.267.0313-.0954.0524-.164.0634-.2062.011-.042.0149-.072.0117-.09 0-.015-.0078-.0226-.0235-.0226-.0093 0-.0257.0181-.0492.0541-.0877.1262-.1339.1915-.1386.196-.038.0451-.117.0444-.2373-.0021l-.0118-.0046c-.05-.0015-.1072.0195-.1714.063-.0455.042-.1155.1025-.2102.1814-.0948.0789-.2064.1175-.3348.116-.3073 0-.4615-.1731-.4628-.5204 0-.0901.0134-.2362.0399-.4382.0267-.202.0619-.4051.1058-.6094Zm6.4462-.8781c.0064-.0665.006-.103-.009-.1109l.0078.0014c-.0072-.0065-.0163.0024-.0275.0267-.0637.1721-.1263.3605-.1875.565l-.0013.0044c-.0606.2019-.0979.3262-.1019.4978-.004.173-.006.3154-.006.4274-.0016.0779-.0056.1489-.012.2131-.0063.0641-.0151.1237-.0262.1789-.0223.0731-.0566.1332-.1028.1802-.0621.0633-.1385.095-.2293.095-.1035 0-.1728-.035-.2078-.1048-.0362-.0629-.0553-.2184-.0571-.4661.0014-.0694.0116-.1956.0308-.3788.0207-.198.0764-.4854.1672-.8619.0096-.0358.0104-.0625.0024-.0804-.0111-.0129-.0262-.0024-.0454.0317-.0175.0357-.0601.1339-.1278.2946-.0676.1607-.1182.2881-.1517.3823-.0191.0487-.0589.2577-.1195.627-.0276.1689-.0462.3233-.0554.4632-.0019.0085-.0036.0171-.0051.0257-.0024.0127-.0045.0255-.0063.0383-.0008.0547.0007.1069.0042.1567.0006.0776.0047.1496.0125.2158-.0064.0763-.033.1379-.08.185-.0441.0442-.0745.0719-.0944.0853-.0286.0341-.1242.045-.2867.0329-.1522-.0115-.2989-.0033-.4401.0246l-.0282.0058c-.0668.0244-.1369.0568-.2102.0974-.0732.0405-.1485.0917-.2257.1534-.0773.0617-.1561.1347-.2365.2191s-.1621.1826-.2449.2947c-.0541.0763-.1839.2637-.3893.5625-.2056.2986-.3763.5259-.5125.6818-.1362.1558-.2592.2795-.3692.3713-.1098.0917-.2348.1834-.375.2752-.1401.0916-.2341.1537-.2818.1862-.0367.0227-.051.0373-.0431.0438.0112.0163.0446.013.1004-.0097.0334-.0114.1103-.0446.2305-.0998.1203-.0552.2704-.14.4503-.2545.18-.1145.3365-.2395.4694-.375.1331-.1355.2732-.3044.4205-.5064.1473-.2021.2875-.3677.4204-.4968.1331-.129.266-.2244.399-.2861.1247-.0578.249-.0978.373-.12l.0247-.0042c.0255.0049.0575.0082.0957.0098.0382.0016.0804-.0025.1266-.0122.0239-.0033.0625-.0147.1158-.0341.0534-.0195.1195-.0719.1983-.1571.0789-.0851.1517-.1741.2186-.2666l.0176-.0181c.043-.0449.1001-.1079.1711-.1889.0531-.0604.0956-.1012.1277-.122.0668.0927.1445.139.2331.139.113 0 .223-.0689.3296-.2069.094-.1217.184-.2914.27-.5089.0446-.1234.0772-.2297.0979-.319.016-.0665.0335-.1533.0526-.2605.0287-.1623.043-.2914.043-.3872l.0339-.5911c0-.0861.0175-.2743.0526-.565Zm12.8284 1.8653c.01-.0466.0007-.0722-.0278-.0768-.0057 0-.0145.0094-.0267.0282-.0079.0124-.0167.026-.0264.041-.0052.008-.0106.0164-.0164.0252-.0163.0252-.0334.0501-.0511.0744-.0179.0245-.0353.0406-.0524.0484-.01.0048-.0239.0072-.0417.0072s-.0384.0008-.0619.0023c-.0235.0016-.0499.0048-.0791.0095-.0292.0047-.0609.0126-.095.0236-.0328.0126-.0645.0307-.0951.0544-.0306.0236-.0606.0512-.0897.0826-.0292.0315-.0566.0654-.0823.1016-.0256.0362-.0491.0725-.0705.1087-.0484.0835-.0954.1547-.141.2138-.0455.059-.084.0949-.1154.1075-.0327.0094-.078.0157-.1357.0189-.0577.0031-.1217.0079-.1922.0142-.0705.0063-.1453.0162-.2244.0295-.0789.0134-.1562.0342-.2318.0626-.0597.0237-.1224.0552-.1879.0945-.0655.0394-.1329.0886-.2019.1477-.0691.059-.1395.1295-.2115.2114-.072.0819-.1449.1772-.219.2859-.0485.074-.1645.2559-.3483.5457-.1836.2898-.3364.5104-.4582.6615-.1218.1512-.2318.2713-.3301.3603-.0982.089-.2101.178-.3354.2669-.1253.089-.2093.1493-.252.1808-.0329.0221-.0457.0362-.0385.0425.0099.0158.0398.0126.0897-.0094.03-.011.0986-.0433.2062-.0969.1075-.0536.2417-.1359.4027-.2469.161-.111.3009-.2323.4198-.3638s.2443-.2953.376-.4914c.1318-.1961.2571-.3567.376-.4819.1189-.1252.2375-.2178.3557-.2777.1167-.0582.2335-.0976.3503-.1181l.0759-.0117c.0306-.0048.063-.0091.0972-.0131.0342-.0039.0677-.0075.1004-.0106.0327-.0032.062-.0047.0876-.0047.0399-.0142.0808-.039.1229-.0745.042-.0354.0833-.0755.1238-.1204.0406-.0449.0791-.091.1154-.1382.0363-.0473.068-.0907.0951-.13.0712-.1071.1338-.1988.188-.2753.0541-.0764.1047-.1437.1516-.2019.0485-.0598.1034-.102.1646-.1264.0612-.0244.1261-.0406.1944-.0484.0129 0 .0299-.0087.0512-.026.0214-.0174.0445-.041.0695-.0709.0249-.0299.0502-.0646.0758-.104.0257-.0393.0492-.081.0706-.1252.0427-.0913.069-.1602.079-.2066Zm-19.3048 2.9622c-.0152-.0106-.0296-.0202-.0463-.0286-.0056-.0028-.0109-.0047-.016-.0046-.0051.0001-.0101.0022-.0151.0073-.0041.0041-.0065.0082-.0092.0127-.0541.0904-.1082.1808-.1624.2711-.0485.0809-.097.1618-.1456.2427-.0046.0079-.0112.0191-.0099.0287.0024.017.0204.0258.0322.0346.0069.0051.0138.0103.0205.0156.0263.0203.0515.0417.0768.0631.0053.0045.0107.0091.0161.0136.0227.0193.0444.0396.0661.0599.0134.0126.0268.0252.0405.0376.0217.0195.0218.0189.0436.038.0074.0065.0139.0119.0243.013.0303.0032.0581-.0188.0784-.0395.0545-.0558.1016-.1165.1428-.183.0032-.0051.0065-.0103.0099-.0156.0135-.0213.0277-.0438.0385-.066l.0061-.0103.004-.0095.0005-.0026.0166.0119c.0559.0411.107.0867.1586.1326.0096.0086.0192.0171.0289.0257.0074.0066.015.0137.0226.021.0191.0181.039.037.0604.0497.0415.0247.0883-.0204.1143-.049.0089-.0098.0088-.0095.0179-.0192l.0319-.0357c.0102-.0122.0202-.0247.0297-.0374.023-.0304.0444-.0622.065-.0945.0425-.067.0839-.1413.0898-.2221.004-.0532-.0095-.1109-.0332-.1586-.0439-.0883-.1203-.1523-.2005-.2064l-.0214-.0144c-.0023-.0014-.0048-.0033-.0077-.0053-.0146-.0105-.0365-.0262-.0531-.02-.0088.0033-.015.0111-.0205.0182l-.2656.4473c0 .0392-.0048.0797-.0182.1169l-.0064.0203-.0091.019.0329-.1637-.0012-.0123c-.0048-.0127-.0052-.0277-.0082-.0409-.0092-.0401-.032-.0807-.0563-.1135-.0239-.0324-.0514-.0606-.0817-.0871-.0136-.012-.0253-.0215-.041-.0331-.0076-.0054-.0153-.0106-.0231-.0158-.0057-.0039-.0115-.0078-.0172-.0118Zm9.0725-3.0781c.007-.0455.0056-.073-.014-.0836l.0097.0013c-.0033-.0021-.0066-.0026-.0097-.0013-.0063.0024-.0123.0115-.0179.0272l-.2022.6989c-.0099.0439-.0238.1196-.0416.2271-.0177.1074-.0401.2874-.067.5401l-.0118.1112-.0095.0346c0 .0169.0003.0336.0009.0501-.0144.141-.0229.235-.0254.2818-.0035.0659-.0095.1199-.018.1623-.0227.0863-.0674.1624-.1341.2283-.0639.0612-.1345.0858-.2117.0741-.0774-.0117-.1288-.0223-.1544-.0317-.0511-.0158-.0908-.0236-.1192-.0236-.0722 0-.1517.0236-.2396.0722l-.0008-.0016c-.1277.08-.2398.1828-.3363.3083-.0965.1255-.1588.2236-.1873.2941-.0226.0596-.0265.0957-.0116.1083.0149.0125.0308.0118.0478-.0024.149-.1003.3114-.1427.4883-.1289l.0013.0019c.0439.0094.1042.0219.1808.0376.0766.0157.1617 0 .2554-.047.0837-.0424.1724-.113.266-.2119.0738-.0925.1362-.1953.1873-.3083.0809-.1882.127-.2823.1383-.2823.005 0 .0098-.0023.0146-.0068.0799.1255.3366.1892.4811.1907.1475 0 .2893-.113.4255-.3389.1093-.1851.2072-.2965.2937-.3341.0307-.0118.075-.0126.1329-.0022l.0119.0022c.0397.0188.0801.0231.1213.0128.0411-.0101.0815-.0277.1213-.0529.0397-.0251.078-.0537.1149-.0858.0192-.0168.0374-.0326.0547-.0474.016-.0137.0311-.0265.0454-.0386.0269-.0015.0559-.0097.0872-.0246.0312-.0149.061-.0333.0893-.0553.0284-.022.0551-.0459.0799-.0718.0248-.0259.0457-.0506.0627-.0741.0681-.0361.1249-.084.1703-.1436.0454-.0596.0833-.1259.1139-.1988.0304-.073.0549-.1499.0734-.2307.0184-.0808.0354-.1604.051-.2388-.0013-.022-.0106-.0354-.0276-.04-.0171-.0047-.0298.0039-.0383.0258-.0114.0267-.0221.057-.032.0907-.0099.0337-.0212.0666-.034.0988-.0128.0321-.0273.0611-.0436.087-.0164.0259-.0358.0443-.0586.0553-.0113.0063-.0248.0106-.0404.013-.0155.0024-.0283-.0035-.0383-.0177-.007-.0031-.0134-.0019-.0192.0036-.0056.0055-.0134.0192-.0234.0411-.0113.0283-.0216.055-.0308.0801-.0092.0251-.0203.0474-.033.067-.0128.0197-.0291.0369-.049.0518-.0198.0149-.0461.0255-.0787.0318-.0298.0047-.0539.0015-.0724-.0094-.0127-.0031-.0216-.004-.0266-.0024-.0049.0016-.011.0047-.018.0094-.0313.0534-.0625.1012-.0936.1435-.0313.0424-.0618.0762-.0916.1013-.0284.0204-.0543.0341-.0777.0411-.0234.0071-.0478.0082-.0734.0036-.0199-.0032-.0386-.009-.0564-.0177-.0177-.0086-.0343-.0176-.05-.027-.0098-.006-.0192-.0116-.0282-.0169-.0053-.0031-.0105-.0061-.0155-.009-.0117-.0069-.0221-.0119-.035-.0165-.0455-.0016-.0972.0204-.1554.0659-.0412.0439-.1047.1071-.1904.1894-.0859.0824-.187.1228-.3034.1212-.2711 0-.5551-.1719-.5634-.515.0014-.0386.0031-.0764.0051-.1137.0021-.0391.0114-.1724.0276-.3999.0164-.2275.0352-.4056.0565-.5343Z"/>
  <path fill="#000" fill-rule="evenodd" d="M16.2809 34.0655c.2967-.4009.3147-.641.2265-.5953-.0456.0719-.2111.2257-.4444.4426-.2778.258-.6515.6053-1.0335 1.0101-.5102.5408-.8799.8995-1.0795 1.0931-.0309.03-.0576.056-.0803.0781l-.0648.0647c.0115-.1235.0299-.3043.0552-.5424.0299-.2811.0627-.5524.0983-.8139-.0056-.0456-.0185-.0511-.0384-.0165-.03.0772-.0588.1552-.0865.2339-.0278.0788-.0538.1567-.078.2339-.0214.0929-.0435.215-.0662.3662-.0228.1512-.0431.2941-.0609.4288-.0178.1346-.0442.3579-.0791.6697-.0091.0814-.017.1542-.0237.2184l-.003.0274c-.0025.0239-.0049.0485-.0073.0737-.0109.1103-.0169.1855-.0181.2254l-.0003.0127c0 .2504.0364.4394.109.567.0698.1339.1774.2009.3226.2009.0926 0 .1802-.0308.2628-.0922.0798-.0614.1517-.1425.2158-.2433.0868-.1466.1645-.3324.2328-.5576.0627-.2079.094-.4087.094-.6025 0-.1842-.0548-.3142-.1644-.3897-.0684-.0489-.1624-.0733-.2821-.0733-.0171 0-.0512.0023-.1025.0071.584-.5967 1.0485-1.0182 1.399-1.3362.3349-.3039.5657-.5133.697-.6908Zm-2.3909 2.757c.077-.0567.1553-.0851.2351-.0851.0855-.0078.1687.0158.2499.0709.0826.0536.124.1268.124.2198 0 .0897-.0371.159-.1112.2079-.0769.0551-.1729.0826-.2883.0826-.0941 0-.171-.0283-.2308-.085-.064-.052-.0961-.1252-.0961-.2198 0-.0708.0391-.1346.1174-.1913Z" clip-rule="evenodd"/>
  <path fill="#000" d="M20.9799 35.4244c-.1405-.0568-.2494-.0851-.3265-.0851-.1059 0-.1901.0236-.2529.0708-.0627.0473-.1153.1103-.1577.189-.0301.0536-.057.1122-.0805.176-.0234.0638-.026.0974-.0079.1005.0137.0047.0303-.0087.0499-.0402.0393-.0709.0794-.1256.1202-.1642.0409-.0385.0975-.0578.1701-.0578.0409 0 .0839.007.1293.0212.0197.0063.0404.0138.0624.0224.0218.0087.0442.0161.0668.0225.056.0236.1021.0437.1384.0602.0363.0165.0703.0367.1021.0603-.0287.0378-.0772.0898-.1452.1559-.0302.0315-.1417.1347-.3345.3095-.1928.1748-.3803.2993-.5624.3733-.1823.074-.3006.111-.3563.113l-.001-.002c-.0105 0-.0257.0004-.0454.0012-.0196.0008-.0385.0004-.0566-.0012l.034-.0874c.003-.0141.0011-.0256-.0057-.0343-.0068-.0086-.0159-.0137-.0272-.0153-.0114-.0016-.0239.0012-.0374.0082-.0137.0071-.0257.0201-.0363.039-.0575.0819-.1599.1587-.3074.2304-.1473.0717-.3405.1398-.5794.2043-.1301.0362-.271.0685-.423.0969-.1519.0283-.4806.0668-.6506.0748-.1701.0078-.3383.0102-.5047.007-.5564-.0063-.9699-.0693-1.2406-.189-.1073-.0504-.1731-.1268-.1973-.2292-.0106-.0425-.0189-.0835-.0249-.1228-.0076-.0362-.0155-.0618-.0238-.0768-.0083-.015-.017-.0213-.0261-.0189-.0091.0024-.0175.0115-.025.0272-.0076.0158-.0136.0362-.0182.0614l-.0203.1228c-.0182.1087-.0326.2174-.0432.3261-.0105.1087-.0158.1922-.0158.2504 0 .1497.0461.2678.1384.3544.1027.1118.2751.1874.517.2268.1383.022.3332.0331.5848.0332l.141-.0001c.1013-.0016.2106-.0063.3277-.0142.1172-.0079.2329-.0173.347-.0284.1142-.011.5456-.0869.696-.1207.1505-.0339.2979-.0804.4423-.1394.1444-.0591.2798-.1339.406-.2245.1263-.0905.2317-.2027.3163-.3366.0182-.0268.0334-.0481.0454-.0638.0121-.0158.0223-.0284.0307-.0379.0083-.0094.0143-.0157.0181-.0189.0037-.0031.0072-.0054.0102-.007.0091-.0063.02-.0114.0329-.0154.0129-.0039.0287-.0058.0476-.0058.0189 0 .0423.0023.0703.007.0141.0024.0299.0054.0475.0087.0172.0032.0361.0068.0569.0104l.0011.0021.2517.0757c.0635.011.2067-.0343.2762-.1005.0408-.0425.0801-.0818.118-.1181.0378-.0362.0733-.0709.1065-.1039l.5217-.5009c.0877-.0867.1558-.1513.2041-.1938.0726-.0693.1459-.1354.22-.1984l.1794-.1416c.0514-.0425.0847-.0855.0998-.1288.0151-.0433.0264-.0776.034-.1027.0075-.0253.0158-.0568.0249-.0946.0182-.0614.0137-.0827-.0135-.0638-.0304.0211-.0899.043-.1423.0623-.0261.0095-.0504.0185-.0684.0263-.059.0283-.1111.0425-.1565.0425-.0453 0-.1361-.03-.2722-.0897Zm23.5328-1.4926c-.0156-.0284-.0306-.0237-.0449.0141l-.1131.371-.1261.5221-.0043.7725c0 .1339-.0064.2395-.0192.3166-.0128.0772-.0278.1379-.0449.1819-.0413.0977-.089.137-.1431.1181-.0507-.0176-.1021-.0271-.1541-.0281l-.0104-.0002c-.1026.0236-.1866.0741-.2521.1512-.0328.0362-.0748.0925-.1261.1689-.0512.0764-.0797.117-.0854.1217-.0584.0661-.1378.1283-.2382.1866-.1004.0583-.2261.1118-.3771.1607-.2308.0787-.4259.1299-.5854.1536-.1595.0236-.3667.0417-.6216.0542-.255.0126-.6351.0167-.8402.0119-.2507-.0015-.4415-.0212-.5725-.059-.131-.0379-.2262-.0875-.2853-.1489-.059-.0614-.0936-.1464-.1036-.2551-.0157-.1087-.032-.1631-.0491-.1631-.027 0-.0513.0882-.0727.2646-.0241.1638-.0363.3245-.0363.482 0 .2456.0677.415.203.5079.0826.0614.2115.1.3867.1158.1538.0189.3176.0283.4913.0283.4658 0 1.0374-.0456 1.4149-.137.3831-.093.6758-.2228.878-.3898.0841-.0614.156-.137.2158-.2268l.1559-.2528c.0542-.085.1069-.1512.1582-.1985.0527-.0519.1039-.0834.1538-.0944.0494-.0119.1076-.0182.1744-.0188l.0136-.0001c.0099.0078.0313.0126.0641.0141.0484 0 .1018-.0386.1602-.1158.057-.0755.1126-.1621.1666-.2598.0527-.0993.0941-.2016.124-.3072.0299-.1039.0534-.2315.0705-.3827.0156-.1354.032-.4394.0491-.9119.0057-.1056.0106-.2185.0149-.339.0043-.1205.0101-.232.0171-.3343 0-.0535-.0021-.085-.0064-.0945ZM12.135 36.4252c-.0029-.008-.0082-.0123-.0157-.013-.0075-.0008-.0127.0003-.0158.0035-.0074.0047-.0315.0354-.072.0922-.0539.0708-.1155.1311-.1845.1807-.069.0496-.1854.111-.349.1843-.1635.0731-.365.1378-.6043.1937-.2394.0558-.4791.0933-.7192.1122-.24008.0189-.45688.0283-.65046.0283-.55527-.0047-.96795-.0677-1.23803-.189-.10659-.0504-.17182-.1268-.19588-.2292-.01051-.0425-.01872-.0834-.02474-.1228-.00745-.0362-.01538-.0618-.02359-.0768-.00831-.015-.0169-.0212-.02588-.0189-.00908.0024-.01729.0115-.02483.0272-.00745.0158-.01347.0362-.01796.0614l-.02025.1229c-.01805.1086-.03228.2173-.04278.326-.01051.1087-.01576.1922-.01576.2504 0 .1497.04575.2678.13734.3544.10199.1119.27304.1874.51314.2268.14708.0237.35872.0354.63482.0354.23858 0 .48507-.0157.7394-.0472.25436-.0315.48956-.0775.70566-.1382.2161-.0606.4014-.1257.556-.1949.1546-.0693.2971-.152.4276-.2481.0916-.0693.1697-.1512.2341-.2457.0646-.0945.1224-.1949.1734-.3012.051-.1063.0871-.1965.1081-.2705.0134-.052.0172-.0867.0111-.1039Zm22.8583-1.2527c.0071-.0299.0014-.0449-.0171-.0449-.0114 0-.0264.0236-.0449.0709l-.2221.5788c-.0285.0804-.0499.1772-.0641.2906-.0143.1134-.025.2516-.0321.4147-.0071.1629-.0157.2854-.0256.3673-.0072.0866-.0157.1784-.0256.2752-.01.0969-.0214.1914-.0342.2836-.0129.092-.0274.1783-.0438.2586-.0164.0803-.0338.1473-.0524.2008-.0156.0568-.0185.085-.0085.085.0384-.0063.089-.0768.1517-.2114.0626-.1347.1175-.2811.1644-.4394.047-.1583.082-.3595.1047-.6036.0086-.0803.0164-.1709.0235-.2717.0072-.1008.0142-.2043.0214-.3107.0072-.1063.015-.2098.0235-.3107.0086-.1007.0171-.1913.0257-.2716.0056-.0458.0142-.1091.0256-.1902s.0214-.1382.0299-.1713Zm-11.7429.9129c-.0657-.0638-.1319-.1233-.1985-.1784-.0048-.0031-.0093-.0047-.0136-.0048-.0086-.0002-.0164.0057-.0232.0178-.0104.0182-.0218.0414-.0345.0697l-.1569.3497-.1118.2551c-.0031.0063-.0044.0126-.0036.0189.0009.0063.006.0135.0155.0213.122.0882.2275.1843.3162.2882.0888.1056.1268.1922.1141.2599-.0063.0567-.0606.1394-.1628.248-.1023.1087-.2294.219-.3817.3308-.057.0441-.1062.0819-.1473.1134-.019.0173-.0301.0319-.0333.0438-.0032.0117-.0032.0192 0 .0224.0111.0078.0309.0078.0594 0 .233-.0725.3848-.1252.4553-.1584.0706-.033.1252-.072.1641-.1168.0388-.0449.0741-.095.1057-.1501.0857-.1528.1534-.3004.2033-.4429.05-.1426.0749-.291.0749-.4454 0-.1323-.0238-.2398-.0713-.3225-.0476-.0827-.1042-.1559-.17-.2197Zm-10.046.0735c.0141-.0378.01-.0607-.0118-.0685-.0195-.0044-.0428.0201-.0698.0735-.0272.0534-.073.1558-.1379.3073-.0647.1514-.1297.2961-.1947.434-.065.1378-.1324.2444-.2021.3195-.0697.0752-.1706.1589-.3024.2515-.132.0925-.2459.1693-.3416.2304-.0958.0611-.16.1108-.1929.149-.0193.0244-.0266.0404-.022.0483.0046.0078.0174.014.0383.0186.0214.0014.0759-.0019.1634-.0101.0874-.0083.1979-.0286.3314-.0613.1334-.0326.2277-.0736.2829-.123.0553-.0494.1103-.1247.1651-.2258.0547-.1012.1209-.2496.1985-.4454.0776-.1957.1761-.4951.2956-.898Zm17.2343-.0524c-.0541-.0878-.1268-.1371-.2272-.1487l-.1895.1009c-.0709.0722-.1385.1654-.203.2798-.0645.1143-.1076.1983-.1295.252-.0218.0535-.0368.1003-.045.1405-.0102.0808.0111.1516.064.2126.0529.0611.1231.0987.2104.1129.0183.0049.0397.0076.0646.0082l.0413-.0006.0369-.0012.0791-.0101c.0253-.0051.0468-.011.0644-.0177-.0395.0962-.0992.1865-.1788.2709-.0798.0844-.1685.1607-.2662.2289-.0977.0681-.2204.1422-.3682.2224-.1477.08-.2161.1287-.2052.146-.0001.0016.009.0032.0276.0048l.2089-.017.0354-.006c.0817-.0143.1599-.0318.2344-.0523.0852-.0236.1519-.0516.1998-.0841.048-.0325.1077-.0971.1791-.1936.0714-.0967.1638-.2584.2771-.4852.0247-.0518.0484-.108.0708-.1689.0225-.0609.0397-.1108.0517-.1498.0119-.039.0233-.0881.034-.1476.0107-.0595.0171-.1194.0193-.1796-.0018-.121-.0306-.2269-.0862-.3175Zm-4.9404-.266c.0178-.06.0137-.094-.0121-.1021l-.0025-.0007c-.0258.0014-.0517.0211-.0778.0588-.026.0378-.049.0781-.0689.1209-.036.0909-.107.1619-.2132.2133-.0912.0414-.1697.084-.2353.1278-.0657.0438-.1187.0897-.1589.1375-.0389.048-.0735.0958-.1038.1435-.0302.0477-.0587.096-.0854.1448-.0269.0487-.0526.0982-.0773.1488-.0247.0504-.0518.1022-.0809.1556-.051.1024-.1372.1977-.2586.2861l-.0844.063c-.0263.0188-.0611.0426-.1043.0713l-.1679.1109c-.0686.0452-.1603.1042-.275.1772-.0565.0342-.0923.0693-.1076.1054-.0152.036-.0068.0607.0251.0738.0052.0016.0132.0026.0237.0032l.0114.0004c.0165.0003.0303 0 .0418-.0009l.395-.0474c.144-.0205.2551-.0707.3332-.1509.0561-.0499.1043-.115.1445-.1953.0402-.0802.0778-.1625.1126-.247.0349-.0846.0683-.1649.1005-.2408.0321-.076.0681-.1348.1079-.1764.0263-.0314.0589-.0604.0978-.0871.0389-.0266.0854-.05.1395-.0701.0526-.0187.1028-.0437.1505-.0753.0478-.0317.0915-.0666.1312-.1051.0398-.0415.0791-.0966.1179-.165.0387-.0685.0725-.1484.1013-.2396.0176-.0493.033-.0937.0463-.1331.0133-.0393.0245-.0746.0337-.1055Zm-3.3108-1.1879c.0055-.0292-.0009-.0434-.0195-.0423-.0113.0005-.025.0241-.041.0706l-.1917.5696c-.0242.0789-.0405.1734-.0488.2833-.0056.0734-.0089.1572-.0101.2516l-.0002.1495c.0013.1574-.0008.2758-.0065.3553-.0026.0838-.0063.1727-.0112.2665-.0049.0938-.0114.1854-.0194.2749-.0079.0894-.018.1733-.0302.2515-.0121.0783-.026.1437-.0418.1962-.0126.0555-.014.083-.004.0825.038-.0082.0848-.0788.1404-.212.0556-.133.1026-.277.1413-.432.0387-.155.063-.3507.073-.5871.0044-.0778.0074-.1655.0093-.263l.0027-.1482.0024-.1522c.0015-.1027.004-.2029.0073-.3005.0032-.0975.007-.1852.0114-.263.0033-.0444.0085-.1059.0157-.1847.0071-.0787.014-.1342.0209-.1665Zm-12.0173.726c-.0109-.0075-.0207-.0116-.0296-.0124l-.0017-.0001c-.0083.0002-.017.0066-.026.0193l-.24801.4223c-.00105-.0029-.00162-.0063-.00162-.0102-.00134-.0031-.00201-.0076-.00201-.0137-.00073-.0007-.00129-.002-.00165-.0038-.00029-.0014-.00045-.0031-.00045-.0051-.00133-.0031-.002-.0054-.002-.0069 0-.0015-.00067-.003-.00201-.0045l-.00621-.0204c-.00267-.009-.00544-.0158-.00811-.0204-.00554-.0151-.01299-.0302-.02254-.0453l-.01844-.0271-.02454-.0317c-.00697-.0076-.0139-.015-.02082-.0221-.00398-.004-.00796-.008-.01194-.0119-.01098-.0105-.02254-.0211-.03486-.0316l-.03276-.0261-.04087-.0282-.00411-.004-.00411-.0028c-.00277-.0016-.00544-.0031-.01227-.0082l-.00816-.004-.00411-.0037-.01433-.0068c-.00143-.0015-.00277-.0023-.0041-.0023l-.00411-.0022c-.01089-.003-.02111.0022-.03066.0158-.00143.0015-.0021.0031-.0021.0046l-.31316.5274c-.00688.0121-.01031.0212-.01031.0272 0 .006.00343.0128.01031.0203 0 .0016.00067.0023.00201.0023.02731.0196.05529.0415.08395.0656.00955.0076.0191.0159.02865.025l.04579.039.04322.0402c.02798.0272.05701.0535.087.0792.00822.0091.01777.0136.02865.0136h.01433l.01232-.0045c.01089-.0045.02388-.0136.03887-.0272l.01022-.009.02053-.0226c.00678-.0046.01223-.0107.01633-.0182l.01232-.0136c.00411-.003.00784-.0067.01127-.0113.00335-.0045.0065-.0083.00917-.0113 0-.0015.00134-.0038.00411-.0068l.03276-.0452c.0041-.0046.00888-.0114.01432-.0205.00277-.0029.00516-.0068.00717-.0112.0021-.0046.00448-.0084.00716-.0114l.01022-.0159.02454-.0407c0-.0015.00143-.0038.00411-.0067.00277-.0061.00621-.0118.01031-.017.00401-.0054.00745-.0118.01022-.0193l.01022-.0204.00024-.002.00129-.0021c.04221.031.08156.0636.11814.098.04565.0431.09242.0857.14022.1279.0054.0046.0115.0083.0184.0114.0059.0026.013.0032.0246.0011.0095-.0023.0212-.0079.0347-.017.0137-.0091.0294-.0242.0471-.0453.0288-.0301.055-.0622.0789-.0961.0239-.034.0474-.0706.0706-.1099.0286-.0483.0488-.095.0603-.1404.0117-.0452.0121-.089.0011-.1312-.0068-.0363-.0191-.069-.0369-.0984-.0177-.0296-.0382-.0571-.0614-.0828-.0232-.0256-.0487-.0486-.0767-.0689-.028-.0204-.0557-.0396-.083-.0578Z"/>
  <path fill="#000" d="M41.6892 35.3053c-.0144-.0107-.0376-.0279-.0536-.021-.0089.0039-.0149.0112-.0206.0189l-.2317.4063c0 .0418-.005.0854-.0192.1252l-.0069.0217-.0097.0205.0348-.1776-.0011-.0111c-.0022-.006-.0036-.0124-.0046-.0189-.0014-.0084-.0023-.0169-.0041-.0248-.0097-.0429-.034-.0864-.0597-.1217-.0255-.0348-.055-.0661-.0875-.0942-.0057-.0049-.0122-.0103-.0188-.0156-.0087-.0071-.0174-.0139-.024-.0189-.0214-.0164-.0462-.0363-.0705-.0481-.0041-.002-.0081-.0044-.012-.0067-.0149-.009-.0287-.0173-.0443-.0007l-.0078.0117c-.1088.1837-.2179.3671-.3268.5505-.0049.0081-.0107.0187-.0107.0284 0 .0158.0154.0264.0275.0347.0025.0016.0048.0032.0068.0047l.0218.0168c.028.0219.0549.0449.0819.0681l.0165.0141c.0246.0209.048.043.0714.0652.0139.0131.0277.0263.0419.0392.023.0209.0231.0202.0462.0407.0034.003.0066.0059.0101.0083.0034.0022.007.004.0115.005.0405.0089.0755-.0292.1011-.0571.0026-.0029.0052-.0056.0076-.0082.0437-.0464.0813-.0963.1156-.1506.016-.0251.034-.0498.0496-.0809l.0122.0088c.0554.0421.1061.0886.1571.1355.0101.0093.0203.0186.0305.0279.0122.0111.0245.0222.0368.0332.0027.0025.006.0057.0096.0093.0155.0155.0381.0381.0597.0384.0382.0006.0702-.0352.0939-.0618.0015-.0016.0029-.0032.0043-.0047.0032-.0035.0064-.0071.0097-.0106.0077-.0085.0155-.0169.0229-.0256.0105-.0124.0207-.025.0305-.038.0269-.0353.0513-.0727.0746-.1106.0428-.0694.084-.1461.0899-.2291.0036-.0506-.0078-.1047-.0276-.1513-.0411-.0962-.1224-.167-.2061-.2253l-.0216-.0149c-.002-.0013-.0044-.0031-.0071-.0051ZM17.458 35.165c-.0106-.0074-.0202-.0114-.0289-.0122l-.0017-.0001c-.0081.0002-.0165.0064-.0253.0189l-.247.4207v-.0014c-.0014-.0029-.002-.0066-.002-.0111-.0014-.0028-.002-.0073-.002-.0131-.0007-.0008-.0012-.002-.0016-.0035-.0003-.0014-.0004-.0032-.0004-.0054-.0014-.0029-.0021-.0051-.0041-.011l-.0059-.0199c-.0027-.0088-.0053-.0153-.008-.0198-.0053-.0147-.0126-.0295-.0219-.0441l-.0179-.0265-.024-.0309c-.0106-.0117-.0213-.0227-.0319-.033l-.0339-.031-.0319-.0253-.0399-.0276c-.0027-.0029-.0053-.0051-.016-.0109l-.0039-.0036-.008-.0039-.004-.0036-.014-.0066c-.0013-.0014-.0026-.0022-.004-.0022l-.004-.0022c-.0106-.003-.0205.0022-.0319.0199l-.305.5138c-.0067.0117-.0101.0206-.0101.0264 0 .006.0034.0125.012.0221.0266.0191.0538.0404.0818.064.0093.0073.0186.0154.0279.0242.0306.0251.0595.0508.0867.0772.0273.0265.0555.0522.0848.0772.008.0089.0173.0133.0279.0133h.014l.0119-.0044c.0107-.0045.0233-.0133.0379-.0266l.0101-.0088.0198-.022c.0067-.0044.0121-.0104.0161-.0177l.0119-.0132.0057-.005.0053-.0061c.0032-.0044.0063-.008.009-.011 0-.0014.0013-.0036.0039-.0065l.0319-.0442c.004-.0044.0087-.011.0177-.0248l.0033-.006c.002-.0045.0043-.0081.007-.0111l.0099-.0154.024-.0397c0-.0015.0013-.0037.004-.0066.0026-.0059.0059-.0114.0099-.0166l.0055-.0085.0145-.0301c0-.0014.0003-.0026.0009-.0032.0004-.0004.0007-.001.0012-.0026.0005-.0014.0012-.0036.0024-.0072.0422.0309.0815.0633.1179.0976.0445.042.0901.0835.1366.1247.0053.0044.0113.0081.0179.0109.0059.0026.0127.0033.024.0012.0093-.0022.0206-.0077.0339-.0165.0133-.0089.0286-.0236.0459-.0442.0279-.0294.0535-.0606.0767-.0937.0233-.0331.0463-.0687.0689-.107.0279-.047.0475-.0926.0588-.1367.0113-.0441.0116-.0867.001-.1279-.0067-.0353-.0186-.0673-.0359-.0959-.0173-.0287-.0373-.0555-.0598-.0805-.0226-.0251-.0476-.0474-.0748-.0673-.0273-.0198-.0542-.0386-.0808-.0562Zm22.6507-1.2398c-.0051-.002-.0099-.0032-.0145-.0036h-.0017c-.0087.0001-.0178.0066-.0271.0196l-.2421.4007c-.0006-.0018-.001-.004-.0013-.0065-.0002-.0019-.0003-.0039-.0003-.0061l-.0062-.0207-.0145-.0415-.0041-.0091-.0186-.0368-.0124-.0184c-.0111-.017-.0229-.0322-.0353-.0461-.0124-.0137-.0262-.0276-.0414-.0413l-.0228-.0208c-.0179-.0138-.0359-.0272-.0538-.0403l-.0538-.0379c-.0028 0-.0055-.0015-.0083-.0046-.0055-.003-.009-.0045-.0104-.0045l-.0041-.0024c-.0124-.0031-.0235.0039-.0332.0207l-.3168.5361c-.0069.0122-.0104.0217-.0104.0287 0 .0069.0042.0141.0124.0218.0276.0199.056.0422.085.0667l.0145.0115.1221.1105.0207.0206.0498.0438c.0028.003.0058.0057.0093.008.0034.0023.0079.0042.0134.0057.0083.0032.0184.0024.03-.0023.0118-.0046.026-.0145.0425-.0299l.0103-.0091.056-.0621.0331-.0415c.0083-.0122.0166-.0241.0249-.0356.0054-.0076.0105-.0153.0154-.0231.0025-.0042.0049-.0084.0073-.0126l.0352-.0575.0256-.0454c.0407.0296.0788.0607.1144.0933.0477.0437.0966.087.1465.1299.0057.0046.0121.0084.0192.0115.0063.0027.0136.0033.0257.0011.01-.0023.0221-.008.0363-.0172.0143-.0092.0307-.0245.0492-.046.0299-.0306.0574-.0633.0823-.0978.025-.0345.0496-.0717.0738-.1115.03-.0491.051-.0967.0631-.1426.0121-.0461.0124-.0906.0011-.1334-.0072-.0369-.02-.0702-.0385-.1001-.0186-.0299-.04-.0579-.0642-.084-.0243-.026-.0509-.0494-.0801-.0702-.0293-.0207-.0582-.0403-.0867-.0586-.0058-.0039-.0113-.007-.0165-.0091Zm-35.15849-.1813c-.01337-.0101-.0255-.0156-.03639-.0167l-.002-.0001c-.01022.0002-.02082.0088-.03181.0259l-.38125.7091c-.00841.0162-.01261.0278-.01261.0349 0 .0071.0042.0177.01261.0318.06685.0505.12826.1046.18432.1622.05606.0576.11327.1146.17182.1711.00668.0061.01423.0112.02263.0152.00726.0035.01585.0044.03008.0015.01166-.003.02589-.0106.0426-.0227.01671-.0121.03601-.0323.05768-.0606.03515-.0404.06734-.0833.09656-.1288.02932-.0454.05816-.0944.08662-.147.03505-.0646.05969-.1273.07392-.1879.01423-.0606.01471-.1192.00125-.1757-.00831-.0486-.0234-.0925-.04508-.1318-.02178-.0395-.0469-.0764-.07526-.1107-.02846-.0343-.05979-.0652-.09407-.0924-.03429-.0273-.06819-.0531-.10162-.0773Zm35.69499-2.1068c.0272-.0824.0173-.1046-.0297-.0666-.0103.0164-.1307.1349-.3612.3559-.0392.0377-.0983.0917-.1777.1619l-.0451.0399c-.3464.3043-1.0144.8681-2.0038 1.6915-.0925.0761-.1843.1494-.2753.22-.091.0707-.1828.1495-.2753.2364-.0588.0579-.1189.1349-.1806.2308-.0984.1631-.1476.2545-.1476.2744-.0014.0471.0346.0435.1079-.0109.0323-.0216.0658-.0457.1002-.0719.0346-.0262.0702-.0548.1069-.0856.5492-.4002 1.0791-.8109 1.5901-1.2319.5109-.4211.9323-.8163 1.2642-1.1857.1908-.2897.2998-.4759.327-.5582Zm-19.7853 1.937c-.0103-.0073-.0201-.0114-.029-.0122-.0091-.0007-.0181.0063-.0272.0211l-.3095.5401c-.0065.0133-.01.0232-.0106.0299-.0007.0066.0035.0137.0125.021.0542.0384.1038.0797.149.124.0452.0442.0909.0877.1373.1305.0065.0089.0168.0107.031.0056.0142-.0052.029-.0137.0445-.0254.0155-.0119.0304-.0244.0445-.0378.0142-.0132.0245-.0242.0309-.0331.022-.0251.0429-.0513.063-.0786.0199-.0273.0389-.0579.057-.0919.0297-.0501.05-.0981.0609-.1438.011-.0458.0114-.0901.0011-.1329-.0078-.0368-.0204-.0704-.0377-.1006-.0175-.0303-.0378-.0584-.061-.0842-.0233-.0257-.0484-.0498-.0755-.0719-.0271-.0221-.0542-.0421-.0812-.0598Zm8.7117-.0596c-.0112-.0078-.0216-.012-.0314-.0128-.0097-.0007-.0195.0065-.0293.022l-.3346.5644c-.007.0139-.0108.0243-.0116.0312-.0007.007.0039.0143.0137.0219.0585.0402.1122.0833.161.1296.0488.0463.0984.0917.1485.1365.007.0093.0181.0112.0335.0058.0153-.0054.0313-.0143.0481-.0266.0168-.0123.0328-.0255.0481-.0393.0154-.0139.0265-.0254.0335-.0347.0237-.0263.0463-.0536.0679-.0821.0217-.0286.0422-.0606.0617-.096.0321-.0525.0541-.1026.0659-.1505.0119-.0477.0122-.0939.0011-.1387-.0083-.0385-.022-.0737-.0408-.1053-.0188-.0316-.0408-.0608-.0659-.0878-.025-.0271-.0523-.0521-.0816-.0752-.0292-.0231-.0585-.0439-.0878-.0624Zm17.0381-.2297-.0042-.0024c-.0129-.0032-.0242.0039-.0342.0213l-.3269.5504c-.007.0126-.0107.0224-.0107.0296 0 .007.0043.0145.0129.0224l.0433.0325.0592.0478.1261.1134.0214.0213.0512.0449.0096.0082c.0036.0024.0082.0044.0139.0059.0085.0032.0189.0024.031-.0024.0121-.0047.0267-.0149.0438-.0306l.0107-.0095.0213-.0237.0364-.0401.0341-.0425.0257-.0367c.0085-.0117.0163-.0239.0235-.0365l.0363-.0592.0257-.0448.0128-.0283c.0028-.0032.0046-.0072.0053-.0119.0007-.0047.0017-.0086.0032-.0118l.0064-.0141.0086-.0284c0-.0014 0-.0026.0002-.0037.0002-.0014.0004-.0025.0008-.0034.0008-.0016.0011-.004.0011-.0071.0057-.0251.0086-.0527.0086-.0826 0-.0032-.0004-.0056-.002-.0101l-.0005-.0089-.0008-.0047c-.0004-.0019-.0007-.0037-.0009-.0056-.0001-.0013-.0001-.0026-.0001-.0039-.0015-.0031-.0021-.0078-.0021-.0141l-.0064-.0213-.015-.0425-.0043-.0095-.0192-.0378-.0128-.0189c-.0115-.0173-.0235-.033-.0364-.0472-.0128-.0142-.027-.0283-.0427-.0426l-.0235-.0212-.0278-.021-.0278-.0203c-.0185-.0134-.0369-.0264-.0555-.039-.0028 0-.0057-.0016-.0086-.0048-.0056-.0031-.0092-.0046-.0107-.0046Zm.6752-.0355c-.0114-.0079-.0217-.0122-.031-.013l-.0017-.0001c-.0088.0001-.0178.0069-.0271.0202l-.3247.5528c-.0072.0126-.0107.0217-.0107.0272 0 .0055.0035.0137.0107.0248.0569.0394.1092.0815.157.1264.0476.0449.0964.0894.1463.1335.0057.0047.0121.0086.0192.0117.0063.0028.0135.0035.0257.0013.0099-.0024.022-.0083.0363-.0178.0142-.0094.0306-.0252.0491-.0473.0299-.0314.0573-.0649.0823-.1003.0249-.0355.0494-.0737.0737-.1146.0299-.0504.0509-.0993.063-.1464.0121-.0473.0125-.093.0011-.1371-.0072-.0378-.02-.0721-.0385-.1028-.0185-.0307-.0399-.0595-.0641-.0862-.0242-.0267-.0509-.0508-.0801-.0721-.0292-.0212-.0581-.0413-.0865-.0602Z"/>
  <path fill="#000" d="M39.8363 33.2349c-.011-.0076-.0211-.0119-.03-.0127h-.0017c-.0085.0001-.0172.0067-.0262.0196l-.3148.5382c-.0069.0124-.0103.0212-.0103.0265 0 .0054.0034.0135.0103.0242.0552.0384.1059.0793.1522.1231.0462.0437.0935.087.1418.13.0056.0045.0118.0084.0187.0114.006.0027.0131.0034.0248.0012.0096-.0023.0214-.0081.0352-.0172.0138-.0093.0296-.0246.0476-.0461.029-.0306.0556-.0632.0797-.0978.0242-.0344.048-.0716.0715-.1115.029-.0491.0494-.0967.0611-.1426.0118-.046.012-.0905.0011-.1334-.007-.0369-.0194-.0702-.0374-.1001-.0179-.0299-.0386-.0579-.0621-.084-.0235-.026-.0493-.0494-.0776-.0702-.0284-.0207-.0563-.0402-.0839-.0586Zm-7.2532-.131c-.0114-.0075-.0218-.0116-.0312-.0123h-.0017c-.0088 0-.018.0064-.0274.0191l-.2381.3815c-.0011-.003-.0016-.0069-.0016-.0118-.0008-.0008-.0013-.0022-.0021-.0053-.0006-.0023-.0012-.0056-.0022-.0104 0-.0015-.0006-.003-.0022-.0045l-.0064-.0202c-.0028-.0089-.0057-.0157-.0086-.0202-.0058-.0149-.0136-.0299-.0237-.0448l-.0194-.0269-.0259-.0314c-.0244-.0254-.0481-.0471-.0712-.0651l-.0344-.0258-.0431-.028c-.0029-.003-.0057-.0053-.013-.009l-.0043-.0022c-.0028-.0031-.0057-.0049-.0086-.0057-.0028-.0007-.0057-.0025-.0086-.0056l-.0238-.0112c-.0114-.003-.0222.0022-.0322.0157-.0015.0015-.0022.0031-.0022.0045l-.3298.5227c-.0073.0119-.0108.0209-.0108.0269 0 .0059.0035.0127.0108.0202 0 .0015.0007.0023.0021.0023.0287.0193.0582.041.0884.065l.0151.0117.0151.0129c.0331.0254.0643.0516.0938.0785.0294.027.06.0531.0916.0786.0086.0089.0187.0134.0302.0134h.015l.0129-.0045c.0116-.0045.0253-.0134.041-.0269l.0108-.009.0216-.0224c.0072-.0045.0129-.0104.0172-.0179l.013-.0135c.0043-.003.0082-.0067.0118-.0112.0036-.0045.0068-.0082.0098-.0112 0-.0015.0013-.0037.0043-.0068l.0344-.0448c.0043-.0045.0094-.0112.0151-.0202.0029-.003.0054-.0067.0076-.0112.0021-.0045.0046-.0082.0075-.0113l.0108-.0156.0258-.0404c0-.0015.0015-.0037.0044-.0067.0028-.006.0064-.0117.0108-.0169l.0073-.0115c.0409.0287.0791.0589.1148.0904.0482.0427.0973.0849.1477.1267.0057.0045.0122.0082.0194.0113.0063.0026.0136.0032.0258.0011.0101-.0023.0223-.0079.0366-.0169.0144-.009.031-.0239.0497-.0448.0301-.03.0578-.0617.0829-.0954.0252-.0336.0499-.0699.0744-.1088.0302-.0478.0514-.0941.0636-.139.0122-.0449.0126-.0883.001-.1301-.0071-.0359-.02-.0685-.0387-.0976-.0188-.0291-.0402-.0564-.0647-.0818-.0244-.0254-.0514-.0483-.0808-.0685-.0295-.0202-.0586-.0393-.0874-.0572Zm-.962-2.2165c.0241-.0778.0129-.0979-.0337-.0602-.0098.0157-.1281.1319-.3548.3487-.1993.1919-.9332.8155-2.2018 1.871-.0916.0753-.1825.1481-.2728.2183-.0904.0702-.1811.148-.2721.2334-.0577.0567-.1161.1312-.175.2234-.0936.1562-.1399.2436-.139.262.0007.0438.0376.0386.1104-.0156.0323-.0218.0656-.0458.0998-.0719.0342-.0262.0696-.0545.1059-.0849.5461-.3995 1.0721-.8078 1.5779-1.2247.5059-.4169.9209-.8052 1.2449-1.165.1828-.2786.2862-.4567.3103-.5345ZM5.34503 32.6547c-.01576-.0094-.02999-.0147-.04279-.0157h-.00239c-.01213.0001-.02454.0083-.03753.0243l-.34955.5187-.01069-.0321-.00784-.0182c-.00305-.0061-.00659-.0122-.0105-.0182-.01834-.0344-.03639-.0626-.05415-.0848l-.01777-.0213-.05004-.0545-.07574-.0636c-.01165-.0101-.0233-.0192-.03486-.0273l-.05787-.0394-.06638-.0394-.00573-.003c-.01518-.0041-.02626-.0021-.03352.006l-.00802.0091-.00793.0121-.4015.7062c-.00879.0161-.0129.0287-.01251.0378.00028.0091.0063.0187.01805.0289.0212.0141.04145.0277.06074.0408.01929.0132.03858.0278.05807.044l.02043.0182c.02904.0222.05807.0459.08729.0712.02913.0253.05731.05.08462.0743l.02913.0242c.01566.0162.03219.0303.04957.0424l.02044.0182c.01174.0121.02511.0182.04011.0182.00945.002.02158 0 .03629-.0061.00372-.002.00688-.0035.00965-.0046.00277-.0009.00601-.0035.00955-.0075.01833-.0102.04278-.0323.07325-.0667.00716-.0081.01394-.0152.02025-.0212.0063-.0061.01212-.0132.01738-.0212l.03218-.0394.0425-.0606.01844-.0304c.00534-.006.01155-.0151.01862-.0272l.03543-.0622c.00258-.005.00564-.0095.00926-.0136l.03143-.0575.02053-.0485.00382-.0145c.04422.03.08614.0614.12578.0938.0659.0541.13332.1077.20228.1609.00793.0056.01671.0104.02655.0142.00869.0033.01881.0041.03553.0014.01375-.0028.03046-.01.05014-.0214.01967-.0113.0424-.0303.068-.0569.04135-.0379.07917-.0783.11365-.121.03447-.0427.06847-.0887.1019-.1381.04136-.0607.07039-.1196.0872-.1765.01671-.0569.01719-.1119.00143-.1651-.00984-.0456-.0276-.0868-.0532-.1238-.02559-.037-.0551-.0717-.08853-.1039-.03352-.0323-.07048-.0612-.11079-.0869-.04039-.0256-.08022-.0498-.11966-.0726ZM47.878 30.7719c.0261-.079.0167-.1003-.0284-.0639-.0009.0015-.0027.0037-.0054.0068-.0056.0065-.0153.0168-.0289.0307l-.086.0856c-.056.0548-.1313.1276-.226.2185-.1944.1876-.906.7932-2.1349 1.8168-.0888.0729-.1767.1433-.264.2111-.0873.0677-.1753.1434-.264.2267-.0563.0556-.114.1295-.1731.2216-.0944.1565-.1416.2441-.1416.2633-.0013.0452.0332.0417.1035-.0105.031-.0208.063-.0438.0961-.069.0331-.0253.0673-.0526.1024-.0822.5265-.384 1.0348-.7781 1.5246-1.182.49-.404.894-.7834 1.2122-1.1378.183-.2781.2876-.4566.3135-.5357Zm-10.6232-.4736c.0225-.0747.0114-.0937-.0335-.057-.0093.0151-.1229.1279-.3408.3384-.037.0359-.0932.0876-.1684.1548l-.043.0382c-.3291.2919-.9649.8341-1.9074 1.627-.0882.0734-.1757.1442-.2627.2126-.0871.0684-.1743.144-.2619.227-.0554.0551-.1113.1271-.1674.2162-.0892.1507-.1332.2348-.1321.2525.0013.0417.037.0362.1074-.0166.0311-.0213.0631-.0447.0961-.0702.0329-.0255.0669-.0531.1019-.0827.5263-.3897 1.033-.7875 1.52-1.1933.4869-.4057.8858-.7828 1.1965-1.1314.1744-.2689.2729-.4407.2953-.5155Zm9.7352 2.0982c-.0113-.008-.0216-.0123-.0309-.013l-.0017-.0001c-.0088.0001-.0178.0069-.0272.0201l-.3247.5528c-.0071.0126-.0107.0217-.0107.0272 0 .0055.0036.0138.0107.0249.057.0393.1093.0814.157.1263.0477.0449.0965.0894.1464.1335.0057.0047.0121.0086.0192.0118.0063.0028.0135.0034.0256.0012.01-.0024.0221-.0083.0363-.0177.0143-.0095.0307-.0253.0492-.0473.0299-.0314.0573-.065.0822-.1004.025-.0354.0495-.0736.0738-.1146.0299-.0503.0509-.0992.063-.1464.012-.0473.0124-.0929.0011-.1371-.0072-.0378-.02-.0721-.0385-.1027-.0186-.0308-.0399-.0595-.0641-.0863-.0242-.0267-.0509-.0508-.0801-.0721-.0293-.0212-.0581-.0413-.0866-.0601ZM3.66319 27.3304c.02273-.115.03094-.1787.02473-.191-.00344-.0041-.00779-.0068-.01305-.0082-.01053-.0027-.0247 0-.04253.0082-.03715.0719-.09589.2254-.1763.4604-.08032.2352-.1381.402-.17306.5006-.01241.041-.02684.1355-.04336.2833-.01642.1478-.0319.482-.04632 1.0025-.01442.5205-.03304.8834-.05568 1.0887-.01652.2156-.08968.4092-.21947.5806-.12988.1714-.35766.3126-.68334.4235-.24115.0882-.51314.1324-.81618.1324-.10095 0-.22568-.0072-.37409-.0216-.140109-.0185-.259681-.0462-.358624-.0832-.218515-.0903-.327677-.2535-.327677-.4896 0-.0329.000955-.0657.003056-.0986 0-.0246-.005157-.0431-.015472-.0555-.010314-.0123-.022157-.0184-.035528-.0184-.01337 0-.026263.0052-.038679.0154-.01232.0103-.020629.0246-.024736.0462-.074207.2669-.125684.5995-.1545268.9978 0 .2116.0617918.3759.1854708.4929.158729.1355.427671.2032.806916.2032.41841 0 .77293-.0841 1.06355-.2525.17936-.0986.33799-.2228.47609-.3727.15873-.1622.31851-.3942.47924-.696.16074-.2977.2762-.7012.3463-1.2105.03916-.3736.0618-.7288.068-1.0656.02674-.6118.05053-1.0143.07106-1.2073.02684-.195.05157-.35.07421-.465Zm2.13883 2.3491c.0213-.0827.0106-.1272-.0319-.1334-.0383.0042-.07497.0321-.11012.0838-.03505.0517-.06532.1066-.09092.1644-.0446.1221-.14354.2213-.29673.2979-.13189.062-.24459.1246-.33818.1877-.0936.063-.16809.1277-.22339.1939-.0532.0661-.09999.1319-.14039.197-.0404.0651-.07813.1308-.11327.197-.03505.0662-.06857.1333-.10047.2016s-.06705.1386-.10534.211c-.0659.1386-.185.2709-.35729.3971-.04259.0331-.08242.0631-.11967.09-.03724.0269-.08671.061-.14841.1024-.0617.0413-.14144.0946-.23924.1597-.09789.0652-.22873.1505-.39253.256-.08079.0497-.13074.0987-.14994.1474-.0191.0486-.0042.0801.0447.0946.00802.0015.01986.0022.03562.002l.07927-.0052.58382-.0961c.21279-.0393.37333-.1148.48182-.2265.0787-.0703.14412-.1598.19627-.2683.05205-.1086.09999-.2198.14354-.3335.04365-.1138.08567-.2219.12607-.3243.0404-.1024.08824-.1825.14354-.2404.0362-.0434.08194-.0843.13724-.1225.0553-.0383.12225-.073.20104-.104.0765-.0289.14889-.0662.21689-.1117.0681-.0454.12979-.0951.18509-.1488.0553-.058.10849-.1335.15949-.2266.0511-.093.0936-.2005.12769-.3226.0213-.0662.03983-.1257.05578-.1784.01604-.0527.02932-.0998.03992-.1412Zm.71982-1.4204c-.00736-.0601-.02397-.0673-.04976-.0218-.03858.1015-.07583.204-.11174.3076-.03591.1035-.06953.206-.10076.3075-.0276.1221-.05615.2827-.08557.4814-.02942.1989-.05568.3867-.0787.5638-.02301.177-.05701.4706-.10209.8806-.04231.3844-.06475.6232-.06743.7164l-.00019.0167c-.00745.2505.02569.4753.09933.674.09942.2237.26321.3355.49137.3355.20428 0 .38641-.1336.54657-.4007.10634-.1682.19004-.2021.25109-.2269.0224-.0091.04176-.017.05806-.0297.04422-.0352.10305-.0549.17669-.059.03132-.0042.06399-.0078.09799-.0109.034-.0031.06675-.0108.09798-.0233.06437-.0331.13161-.0812.20152-.1445.06991-.0631.1316-.1277.18499-.194.0956-.027.17382-.0678.23456-.1228.06074-.0549.12015-.1449.17812-.2702.05797-.1252.10715-.2884.14765-.4892.01289-.0911.01012-.1388-.00831-.1429-.02579-.0145-.05243.0227-.08003.1119-.03677.0931-.06905.164-.09665.2127-.02761.0487-.05377.0823-.0786.101-.02493.0186-.04976.0268-.07459.0248-.02483-.0021-.05291-.0083-.08414-.0186-.01471-.0062-.0276-.0032-.03868.0093-.00554.0062-.00917.0124-.01108.0186-.05702.1118-.12187.2035-.19455.2749-.07267.0715-.15509.1092-.24707.1134-.02941.002-.06351-.0015-.10219-.0109-.03858-.0093-.07353-.0088-.10486.0015-.05339.0167-.13247.0922-.23743.2268-.10486.1346-.29224.1596-.49462.1637-.13991 0-.2549-.0342-.34506-.1025-.08471-.0746-.14497-.1719-.18079-.292-.02518-.0842-.02678-.2179-.02803-.3218-.00053-.0442-.001-.083-.0032-.1102v-.0435c0-.0725.00459-.1937.01385-.3635 0-.0268.00688-.12.02063-.2795.01385-.1594.04002-.424.0787-.7937.03868-.3696.08099-.7263.12702-1.07Z"/>
  <path fill="#000" d="M2.29174 29.6878c-.00774-.0396-.0425-.0679-.1043-.0852-.11069-.0148-.20724.016-.28966.0925-.07984.0741-.10429.1643-.07335.2705.03085.1061.02569.1765-.01547.211-.04632.0346-.12234.0519-.22788.0519h-.07344c-.05406.0025-.07726.0247-.06953.0667.01032.042.02837.0753.05415.1.0128.0123.02827.0228.04632.0315.01805.0086.04375.0154.07727.0203.13905.0123.24077-.0271.30514-.1185.06952-.0988.0849-.1895.04632-.2722-.03859-.0827-.04441-.1457-.01739-.1889.02703-.0433.08815-.0686.18347-.0759.09789.0025.15061-.0321.15835-.1037Zm11.36226-.964c-.3891-.1946-.7459-.1946-.7459-.1946-.494.0274-.5469.3103-.5515.3967l-.0001.0249c0 .6486.7138.5189.7138.5189.2018 0 .482-.1373.5966-.1983l.052-.0287H48v-.5189H13.654Zm-5.34221-1.8933c-.01576-.0098-.03008-.0151-.04288-.0161l-.00239-.0001c-.01203.0002-.02454.0085-.03744.025l-.34076.5216-.00878-.0275-.02971-.0621-.01614-.0248c-.01442-.0228-.0297-.0435-.04593-.0621-.01614-.0186-.0341-.0373-.05396-.0559l-.02961-.0279c-.0234-.0186-.0468-.0367-.0702-.0543-.0234-.0176-.0467-.0347-.0701-.0512-.00363 0-.00726-.0021-.01079-.0062-.00726-.0041-.01175-.0062-.01347-.0062l-.00544-.0032c-.01614-.0041-.03056.0053-.04317.028l-.41277.7231c-.00898.0165-.01347.0295-.01347.0388 0 .0093.00535.0191.01614.0295.03601.0269.07287.0569.11069.0899l.01882.0156.15921.149.02693.0279.06475.0589c.00363.0042.00764.0078.01223.0109.00448.0031.01031.0057.01747.0077.01079.0042.02388.0032.03916-.003.01528-.0062.03371-.0197.0553-.0404l.01346-.0125.07287-.0837.04317-.0559c.01079-.0165.02159-.0325.03238-.048.01079-.0156.02063-.0316.0296-.0482l.04594-.0775.03238-.059.01614-.0373c.00363-.0041.00582-.0092.00678-.0154.00086-.0063.0022-.0114.00477-.0174.03993.0284.07794.0579.11404.0885.06599.0558.13351.1112.20247.166.00793.0059.01671.0108.02664.0147.0086.0034.01872.0042.03544.0015.01375-.0029.03056-.0103.05023-.022l.03178-.0236.03622-.0353c.04135-.0391.07927-.0808.11375-.1249.03448-.044.06847-.0916.102-.1425.04135-.0627.07048-.1235.08719-.1822.01672-.0587.01729-.1156.00153-.1705-.00993-.047-.0276-.0896-.05329-.1278-.0256-.0382-.05511-.074-.08863-.1073-.03352-.0332-.07048-.0631-.11088-.0896-.0404-.0264-.08022-.0515-.11967-.075Zm7.19081.5635-1.9783-.3567h-2.4c-.7459 0-.6487.5513-.6487.5513 0 .5514.6812.4865.6163.4865h2.3027l2.0108-.3243h4.573c1.0054.3567 2.0432.3243 2.0432.3243.7134 0 1.9784-.2594 1.9784-.2594h24v-.5514H23.5783c-.5621-.1405-1.2461-.1593-1.4185-.1618l-.041-.0003c-.7837-.0271-1.7702.1936-2.0772.2679l-.0957.0239h-4.4433Z"/>
  <path fill="#000" d="M7.87065 25.8546c-.0147-.0103-.02788-.0161-.03944-.017l-.0021-.0001c-.01089.0002-.02158.009-.03219.0263l-.36301.7236c-.00793.0164-.01165.0283-.01127.0355.00038.0073.00544.0181.01509.0325.07363.0516.14173.1067.20429.1654.06246.0587.12635.117.19148.1747.00736.0062.01567.0113.02474.0154.00793.0037.01709.0045.0319.0016.01222-.0031.02683-.0108.04383-.0231.017-.0125.0362-.0331.05759-.0619.03486-.0413.06647-.085.09484-.1314.02837-.0465.05606-.0964.08319-.15.03342-.066.05596-.1299.06752-.1917.01155-.0618.00869-.1216-.00869-.1793-.01156-.0495-.02999-.0944-.05521-.1346-.0253-.0402-.05386-.0777-.08595-.1128-.03199-.035-.06695-.0664-.10477-.0943-.03772-.0278-.07507-.0541-.11184-.0788Zm.34822-2.8927c.03018-.1185.01442-.1528-.04709-.1026-.0403.0516-.10763.1237-.20209.2165-.09445.0926-.20887.1994-.34324.3203-.13438.1209-.28432.2528-.44983.3957-.16541.1429-.33828.2908-.5184.4436-.18012.1528-.3633.3069-.54944.4625-.18614.1556-.36808.3071-.54571.4545l-.50694.4209c-.16026.1331-.30333.2524-.42892.3581-.12568.1056-.23055.1944-.31478.2666-.08433.0721-.13953.122-.1658.1496-.08261.1034-.16742.2235-.25452.36-.085.1546-.12607.243-.12349.265.01395.0106.051-.006.11117-.0498.04298-.0296.28346-.2115.72164-.5458.43808-.3343.98207-.7763 1.63189-1.3262.64981-.5498 1.19944-1.0378 1.6487-1.464.19445-.298.30676-.5063.33685-.6249Zm15.58653 2.9402c-.6486-.1946-1.7838-.3243-1.7838-.3243h-3.4378c-.7097 0-1.3709.1454-1.6985.231l-.1346.0368-.044.0129-.0364.0112h-1.1677c-.8513-.1521-1.6741-.2185-1.7736-.2262l-3.6749-.0008c-.61839 0-.67669.3898-.68125.4937l-.00013.0252c0 .5514.64888.4865.64888.4865h3.6324c.5838 0 1.946-.2919 1.946-.2919h.973c.6105.2443 1.7668.2873 1.9008.2915l3.1585.0004c.7136-.0324 2.0757-.1946 2.0757-.1946H48v-.5514H23.8054Zm-9.6973-1.6215-.6811-.1622H9.72975c-.77836-.0325-.71351.5189-.71351.5189 0 .6162.64867.5513.64867.5513h3.72969l.973-.227h1.1027l.9405.1946h4.8c.7783 0 1.946-.227 1.946-.227H48v-.5514H23.1892c-.8779-.2421-1.4732-.2583-1.5487-.2593l-5.1649-.0001-.908.1622h-1.4595Zm-.9406-1.4595-.1945-.1946h-2.9189c-.746-.0325-.68115.4865-.68115.4865 0 .6486.71355.5513.71355.5513h2.7243l.1622-.0973h1.9134l.1298.1297h5.2216c.8433.0325 1.9784-.1946 1.9784-.1946H48v-.5513H22.2811c-1.265-.2919-1.8812-.3243-1.8812-.3243h-5.481l-.3243.1946h-1.4271Zm5.2595-1.6501-.0378-.004H8.04323c-.77836-.0324-.71352.5514-.71352.5514.03248.5189.68105.454.68105.454H18.2919c.7135 0 2.0432-.1622 2.0432-.1622H48v-.5513H20.4649c-.8681-.1488-1.6223-.2407-1.9292-.2757l-.1087-.0122Zm-2.7621-1.1391c-1.1028-.3675-1.9162-.3591-2.0031-.357l-8.31047.0002c-.68107-.0283-.74134.4399-.74577.5574l-.00012.0264c-.03031.5449.53273.5247.60794.5196l8.37582-.0007c.9405-.0324 1.9784-.227 1.9784-.227H48v-.5189H15.6649Zm3.1783-1.4919c-1.2478-.3482-2.0022-.3589-2.1472-.3573l-3.5933.0005-.3892.1946H9.85945l-.42166-.1946H3.7946c-.81084 0-.74599.5839-.74599.5839 0 .4789.60797.5158.7015.5186l6.72549.0002.0974-.1621h.9405l.1297.1298h4.9621c1.2001 0 2.2054-.1947 2.2054-.1947H48V18.54H18.8432Zm-8.4648-1.5243c-.3243-.0973-.77844-.1946-.77844-.1946H2.62705c-.71351 0-.61619.5189-.61619.5189 0 .446.46328.4831.5405.4862l6.82159.0003c.3568-.0324.97295-.1621.97295-.1621h.973c.3892.1621.8757.1945.8757.1945H19.2c.6162 0 1.4919-.227 1.4919-.227H48v-.5189H20.7243c-.5513-.2271-1.3297-.2595-1.3297-.2595l-.1141-.0005c-.4934-.0024-2.4976-.0116-4.2251-.0135l-.9891-.0002c-.8499.0009-1.5081.0049-1.6771.0142-.5838.0324-1.0703.1622-1.0703.1622h-.9405Zm10.1512-1.6541h-8.0431c-.6162-.0324-1.3622.2271-1.3622.2271H9.66481c-.5214-.1921-.97312-.2217-1.09977-.2262l-6.84614-.0009c-.55135 0-.4865.5189-.4865.5189 0 .4054.29281.4505.39042.4543l6.71227-.0002c.6163.0324 1.36219-.2271 1.36219-.2271h1.49192c.454.2271 1.2324.2595 1.2324.2595h7.9135c.973 0 1.5243-.227 1.5243-.227H48v-.4865H21.9243c-.7905-.2635-1.2171-.2915-1.3493-.2927l-.0404.0006-.005.0002ZM8.30272 14.1292c-.87783-.2119-1.30366-.2543-1.35654-.259l-5.58399-.0004c-.518977 0-.486907.4865-.486907.4865 0 .5188.422057.4539.422057.4539h5.41618c.81083-.0648 1.39456-.227 1.39456-.227h3.60002c.4865.1946 1.2973.2919 1.2973.2919h8.4c.6811-.0323 1.3296-.2594 1.3296-.2594H48v-.4541H22.7676c-.6625-.2409-1.1574-.2581-1.2247-.2594l-8.278-.0001c-.8757-.0323-1.4595.2271-1.4595.2271H8.30272Zm-2.27025-1.4271c-.68114-.1946-1.36218-.2918-1.36218-.2918H.778365c-.389183 0-.389183.5189-.389183.5189 0 .4391.278646.4834.364383.4867l3.689705-.0002c.5708-.0476 1.17648-.1823 1.45891-.2508l.11985-.0299c.02783-.0071.04282-.0111.04282-.0111h6.68105c.5838.1297 1.3298.2594 1.3298.2594h7.8162c.7459-.0325 1.4595-.2271 1.4595-.2271H48v-.5188H23.4162c-.7529-.2109-1.2541-.226-1.3219-.2271h-7.8889c-.7135.0324-1.427.2918-1.427.2918H6.03247Zm17.70803-1.4919c-.7135-.227-1.2324-.2917-1.2324-.2917h-6.3243c-.746 0-1.5892.2594-1.5892.2594H0v.4865h14.4324c.4865.1621 1.4595.2918 1.4595.2918h6.5189c.7135 0 1.5243-.2918 1.5243-.2918H48v-.4542H23.7405Zm.3568-1.52422c-.519-.1298-1.492-.22702-1.492-.22702h-3.1784c-.681.03238-1.5242.22702-1.5242.22702H0v.51892h17.8703c.6162.1945 1.2972.2594 1.2972.2594h3.4703c.746-.0323 1.5892-.227 1.5892-.227H48v-.55132H24.0973ZM48 8.6805v-.51888H0v.51888h48Z"/>
  <path fill="#000" fill-rule="evenodd" d="M2.25629 36.7458c-.03063.0475-.05591.0867-.07391.1054-.00826.0085-.0321.0074-.06072.006-.04378-.0021-.09874-.0047-.12618.026-.02835.0317-.0298.1134-.03168.2195-.00324.1828-.00776.4383-.15312.6372-.10401.1424-.29339.3352-.58249.3131-.559704-.0429-.386558-.5005-.292872-.7481.035369-.0935.059412-.157.028422-.157-.038106 0-.21288.4022-.238953.7062-.025213.2939.093117.4894.340953.5314.46721.0794.89775-.3962.98532-1.2638.00115-.0111.02736-.0119.06755-.0131.06653-.002.17139-.0052.26433-.0584.11481-.0659.20104-.2085.24138-.2753.00711-.0117.0128-.0212.01696-.0274.02923-.0435.12836-.3187-.04431-.3269-.12723-.006-.25492.1921-.34068.3252Zm.23792-.1479c-.14498.0188-.26092.243-.25424.2511.01089.0129.13801.0025.22234-.0404.06303-.0322.14345-.1427.14345-.1427s-.0085-.0815-.11155-.068Z" clip-rule="evenodd"/>
  <path fill="#000" d="M5.19308 36.5848c.01929-.1155-.15911-.207-.22711-.1808s-.13485.2255-.15071.2858c-.00429.0165.01379.0298.02973.0415.01381.0102.02601.0192.0206.028-.02255.0365-.08485.1016-.14847.1681-.0576.0601-.11627.1214-.1475.1637-.03896.0527-.0934.1352-.09818.2015-.01336.1829.08879.2136.17358.2391.06183.0186.11443.0344.10625.1044-.00821.0706-.1189.2217-.25967.3039-.12502.073-.27706.0816-.35242.0811-.21975-.0013-.3102-.1225-.32108-.2836-.01416-.2096.1059-.4658.18164-.6274.04282-.0914.07148-.1525.05368-.1579-.01079-.0032-.15462.2232-.25891.5386-.17602.5322-.05492.8318.21078.8644.63415.0775.89822-.8389.80988-1.0434-.03163-.0732-.10369-.0901-.15526-.1021-.0414-.0097-.06958-.0162-.05304-.0464.00433-.008.00827-.0157.01219-.0233.02372-.0464.04664-.0912.15074-.1729.0693-.0545.13483-.0944.19282-.1298.12133-.0739.20965-.1278.23046-.2525Zm-5.1189681.6172c0-.468.4651091-.9222.5070351-.8925.008168.0058-.013818.0467-.04921.1124-.0871.1618-.255395.4744-.255259.7866.000139.3795.178172.7145.263106.8743.03179.0599.050538.0952.042032.099-.016618.0076-.5077041-.2602-.5077041-.9798Zm7.2585681-.0758c0-.4436-.48049-.874-.52366-.8458-.00844.0055.01427.0442.05084.1066.08995.1533.2637.4495.26356.7453-.00014.3598-.1841.6774-.2718.8288-.03279.0566-.05212.0899-.04336.0936.01719.0073.52442-.2466.52442-.9285Zm-.74943-.1243c.16828-.0583.19282-.2963.1763-.3013-.00853-.0025-.01985.0217-.0328.0494-.01576.0337-.03393.0725-.05239.0744-.01127.0011-.01924-.0058-.02678-.0124-.00843-.0074-.01631-.0142-.02766-.0088-.01176.0056-.01825.0244-.02582.0462-.0113.0326-.02501.0722-.06223.0854-.01745.0062-.03068.0027-.04635-.0015-.0165-.0043-.03571-.0094-.06539-.0047-.04972.008-.14806.1451-.20447.2238-.02324.0324-.03936.0549-.04203.0543-.01251-.0026-.02019-.0158-.02984-.0325-.01992-.0343-.04824-.0832-.14465-.0832-.06873 0-.10358.042-.14262.0891-.04916.0592-.10495.1265-.24341.128-.27434.0027-.17824-.5725-.12396-.8975.02052-.1228.03506-.2099.02139-.2165-.04976-.0242-.20706.7213-.20535.9601.00009.0122.00009.025.00009.0382.00006.1742.00013.4225.19427.4301.13065.0051.20782-.0707.26388-.1805.06418-.1259.13304-.1532.18328-.1501.04689.003.09627.0379.11012.0822.01568.0504-.00134.1342-.01454.1992-.01051.0518-.01859.0916-.00581.093.01126.0013.03373-.0636.06054-.1409.02712-.0783.05868-.1693.08759-.2178.05043-.0846.14717-.1843.19693-.2199.01299-.0093.02071-.0065.03146-.0025.0121.0044.02804.0102.05965.0017.03135-.0085.04532-.0262.05927-.0438.01273-.0162.02544-.0323.05133-.0412Z"/>
  <path fill="#000" fill-rule="evenodd" d="M3.23217 37.1623c-.03298.065-.06131.1209-.0891.1395-.02101.014-.05769-.0024-.117-.03-.16017-.0746-.077-.6083-.03156-.8999.01759-.1128.02952-.1894.01953-.1891-.01987.0006-.10783.2228-.10993.3006-.00151.0554-.0182.1429-.03778.2455-.06572.3444-.16398.8594.17025.9069.11862.0168.2507-.0055.35213-.1061.10962-.1087.19336-.2536.26154-.3716.04712-.0816.08681-.1503.12248-.1853.01375-.0134.01261-.0489-.00162-.0577-.00852-.0053-.02846-.0035-.04904-.0017-.01356.0013-.0274.0025-.03845.0017-.01738-.0011-.03775-.0067-.06036-.0129-.04881-.0133-.10807-.0294-.17028-.0105-.0988.0298-.16618.1628-.22081.2706Zm.17545-.1395c-.08281.0146-.20286.2744-.1977.282.00898.0135.12893-.0011.23475-.0628.1019-.0594.18098-.1791.17201-.1891-.01834-.0206-.12626-.0447-.20906-.0301Z" clip-rule="evenodd"/>
  <path fill="#000" d="M3.33503 36.3248c.00019-.0317.13304-.2598.19101-.2788.05797-.019.15959.1091.15692.1651-.0086.1745-.15224.2497-.17449.2497-.00735 0-.02014-.0127-.03668-.0292-.01292-.0128-.02812-.028-.04479-.0411-.01914-.015-.03905-.0265-.05542-.0359-.02128-.0123-.0366-.0212-.03655-.0298Z"/>
</svg>
