<svg xmlns="http://www.w3.org/2000/svg" fill="none" viewBox="0 0 48 48">
  <path fill="#000" d="m35.6347 6.76623-1.3264-.79591L24.0389 0 3.5 11.9406v23.8809l7.4503 4.4327 11.5471-6.9361-7.3456-4.2705V18.7144L35.6347 6.76623Z"/>
  <path fill="#000" d="m12.3653 41.2338 1.3265.7959L23.9611 48 44.5 36.0595v-23.881l-7.4501-4.43275-11.5472 6.93615 7.3457 4.2705v10.3332L12.3653 41.2338Z"/>
  <path fill="#000" d="M31 24c0 3.8555-3.1445 7-7.0001 7C20.1445 31 17 27.8555 17 24s3.1445-7 6.9999-7C27.8555 17 31 20.1445 31 24Z"/>
</svg>
