<svg xmlns="http://www.w3.org/2000/svg" xmlns:xlink="http://www.w3.org/1999/xlink" viewBox="0 0 40 40">
  <defs>
    <path id="a" d="M0 0h5.19927182v7.47265598H0z"/>
  </defs>
  <g fill="none" fill-rule="evenodd">
    <path fill="#008EFA" d="m10.2289557.83241647.8279449-.13072963c5.9253367-.93558245 11.960815-.93558245 17.8862458 0l.827945.13072963c4.8380412.76390273 8.6325612 4.55848861 9.3964921 9.39653923l.1307579.8279449c.9355448 5.9253367.9355448 11.960815 0 17.8862458l-.1307579.827945c-.7639309 4.8380412-4.5584509 8.6325612-9.3964921 9.3964921l-.827945.1307579c-5.9254308.9355448-11.9609091.9355448-17.8862458 0l-.8279449-.1307579c-4.83805062-.7639309-8.6326365-4.5584509-9.39653923-9.3964921l-.13072963-.827945c-.93558245-5.9254308-.93558245-11.9609091 0-17.8862458l.13072963-.8279449C1.5963192 5.39090508 5.39090508 1.5963192 10.2289557.83241647Z"/>
    <g transform="translate(3.883495 10.485437)">
      <mask id="b" fill="#fff">
        <use xlink:href="#a"/>
      </mask>
      <path fill="#FFF" d="M4.47081227 6.80432299c.5604519-.48001976.72845955-1.20463192.72845955-1.91034115 0-1.14835275-.75646083-1.64698902-1.73735826-1.93883874l-.46706694-.14105593c-.31753729-.10367968-.81260551-.26363853-.81260551-.67764125 0-.3953862.44830467-.59286449.78460424-.59286449.16601771 0 .32947692.02563351.48639777.07246121.46806191.13948068.96824711-.07389325 1.19097806-.51109502L4.90461881.5938526c.00298491-.00572816.0007107-.01288836-.0048327-.01603884-.6251249-.35428666-1.48847383-.57782808-2.19461765-.57782808-1.41043982 0-2.42871966.94113658-2.42871966 2.38119585 0 1.37389902.7567451 1.67520021 1.90579231 2.00442617.39230212.11298794 1.11152267.29184972 1.11152267.80953212 0 .49863627-.4576858.71516069-.88751247.71516069-.62583559 0-1.16752522-.32936916-1.62521102-.73392041L.0014109 6.6536724c-.00284277.00544175-.00127924.01217234.0036956.01575244.71751489.50436443 1.58285376.80323114 2.46667063.80323114.70983941 0 1.44782224-.1977647 1.99903514-.66833299" mask="url(#b)"/>
    </g>
    <path fill="#FFF" d="M11.10988851 16.75006713v-1.48359327c0-.60245916.1962932-1.11999836.88751247-1.11999836.84074892 0 .7659841.80924571.7659841 1.27050574v2.34052592c0 .00687379.00540126.01231554.01208177.01231554h.67586832c.55888833 0 1.01202573-.4565343 1.01202573-1.01975557V14.7864541c0-1.18587219-.5136883-2.00471257-1.80259978-2.00471257-.66122806 0-1.13682331.19661907-1.52841473.77587918-.00227422.0032937-.00596982.00529855-.01009183.00529855h-.00014214c-.00668051 0-.01222391-.00529855-.01222391-.01217234v-.5968742c0-.00658739-.00540126-.01217234-.01208177-.01217234h-1.6758123c-.00682265 0-.01208177.00558495-.01208177.01217234v4.80363444c0 .00687379.00525912.01231554.01208177.01231554h.67586832c.55903052 0 1.01202575-.4565343 1.01202575-1.01975557m5.43240359-1.38965146c0-.59272129.4016832-1.09164397 1.0929025-1.09164397.6913614 0 1.0930447.49892268 1.0930447 1.09164397 0 .61176742-.4016833 1.08233571-1.0930447 1.08233571-.6912193 0-1.0929025-.47056829-1.0929025-1.08233571m2.1076289 1.87854986c.0021321-.00343689.0059698-.00558495.0100918-.00558495.0066805 0 .0120818.00544175.0120818.01217234v.51195424c0 .00687379.0055434.01231554.0120818.01231554h.6758683c.5590305 0 1.0121679-.4565343 1.0121679-1.01975557v-3.79619441c0-.00658739-.0052592-.01217234-.0120818-.01217234h-1.6759544c-.0065384 0-.0120818.00558495-.0120818.01217234v.42574544c0 .01131312-.0137874.01646846-.0211786.00801942-.3566254-.40684251-.9237578-.60589605-1.4641682-.60589605-1.419821 0-2.4005762 1.18587219-2.4005762 2.56936588 0 1.38349369.9995175 2.57867414 2.4194806 2.57867414.5581777 0 1.1443567-.21480597 1.4442688-.69081602m4.9793088-.79614255c-.6913614 0-1.0930446-.47071149-1.0930446-1.08233571 0-.59286449.4016832-1.09164397 1.0930446-1.09164397.6912193 0 1.0929026.49877948 1.0929026 1.09164397 0 .61162422-.4016833 1.08233571-1.0929026 1.08233571m.4296846-3.66100985c-.5583199 0-1.135402.22411423-1.4442688.70041069-.0022742.00329369-.0062541.00544175-.0100918.00544175h-.0001422c-.0066805 0-.0120818-.00544175-.0120818-.01217234v-.53372125H20.892354v6.86405337h.687808c.5590305 0 1.0121678-.4565343 1.0121678-1.01961237v-1.47342579c0-.00143204.0017057-.00214806.0027007-.00085923.3643008.42116292.9327125.61778199 1.4826461.61778199 1.419821 0 2.4005763-1.16696926 2.4005763-2.55977121 0-1.3834937-.9901364-2.58812561-2.4193385-2.58812561m5.4739222 3.66100985c-.6913614 0-1.0929026-.47071149-1.0929026-1.08233571 0-.59286449.4015412-1.09164397 1.0929026-1.09164397.6912192 0 1.0930446.49877948 1.0930446 1.09164397 0 .61162422-.4018254 1.08233571-1.0930446 1.08233571m.4296845-3.66100985c-.5583198 0-1.1352598.22411423-1.4442688.70041069-.0022742.00329369-.0059698.00544175-.0100918.00544175h-.0001421c-.0066806 0-.0120818-.00544175-.0120818-.01217234v-.52154891c0-.00658739-.0054013-.01217234-.0120818-.01217234h-1.6758123c-.0068226 0-.0120818.00558495-.0120818.01217234v6.83970869c0 .00673059.0052592.01217234.0120818.01217234h.6757262c.5590305 0 1.0121679-.4565343 1.0121679-1.01961237v-1.44550101c0-.01131312.0137874-.01632526.0210365-.00787622.3651536.40684252.9236156.5968742 1.4643103.5968742 1.4198209 0 2.4005762-1.16696926 2.4005762-2.55977121 0-1.3834937-.9901364-2.58812561-2.4193385-2.58812561m4.4086656-2.10803425-1.1521743 4.45779682h.957871c.4635135 0 .8683238-.31590799.9841667-.76814617l.9554546-3.68965065h-1.745318Zm-.5773237 5.08829533c-.5937123 0-1.0757038.48560471-1.0757038 1.08362454 0 .59801984.4819915 1.08376776 1.0757038 1.08376776.5935701 0 1.0755616-.48574792 1.0755616-1.08376776 0-.59801983-.4819915-1.08362454-1.0755616-1.08362454m-.5279449-4.9986926h.0022742l.133468.37476483h.0591296l.1336102-.37476483h.0024163v.37476483h.1003498v-.46441052h-.1620379l-.103761.27480844-.1037611-.27480844h-.16218v.46441052h.1004919zm-.4073119.37473619h.1105837v-.37476483h.1402907v-.08964569h-.3913072v.08964569h.1404328zM6.33148289 23.52017431h-.60979068v-1.80712629h.60979068c.67526774 0 1.01275927.30123634 1.01275927.90356314 0 .60247269-.33749153.90356315-1.01275927.90356315m.47840955-3.32599931H3.883495v7.24790683h1.83819721v-2.40318038h1.08820023c.79383814 0 1.40220541-.21137601 1.82424775-.63441978.42204233-.42289789.63313467-1.01895198.63313467-1.78787051 0-.7690644-.21109234-1.36497261-.63313467-1.78801638-.42204234-.4228979-1.03040961-.63441978-1.82424775-.63441978m6.65473224 5.21961617c-.05964106.13464462-.1377865.25324276-.23457867.3557944-.09693452.10255165-.2126581.18249233-.34702841.24011381-.13451265.05776736-.27671173.08665104-.42659726.08665104-.15657557 0-.30190617-.02888368-.43627648-.08665104-.13451265-.05762148-.25009389-.13756216-.3470284-.24011381-.09693451-.10255164-.1735142-.22275443-.22988141-.36060834-.05622486-.13770805-.08440847-.28664863-.08440847-.44696763 0-.15375453.02818361-.2964224.08440847-.42771184.05636721-.13128945.1329469-.24828293.22988141-.35083458.09693451-.10240577.21251575-.18263821.3470284-.24040556.13437031-.05762148.27970091-.08650516.43627648-.08650516.14988553 0 .29208461.02888368.42659726.08650516.13437031.05776735.25009389.13799979.34702841.24040556.09679217.10255165.17493761.22260855.23457867.36046247.05935638.13785392.08896339.28358521.08896339.43733973 0 .15375453-.02960701.29802705-.08896339.43252579Zm.03273853-2.41266239c-.39400107-.42931649-.89105734-.64404768-1.49116881-.64404768-.35642294 0-.68181544.06885402-.97560815.20656207-.29393505.13799979-.54716045.32545195-.75967621.56250234-.21280043.23705039-.37848586.51407112-.49719861.83135395-.11885509.31713695-.17821147.65207091-.17821147 1.00451014 0 .37825948.06106448.72748941.1827664 1.04768978.12212894.32049213.29251163.59940926.51143275.83645965.21863644.23705039.47513569.42129325.76907074.5525827.29365037.13128944.61591136.19708004.96607128.19708004.61904287 0 1.10983612-.23384109 1.47252208-.70181503v.5480605H15.204464v-4.93123161h-1.70710079v.49029315Zm5.44000469 2.03780185-1.2850584-2.52819711h-1.9695783l2.3260013 4.25844613-1.6413391 3.13373321h1.9041013l3.8644275-7.39217934h-1.951074z"/>
  </g>
</svg>
