<svg xmlns="http://www.w3.org/2000/svg" fill="none" viewBox="0 0 48 48">
  <path fill="#80B0D5" fill-rule="evenodd" d="M26.1324 0 13.8283 7.58904c-.3948.59495-.6485 1.30057-.6485 2.15818 0 2.04058 1.6708 2.88108 3.3477 3.62648l5.6963 2.5297c-.9333-.4481-1.9805-.9847-1.9805-1.6806 0-.6112.5428-1.0098.9464-1.256l4.5571-2.7773c2.0694-1.2563 3.2951-2.89235 3.2951-5.34242 0-2.2891-1.4344-4.002981-2.9095-4.84708Zm1.3496 27.225c.9026.4134 1.2094.7394 1.2094 1.256 0 .4965-.4324.9529-1.7703 1.6982l-1.5949.9022 9.3595 4.1926c.6388-.5478 1.0867-1.3467 1.0867-2.1405 0-1.3963-.6508-2.5075-2.7343-3.4496L27.482 27.225ZM8.5 41.9078l5.9593-3.5911 9.2894 4.1925-5.9242 3.7857c-1.2443.7481-2.3731 1.1852-3.558 1.1852-3.0662 0-5.6192-2.5248-5.7665-5.5723Z" clip-rule="evenodd"/>
  <path fill="#A2D993" fill-rule="evenodd" d="m24.888 15.6201 10.9195-6.63377c1.4754.85889 2.927 2.54137 2.927 4.82937 0 2.4499-1.1925 4.136-3.3126 5.3424l-1.1393.6545-9.3946-4.1925Zm-11.7959 9.4288c0-1.1419.3347-1.7397.8764-2.3351l9.3946 4.1749-2.3311 1.3444c-.6405.3978-1.0867.7576-1.0867 1.256 0 .5391.6146.986 1.4372 1.3621l-4.4344-1.9636c-.0847-.0382-.1693-.0761-.2535-.1139-1.8863-.8466-3.6025-1.6167-3.6025-3.7248Z" clip-rule="evenodd"/>
  <path fill="#086DA9" d="M13.8283 7.58887c-2.575 1.58821-4.20656 3.74483-4.20656 7.04063 0 3.5793 2.22326 5.6281 5.78396 7.2176l17.6324 7.8367c2.0819.942 2.7343 2.055 2.7343 3.4495 0 .7947-.4479 1.5928-1.0867 2.1405l1.0341-.6545c2.218-1.3928 3.6106-3.2839 3.6106-6.28 0-3.842-2.5266-5.9486-5.6437-7.3414l-17.1592-7.6244c-1.6769-.7454-3.3477-1.5859-3.3477-3.62645 0-.85761.2537-1.56323.6485-2.15818Z"/>
  <path fill="#35AF3B" d="M37.3927 47.9355c-2.3658-1.8388-4.8894-3.0826-7.9577-4.4875l-14.1797-6.3321c-3.5625-1.6023-5.92479-3.7387-5.92479-7.3336 0-3.4945 1.67599-5.1862 3.85449-6.576l.7874-.4983c-.5417.5954-.8851 1.1934-.8851 2.3353 0 2.2022 1.8721 2.9475 3.8554 3.8419l16.4967 7.3373c2.8695 1.2435 5.4957 3.3827 5.4957 7.0254 0 2.0026-.7549 3.7943-1.5424 4.6876Z"/>
</svg>
