<svg xmlns="http://www.w3.org/2000/svg" fill="none" viewBox="0 0 48 48">
  <path fill="#000" fill-rule="evenodd" d="M37.4956 48c-2.369-1.8413-4.896-3.0868-7.9684-4.4936l-14.1988-6.3406c-3.5673-1.6044-5.9327-3.7437-5.9327-7.3434 0-3.4991 1.6782-5.1931 3.8597-6.5848l.7884-.499c-.5424.5962-.8862 1.195-.8862 2.3385 0 2.2051 1.8746 2.9514 3.8605 3.8471l16.5188 7.3471c2.8735 1.2451 5.5031 3.3872 5.5031 7.0348 0 2.0052-.7559 3.7994-1.5444 4.6939Zm-22.9642-9.6319L8.5641 41.964c.1475 3.0516 2.7039 5.5798 5.7742 5.5798 1.1865 0 2.3168-.4376 3.5628-1.1868l5.9322-3.7907-9.3019-4.1982Zm-.6319-30.7689c-2.5785 1.5904-4.2122 3.7499-4.2122 7.0501 0 3.5842 2.2263 5.6356 5.7918 7.2272l17.6561 7.8473c2.0846.9432 2.7379 2.0578 2.7379 3.4541 0 .7958-.4485 1.5949-1.0881 2.1434l1.0354-.6554c2.221-1.3946 3.6155-3.2883 3.6155-6.2884 0-3.8471-2.53-5.9566-5.6513-7.3512l-17.1822-7.6347c-1.6792-.7464-3.3522-1.588-3.3522-3.6313 0-.8588.254-1.5653.6493-2.1611Zm14.8613 20.6993c1.4232.6341 2.8437 1.274 4.2599 1.9236.1163.0548.232.1107.3461.1701.1054.0548.2096.112.3121.1721.6329.3704 1.2377.867 1.5131 1.5671.0826.2099.1336.4311.1592.655.0233.2052.0332.4169.0052.622-.0335.2456-.1169.483-.2314.7022-.1452.278-.3404.5233-.5657.7405-.0902.0829-.1809.1653-.2721.2473l-8.8744-3.9753 1.5972-.9034c1.3396-.7464 1.7726-1.2033 1.7726-1.7005 0-.0775-.0069-.1508-.0218-.2207Zm-14.2429-5.3416 8.9292 3.9681-2.3342 1.3462c-.6414.3984-1.0881.7587-1.0881 1.2577 0 .0694.0101.1372.0296.2035-1.0679-.4754-2.1352-.9522-3.2015-1.4314-.2384-.1075-.477-.2149-.7131-.3275-.1403-.0668-.2799-.1352-.418-.2065-.1058-.0546-.2108-.1108-.3145-.1692-.5827-.3284-1.1644-.7417-1.4824-1.3479-.0535-.102-.0989-.2082-.1358-.3174-.0652-.1926-.1036-.3937-.1204-.5962-.0256-.3095-.0111-.6287.0438-.9345.0383-.2126.1016-.4206.1961-.6152.0702-.1447.1573-.2788.2524-.4082.0524-.0684.1066-.135.1625-.2006.0646-.0738.1294-.1475.1944-.2209ZM35.9082 8.9986l-10.9341 6.6427 9.4072 4.1982 1.1408-.6555c2.1229-1.208 3.3171-2.8964 3.3171-5.3495 0-2.2911-1.4536-3.9758-2.931-4.8359ZM14.8997 6.9824 26.2202 0c1.477.8452 2.9134 2.5614 2.9134 4.8536 0 2.4533-1.2274 4.0916-3.2995 5.3496l-4.5632 2.781c-.4042.2465-.9478.6456-.9478 1.2577 0 .1023.0226.2011.0642.2966-1.2989-.5772-2.5964-1.1577-3.8914-1.7437-.1517-.0698-.3032-.14-.4531-.2136-.1458-.0716-.2898-.1463-.4325-.2239-.1139-.0618-.2259-.1273-.336-.1957-.5205-.323-1.014-.7339-1.2859-1.2951-.0574-.1187-.1044-.2424-.1404-.3692-.0683-.2399-.0965-.4889-.0971-.7379-.0008-.286.0327-.5729.1029-.8503.0886-.3504.2384-.6783.4306-.9835l.6153-.9432Z" clip-rule="evenodd"/>
</svg>
