<svg xmlns="http://www.w3.org/2000/svg" fill="none" viewBox="0 0 48 48">
  <path fill="#000" fill-rule="evenodd" d="M33.9411 48H14.0589L0 33.9411V14.0589L14.0589 0h19.8822L48 14.0589v19.8822L33.9411 48Zm-2.8995-7L41 31.0416V16.9584L31.0416 7H16.9584L7 16.9584v14.0832L16.9584 41h14.0832ZM16.893 24l11.7422 11.804-4.696 4.696-11.7421-11.7422-.0011.0011L7.5 24l5.8119-5.7489h9.3919L16.893 24Zm17.7951 5.7489h-9.3919L31.107 24 19.3648 12.196l4.696-4.696 11.7421 11.7422.0011-.0011L40.5 24l-5.8119 5.7489Z" clip-rule="evenodd"/>
</svg>
