<svg xmlns="http://www.w3.org/2000/svg" fill="none" viewBox="0 0 48 48">
  <path fill="#000" d="M23.1957 35.8071c.0349-.5078-.1851-.9912-.5725-1.2997-1.9934-.2856-3.7902-1.1833-5.1934-2.4964-.4846-.1121-1.0023.018-1.3786.3637l-.0813.0747c-1.6361 1.503-5.2352 4.8095-6.88528 6.3366-.487.4474-.5901 1.1763-.2462 1.7411.65275 1.0502 1.13216 1.9974 1.55538 2.8335.8846 1.7479 1.5235 3.0102 2.9866 3.7131 1.4631.7029 2.8483.413 4.7663.0117.9176-.192 1.9572-.4095 3.1855-.556.6561-.0844 1.1611-.6202 1.2065-1.2798.1649-2.2798.5086-7.2821.657-9.4425Zm8.7569-3.4429c-.3768-.3451-.8946-.4746-1.3791-.3618-1.4016 1.315-3.1973 2.215-5.1901 2.5032-.387.309-.6063.7927-.5708 1.3004l.0007.0091c.1516 2.1652.5011 7.1562.6688 9.4326.0462.6595.552 1.1946 1.2081 1.2781 1.2285.1449 2.2683.3611 3.1861.5519 1.9186.3988 3.3044.6869 4.7665-.018 1.4621-.7048 2.0994-1.968 2.9817-3.717.4221-.8367.9002-1.7845 1.5516-2.8356.3432-.5652.2391-1.294-.2485-1.7408-1.6587-1.5309-5.2844-4.853-6.9131-6.3454l-.0619-.0567ZM15.042 31.112c.4194-.2898.6604-.7641.6594-1.2598-.8377-1.4254-1.3181-3.0853-1.3181-4.8564 0-.2559.01-.5095.0298-.7604-.2152-.4464-.6388-.7681-1.1423-.8463l-.0504-.0078c-2.1672-.3366-7.06494-1.0971-9.30838-1.4372-.6536-.1016-1.2879.2724-1.5151.8934-.41429 1.165-.85612 2.1303-1.24613 2.9824-.815276 1.7812-1.404101 3.0677-1.041474 4.6492.362827 1.5815 1.453494 2.4832 2.963554 3.7316.72239.5972 1.54077 1.2737 2.42135 2.142.4751.46 1.2091.5206 1.7532.1447 1.86919-1.2815 5.93988-4.094 7.74698-5.3425l.0476-.0329Zm19.6791-7.737c-.5034.0789-.9265.401-1.1411.8477.0204.2551.0308.5129.0308.7731 0 1.7666-.478 3.4226-1.3117 4.8455-.0004.4958.2413.9696.661 1.2589l.0459.0316c1.8079 1.2456 5.8843 4.054 7.7558 5.3335.5446.3752 1.2785.3136 1.753-.1469.8795-.8696 1.697-1.5473 2.4187-2.1455 1.5083-1.2503 2.5978-2.1533 2.9584-3.7353.3606-1.582-.2299-2.8676-1.0475-4.6477-.3911-.8516-.8343-1.8163-1.2501-2.9808-.228-.6206-.8629-.9939-1.5163-.8915-2.2605.3457-7.2165 1.1221-9.3569 1.4574ZM13.629 21.813c.4871.1468 1.0072.0401 1.394-.2684.7114-1.845 1.9763-3.416 3.5908-4.5094.216-.447.2038-.9795-.0495-1.4224l-.0452-.0791c-1.0982-1.9204-3.5349-6.18144-4.6611-8.13443-.3282-.57403-1.0164-.8364-1.6437-.6267-1.1694.40283-2.1999.6596-3.10953.88626-1.90149.47381-3.27485.81603-4.28555 2.08575-1.01059 1.26962-1.03559 2.68412-1.07021 4.64232-.01657.937-.03533 1.9984-.16529 3.2281-.0634.6581.347 1.2694.9804 1.46 2.1872.6672 6.99038 2.1134 9.06488 2.738Zm15.7884-6.2073c-.2527.4432-.2642.9757-.0477 1.4223 1.6161 1.0914 2.883 2.6609 3.5968 4.5048.3873.308.9075.4139 1.3944.2666l.1567-.0474c2.1498-.6504 6.7717-2.0488 8.9046-2.7026.6331-.1915 1.0427-.8033.9784-1.4613-.1316-1.2295-.1517-2.2909-.1695-3.2278-.0372-1.9583-.0641-3.3727-1.0764-4.64101-1.0124-1.26835-2.3861-1.60876-4.2882-2.08008-.9099-.22547-1.9408-.48091-3.1108-.88223-.6276-.20881-1.3154.05447-1.6429.6289-1.1393 1.98187-3.6228 6.33832-4.6954 8.21982Zm-9.3838-.701c.1884.4721.5955.8125 1.0777.923.911-.2866 1.8805-.4412 2.8857-.4412 1.0053 0 1.9747.1546 2.8858.4412.4822-.1105.8893-.4509 1.0777-.923.8026-2.0115 2.6608-6.66892 3.5003-8.79512.245-.61402.022-1.31569-.5327-1.67582-1.0436-.66393-1.8863-1.3101-2.6301-1.88049C26.7432 1.36108 25.6203.5 23.997.5c-1.6233.000068-2.7462.86116-4.301 2.05336-.7438.57036-1.5865 1.2165-2.63 1.8804-.5547.36013-.7778 1.0618-.5327 1.67582.8394 2.1262 2.6977 6.78362 3.5003 8.79512Zm11.4841 10.1025c0-4.1508-3.3699-7.5207-7.5207-7.5207s-7.5207 3.3699-7.5207 7.5207 3.3699 7.5207 7.5207 7.5207 7.5207-3.3699 7.5207-7.5207Z"/>
</svg>
