<svg xmlns="http://www.w3.org/2000/svg" fill="none" viewBox="0 0 48 48">
  <path fill="#CDCCCC" fill-rule="evenodd" d="M31.2681 25.0022c0-4.0335-3.2772-7.3108-7.2604-7.3108-4.0336 0-7.3108 3.2268-7.3108 7.2604s3.2772 7.2604 7.2604 7.3108c4.084.0505 7.3108-3.2268 7.3108-7.2604Z" clip-rule="evenodd"/>
  <path fill="#51B5D1" d="M21.6884 15.7251c-.6554.2017-1.3109-.2017-1.563-.8067l-3.6302-9.12586c-.1513-.4034 0-.8572.3529-1.1093l4.5882-3.3277c1.563-1.1596 3.6806-1.1596 5.1932 0l4.5882 3.3781c.353.2017.4538.6555.353 1.0589l-3.6303 9.12586c-.2521.6555-.9075 1.0084-1.6134.8571-.7059-.2016-1.5126-.3025-2.3193-.3025-.7563 0-1.563.1009-2.3193.2521Zm8.0672 1.7143c1.2604.958 2.2688 2.2184 2.8739 3.6302.3025.605 1.1092.958 1.7142.7563l9.3277-2.8235c.4033-.1008.6554-.5546.6554-.958l-.2017-5.6974c-.1008-1.9159-1.4117-3.52936-3.2268-4.03356l-5.4958-1.5126c-.4537-.1008-.8571.0505-1.0588.4034l-4.9411 8.52086c-.2521.4538-.1512 1.3109.353 1.7143Zm-16.1343 4.4369-9.3781-2.7227c-.4033-.2016-.6554-.5546-.605-.9579l.2017-5.6974c.0504-1.916 1.3613-3.52936 3.126-4.08396l5.4957-1.563c.4034-.1009.8067.0504 1.0588.4033l4.9412 8.47046c.3529.5546.2016 1.3613-.3026 1.7647-1.2604.958-2.2184 2.2185-2.8739 3.6806-.3025.6051-1.0588.9076-1.6638.7059Zm33.9828 5.647-2.2689-5.1932c-.1512-.4034-.5546-.6555-.958-.5546l-9.6805 1.563c-.7059.1008-1.2101.7059-1.1597 1.4117v.3025c0 1.5126-.3529 2.9748-1.0084 4.2353-.3025.605-.1008 1.3613.4538 1.7143L41.1 36.498c.3529.2521.8571.2017 1.1596-.1008l4.2353-3.7815c1.4621-1.3109 1.9159-3.3277 1.1092-5.0924Zm-33.1761-2.521c0 1.5126.4033 2.9748 1.0588 4.2353.2521.6554.1008 1.4117-.5042 1.8151l-8.0671 5.4957c-.4034.2521-.8067.2017-1.1597-.1008l-4.2352-3.7311C.0583996 31.456-.3954 29.3888.3609 27.6241l2.2689-5.1932c.1513-.3529.5546-.5546.958-.5546l9.6805 1.5126c.7059.1008 1.2101.7059 1.1597 1.4117v.2017Zm17.546 7.2604c-.5042-.4537-1.2605-.4537-1.8151-.0504-1.1596 1.0084-2.5714 1.7143-4.1344 2.0672-.6555.1009-1.1596.7563-1.1092 1.4622l.8067 9.7814c.0504.4034.4033.7563.8067.8067l5.647.958c1.8655.3529 3.731-.605 4.6386-2.3193l2.6218-5.042c.2017-.3529.1513-.8571-.1512-1.1596l-7.3109-6.5042ZM22.0414 34.33c-1.5631-.353-3.0252-1.0589-4.1849-2.0168-.5042-.4538-1.3109-.353-1.7647.0504l-7.2604 6.7058c-.3025.3025-.3529.7563-.1512 1.1092l2.6722 5.042c.9075 1.6638 2.8235 2.5714 4.689 2.2184l5.647-1.0083c.4034-.1009.7059-.4538.7563-.8572l.7059-9.7814c.0504-.7059-.4538-1.3613-1.1092-1.4621Z"/>
</svg>
