<svg xmlns="http://www.w3.org/2000/svg" fill="none" viewBox="0 0 48 48">
  <path fill="#000" fill-rule="evenodd" d="M16.5704 1.05199 4.04696 13.5755C3.37783 14.2496 3.00162 15.1604 3 16.1102v28.2931c0 .9539.37894 1.8687 1.05346 2.5432C4.72798 47.6211 5.64283 48 6.59674 48H28.5078c.9548-.0011 1.8702-.3813 2.5448-1.057l12.5235-12.5235c.3344-.3331.5999-.7288.7812-1.1646.1814-.4358.2751-.9031.2758-1.3751V3.59676c0-.47318-.0934-.9417-.2748-1.37874-.1814-.43703-.4472-.83397-.7823-1.16809-.335-.334123-.7327-.598848-1.1702-.779011-.4376-.1801633-.9063-.27222308-1.3795-.27090505H19.1102C18.1579.0016451 17.245.379801 16.5704 1.05199ZM37.7451 30.8779l-4.2429 4.243c-.5627.5607-1.3246.8759-2.119.8766h-8.5911c-.1775-.0001-.351-.053-.4985-.1518-.1475-.0989-.2623-.2393-.3299-.4035-.0676-.1641-.085-.3447-.0498-.5187.0351-.1741.1211-.3338.247-.4589l5.9261-5.9111c.126-.1251.212-.2848.2471-.4588.0351-.174.0178-.3546-.0498-.5188-.0676-.1641-.1824-.3045-.3299-.4034-.1475-.0988-.321-.1517-.4986-.1518h-8.3356c-.3986 0-.7808-.1584-1.0626-.4402-.2819-.2818-.4402-.6641-.4402-1.0626V7.5141c0-.39857.1583-.78082.4402-1.06265.2818-.28183.664-.44017 1.0626-.44017H37.129c.3986 0 .7808.15834 1.0626.44017.2819.28183.4402.66408.4402 1.06265v21.2448c-.0034.7959-.3222 1.5579-.8867 2.119Z" clip-rule="evenodd"/>
</svg>
