<svg xmlns="http://www.w3.org/2000/svg" fill="none" viewBox="0 0 48 48">
  <path fill="#000" fill-rule="evenodd" d="M1.28889 0H14.713c1.1359 0 1.7148 1.36731.9175 2.17034L2.23917 15.6156c-.80829.8139-2.1954789.2496-2.1954789-.8898L6e-8 1.2805C6e-8 .57514.567984 0 1.28889 0ZM46.7315 48H33.2879c-1.1367 0-1.716-1.3673-.9181-2.1703l13.389-13.4453c.8088-.8139 2.1968-.2496 2.1968.8898l.0438 13.4453C48.0213 47.4249 47.442 48 46.7315 48ZM1.99757 36.3679 36.3767 1.99716c2.6635-2.662881 6.974-2.662881 9.6257 0 2.6635 2.66277 2.6635 6.97214 0 9.62334L11.6233 46.0029c-2.65177 2.6628-6.97399 2.6628-9.62573 0-2.663425-2.6629-2.663425-6.9722 0-9.635Z" clip-rule="evenodd"/>
</svg>
