<svg xmlns="http://www.w3.org/2000/svg" fill="none" viewBox="0 0 48 48">
  <path fill="#000" d="m35.4718 9.08565-3.9095-3.87003c-.2906-.28749-.7658-.28749-1.0562 0l-6.8612 6.79158c-.2905.2877-.2905.758 0 1.0455l3.9096 3.8701c.2904.2875.7657.2875 1.0562 0l6.8611-6.7917c.2906-.28753.2906-.75796 0-1.04545Zm-18.974 1.89985 7.9286 7.8483c.589.5831.589 1.5369 0 2.1203L10.5122 34.7273c-.58917.5831-1.55282.5831-2.14197 0L.441748 26.879c-.588997-.5831-.588997-1.5369 0-2.1202L14.356 10.9855c.5892-.583 1.5528-.583 2.1418 0Zm23.1319 2.1119 7.9284 7.8483c.5892.583.5892 1.5369 0 2.1202L33.6439 36.8391c-.589.5831-1.5528.5831-2.142 0l-7.9283-7.8482c-.5892-.5831-.5892-1.537 0-2.1202l13.9141-13.7733c.5892-.5832 1.5528-.5832 2.142 0ZM20.5408 31.0773l3.9096 3.8699c.2906.2875.2906.7579 0 1.0455l-6.8612 6.7916c-.2904.2877-.7657.2877-1.0562 0l-3.9095-3.8699c-.2906-.2875-.2906-.7579 0-1.0455l6.8611-6.7916c.2905-.2877.7657-.2877 1.0562 0Z"/>
</svg>
