<svg width="48" height="48" viewBox="0 0 48 48" fill="none" xmlns="http://www.w3.org/2000/svg">
<path fill-rule="evenodd" clip-rule="evenodd" d="M18.2018 39.566C16.7921 39.3953 14.7052 37.0501 12.9282 37.0907C11.2298 37.1296 11.7109 38.6066 11.7109 38.6066C13.2189 41.1219 15.6256 40.7543 18.2018 39.566ZM35.4577 28.7516C34.5139 30.2495 30.7581 31.3517 29.8568 33.3762C28.9954 35.3112 30.9166 35.5562 30.9166 35.5562C34.5554 35.1973 35.4238 32.2886 35.4577 28.7516ZM18.1808 26.9077C21.0135 26.667 25.3567 22.1242 28.909 22.3328C32.3042 22.5322 31.2359 25.4528 31.2359 25.4528C28.0389 30.3773 23.25 29.4695 18.1808 26.9077ZM34.7855 13.2089C37.6182 13.4496 41.9614 17.9924 45.5137 17.7839C48.9089 17.5845 47.8406 14.6638 47.8406 14.6638C44.6436 9.73936 39.8547 10.6472 34.7855 13.2089Z" fill="#B20C0C"/>
<path fill-rule="evenodd" clip-rule="evenodd" d="M26.6857 36.0827C24.0385 34.0812 20.8466 36 19.3415 37.6162C14.7944 42.4992 11.6962 38.5536 11.6962 38.5536C11.6962 38.5536 13.2861 43.6289 19.5116 43.7131C21.3842 43.7384 23.0335 43.4158 25.2362 41.5363C26.9392 40.0831 28.1889 37.2192 26.6857 36.0827ZM36.0537 17.3325C32.3867 19.2494 32.848 23.8698 33.8675 26.4277C36.9475 34.1557 30.849 35.5446 30.849 35.5446C30.849 35.5446 37.4169 36.4578 40.8301 29.4858C41.8567 27.3886 42.3723 25.3578 41.4279 21.8732C40.6978 19.1791 38.1358 16.2441 36.0537 17.3325ZM1.45619 19.3312C6.89579 15.5163 13.1446 19.5837 16.0402 22.925C24.7882 33.02 31.2692 25.3478 31.2692 25.3478C31.2692 25.3478 27.725 35.3883 15.2634 35.111C11.5151 35.0276 8.23849 34.2642 3.96599 30.3462C0.662595 27.3169 -1.63251 21.4974 1.45619 19.3312ZM18.0609 20.7855C23.5005 24.6004 29.7493 20.533 32.6449 17.1916C41.393 7.09671 47.8739 14.7688 47.8739 14.7688C47.8739 14.7688 44.3297 4.72841 31.8681 5.00561C28.1198 5.08901 24.8432 5.85241 20.5707 9.77051C17.2674 12.7998 14.9722 18.6193 18.0609 20.7855Z" fill="#F04E23"/>
</svg>
