<svg width="48" height="48" viewBox="0 0 48 48" fill="none" xmlns="http://www.w3.org/2000/svg">
<path fill-rule="evenodd" clip-rule="evenodd" d="M26.6857 36.0827C24.0385 34.0812 20.8466 36 19.3415 37.6162C14.7944 42.4992 11.6962 38.5536 11.6962 38.5536C11.6962 38.5536 13.2861 43.6289 19.5116 43.7131C21.3842 43.7384 23.0335 43.4158 25.2362 41.5363C26.9392 40.0831 28.1889 37.2192 26.6857 36.0827ZM11.7064 37.7818C11.8219 37.4359 12.1408 37.1088 12.9282 37.0907C14.2001 37.0616 15.6307 38.2547 16.8581 38.9979C16.3387 39.2829 15.7774 39.4862 15.185 39.5433C15.052 39.5561 14.9183 39.5613 14.7847 39.5585C14.5405 39.5535 14.297 39.5215 14.0597 39.4637C13.7789 39.3952 13.5045 39.2915 13.2491 39.1559C12.8888 38.9646 12.5606 38.724 12.269 38.439C12.2147 38.3842 12.162 38.3283 12.111 38.2704C11.9748 38.1086 11.8401 37.9456 11.7064 37.7818ZM36.0537 17.3325C32.3867 19.2494 32.848 23.8698 33.8675 26.4277C36.9475 34.1557 30.849 35.5446 30.849 35.5446C30.849 35.5446 37.4169 36.4578 40.8301 29.4858C41.8567 27.3886 42.3723 25.3578 41.4279 21.8732C40.6978 19.1791 38.1358 16.2441 36.0537 17.3325ZM34.2189 29.8846C34.2748 30.6909 34.1995 31.5058 33.9094 32.2643C33.8489 32.4226 33.7793 32.5774 33.7008 32.7276C33.5456 33.0248 33.3553 33.3032 33.1356 33.5564C32.8549 33.8799 32.5273 34.1613 32.1704 34.3976C31.7441 34.6798 31.2753 34.9033 30.7837 35.0451C30.5558 35.1051 30.3274 35.1629 30.0986 35.2193C29.7081 34.9221 29.4127 34.3737 29.8568 33.3762C30.5191 31.8887 32.7223 30.8991 34.2189 29.8846ZM1.45619 19.3312C6.89579 15.5163 13.1446 19.5837 16.0402 22.925C24.7882 33.02 31.2692 25.3478 31.2692 25.3478C31.2692 25.3478 27.725 35.3883 15.2634 35.111C11.5151 35.0276 8.23849 34.2642 3.96599 30.3462C0.662595 27.3169 -1.63251 21.4974 1.45619 19.3312ZM20.3998 26.1419C23.0124 24.7933 26.192 22.1733 28.909 22.3328C30.9689 22.4538 31.3858 23.5765 31.395 24.4408L30.8762 25.0379L30.8262 25.0931L30.7894 25.1325C30.2126 25.7347 29.5337 26.2448 28.8058 26.6505C28.1816 26.9984 27.5128 27.268 26.8177 27.436C26.316 27.5573 25.8016 27.6254 25.2854 27.6372C24.9561 27.6447 24.6262 27.6296 24.2989 27.5927C24.0742 27.5675 23.8506 27.532 23.6291 27.487C22.4749 27.2528 21.3942 26.7674 20.3998 26.1419ZM18.0609 20.7855C23.5005 24.6004 29.7493 20.533 32.6449 17.1916C41.393 7.09674 47.8739 14.7688 47.8739 14.7688C47.8739 14.7688 44.3297 4.72844 31.8681 5.00564C28.1198 5.08904 24.8432 5.85244 20.5707 9.77054C17.2674 12.7998 14.9722 18.6193 18.0609 20.7855ZM37.0052 13.9751C38.1073 13.2825 39.3178 12.7598 40.6093 12.5629C40.8962 12.5192 41.1856 12.4919 41.4756 12.4819C42.0057 12.4636 42.5373 12.5041 43.0585 12.6024C43.746 12.7319 44.4127 12.9617 45.0396 13.2713C45.844 13.6685 46.5834 14.1939 47.2288 14.8164C47.2974 14.8844 47.365 14.953 47.4309 15.0236C47.6227 15.2356 47.812 15.4499 47.9999 15.6654C47.9939 16.5311 47.582 17.6624 45.5137 17.7839C42.797 17.9434 39.6177 15.3239 37.0052 13.9751Z" fill="black"/>
</svg>
