<svg width="48" height="48" viewBox="0 0 48 48" fill="none" xmlns="http://www.w3.org/2000/svg">
<path d="M47.2134 12.1581L47.4501 12.0979L47.5 36.6548L40.4389 25.4229C39.7122 24.2839 39.2666 22.9829 39.1391 21.6305C39.0096 20.2778 39.2038 18.9137 39.7011 17.6537C40.1856 16.3947 40.9621 15.2745 41.9643 14.3894C42.9645 13.5043 44.1627 12.8806 45.4514 12.5721L47.2134 12.1581ZM42.2453 0.0376434C42.9331 0.0395039 43.6117 0.181646 44.2458 0.455717C44.8782 0.729791 45.4514 1.13027 45.9302 1.63363C46.9157 2.65422 47.4649 4.03225 47.4575 5.46548V10.5019L45.1352 11.0665L43.8003 11.3902C42.591 11.6885 41.3319 11.699 40.119 11.4209C38.9061 11.1429 37.7727 10.5837 36.8038 9.78668C35.909 9.05651 35.1712 8.14415 34.6369 7.10743C34.1044 6.07069 33.7882 4.93221 33.7087 3.76411C33.7087 3.56837 33.7087 3.38017 33.7087 3.1769V0L42.2453 0.0376434ZM0.529581 5.43537C0.523664 4.01109 1.0715 2.64266 2.05292 1.6306C3.03416 0.618537 4.36872 0.0456099 5.76338 0.0376434H32.1907V3.13174C32.1759 3.35482 32.1759 3.57867 32.1907 3.80175C32.1075 4.97012 31.7895 6.10849 31.257 7.14506C30.7227 8.18165 29.9831 9.09391 29.0864 9.82432C28.1231 10.6182 26.9933 11.1761 25.786 11.4553C24.5786 11.7346 23.3252 11.7278 22.1206 11.4354L0.5 6.2936L0.529581 5.43537ZM5.76338 48C4.36872 47.992 3.03416 47.4191 2.05292 46.407C1.0715 45.395 0.523664 44.0264 0.529581 42.6022V7.88957L20.263 12.6022C21.5563 12.9213 22.7559 13.5524 23.7614 14.4426C24.7672 15.3328 25.5475 16.4562 26.0411 17.7186C26.533 18.9809 26.7216 20.3454 26.5921 21.6977C26.4609 23.05 26.0153 24.3506 25.2905 25.4905L24.7155 26.4014L11.1298 47.9848L5.76338 48ZM47.5 42.6322C47.4945 44.0514 46.9416 45.4111 45.9598 46.4159C44.978 47.4208 43.6486 47.99 42.2601 48H12.9358L17.5724 40.6223L25.9838 27.2597C26.7234 26.0766 27.744 25.1029 28.9495 24.428C30.155 23.7532 31.5085 23.3987 32.8822 23.3976C34.269 23.3996 35.6335 23.7612 36.8445 24.4486C38.0574 25.1359 39.078 26.1266 39.8121 27.3275L47.4926 39.5306L47.5 42.6322Z" fill="#F68E1E"/>
</svg>
