<svg width="48" height="48" viewBox="0 0 48 48" fill="none" xmlns="http://www.w3.org/2000/svg">
<path d="M11.411 12.8037C12.4613 12.8037 13.3128 11.9522 13.3128 10.9018C13.3128 9.85148 12.4613 9 11.411 9C10.3606 9 9.50914 9.85148 9.50914 10.9018C9.50914 11.9522 10.3606 12.8037 11.411 12.8037Z" fill="black"/>
<path d="M36.1347 21.2668V30.3005C36.1347 32.2972 37.6149 33.8189 39.558 33.8189C41.4817 33.8189 42.9813 32.297 42.9808 30.3587L42.9812 21.2668C42.9813 19.9539 44.0457 18.8896 45.3586 18.8895H47.7359V30.1103C47.7359 34.6268 44.0745 38.2881 39.558 38.2881C35.0415 38.2881 31.3801 34.6268 31.3801 30.1103V18.8895H33.7574C35.0704 18.8895 36.1347 19.9539 36.1347 21.2668Z" fill="#4E91E6"/>
<path fill-rule="evenodd" clip-rule="evenodd" d="M25.1992 11.6626H27.5765V35.9109C27.5765 37.2238 26.5121 38.2881 25.1992 38.2881H22.8219V14.0399C22.8219 12.7269 23.8863 11.6626 25.1992 11.6626Z" fill="#4E91E6"/>
<path d="M4.75457 11.6626L4.75446 20.6898C6.25941 19.3264 8.17898 18.5091 10.2699 18.5091C15.1015 18.5091 19.0183 22.873 19.0183 28.256C19.0183 28.2971 19.018 28.3381 19.0176 28.379C19.0181 28.4172 19.0183 28.4554 19.0183 28.4937C19.0176 34.0564 14.7609 38.2881 9.50913 38.2881C4.35006 38.2881 0.150573 34.0564 0.00395971 28.7791L0 28.779V14.0399C0 12.7188 1.07666 11.6626 2.37728 11.6626H4.75457ZM9.41404 22.8833C6.68313 22.8833 4.46929 25.3313 4.46929 28.3511C4.46929 31.3709 6.68313 33.8189 9.41404 33.8189C12.145 33.8189 14.3588 31.3709 14.3588 28.3511C14.3588 25.3313 12.145 22.8833 9.41404 22.8833Z" fill="#4E91E6"/>
</svg>
