<svg width="48" height="48" viewBox="0 0 48 48" fill="none" xmlns="http://www.w3.org/2000/svg">
<path fill-rule="evenodd" clip-rule="evenodd" d="M40.785 32.767C44.768 32.767 48 36 48 39.982C48 43.964 44.768 47.197 40.785 47.197C36.803 47.197 33.57 43.964 33.57 39.982C33.57 36 36.803 32.767 40.785 32.767ZM20.135 6.95L12.238 47.197H-2.28882e-05L20.135 6.95ZM34.55 1C32.538 11.171 28.784 30.147 25.895 44.773C24.625 46.289 22.732 47.197 20.702 47.197H13.257L21.758 3.876C23.014 2.09 25.074 1 27.299 1H34.55ZM35.57 1H48C48 1 35.852 25.272 29.128 38.71L27.45 42.065C30.265 27.814 33.696 10.47 35.57 1ZM7.21497 1C11.197 1 14.43 4.233 14.43 8.215C14.43 12.197 11.197 15.43 7.21497 15.43C3.23297 15.43 -2.28882e-05 12.197 -2.28882e-05 8.215C-2.28882e-05 4.233 3.23297 1 7.21497 1Z" fill="black"/>
</svg>
