<svg width="48" height="48" viewBox="0 0 48 48" fill="none" xmlns="http://www.w3.org/2000/svg">
<path fill-rule="evenodd" clip-rule="evenodd" d="M24 48.0045C10.7452 48.0045 0 37.2584 0 24.0023C0 10.7462 10.7452 0 24 0C37.2548 0 48 10.7462 48 24.0023C48 37.2584 37.2548 48.0045 24 48.0045ZM15.5096 14.9379H13.2602C12.4215 14.9379 11.7417 15.6178 11.7417 16.4564C11.7417 17.2951 12.4215 17.9751 13.2602 17.9751H15.5096C16.348 17.9751 17.0279 17.2951 17.0279 16.4564C17.0279 15.6178 16.348 14.9379 15.5096 14.9379ZM15.5096 24.0495H13.2602C12.4215 24.0495 11.7417 24.7294 11.7417 25.568C11.7417 26.4066 12.4215 27.0868 13.2602 27.0868H15.5096C16.348 27.0868 17.0279 26.4066 17.0279 25.568C17.0279 24.7294 16.348 24.0495 15.5096 24.0495ZM15.5096 33.1611H13.2602C12.4215 33.1611 11.7417 33.8409 11.7417 34.6796C11.7417 35.5182 12.4215 36.1983 13.2602 36.1983H15.5096C16.348 36.1983 17.0279 35.5182 17.0279 34.6796C17.0279 33.8409 16.348 33.1611 15.5096 33.1611ZM35.3618 14.9362H20.2335C19.3951 14.9362 18.7153 15.616 18.7153 16.4546C18.7153 17.2933 19.3951 17.9734 20.2335 17.9734H35.3618C36.2005 17.9734 36.8803 17.2933 36.8803 16.4546C36.8803 15.616 36.2005 14.9362 35.3618 14.9362ZM35.3618 24.0477H20.2335C19.3951 24.0477 18.7153 24.7276 18.7153 25.5662C18.7153 26.4048 19.3951 27.0849 20.2335 27.0849H35.3618C36.2005 27.0849 36.8803 26.4048 36.8803 25.5662C36.8803 24.7276 36.2005 24.0477 35.3618 24.0477Z" fill="#00BBBC"/>
</svg>
