<svg width="48" height="48" viewBox="0 0 48 48" fill="none" xmlns="http://www.w3.org/2000/svg">
<path d="M47.4719 16.0446H9.44729L9.78337 12.3804C9.9274 11.2714 10.6476 10.5 11.7518 10.5H46.4156C47.2318 10.5 48 11.175 48 11.9946L47.7599 15.225C47.751 15.3238 47.7454 15.4142 47.7403 15.496C47.7182 15.853 47.7063 16.0446 47.4719 16.0446Z" fill="#1471EA"/>
<path fill-rule="evenodd" clip-rule="evenodd" d="M14.2964 26.9893C15.4486 26.9893 16.2168 26.3143 16.2168 25.1089C16.2168 24.4821 15.7847 24.0482 15.3526 23.8071C14.7991 23.5689 12.0313 23.6213 9.50455 23.6692C7.42903 23.7085 5.51605 23.7447 5.12632 23.6143C4.69422 23.5179 4.35814 22.9393 4.55019 22.3125C4.64621 21.8786 5.12632 21.4446 5.75046 21.4446H47.1838C47.1838 21.6558 47.1724 21.8214 47.1608 21.9912C47.1485 22.1703 47.1358 22.3544 47.1358 22.6018C47.1173 22.9364 47.0702 23.3211 47.0194 23.7367C46.9384 24.3989 46.8477 25.14 46.8477 25.8804C46.8477 26.2179 46.7997 26.6518 46.7517 27.0375C46.7037 27.375 46.6557 27.8571 46.6557 28.1464C46.5347 29.0942 46.4503 30.287 46.3656 31.4839C46.2823 32.6616 46.1986 33.8436 46.0796 34.8C46.0391 35.0709 46.0214 35.2885 46.0062 35.4753C45.9672 35.9534 45.9447 36.2296 45.5995 36.6804C45.3114 37.1143 44.7833 37.5 44.0631 37.5H9.39928C8.87116 37.5 8.48708 37.3071 8.19901 37.0661C7.62422 36.6043 7.6917 35.8354 7.76677 34.9799C7.78576 34.7636 7.80523 34.5417 7.81492 34.3179L8.24702 29.4964H1.09341C-0.44294 29.4964 -0.298908 27.1339 1.14142 27.0375C4.72081 26.8683 8.92811 26.9217 12.7266 26.97L12.7289 26.97L12.7303 26.97C13.2613 26.9767 13.7842 26.9834 14.2964 26.9893ZM38.4458 27.8571H41.6626L41.9026 24.5786H38.7339L38.4458 27.8571Z" fill="#1471EA"/>
<path d="M1.28545 16.0446H6.23057C6.61465 16.0446 6.90272 15.8518 7.09476 15.7071C7.86294 15.0321 7.47885 13.7786 6.66266 13.7786H1.23744C0.0851789 13.875 -0.298908 16.0446 1.28545 16.0446Z" fill="#1471EA"/>
</svg>
