<svg width="48" height="48" viewBox="0 0 48 48" fill="none" xmlns="http://www.w3.org/2000/svg">
<path d="M41.9608 9.16824C44.0595 7.06952 44.0578 3.67025 41.9608 1.57332C39.8639 -0.523603 36.4646 -0.525309 34.3659 1.57341L19.0525 16.8868C16.9861 18.9533 16.986 22.3041 19.0507 24.3688L34.3659 39.684C36.4628 41.7809 39.8638 41.7809 41.9607 39.684L41.9626 39.6822C44.0595 37.5852 44.0595 34.1843 41.9626 32.0873L34.244 24.3687C32.1776 22.3023 32.1757 18.9533 34.2422 16.8868L41.9608 9.16824Z" fill="black"/>
<path d="M26.0235 32.7559L18.3436 25.0759C15.8882 22.6205 15.8887 18.6365 18.3454 16.1797L19.281 15.2442L12.3528 8.31598C10.2559 6.21905 6.85493 6.21905 4.758 8.31598L4.75616 8.31782C2.65923 10.4147 2.65923 13.8157 4.75616 15.9126L12.4747 23.6312C14.5412 25.6977 14.543 29.0467 12.4766 31.1132L4.758 38.8317C2.65928 40.9305 2.66098 44.3297 4.75791 46.4267C6.85484 48.5236 10.2541 48.5253 12.3528 46.4266L26.0235 32.7559Z" fill="black"/>
<path d="M47.2094 14.8079C47.2094 14.2661 46.9941 13.7459 46.6102 13.3621L46.6085 13.3603C46.2246 12.9764 45.7044 12.7611 45.1627 12.7611C44.6209 12.7611 44.0972 12.9764 43.7134 13.3603L37.8459 19.2278C37.0728 20.0009 37.0727 21.2529 37.8458 22.0261L43.7151 27.8953C44.099 28.2792 44.6192 28.4944 45.1627 28.4962C45.7063 28.4944 46.2264 28.2791 46.6103 27.8953C46.9942 27.5114 47.2094 26.9912 47.2112 26.4477C47.2094 25.9042 46.9942 25.384 46.6103 25.0002L43.6362 22.0261C42.8649 21.2547 42.8649 20.0026 43.638 19.2295L46.6103 16.2572C46.9942 15.8734 47.2112 15.3514 47.2094 14.8079Z" fill="black"/>
<path d="M1.59909 34.6397C1.21522 34.2558 1.00184 33.7338 1.00184 33.1921C1.00005 32.6486 1.21527 32.1284 1.60093 31.7427L4.57319 28.7705C5.34631 27.9974 5.34622 26.7453 4.5731 25.9722L1.60085 22.9999C1.21698 22.616 1.00179 22.0958 1 21.5523C1 21.0105 1.21706 20.4886 1.60093 20.1047C1.9848 19.7209 2.50497 19.5056 3.04848 19.5038C3.59199 19.5056 4.11216 19.7209 4.49603 20.1047L10.3653 25.974C11.1366 26.7453 11.1367 27.9974 10.3636 28.7705L4.49611 34.6379C4.11045 35.0236 3.5902 35.2388 3.04848 35.2388C2.50676 35.2388 1.98296 35.0235 1.59909 34.6397Z" fill="black"/>
</svg>
