<svg width="48" height="48" viewBox="0 0 48 48" fill="none" xmlns="http://www.w3.org/2000/svg">
<path fill-rule="evenodd" clip-rule="evenodd" d="M6.62 11.3873C11.9873 6.95337 16.8788 4.31276 21.2945 3.46549C24.4209 2.85716 27.6588 3.22729 30.5673 4.52549C38.5673 8.12367 39.8218 17.5891 37.4164 23.7091C40.02 12.3909 34.7582 7.65822 29.9873 6.24185C27.1764 5.40731 23.9873 5.64185 21.2291 6.52367C16.2382 8.11458 12.6836 11.7655 9.98364 13.9455C8.11273 14.2455 6.77637 13.7219 6.61273 11.3873H6.62Z" fill="black"/>
<path fill-rule="evenodd" clip-rule="evenodd" d="M15.86 13.7709C14.9145 18.5418 15.6582 22.7745 18.8764 24.6891C21.4218 26.2036 24.9854 26.1254 27.6691 25.0709C30.1273 24.1054 32.1473 22.3436 34.5782 20.5127C36.3073 20.1981 36.9418 21.14 36.8454 22.1981C33.8473 24.6054 30.7982 26.4491 27.6527 27.2418C25.3473 27.8218 23.1763 27.7981 20.9509 26.9236C14.9964 24.5836 14.2127 17.8327 15.86 13.7709Z" fill="black"/>
<path fill-rule="evenodd" clip-rule="evenodd" d="M26.1782 22.1037C25.5327 22.3146 24.9727 22.6055 24.6509 23.1255C24.6055 23.3073 24.7055 23.2892 24.7745 23.3164L25.1564 23.3983C25.2818 23.4201 25.2691 23.4801 25.2655 23.5801C25.2655 23.6346 25.2509 23.6873 25.2455 23.7419C24.7457 23.7169 24.2497 23.6407 23.7655 23.5146V23.5092C24.3873 22.4692 25.1873 21.9873 26.1782 22.1037ZM26.3 20.151C24.9436 20.5746 23.7418 21.071 23.0018 21.7873C22.8382 21.9801 23.1145 22.0619 23.2509 22.1273L23.7382 22.3601L23.3836 23.4146C22.6481 23.197 21.948 22.8736 21.3055 22.4546C22.4818 20.991 24.1782 20.2728 26.3 20.151ZM28.6255 17.8019C26.3325 18.0528 24.0889 18.6403 21.9673 19.5455C21.82 19.6401 21.7709 19.7728 21.84 20.0201L22.04 20.9583L21.0164 22.2437C20.4222 21.8507 19.8969 21.3623 19.4618 20.7983L19.4545 20.8055C20.9673 18.7673 27.1182 17.0401 28.6255 17.8019ZM32.2473 15.4092C28.1818 15.1328 24.5091 15.9092 20.9636 17.4237C20.8491 17.4764 20.7818 17.5837 20.8182 17.811C20.8545 18.0383 21 18.8546 20.8182 19.0001C20.2225 19.4182 19.6674 19.8911 19.16 20.4128C18.7768 19.8695 18.46 19.2823 18.2164 18.6637C21.6055 15.6764 28.8036 14.2455 32.2473 15.4092ZM32.66 13.3946C28.6455 12.5983 24.6709 13.1492 20.9873 14.7892C20.6709 14.9292 20.6236 15.1728 20.5727 15.471C20.5218 15.7692 20.4618 16.0601 20.4055 16.3546C19.7055 16.611 18.9273 17.1546 18.0327 18.1219C17.8019 17.4291 17.696 16.7008 17.72 15.971C21.1982 13.1364 29.6236 11.5055 32.66 13.3946ZM24.7273 11.2601C22.4909 11.9692 21.2582 11.8419 20.8927 13.8055L17.7345 15.5219C17.8077 14.7888 17.9576 14.0655 18.1818 13.3637C20.209 12.2503 22.431 11.5362 24.7273 11.2601ZM25.0655 9.56189C23.6727 9.90007 22.5691 9.70553 22.0564 11.0892C20.8491 11.4201 19.6145 12.091 18.3636 12.9164C18.6857 12.1608 19.1367 11.4668 19.6964 10.8655C21.5236 9.98189 23.3018 9.66916 25.0655 9.56189ZM27.6364 8.39825C30.7436 9.22734 32.1727 10.9019 33.1309 12.811C30.4309 9.04898 26.3873 7.97602 20.8889 9.84437L20.749 9.89233L20.7874 9.8634C22.455 8.60317 24.5176 7.83414 27.6364 8.39825Z" fill="black"/>
<path d="M36.7273 44.3073L37.6891 45.0873L36.7273 45.8655L35.7736 45.0953L34.8218 45.8655L33.8682 45.0953L32.9145 45.8655L31.9527 45.0873L32.9145 44.3073L33.8682 45.0791L34.8218 44.3073L35.7736 45.0791L36.7273 44.3073ZM34.1909 38.8291V42.7346H35.48C35.5655 42.7409 35.6404 42.678 35.6491 42.5927V41.2709L36.7873 40.4746V43.5237C36.7863 43.95 36.4409 44.2954 36.0145 44.2964H32.8891V39.7382L34.1909 38.8291ZM24.9709 38.8291V42.7346H26.0436C26.1288 42.7399 26.2032 42.6775 26.2127 42.5927V41.2709L27.3509 40.4746L27.3509 42.7346L28.5921 42.7346C28.6689 42.7302 28.733 42.671 28.7418 42.5927V41.2709L29.88 40.4746L29.88 42.7346L31.1212 42.7346C31.198 42.7302 31.2621 42.671 31.2709 42.5927V41.2709L32.4091 40.4746V43.5237C32.4051 43.9488 32.0615 44.2924 31.6363 44.2964H29.8618L29.862 43.6837C29.7859 44.0318 29.4775 44.2929 29.1073 44.2964H27.3273L27.3273 43.709C27.2427 44.0449 26.9398 44.2939 26.5782 44.2964H23.6691V39.7382L24.9709 38.8291ZM23.1582 40.4746V43.5237C23.1542 43.9495 22.8094 44.2934 22.3836 44.2964H20.6109V42.7346H21.8491C21.9342 42.7399 22.0086 42.6775 22.0182 42.5927V41.2709L23.1582 40.4746ZM11.9454 39.5527L14.7854 42.0473C15.2582 42.5309 15.46 44.2964 13.7036 44.2964H11.9309V42.7346H13.1709C13.42 42.8218 13.7382 42.5291 13.5345 42.2837L11.9182 40.9164L11.9454 39.5527ZM16.7563 38.8273V42.7291H18.8636C19.0309 42.7182 19.0654 42.6128 18.9491 42.5182L17.1091 40.9818C17.1091 40.9818 17.6263 40.595 18.1509 40.2039L18.2557 40.1257C18.7441 39.7617 19.2092 39.4161 19.2363 39.4L20.8727 39.3764L18.7163 40.9837L19.6873 41.7491C20.54 42.3618 20.3818 43.5673 19.5927 44.1127C19.2527 44.3473 18.8309 44.2637 18.4182 44.2946H15.4545V39.7364L16.7563 38.8273ZM19.7036 38.6982L17.1182 40.6091L17.1073 39.8691L18.7054 38.7091L19.7036 38.6982ZM33.1145 36.6218C33.1922 36.6193 33.2684 36.643 33.3309 36.6891C33.394 36.735 33.4301 36.8093 33.4273 36.8873C33.4273 37.0473 33.3345 37.1255 33.1491 37.1255C32.9636 37.1255 32.8418 37.0473 32.8418 36.8873C32.8323 36.8131 32.8583 36.7387 32.9119 36.6865C32.9656 36.6343 33.0406 36.6104 33.1145 36.6218ZM44.0982 34.1382V34.7673C44.0982 34.9655 44.2563 35.0673 44.5745 35.0727H44.9273C45.1291 35.0727 45.2309 34.9673 45.2309 34.7546V34.1382H45.6618V34.7818C45.6577 34.879 45.697 34.9729 45.7691 35.0382C45.8407 35.1041 45.9354 35.1393 46.0327 35.1364C46.2382 35.1364 46.3418 35.0455 46.3418 34.8655V34.1382H46.7654V34.7818C46.763 34.8789 46.8036 34.972 46.8763 35.0364C46.9487 35.1026 47.0438 35.1384 47.1418 35.1364C47.3454 35.1364 47.4473 35.0455 47.4473 34.8655V34.1382H47.8763V34.8091C47.8831 34.9925 47.8316 35.1733 47.7291 35.3255C47.6236 35.4708 47.4521 35.5535 47.2727 35.5455C47.0373 35.544 46.8156 35.4348 46.6709 35.2491C46.5468 35.4229 46.3512 35.5317 46.1382 35.5455C45.8959 35.5282 45.6758 35.3983 45.5436 35.1946C45.4026 35.3718 45.1947 35.4829 44.9691 35.5018L44.5745 35.5091H44.4036V35.4927C44.284 35.4741 44.1768 35.4087 44.1054 35.3109C44.1176 35.6358 44.0217 35.9555 43.8327 36.22C43.6399 36.485 43.3273 36.6358 43 36.6218H42.4345L42.3636 36.1837H42.9654C43.1437 36.1853 43.3161 36.1205 43.4491 36.0018C43.5854 35.8868 43.6628 35.7166 43.66 35.5382V34.1382H44.0982ZM15.2182 32.4527L15.2782 32.8891L14.14 33.3146L15.3473 34.6509C15.4415 34.7645 15.5489 34.8664 15.6673 34.9546C15.794 35.0328 15.9402 35.0738 16.0891 35.0727H16.1673C16.3073 35.0727 16.3963 35.0273 16.4327 34.9673C16.4662 34.8642 16.4786 34.7553 16.4691 34.6473V32.7055H16.9V34.84C16.9122 35.0226 16.8461 35.2018 16.7182 35.3327C16.5781 35.4565 16.3958 35.5216 16.2091 35.5146H15.8763V35.5C15.6524 35.4832 15.4459 35.373 15.3073 35.1964C15.2218 35.4073 15.02 35.5146 14.7054 35.5146H13.4091C13.3414 35.5137 13.274 35.5076 13.2073 35.4964C13.1239 35.4604 13.0475 35.4099 12.9818 35.3473C12.8674 35.4514 12.72 35.5119 12.5654 35.5182L11.7818 35.5091H11.6127V35.4927C11.4924 35.4747 11.3843 35.4092 11.3127 35.3109C11.3254 35.6356 11.2301 35.9553 11.0418 36.22C10.8488 36.4847 10.5364 36.6355 10.2091 36.6218H9.63634L9.56543 36.1837H10.1691C10.3474 36.186 10.5201 36.1211 10.6527 36.0018C10.789 35.8868 10.8664 35.7166 10.8636 35.5382V34.1382H11.3V34.7673C11.3 34.9655 11.46 35.0673 11.7763 35.0727H12.4182C12.5087 35.083 12.5996 35.0568 12.6709 35C12.7259 34.9244 12.7512 34.8312 12.7418 34.7382V34.1382H13.18V34.7382C13.165 34.8434 13.2023 34.9493 13.28 35.0218C13.3709 35.0636 13.4712 35.0812 13.5709 35.0727H14.6963C14.8109 35.0727 14.8782 34.9982 14.8782 34.8473C14.8794 34.7995 14.8618 34.7531 14.8291 34.7182L13.6909 33.5237L13.6109 33.0327L15.2182 32.4527ZM8.43998 33.7564C8.73088 33.7291 9.00383 33.9006 9.10543 34.1746C9.18746 34.446 9.22191 34.7296 9.20725 35.0127V35.5582L9.21271 35.5637C9.21686 35.8477 9.09663 36.1194 8.88362 36.3073C8.67806 36.5064 8.4025 36.6167 8.11634 36.6146H7.54907L7.49452 36.1764H8.03998C8.22826 36.1826 8.41197 36.1177 8.55452 35.9946C8.69349 35.8709 8.77235 35.6933 8.77089 35.5073C8.49805 35.526 8.22488 35.476 7.97634 35.3618C7.74401 35.2086 7.61641 34.9387 7.64543 34.6618C7.64543 34.2982 7.73271 34.0418 7.90725 33.8927C8.06378 33.7872 8.25199 33.739 8.43998 33.7564ZM32.0091 34.1291V34.7582C32.0091 34.9564 32.1691 35.0582 32.4854 35.0637H33.1618C33.2524 35.0741 33.3434 35.0479 33.4145 34.9909C33.4682 34.9147 33.4927 34.8218 33.4836 34.7291V34.1291H33.92V34.7891C33.9241 34.9668 33.8662 35.1403 33.7563 35.28C33.647 35.422 33.4773 35.5041 33.2982 35.5018L32.4836 35.5091H32.3636V35.5C32.2242 35.4886 32.0971 35.416 32.0163 35.3018C32.029 35.6265 31.9338 35.9462 31.7454 36.2109C31.5525 36.4756 31.24 36.6264 30.9127 36.6127H30.3454L30.2745 36.1746H30.8782C31.0565 36.1769 31.2292 36.112 31.3618 35.9927C31.4981 35.8777 31.5755 35.7075 31.5727 35.5291V34.1291H32.0091ZM5.28907 36.1055C5.46422 36.1055 5.57775 36.1785 5.58982 36.3214L5.5907 36.3446L5.58981 36.3677C5.58409 36.4274 5.5561 36.4832 5.51089 36.5237C5.45842 36.5718 5.38938 36.5979 5.31816 36.5964C5.24224 36.5987 5.16782 36.575 5.10725 36.5291C5.04773 36.4876 5.01187 36.4199 5.01089 36.3473C5.01089 36.1873 5.10362 36.1055 5.28907 36.1055ZM4.45089 36.1055C4.62604 36.1055 4.73956 36.1785 4.75164 36.3214L4.75252 36.3446L4.75163 36.3677C4.7459 36.4274 4.71792 36.4832 4.67271 36.5237C4.62024 36.5718 4.55119 36.5979 4.47998 36.5964C4.40406 36.5987 4.32963 36.575 4.26907 36.5291C4.20955 36.4876 4.17368 36.4199 4.17271 36.3473C4.17271 36.1873 4.26543 36.1055 4.45089 36.1055ZM32.7163 36.0018C32.9236 36.0018 33.0273 36.0909 33.0273 36.2709C33.0273 36.4273 32.9345 36.5037 32.7454 36.5037C32.5563 36.5037 32.4418 36.4273 32.4418 36.2709C32.4401 36.1987 32.4684 36.1289 32.52 36.0782C32.5727 36.0276 32.6433 36.0002 32.7163 36.0018ZM33.5545 36.0018C33.7503 36.0018 33.8536 36.0813 33.8645 36.2418L33.8654 36.2709C33.8654 36.4273 33.7709 36.5037 33.5836 36.5037C33.3963 36.5037 33.28 36.4273 33.28 36.2709C33.2774 36.1985 33.3058 36.1284 33.3582 36.0782C33.4106 36.0273 33.4814 35.9998 33.5545 36.0018ZM42.0254 32.4564L42.0909 32.8946L40.96 33.3182L41.8563 34.3218C41.9454 34.4309 42.0262 34.5463 42.0982 34.6673C42.1483 34.7416 42.1767 34.8286 42.18 34.9182C42.18 35.3164 41.9563 35.5146 41.5127 35.5146L40.3091 35.5091H40.1473C39.9559 35.5168 39.7678 35.4584 39.6145 35.3437C39.4957 35.4453 39.347 35.5054 39.1909 35.5146H36.8891C36.7108 35.5159 36.5423 35.433 36.4345 35.2909C36.322 35.1531 36.2621 34.9798 36.2654 34.8018V34.1418H36.7018V34.7418C36.6913 34.8352 36.7174 34.9291 36.7745 35.0037C36.8465 35.0604 36.938 35.0865 37.0291 35.0764H39.0618C39.1518 35.0869 39.2423 35.0607 39.3127 35.0037C39.3681 34.9282 39.3933 34.8349 39.3836 34.7418V34.1418H39.8273V34.7418C39.8273 34.9655 39.9873 35.0764 40.3091 35.0764H41.5127C41.6273 35.0764 41.6854 35.0091 41.6854 34.8727C41.6872 34.817 41.6669 34.7628 41.6291 34.7218L40.4945 33.5273L40.4218 33.04L42.0254 32.4564ZM25.4218 33.7691C26.017 33.7691 26.3139 34.0691 26.3127 34.6691L25.3127 35.24C25.0858 35.3721 24.8349 35.4574 24.5745 35.4909C24.4673 35.5037 24.2673 35.5109 23.9727 35.5127L23.9691 35.5091H23.7873C23.6032 35.513 23.4232 35.4547 23.2763 35.3437C23.1586 35.4458 23.0102 35.5059 22.8545 35.5146H20.5545C20.3768 35.5156 20.209 35.4327 20.1018 35.2909C19.9882 35.1536 19.9276 34.9801 19.9309 34.8018V34.1418H20.3636V34.7418C20.3536 34.8355 20.3804 34.9293 20.4382 35.0037C20.5102 35.0604 20.6016 35.0865 20.6927 35.0764H22.7273C22.8173 35.0869 22.9077 35.0607 22.9782 35.0037C23.0326 34.9278 23.0572 34.8346 23.0473 34.7418V34.1418H23.4927V34.7418C23.4927 34.9527 23.6363 35.0655 23.9236 35.0764C24.2853 35.09 24.6464 35.0345 24.9872 34.9127L25.3036 34.7473C25.4248 34.6818 25.603 34.5818 25.8382 34.4473C25.7851 34.3315 25.6808 34.2473 25.5563 34.22C25.428 34.2025 25.2985 34.1958 25.1691 34.2H24.4036L24.3436 33.7691H25.4218ZM3.41089 32.4509L3.47089 32.8873L2.33271 33.3127L3.54725 34.6618L3.85998 34.9764C3.96106 35.0477 4.08399 35.0811 4.20725 35.0709H4.80907C4.89962 35.0812 4.99053 35.055 5.0618 34.9982C5.11684 34.9226 5.14208 34.8294 5.13271 34.7364V34.1364H5.56907V34.7364C5.56907 34.8818 5.60362 34.9764 5.67089 35.02C5.75698 35.0608 5.85227 35.0784 5.94725 35.0709C6.15487 35.0777 6.3627 35.0692 6.56907 35.0455C6.66725 35.0091 6.71452 34.8782 6.71452 34.6509V34.1364H7.16181V34.7964C7.16286 34.9767 7.09823 35.1512 6.97998 35.2873C6.86938 35.4286 6.69943 35.5106 6.51998 35.5091H5.80362C5.72814 35.5068 5.65286 35.5001 5.57816 35.4891C5.49629 35.4534 5.42171 35.4028 5.35816 35.34C5.24377 35.4441 5.09636 35.5047 4.9418 35.5109H3.99998V35.4927C3.79522 35.467 3.60961 35.3594 3.48543 35.1946C3.40907 35.4037 3.2218 35.5091 2.92362 35.5091H0.632706C0.453579 35.5114 0.283826 35.4292 0.174524 35.2873C0.0614394 35.149 0.00147106 34.9749 0.00543355 34.7964V34.1364H0.441797V34.7364C0.433213 34.8288 0.458405 34.9211 0.512706 34.9964C0.58416 35.0543 0.675846 35.0811 0.767252 35.0709H2.90362C3.04907 35.0709 3.1218 35.02 3.1218 34.9146C3.11191 34.8375 3.07367 34.7668 3.01452 34.7164L1.87998 33.5218L1.79816 33.0309L3.41089 32.4509ZM27.3036 32.7055V35.5091H26.8782V32.7055H27.3036ZM18.1018 32.7055V35.5091H17.6782V32.7055H18.1018ZM28.9091 33.4L29.8945 34.4418C30.0242 34.5738 30.0967 34.7514 30.0963 34.9364H30.0836C30.0888 35.1007 30.016 35.2578 29.8873 35.36C29.7713 35.4517 29.6294 35.5037 29.4824 35.5089L28.0818 35.5091L28.0218 35.0709H29.4091C29.5709 35.0709 29.6509 35.0146 29.6509 34.9018C29.6509 34.8423 29.6281 34.7851 29.5872 34.7418L28.6018 33.6964L28.9091 33.4ZM8.15271 34.3364C8.11086 34.4433 8.09287 34.5581 8.09998 34.6727C8.08112 34.8284 8.17354 34.9762 8.3218 35.0273C8.47033 35.0642 8.6235 35.0789 8.77634 35.0709V34.6218C8.77634 34.3382 8.6618 34.1946 8.43452 34.1946C8.32062 34.1809 8.20962 34.2368 8.15271 34.3364ZM46.8727 33.3327C47.0545 33.3327 47.1836 33.4109 47.1836 33.5655C47.1864 33.6383 47.1572 33.7088 47.1036 33.7582C47.0503 33.8089 46.979 33.8363 46.9054 33.8346C46.8274 33.8355 46.7515 33.8091 46.6909 33.76C46.6316 33.7131 46.598 33.641 46.6 33.5655C46.6 33.4109 46.6909 33.3327 46.8727 33.3327ZM46.04 33.3327C46.2254 33.3327 46.3382 33.4109 46.3382 33.5655C46.3389 33.6374 46.3099 33.7064 46.2582 33.7564C46.2064 33.8075 46.1363 33.8357 46.0636 33.8346C45.9861 33.8358 45.9107 33.8094 45.8509 33.76C45.7916 33.7131 45.758 33.641 45.76 33.5655C45.76 33.4109 45.8545 33.3327 46.04 33.3327ZM6.40725 33.1891C6.61816 33.1891 6.72725 33.2764 6.72725 33.4491C6.72863 33.5315 6.69648 33.6109 6.63816 33.6691C6.58187 33.7269 6.50432 33.7592 6.42362 33.7582C6.2018 33.7582 6.09089 33.6546 6.09089 33.4491C6.09089 33.2673 6.19634 33.1891 6.40725 33.1891ZM12.3254 33.1655C12.5127 33.1655 12.6254 33.2455 12.6254 33.4073L12.6163 33.4127C12.6174 33.4821 12.5882 33.5485 12.5363 33.5946C12.487 33.6408 12.4221 33.6667 12.3545 33.6673C12.1491 33.6673 12.0454 33.58 12.0454 33.4073C12.0454 33.2346 12.1382 33.1655 12.3254 33.1655ZM13.1545 33.1655C13.3418 33.1655 13.4545 33.2455 13.4545 33.4073V33.4127C13.4556 33.4821 13.4264 33.5485 13.3745 33.5946C13.3229 33.643 13.2543 33.6691 13.1836 33.6673C12.9782 33.6673 12.8745 33.58 12.8745 33.4073C12.8745 33.2346 12.9673 33.1655 13.1545 33.1655ZM21.2854 33.1637C21.4727 33.1637 21.5891 33.2437 21.5891 33.4037V33.4073C21.5894 33.4765 21.5604 33.5426 21.5091 33.5891C21.4557 33.6371 21.3862 33.6631 21.3145 33.6618C21.1073 33.6618 21.0036 33.5764 21.0036 33.4037C21.0036 33.2309 21.0982 33.1637 21.2854 33.1637ZM22.1309 33.1637C22.3218 33.1637 22.4309 33.2437 22.4309 33.4037V33.4073C22.4313 33.4765 22.4022 33.5426 22.3509 33.5891C22.2972 33.6377 22.2269 33.6637 22.1545 33.6618C21.9473 33.6618 21.8436 33.5764 21.8436 33.4037C21.8436 33.2309 21.94 33.1637 22.1309 33.1637ZM38.4636 33.1637C38.6545 33.1637 38.7654 33.2437 38.7654 33.4037V33.4073C38.7663 33.477 38.7364 33.5435 38.6836 33.5891C38.6299 33.6377 38.5596 33.6637 38.4873 33.6618C38.2818 33.6618 38.1782 33.5764 38.1782 33.4037C38.1782 33.2309 38.2727 33.1637 38.4636 33.1637ZM37.62 33.1637C37.8091 33.1637 37.9236 33.2437 37.9236 33.4037V33.4073C37.9238 33.4768 37.8939 33.5431 37.8418 33.5891C37.7893 33.6373 37.7203 33.6633 37.6491 33.6618C37.4418 33.6618 37.3382 33.5764 37.3382 33.4037C37.3382 33.2309 37.4309 33.1637 37.62 33.1637ZM25.1509 32.7182C25.3636 32.7182 25.4673 32.8055 25.4673 32.98C25.4673 33.0605 25.4353 33.1378 25.3783 33.1947C25.3214 33.2517 25.2441 33.2837 25.1636 33.2837C24.9418 33.2837 24.8327 33.1837 24.8327 32.98C24.8327 32.7982 24.9382 32.7182 25.1509 32.7182ZM46.4491 32.7037C46.6363 32.7037 46.7563 32.7837 46.7563 32.94V32.9491C46.756 33.0186 46.7263 33.0846 46.6745 33.1309C46.6212 33.1805 46.551 33.2078 46.4782 33.2073C46.4015 33.2087 46.3268 33.1829 46.2673 33.1346C46.2057 33.0888 46.1694 33.0167 46.1691 32.94C46.1691 32.7837 46.2618 32.7037 46.4491 32.7037Z" fill="black"/>
</svg>
