<svg width="48" height="48" viewBox="0 0 48 48" fill="none" xmlns="http://www.w3.org/2000/svg">
<path fill-rule="evenodd" clip-rule="evenodd" d="M25.1261 35.2763H21.3028L24.1972 29.7267L20.9202 17.3386H24.7677L26.3294 25.1973L30.3235 17.3386H34.173L25.1261 35.2763ZM32.0793 27.6494C33.1213 27.6494 33.9673 28.4953 33.9673 29.5373C33.9673 30.5793 33.1213 31.4253 32.0793 31.4253C31.0373 31.4253 30.1914 30.5793 30.1914 29.5373C30.1914 28.4953 31.0373 27.6494 32.0793 27.6494ZM3.6677 31.4253H0C0 31.4253 1.0193 22.4262 1.5202 17.976C1.7248 16.1575 3.8156 12.4831 8.0206 12.5617C15.0429 12.6931 13.8384 18.1056 13.7835 19.293C13.5911 23.4504 9.515 24.7459 8.4243 24.9446C6.9779 25.208 4.3515 25.1576 4.3515 25.1576L3.6677 31.4253ZM39.0123 31.4253H35.4957C35.4957 31.4253 35.9512 23.0365 36.1452 19.4631C36.1934 18.5762 36.9266 17.8818 37.8148 17.8818C38.7508 17.8818 39.7545 17.8818 39.7545 17.8818L39.0123 31.4253ZM43.6322 31.4253H40.1156C40.1156 31.4253 40.4708 24.8849 40.6875 20.8942C40.7792 19.2047 42.1759 17.8818 43.8679 17.8818C45.8202 17.8818 48 17.8818 48 17.8818L47.9553 20.7255C47.9553 20.7255 46.5988 20.7433 45.5198 20.7574C44.7858 20.7671 44.1847 21.3437 44.1445 22.0767L43.6322 31.4253ZM14.8141 17.3547L14.8158 19.5379C14.8158 19.5379 17.6449 19.7469 17.464 23.0881C10.0966 23.9037 9.5345 25.933 9.4215 27.2046C9.208 29.6061 10.9519 31.2986 13.8949 31.2857C19.799 31.2598 21.1056 25.3592 21.1086 22.978C21.1164 16.7484 14.8141 17.3547 14.8141 17.3547ZM16.9493 25.4582C11.3693 26.0989 12.7887 28.0321 13.0359 28.2964C13.5732 28.8706 16.3111 28.7997 16.9493 25.4582ZM4.898 21.8772C4.898 21.8772 4.6336 15.8688 7.8228 15.9603C9.8467 16.0184 9.7923 17.7817 9.7738 18.7545C9.7383 20.6293 8.7006 21.248 8.1409 21.5987C7.3224 22.1117 4.898 21.8772 4.898 21.8772ZM38.3277 12C39.4248 12 40.3156 12.8908 40.3156 13.988C40.3156 15.0851 39.4248 15.9759 38.3277 15.9759C37.2305 15.9759 36.3397 15.0851 36.3397 13.988C36.3397 12.8908 37.2305 12 38.3277 12Z" fill="black"/>
</svg>
