<svg width="48" height="48" viewBox="0 0 48 48" fill="none" xmlns="http://www.w3.org/2000/svg">
<path fill-rule="evenodd" clip-rule="evenodd" d="M9.94407 11.714C1.95139 17.0148 1.61955 22.9508 1 27.6874C8.6702 30.8097 10.653 32.5075 14.4382 35.7121C15.982 32.6234 16.1569 30.3435 15.8396 26.8552C17.6708 29.4906 17.6621 41.4164 9.41924 45.507C14.0183 46.2599 18.7452 48.2155 23.5132 47.9805C22.8347 33.6835 20.2885 24.7442 9.94407 11.714ZM18.4426 0.117889C33.3135 -0.817646 36.6504 4.00296 41.5682 7.92227C36.1479 17.548 34.8326 23.3306 33.5368 29.818C29.3648 27.8744 27.2615 25.9096 24.7015 22.0041C24.974 26.2756 35.0036 37.5346 47 34.9643C42.8226 39.5674 38.104 43.7635 32.9313 47.4755C23.6525 34.5754 18.4426 22.3075 18.4426 0.117889Z" fill="#FDB913"/>
</svg>
