<svg width="48" height="48" viewBox="0 0 48 48" fill="none" xmlns="http://www.w3.org/2000/svg">
<path fill-rule="evenodd" clip-rule="evenodd" d="M36.4725 17.759C36.826 18.0282 37.0909 18.3998 37.2617 18.8077C37.7768 18.806 38.2915 18.8064 38.8066 18.8077C38.8093 20.7255 38.8062 22.6438 38.8084 24.562C39.183 24.559 39.558 24.5572 39.9331 24.5629C39.934 25.0657 39.934 25.569 39.9335 26.0723C39.5576 26.0749 39.1821 26.0723 38.8066 26.0741C38.8071 26.6832 38.8102 27.2918 38.8053 27.9005C38.2489 27.9013 37.6929 27.9018 37.1365 27.9005C37.1343 27.3116 37.1365 26.7227 37.1357 26.1342C35.2297 26.1333 33.3242 26.1347 31.4183 26.1333C31.5004 25.3877 31.7933 24.6701 32.2461 24.0733C32.7605 23.3915 33.3817 22.8091 34.0007 22.2246L34.1099 22.1214C34.419 21.8288 34.726 21.5342 35.0172 21.2249C35.35 20.8832 35.6232 20.4581 35.6812 19.9759C35.7185 19.6189 35.6654 19.2223 35.4177 18.9461C35.1726 18.6725 34.7835 18.5838 34.4296 18.6062C34.1244 18.6251 33.8134 18.7463 33.6198 18.9909C33.3936 19.2741 33.344 19.6474 33.3053 19.9961C32.7445 19.9333 32.182 19.8863 31.6212 19.8235C31.6888 19.1253 31.9123 18.3923 32.4507 17.9105C33.0221 17.4007 33.8068 17.1908 34.5604 17.1943C35.2319 17.1881 35.9346 17.3366 36.4725 17.759ZM37.1387 20.9381C36.9227 21.3852 36.646 21.8024 36.3153 22.1726C35.9807 22.5338 35.6201 22.8686 35.2582 23.2021L35.1135 23.3356C34.9447 23.4913 34.7763 23.6475 34.6109 23.8067C34.3817 24.0254 34.1753 24.2682 34.0067 24.537C35.0523 24.5392 36.0984 24.5445 37.1444 24.5383C37.1434 24.1784 37.1437 23.8184 37.1442 23.4584L37.1454 22.7384C37.1461 22.1383 37.1455 21.5382 37.1387 20.9381Z" fill="black"/>
<path fill-rule="evenodd" clip-rule="evenodd" d="M34.7392 9.60694C35.0308 9.40405 35.3246 9.2038 35.6184 9.00354C35.9087 9.20116 36.1933 9.40757 36.4818 9.60738C36.1954 10.0883 35.9082 10.5683 35.6193 11.0478C35.3264 10.5669 35.0369 10.0843 34.7392 9.60694Z" fill="black"/>
<path fill-rule="evenodd" clip-rule="evenodd" d="M37.9898 9.75848C38.3688 9.63113 38.7487 9.50729 39.1273 9.37817C39.3749 9.68866 39.6275 9.99475 39.8751 10.3057C39.414 10.7365 38.9534 11.1673 38.494 11.5999C38.3214 10.9872 38.1519 10.3737 37.9898 9.75848Z" fill="black"/>
<path fill-rule="evenodd" clip-rule="evenodd" d="M41.2189 10.9463C41.6717 10.9345 42.1249 10.9547 42.5773 10.9196C42.7578 11.3403 42.9159 11.7706 43.0762 12.1997C42.4249 12.5027 41.7758 12.8114 41.1263 13.1184C41.1508 12.3942 41.1882 11.6705 41.2189 10.9463Z" fill="black"/>
<path fill-rule="evenodd" clip-rule="evenodd" d="M44.2689 13.3965C44.7481 13.5603 45.2206 13.7439 45.6979 13.9138C45.7015 14.4162 45.705 14.919 45.7045 15.4219C44.911 15.4799 44.1174 15.5431 43.3247 15.6116C43.6379 14.8729 43.958 14.1365 44.2689 13.3965Z" fill="black"/>
<path fill-rule="evenodd" clip-rule="evenodd" d="M44.6554 18.8767C45.2654 18.2588 45.8921 17.6576 46.5064 17.0446C46.907 17.4192 47.318 17.7832 47.719 18.1578C47.5126 18.6558 47.3123 19.156 47.1142 19.6575C46.2926 19.4028 45.4779 19.1275 44.6554 18.8767Z" fill="black"/>
<path fill-rule="evenodd" clip-rule="evenodd" d="M44.611 22.6196C45.481 22.2577 46.3466 21.8849 47.2157 21.5204C47.477 22.057 47.7413 22.5924 47.9982 23.1312C47.585 23.5515 47.1915 23.9902 46.7783 24.4096C46.0602 23.8075 45.3229 23.2283 44.611 22.6196Z" fill="black"/>
<path fill-rule="evenodd" clip-rule="evenodd" d="M42.8351 26.0021C43.9176 26.0047 44.9993 26.0372 46.0813 26.0596C46.0936 26.7429 46.1358 27.4249 46.1437 28.1087C45.5183 28.3617 44.8978 28.6269 44.2711 28.8777C43.7964 27.9172 43.3173 26.959 42.8351 26.0021Z" fill="black"/>
<path fill-rule="evenodd" clip-rule="evenodd" d="M39.7087 30.4749C39.725 29.8307 39.714 29.1851 39.7592 28.5417C40.7772 29.1122 41.7987 29.677 42.8171 30.2465C42.4956 30.9057 42.1724 31.564 41.8536 32.2249C41.1237 32.1815 40.3978 32.0901 39.6692 32.0256C39.6828 31.5087 39.674 30.9909 39.7087 30.4749Z" fill="black"/>
<path fill-rule="evenodd" clip-rule="evenodd" d="M33.521 32.5416C34.2034 31.3751 34.9184 30.225 35.614 29.0647C36.3193 30.2351 37.0316 31.4015 37.7263 32.578C37.0505 33.0308 36.3777 33.4888 35.7067 33.9486C35.6557 33.9789 35.5903 34.0474 35.5354 33.9816C34.8665 33.4985 34.1788 33.0374 33.521 32.5416Z" fill="black"/>
<path fill-rule="evenodd" clip-rule="evenodd" d="M1.66265 27.9326C1.94458 27.688 2.22565 27.4416 2.50451 27.1935C2.60464 27.309 2.70565 27.424 2.80753 27.5382C2.62616 27.6959 2.44303 27.8522 2.26078 28.0099C2.4079 28.2259 2.54404 28.4495 2.69159 28.6655C2.8229 28.9097 3.16149 28.8588 3.37931 28.7771C3.36877 28.6625 3.3534 28.5487 3.33759 28.435C3.48164 28.3981 3.62568 28.3621 3.77148 28.3322C3.80486 28.4798 3.78905 28.655 3.89181 28.7775C4.0767 28.8728 4.29891 28.8447 4.49829 28.8201C4.54923 28.6669 4.49653 28.5109 4.45964 28.3612C4.60237 28.3313 4.74466 28.3019 4.88695 28.2712C4.94974 28.4872 5.02177 28.713 4.98005 28.94C4.9291 29.1631 4.69723 29.2926 4.4816 29.3023C4.21152 29.3054 3.91728 29.344 3.68014 29.1851C3.3029 29.3704 2.83432 29.3511 2.46103 29.1644C2.30777 29.2351 2.14923 29.3054 1.97664 29.3041C1.52211 29.3071 1.06759 29.3041 0.613057 29.3054C0.416753 29.301 0.179168 29.2724 0.0667437 29.0884C-0.048755 28.882 0.0298544 28.6374 0.0720136 28.4214C0.221327 28.4482 0.369763 28.4771 0.519955 28.4995C0.516003 28.5878 0.505463 28.6765 0.510733 28.7657C0.580998 28.8456 0.692105 28.8386 0.78872 28.8399C1.17035 28.8386 1.55154 28.839 1.93273 28.8399C2.01705 28.8364 2.12025 28.8491 2.17339 28.767C2.07501 28.4512 1.83348 28.2097 1.66265 27.9326ZM9.09408 27.9312C9.37821 27.6875 9.65927 27.4402 9.94077 27.1938C10.0427 27.3032 10.1481 27.4104 10.2324 27.5346C10.0712 27.7094 9.87183 27.8438 9.70099 28.0089C9.87841 28.2838 10.015 28.6 10.2741 28.8104C10.4058 28.8837 10.6649 28.8152 10.6465 28.6308C10.6443 28.2382 10.5367 27.8565 10.4638 27.4732C10.614 27.445 10.7642 27.4191 10.9157 27.4011C11.0075 27.8803 11.1375 28.3585 11.137 28.8495C11.1463 29.008 11.0325 29.1459 10.8942 29.2091C10.5771 29.3589 10.1968 29.3347 9.89378 29.1639C9.60438 29.3106 9.27369 29.3299 8.95574 29.2939C8.86045 29.275 8.77481 29.2285 8.69005 29.1837C8.44676 29.3088 8.13979 29.3615 7.88332 29.2509C7.90528 29.5508 7.68833 29.7954 7.44372 29.9351C7.26279 30.0348 7.08273 30.1397 6.89082 30.217C6.79816 30.1011 6.74722 29.9579 6.68222 29.8257C6.94747 29.6804 7.2966 29.5947 7.4323 29.2952C7.48895 29.0739 7.36204 28.8644 7.29045 28.6624C7.43011 28.6093 7.57108 28.5583 7.71249 28.5087C7.77089 28.6088 7.79153 28.7507 7.9022 28.8091C8.05986 28.8618 8.23421 28.8398 8.38659 28.7788C8.37825 28.6637 8.36288 28.5495 8.34663 28.4353C8.49111 28.3976 8.63604 28.3624 8.78228 28.3321C8.82136 28.4964 8.78623 28.7498 8.98385 28.8157C9.18894 28.8539 9.40149 28.8438 9.60701 28.8135C9.59867 28.7428 9.58725 28.6707 9.54817 28.6097C9.41291 28.3734 9.24559 28.1569 9.09408 27.9312ZM11.4849 27.411C11.635 27.4105 11.7852 27.4105 11.9354 27.411C11.9359 28.042 11.9363 28.6735 11.9354 29.3051C11.7852 29.3051 11.635 29.3051 11.4849 29.3051C11.484 28.6735 11.484 28.042 11.4849 27.411ZM16.4447 27.4152C16.5804 27.4143 16.7161 27.4143 16.8523 27.4152C16.8527 27.554 16.8527 27.6923 16.8523 27.8315C16.7165 27.8315 16.5804 27.8315 16.4447 27.8311C16.4443 27.6923 16.4443 27.554 16.4447 27.4152ZM17.8821 27.4109C18.0319 27.4105 18.182 27.4105 18.3322 27.4114C18.3327 28.0424 18.3331 28.6735 18.3318 29.3046C18.182 29.305 18.0319 29.305 17.8821 29.305C17.8812 28.6735 17.8817 28.042 17.8821 27.4109ZM4.44384 27.507C4.5791 27.5061 4.71392 27.5061 4.84918 27.507C4.84962 27.6445 4.84962 27.7823 4.84918 27.9202C4.71392 27.9207 4.5791 27.9207 4.44384 27.9207C4.4434 27.7828 4.4434 27.6445 4.44384 27.507ZM8.05239 27.6045C8.18501 27.6037 8.31808 27.6037 8.45071 27.6045C8.45158 27.7367 8.45158 27.8689 8.45115 28.0011C8.31808 28.002 8.18501 28.002 8.05239 28.0015C8.05151 27.8689 8.05151 27.7367 8.05239 27.6045ZM8.57366 27.6041C8.70453 27.6037 8.83584 27.6037 8.96671 27.6054C8.96671 27.7367 8.96671 27.8685 8.96671 28.0002C8.8354 28.002 8.70453 28.002 8.57323 28.0015C8.57279 27.8689 8.57279 27.7367 8.57366 27.6041ZM13.7215 27.5931C13.8585 27.5923 13.9951 27.5923 14.1321 27.5927C14.1321 27.7306 14.1321 27.8685 14.1321 28.0068C13.9951 28.0068 13.8585 28.0068 13.7215 28.0064C13.7211 27.8685 13.7211 27.7306 13.7215 27.5931ZM14.2836 27.5927C14.4198 27.5923 14.5555 27.5923 14.6916 27.5931C14.692 27.7306 14.692 27.8685 14.6916 28.0064C14.5555 28.0068 14.4198 28.0068 14.2836 28.0068C14.2832 27.8685 14.2832 27.7306 14.2836 27.5927ZM19.0269 28.045C19.1574 27.9599 19.2891 27.8773 19.4218 27.7952C19.6093 28.1166 19.8776 28.421 19.9097 28.8065C19.9272 29.0639 19.6967 29.2646 19.4556 29.2931C19.1837 29.3208 18.9097 29.2984 18.637 29.305C18.6361 29.1482 18.6357 28.9914 18.6383 28.8351C18.9084 28.8478 19.1969 28.9102 19.4521 28.7877C19.3256 28.5316 19.1749 28.2888 19.0269 28.045ZM16.0148 27.9708C16.5005 28.0824 16.9831 28.2075 17.4688 28.32C17.4807 28.4543 17.4939 28.5896 17.4803 28.7244C17.435 28.7978 17.3345 28.8096 17.2642 28.8522C16.9946 28.9651 16.7741 29.1798 16.4864 29.2519C16.2489 29.305 16.0038 29.3116 15.7614 29.3041C15.6437 29.3045 15.5379 29.2479 15.4395 29.1908C15.3104 29.2602 15.1676 29.3089 15.0192 29.305C14.5067 29.305 13.9942 29.3059 13.4817 29.305C13.2454 29.3019 12.9749 29.1833 12.9016 28.9405C12.8524 28.7516 12.9244 28.5624 12.9512 28.3766C13.1075 28.3981 13.263 28.4271 13.4193 28.4508C13.4035 28.5417 13.3811 28.6318 13.3759 28.7244C13.4303 28.8228 13.5555 28.8342 13.6565 28.8382C14.0087 28.8417 14.3613 28.8373 14.7135 28.8399C14.8356 28.8386 14.9718 28.8448 15.0723 28.7626C15.1167 28.6629 15.071 28.5523 15.0666 28.4495C15.2168 28.4249 15.3661 28.3955 15.5163 28.3718C15.5471 28.5308 15.5093 28.803 15.7267 28.8329C16.1193 28.8575 16.5124 28.7714 16.8751 28.6239C16.6929 28.5764 16.5097 28.5329 16.3257 28.4952C16.3196 28.5176 16.3077 28.5624 16.302 28.5852C16.1575 28.5492 16.0143 28.5088 15.8716 28.4675C15.9204 28.302 15.9652 28.1359 16.0148 27.9708ZM5.34632 28.5343C5.50924 28.3297 5.70116 28.1123 5.96553 28.0486C6.2176 28.0174 6.41874 28.262 6.43411 28.4965C6.44509 28.7622 6.43938 29.0288 6.43762 29.2949C6.43543 29.5387 6.24439 29.7266 6.05336 29.8518C5.85003 29.9752 5.63353 30.0744 5.41614 30.1702C5.34939 30.0397 5.28396 29.9089 5.22467 29.7749C5.48904 29.6476 5.77406 29.5452 5.99056 29.3388C5.78547 29.2962 5.55799 29.2958 5.38013 29.1737C5.18339 29.0227 5.19349 28.7135 5.34632 28.5343ZM21.8305 28.3622C21.9737 28.3323 22.1164 28.2998 22.2618 28.2822C22.3211 28.5492 22.4532 28.8676 22.2626 29.1122C22.0338 29.363 21.6412 29.3323 21.3409 29.2602C21.3558 29.4882 21.2324 29.699 21.0545 29.8333C20.8363 29.9976 20.582 30.1039 20.3405 30.229C20.275 30.0938 20.2056 29.9603 20.1398 29.825C20.3879 29.6932 20.6883 29.6111 20.8556 29.3696C20.993 29.1399 20.8292 28.8839 20.7493 28.6634C20.8898 28.6098 21.0313 28.5589 21.1727 28.5075C21.2385 28.6252 21.2671 28.8202 21.4348 28.8277C21.5837 28.8338 21.7686 28.8773 21.8902 28.7662C21.903 28.6283 21.8529 28.4957 21.8305 28.3622ZM5.62122 28.8206C5.73276 28.6897 5.86846 28.5808 6.02261 28.5044C6.03008 28.6471 6.02964 28.7907 6.02876 28.9343C5.88998 28.908 5.75121 28.8768 5.62122 28.8206ZM3.10616 29.7147C3.23703 29.7138 3.36834 29.7138 3.49964 29.7143C3.50052 29.8487 3.50052 29.983 3.50008 30.1174C3.36878 30.1174 3.23703 30.1174 3.10529 30.1166C3.10529 29.9822 3.10529 29.8487 3.10616 29.7147ZM3.62087 30.1174C3.62043 29.9826 3.62043 29.8487 3.62175 29.7143C3.75349 29.7138 3.88524 29.7138 4.01742 29.7147C4.0183 29.8487 4.0183 29.9826 4.01786 30.117C3.88568 30.1174 3.75305 30.1174 3.62087 30.1174ZM21.5987 29.7151C21.7296 29.7138 21.8609 29.7138 21.9922 29.7143C21.993 29.8486 21.993 29.983 21.993 30.1174C21.8604 30.1174 21.7278 30.1174 21.5956 30.1156C21.5969 29.9821 21.5982 29.8486 21.5987 29.7151ZM22.1177 29.7143C22.2495 29.7138 22.3817 29.7138 22.5138 29.7147C22.5147 29.8487 22.5134 29.983 22.5108 30.1174C22.3795 30.1174 22.2482 30.1174 22.1173 30.117C22.1169 29.9826 22.1169 29.8482 22.1177 29.7143ZM21.8617 30.2272C21.9935 30.225 22.1257 30.2245 22.2579 30.2254C22.2579 30.3602 22.2565 30.4951 22.2552 30.6303C22.123 30.6303 21.9913 30.6299 21.8591 30.629C21.8591 30.4946 21.8604 30.3607 21.8617 30.2272Z" fill="black"/>
<path fill-rule="evenodd" clip-rule="evenodd" d="M35.5679 11.1826C35.6298 11.1198 35.6983 11.1971 35.7554 11.2287C36.39 11.6801 37.0329 12.1206 37.6653 12.5752C36.9872 13.7073 36.3065 14.8381 35.6324 15.9725C34.928 14.8425 34.242 13.7007 33.5521 12.5615C34.2254 12.1035 34.8938 11.6393 35.5679 11.1826Z" fill="black"/>
<path fill-rule="evenodd" clip-rule="evenodd" d="M29.2036 12.8726C29.9598 12.9029 30.7139 12.967 31.4688 13.0175C31.4723 14.2186 31.4767 15.4197 31.4798 16.6208C30.4354 16.0775 29.3911 15.5347 28.3468 14.9915C28.2409 14.9682 28.3081 14.8628 28.331 14.7991C28.6235 14.1575 28.9159 13.5159 29.2036 12.8726Z" fill="black"/>
<path fill-rule="evenodd" clip-rule="evenodd" d="M25.1098 16.9883C25.743 16.7384 26.3754 16.4841 27.0109 16.2395C27.4803 17.2144 27.9485 18.1902 28.4179 19.1652C27.8448 19.1555 27.2731 19.1191 26.7004 19.1098C26.1831 19.0708 25.6631 19.0883 25.1462 19.0422C25.1431 18.3571 25.1234 17.6729 25.1098 16.9883Z" fill="black"/>
<path fill-rule="evenodd" clip-rule="evenodd" d="M23.2763 22.0061C23.7018 21.5713 24.105 21.1155 24.5358 20.6855C25.2784 21.3039 26.032 21.909 26.7781 22.5234C25.8792 22.8998 24.9846 23.2867 24.0861 23.6644C23.8151 23.1119 23.5442 22.5594 23.2763 22.0061Z" fill="black"/>
<path fill-rule="evenodd" clip-rule="evenodd" d="M24.1515 25.4623C24.9741 25.7078 25.7909 25.9739 26.6134 26.2207C26.0083 26.8421 25.3904 27.4508 24.7764 28.0629C24.3759 27.6927 23.9649 27.3335 23.5617 26.9664C23.7611 26.4662 23.9561 25.9642 24.1515 25.4623Z" fill="black"/>
<path fill-rule="evenodd" clip-rule="evenodd" d="M25.5972 29.6615C26.3504 29.6119 27.1057 29.5947 27.8585 29.5425C27.5502 30.2364 27.2195 30.9201 26.9055 31.6114C26.4597 31.4419 26.021 31.2548 25.5757 31.0844C25.5748 30.6101 25.5924 30.1358 25.5972 29.6615Z" fill="black"/>
<path fill-rule="evenodd" clip-rule="evenodd" d="M28.1856 32.8912C28.8307 32.6088 29.4741 32.323 30.1183 32.0388C30.0714 32.7511 30.0283 33.4634 29.9704 34.1749C29.5233 34.1626 29.0758 34.1477 28.6283 34.1468C28.4825 33.7278 28.3248 33.3124 28.1856 32.8912Z" fill="black"/>
<path fill-rule="evenodd" clip-rule="evenodd" d="M31.3792 34.8313C31.839 34.393 32.2817 33.9367 32.7366 33.4932C32.9197 34.1071 33.1174 34.7175 33.2904 35.3346C32.911 35.4689 32.535 35.6134 32.1539 35.7438C31.8969 35.4382 31.6356 35.1365 31.3792 34.8313Z" fill="black"/>
<path fill-rule="evenodd" clip-rule="evenodd" d="M34.8521 35.4848C35.1164 35.0716 35.3571 34.6434 35.6307 34.2358C35.8814 34.6618 36.1414 35.083 36.3843 35.5138C36.1225 35.682 35.8661 35.8572 35.6083 36.0311C35.3549 35.8502 35.1011 35.671 34.8521 35.4848Z" fill="black"/>
<path fill-rule="evenodd" clip-rule="evenodd" d="M3.72009 31.1056C3.93265 31.1038 4.1452 31.1038 4.35775 31.1056C4.35775 31.3142 4.35775 31.5223 4.35775 31.7309C4.1452 31.7331 3.93265 31.7327 3.72009 31.7314C3.72009 31.5228 3.72009 31.3142 3.72009 31.1056ZM7.9031 32.4941C8.34489 32.1147 8.79064 31.7392 9.23067 31.3575C9.38833 31.5218 9.53325 31.6975 9.68608 31.8661C9.39624 32.1063 9.10639 32.3461 8.81699 32.5863C9.04886 32.9464 9.3857 33.2771 9.42347 33.7251C9.45992 34.0461 9.23287 34.3342 8.94961 34.4571C8.56974 34.646 8.1341 34.5748 7.72568 34.5854C7.51005 34.595 7.31726 34.4936 7.1315 34.3987C6.79466 34.5884 6.39503 34.6174 6.01779 34.5726C5.84828 34.5524 5.69721 34.4712 5.5457 34.4C5.22116 34.5739 4.83777 34.6367 4.47723 34.5555C4.36788 34.5327 4.28092 34.4598 4.19748 34.3908C3.99108 34.5652 3.70387 34.6341 3.44608 34.5357C3.51898 34.819 3.58925 35.1036 3.64458 35.3908C3.11364 35.5722 2.59807 35.7979 2.05746 35.9481C1.70789 36.0504 1.33812 36.1053 0.975816 36.0486C0.495377 35.9599 0.0856427 35.541 0.0513883 35.0465C-0.00482395 34.4141 0.24901 33.8142 0.423355 33.2191C0.646887 33.3057 0.872614 33.3873 1.09834 33.469C0.986356 33.917 0.771169 34.3509 0.798836 34.8234C0.798836 35.0342 0.939366 35.2349 1.13787 35.3065C1.4018 35.4092 1.68813 35.3319 1.95075 35.2661C2.25816 35.1721 2.55196 35.0403 2.85278 34.9275C2.72191 34.4018 2.58314 33.8788 2.45227 33.3535C2.696 33.2894 2.94149 33.2323 3.18566 33.17C3.2489 33.3693 3.26295 33.592 3.3868 33.7672C3.4597 33.8744 3.64458 33.9337 3.73241 33.8124C3.85757 33.6421 3.86987 33.4216 3.90149 33.22C4.14215 33.2622 4.38412 33.2956 4.6239 33.3425C4.58043 33.5011 4.55584 33.6671 4.58482 33.8313C4.73984 33.8867 4.99499 33.9341 5.06394 33.7343C5.06745 33.5656 5.00202 33.4062 4.96469 33.2437C5.18164 33.1809 5.39682 33.1111 5.61201 33.0422C5.6713 33.2451 5.68096 33.4642 5.77538 33.6557C5.90932 33.8915 6.22288 33.9056 6.45959 33.8564C6.53424 33.8322 6.65677 33.816 6.66423 33.7189C6.66731 33.5599 6.61768 33.4062 6.59485 33.2508C6.81882 33.1998 7.04235 33.148 7.265 33.0913C7.31551 33.2925 7.31682 33.509 7.4029 33.7005C7.51269 33.888 7.76037 33.87 7.94877 33.8774C8.20085 33.8682 8.4784 33.9293 8.69973 33.7742C8.6646 33.5841 8.54998 33.4255 8.44634 33.2679C8.27287 33.0048 8.08535 32.7514 7.9031 32.4941ZM14.0399 31.6698C14.2753 31.668 14.5107 31.6689 14.7465 31.6689C14.7469 32.401 14.7456 33.1335 14.7469 33.866C14.8677 33.8709 14.9893 33.8862 15.1097 33.8678C15.2467 33.8296 15.356 33.729 15.4426 33.6205C15.6094 33.404 15.7416 33.1621 15.9125 32.9491C16.1044 32.7168 16.4474 32.5854 16.7346 32.7119C16.9133 32.7853 17.002 32.9732 17.0477 33.1502C17.1289 33.4545 17.2273 33.7589 17.2458 34.0755C17.2739 34.465 16.8918 34.8102 16.5088 34.7676C16.1817 34.7386 15.945 34.4839 15.685 34.3118C15.5462 34.4607 15.3644 34.5757 15.1562 34.5827C14.7821 34.6016 14.4105 34.5318 14.0399 34.4923C14.0399 33.5512 14.0399 32.6105 14.0399 31.6698ZM17.7556 31.669C17.9915 31.6686 18.2277 31.6686 18.464 31.669C18.4649 32.4016 18.4622 33.1336 18.4653 33.8662C18.6704 33.8675 18.8913 33.9162 19.0841 33.8258C19.2571 33.7283 19.1609 33.5025 19.1297 33.3515C19.3564 33.3058 19.5838 33.2645 19.8109 33.2206C19.8486 33.42 19.8609 33.6396 19.987 33.8086C20.0621 33.9184 20.2347 33.893 20.2997 33.7849C20.4099 33.615 20.4046 33.4028 20.4468 33.2109C20.669 33.2518 20.8903 33.2957 21.1143 33.3291C21.102 33.4902 21.0344 33.6514 21.0629 33.8139C21.2329 33.9294 21.4986 33.8951 21.6202 33.7239C21.6185 33.5232 21.5359 33.3335 21.4907 33.1402C21.7164 33.0875 21.943 33.0388 22.17 32.9922C22.2271 33.2939 22.3404 33.5908 22.3281 33.9013C22.2908 34.2654 21.932 34.4849 21.6053 34.5592C21.3058 34.6167 20.9457 34.6145 20.7226 34.373C20.5913 34.4907 20.4314 34.5912 20.2492 34.5877C20.0107 34.6088 19.792 34.4819 19.6352 34.3128C19.4442 34.5495 19.1249 34.593 18.8399 34.5886C18.4763 34.5912 18.1157 34.5337 17.7552 34.4933C17.7556 33.5517 17.7552 32.6102 17.7556 31.669ZM3.28577 31.939C3.50008 31.9355 3.71482 31.9368 3.92957 31.9373C3.92957 32.148 3.92957 32.3588 3.92957 32.5696C3.71482 32.5701 3.50008 32.5714 3.28577 32.5679C3.28577 32.3584 3.28577 32.1485 3.28577 31.939ZM4.16235 31.9386C4.37446 31.936 4.58701 31.9364 4.79957 31.9382C4.79957 32.1481 4.79957 32.3585 4.79957 32.5688C4.58701 32.5706 4.37446 32.571 4.16235 32.5688C4.16191 32.3585 4.16191 32.1486 4.16235 31.9386ZM11.2951 33.4875C11.2951 33.2719 11.2929 33.0558 11.2978 32.8402C11.5068 32.8402 11.7158 32.8376 11.9249 32.8446C11.928 33.0589 11.9262 33.2732 11.9262 33.4875C11.7158 33.488 11.5055 33.488 11.2951 33.4875ZM12.3175 33.0435C12.5437 32.9912 12.7711 32.9443 12.9999 32.9021C13.1633 33.6333 13.3385 34.3623 13.5081 35.0926C12.8313 35.3276 12.1691 35.6218 11.4603 35.7466C11.0738 35.8146 10.6443 35.7685 10.329 35.5173C10.0457 35.3061 9.88193 34.9539 9.88983 34.6021C9.87139 34.0413 10.1182 33.5253 10.2763 33C10.5055 33.0558 10.7356 33.1085 10.9631 33.1713C10.8274 33.6395 10.6083 34.1089 10.6619 34.6078C10.7146 34.9104 11.0431 35.0768 11.329 35.0509C11.8138 35.0092 12.2626 34.8076 12.7184 34.6526C12.5819 34.1168 12.4563 33.5784 12.3175 33.0435ZM16.0293 33.8186C16.1457 33.6469 16.2537 33.4616 16.4228 33.3356C16.5084 33.3927 16.5378 33.4963 16.5659 33.5894C16.6169 33.7717 16.6652 33.9653 16.6191 34.1546C16.4074 34.0707 16.2181 33.9429 16.0293 33.8186ZM6.24482 35.2296C6.44464 35.2296 6.64446 35.2296 6.84428 35.2301C6.84384 35.436 6.8456 35.642 6.84384 35.8479C6.64446 35.8479 6.44464 35.8479 6.24526 35.8479C6.24395 35.642 6.24438 35.4356 6.24482 35.2296ZM7.04496 35.2301C7.24961 35.2296 7.45381 35.2292 7.65846 35.2305C7.65846 35.436 7.6589 35.6416 7.65802 35.8475C7.45382 35.848 7.24961 35.848 7.04584 35.848C7.04452 35.6416 7.04496 35.4356 7.04496 35.2301ZM9.93112 37.3956C9.88808 37.2138 9.76951 37.0535 9.76468 36.8629C10.0159 37.1321 10.1924 37.4786 10.2135 37.8501C10.2535 38.3064 10.1037 38.804 9.75238 39.1101C9.78532 38.9353 9.86305 38.7737 9.90872 38.6029C10.0269 38.2129 10.0308 37.79 9.93112 37.3956ZM0.460678 39.1179C-0.153704 38.5352 -0.153704 37.443 0.463752 36.8633C0.428619 37.078 0.324539 37.273 0.278427 37.4856C0.187961 37.8378 0.19367 38.2102 0.281501 38.5624C0.326295 38.7521 0.445307 38.9203 0.460678 39.1179ZM3.03588 37.3943C3.11932 37.3934 3.20276 37.3934 3.2862 37.3938C3.28664 37.6613 3.2862 37.9292 3.28664 38.1966C3.53125 38.205 3.78377 38.1878 4.00598 38.0741C3.81978 38.021 3.62391 38.0653 3.43991 38.0021C3.46538 37.9077 3.49173 37.8141 3.51676 37.7201C3.80133 37.7724 4.08108 37.8484 4.36214 37.9164C4.36126 37.9955 4.36082 38.075 4.35994 38.1549C4.15398 38.2313 3.98314 38.385 3.76971 38.4412C3.5273 38.4597 3.28269 38.45 3.03984 38.4408C3.01085 38.0926 3.0271 37.743 3.03588 37.3943ZM3.76358 37.4022C3.84439 37.4017 3.92519 37.4022 4.006 37.4026C4.00556 37.4821 4.00556 37.562 4.00556 37.6424C3.92519 37.6424 3.84483 37.6424 3.76446 37.6428C3.76402 37.562 3.76358 37.4821 3.76358 37.4022ZM7.31154 38.435C7.31066 38.0876 7.31066 37.7407 7.31154 37.3938C7.39937 37.3933 7.48721 37.3933 7.57504 37.3938C7.57679 37.663 7.57416 37.9322 7.57679 38.2018C7.66858 38.1987 7.76036 38.1948 7.85215 38.1864C7.83195 38.0788 7.80647 37.9726 7.781 37.8663C7.864 37.8461 7.94788 37.8277 8.0322 37.8123C8.0647 37.9506 8.09764 38.0903 8.10159 38.2334C8.21709 38.2123 8.33303 38.1961 8.44896 38.1772C8.44545 38.121 8.44194 38.0652 8.43799 38.0099C8.51659 37.9941 8.5952 37.9774 8.67381 37.9616C8.69402 38.0358 8.71334 38.11 8.73354 38.1851C8.77175 38.1882 8.80995 38.1921 8.84816 38.197C8.87188 38.1184 8.89339 38.0398 8.9136 37.9607C8.99352 37.9748 9.07301 37.9906 9.15294 38.0055C9.14855 38.0701 9.14459 38.1351 9.14152 38.2005C9.20827 38.1939 9.27458 38.1864 9.34134 38.1785C9.32509 38.096 9.30796 38.0143 9.28908 37.9335C9.37296 37.915 9.45684 37.8962 9.54072 37.8777C9.56267 38.0279 9.66061 38.2119 9.53896 38.3428C9.40765 38.4925 9.1806 38.4833 9.00977 38.4157C8.88154 38.4789 8.73617 38.4701 8.61628 38.3933C8.48014 38.4613 8.32644 38.4715 8.17756 38.4899C8.15868 38.5777 8.18591 38.6612 8.23334 38.7349C8.16834 38.7881 8.10291 38.8408 8.03747 38.8935C7.92197 38.7758 7.87806 38.6151 7.89518 38.4534C7.70064 38.4745 7.50521 38.4583 7.31154 38.435ZM1.82382 38.111C2.06184 37.9415 2.31655 37.7056 2.62923 37.7351C2.97309 37.8207 2.88438 38.4228 2.54799 38.4535C2.32929 38.4689 2.10883 38.4627 1.89013 38.4487C1.91472 38.5523 1.93975 38.6568 1.96347 38.7618C1.69339 38.8518 1.42989 38.9739 1.14444 39.0077C0.933642 39.0358 0.700449 38.9041 0.655216 38.688C0.604273 38.4482 0.714063 38.2159 0.782571 37.992C0.869964 38.0117 0.956917 38.0324 1.04431 38.0539C0.991611 38.2172 0.922224 38.3811 0.928372 38.5563C0.922224 38.6674 1.03816 38.7434 1.13961 38.7425C1.32274 38.7311 1.49225 38.6542 1.66308 38.5949C1.62268 38.3991 1.5735 38.2054 1.52387 38.0122C1.60951 37.9906 1.69514 37.9691 1.78078 37.9489C1.79527 38.0025 1.80932 38.0565 1.82382 38.111ZM6.73975 37.7863C6.83285 37.756 6.97558 37.7472 7.02389 37.8535C7.08186 37.9774 7.10908 38.1139 7.12797 38.2492C7.16354 38.4213 6.96855 38.5843 6.80475 38.5228C6.72482 38.4872 6.65499 38.4336 6.57682 38.395C6.46967 38.431 6.36207 38.4661 6.24789 38.4727C6.2558 38.5386 6.26414 38.6054 6.27161 38.6725C6.06432 38.8074 5.82762 38.9189 5.57334 38.8983C5.36342 38.907 5.14648 38.7806 5.08104 38.5759C5.01956 38.359 5.08104 38.1328 5.17942 37.9374C5.26198 37.9668 5.3441 37.9976 5.42622 38.0283C5.36562 38.1908 5.23695 38.4183 5.39153 38.5663C5.60408 38.7226 5.88031 38.5931 6.08145 38.4789C5.98747 38.4288 5.8891 38.3845 5.8061 38.3177C5.7938 38.229 5.86407 38.1592 5.89744 38.0836C6.04192 38.1754 6.22242 38.2343 6.3915 38.1807C6.53334 38.0731 6.58209 37.8755 6.73975 37.7863ZM2.11368 38.1913C2.25728 38.1083 2.40133 38.0148 2.56909 37.9919C2.56953 38.0543 2.56821 38.1175 2.56601 38.1808C2.41626 38.2062 2.26431 38.204 2.11368 38.1913ZM6.68002 38.179C6.73404 38.1153 6.78981 38.0534 6.8491 37.995C6.87369 38.0986 6.89697 38.2027 6.91541 38.3081C6.83549 38.2677 6.75644 38.2251 6.68002 38.179Z" fill="black"/>
</svg>
