<svg width="48" height="48" viewBox="0 0 48 48" fill="none" xmlns="http://www.w3.org/2000/svg">
<path fill-rule="evenodd" clip-rule="evenodd" d="M37.1744 37.7056C33.8627 40.8918 29.4415 42.6734 24.8459 42.6734C17.5069 42.6734 10.8889 38.1298 8.25192 31.2809C8.20182 31.1456 8.08592 31.0449 7.94502 31.0142C7.80512 30.9787 7.65642 31.0171 7.55122 31.1158L0.142316 37.877C0.0544163 37.9552 0.0030163 38.0665 0.000416301 38.184C-0.0047837 38.3012 0.0389163 38.4156 0.121116 38.4994C4.88082 43.5251 11.506 46.3755 18.4279 46.3755C26.0847 46.3755 33.339 42.8877 38.1206 36.9075C38.1301 36.8963 38.1353 36.882 38.1353 36.8673C38.1353 36.8331 38.1072 36.805 38.073 36.805C38.0547 36.805 38.0372 36.8131 38.0254 36.8271C37.753 37.1234 37.4693 37.4163 37.1744 37.7056ZM27.7481 14.2128C35.3329 16.4054 40.5915 23.3995 40.5915 31.2949C40.5915 35.3624 39.1958 39.3093 36.6388 42.4727C36.5461 42.5838 36.5165 42.735 36.5605 42.8728C36.5999 43.0118 36.7079 43.1213 36.8463 43.1628L46.406 46.1962C46.4483 46.2095 46.4924 46.2162 46.5367 46.2162C46.7296 46.2162 46.9008 46.0888 46.9564 45.9041C47.6485 43.5736 48 41.1552 48 38.7241C48 26.3165 38.8436 15.6598 26.5775 13.7915C26.5463 13.7861 26.5158 13.8055 26.5076 13.836C26.5061 13.8414 26.5054 13.847 26.5054 13.8525C26.5054 13.8818 26.5257 13.9075 26.5542 13.9143C26.955 13.999 27.3529 14.0985 27.7481 14.2128ZM24.2645 20.0034C29.0545 19.2225 33.5773 22.4773 34.3583 27.2672C35.1392 32.0572 31.8844 36.5801 27.0945 37.361C22.3045 38.142 17.7816 34.8872 17.0007 30.0972C16.2197 25.3072 19.4745 20.7844 24.2645 20.0034ZM12.1173 34.1239C11.7725 32.7284 11.5982 31.2962 11.5982 29.8587C11.5982 20.104 19.625 12.0772 29.3797 12.0772C30.3042 12.0772 31.2273 12.1493 32.1405 12.2928C32.1618 12.2959 32.1833 12.2975 32.2047 12.2975C32.4463 12.2975 32.645 12.0988 32.645 11.8572C32.645 11.8272 32.642 11.7972 32.6359 11.7678L30.483 1.97319C30.459 1.85849 30.3885 1.75879 30.2883 1.69799C30.1894 1.63389 30.0681 1.61389 29.9538 1.64289C18.6456 4.34569 10.6028 14.5372 10.6028 26.164C10.6028 29.3047 11.1897 32.418 12.3332 35.3432C12.3449 35.3724 12.3767 35.3888 12.4073 35.3813C12.4343 35.3743 12.4533 35.3497 12.4533 35.3218C12.4533 35.3147 12.4521 35.3076 12.4496 35.3008C12.3268 34.9156 12.2146 34.5197 12.1173 34.1239Z" fill="black"/>
</svg>
