<svg width="48" height="48" viewBox="0 0 48 48" fill="none" xmlns="http://www.w3.org/2000/svg">
<path fill-rule="evenodd" clip-rule="evenodd" d="M37.1744 37.7056C33.8627 40.8918 29.4415 42.6734 24.8459 42.6734C17.5069 42.6734 10.8889 38.1298 8.25192 31.281C8.20182 31.1457 8.08592 31.0449 7.94502 31.0142C7.80512 30.9788 7.65642 31.0171 7.55122 31.1158L0.142316 37.877C0.0544163 37.9551 0.0030163 38.0664 0.000416301 38.1839C-0.0047837 38.3012 0.0389163 38.4156 0.121116 38.4994C4.88082 43.5251 11.506 46.3755 18.4279 46.3755C26.0847 46.3755 33.339 42.8876 38.1206 36.9075C38.1301 36.8963 38.1353 36.882 38.1353 36.8672C38.1353 36.833 38.1072 36.805 38.073 36.805C38.0547 36.805 38.0372 36.813 38.0254 36.827C37.753 37.1234 37.4693 37.4163 37.1744 37.7056ZM27.7481 14.2128C35.3329 16.4054 40.5915 23.3995 40.5915 31.2949C40.5915 35.3624 39.1958 39.3093 36.6388 42.4726C36.5461 42.5837 36.5165 42.735 36.5605 42.8727C36.5999 43.0117 36.7079 43.1213 36.8463 43.1628L46.406 46.1963C46.4483 46.2094 46.4924 46.2161 46.5367 46.2161C46.7296 46.2161 46.9008 46.0888 46.9564 45.904C47.6485 43.5735 48 41.1551 48 38.724C48 26.3164 38.8436 15.6599 26.5775 13.7916C26.5463 13.7861 26.5158 13.8055 26.5076 13.836C26.5061 13.8414 26.5054 13.847 26.5054 13.8526C26.5054 13.8819 26.5257 13.9075 26.5542 13.9143C26.955 13.999 27.3529 14.0985 27.7481 14.2128ZM12.1173 34.1238C11.7725 32.7283 11.5982 31.2962 11.5982 29.8587C11.5982 20.1041 19.625 12.0772 29.3797 12.0772C30.3042 12.0772 31.2273 12.1493 32.1405 12.2928C32.1618 12.2959 32.1833 12.2975 32.2047 12.2975C32.4463 12.2975 32.645 12.0988 32.645 11.8572C32.645 11.8272 32.642 11.7973 32.6359 11.7679L30.483 1.97315C30.459 1.85845 30.3885 1.75875 30.2883 1.69795C30.1894 1.63385 30.0681 1.61385 29.9538 1.64295C18.6456 4.34565 10.6028 14.5372 10.6028 26.164C10.6028 29.3047 11.1897 32.418 12.3332 35.3432C12.3449 35.3724 12.3767 35.3887 12.4073 35.3812C12.4343 35.3742 12.4533 35.3498 12.4533 35.3218C12.4533 35.3147 12.4521 35.3075 12.4496 35.3008C12.3268 34.9156 12.2146 34.5196 12.1173 34.1238Z" fill="#832D6A"/>
<path d="M31.8124 11.2114L29.9221 2.61695C29.9086 2.55065 29.8679 2.49305 29.8099 2.45825C29.7526 2.42195 29.6824 2.41185 29.6172 2.43065C19.0726 5.18195 11.5667 14.6462 11.2896 25.5404C11.2883 25.5726 11.3126 25.6006 11.3446 25.6039C11.3759 25.609 11.406 25.5883 11.4124 25.5573C13.5872 16.499 22.2871 10.4288 31.5393 11.5141C31.5491 11.5153 31.5589 11.5159 31.5687 11.5159C31.7057 11.5159 31.8185 11.4031 31.8185 11.2661C31.8185 11.2477 31.8164 11.2294 31.8124 11.2114Z" fill="url(#paint0_radial_0_1122)"/>
<path d="M37.7417 42.7268L46.1287 45.3876C46.153 45.3953 46.1784 45.3991 46.2039 45.3991C46.3161 45.3991 46.4155 45.3241 46.4462 45.2162C49.329 34.7107 44.8863 23.4844 35.5952 17.7966C35.586 17.7917 35.5758 17.7891 35.5653 17.7891C35.5305 17.7891 35.5018 17.8178 35.5018 17.8527C35.5018 17.8688 35.508 17.8844 35.519 17.8961C42.2742 24.3097 43.1808 34.8774 37.6168 42.3478C37.5685 42.4128 37.5551 42.4976 37.5808 42.5743C37.6072 42.6478 37.667 42.7044 37.7417 42.7268Z" fill="url(#paint1_radial_0_1122)"/>
<path d="M7.4856 32.1043L0.986899 38.0315C0.935199 38.0762 0.905199 38.141 0.904252 38.2093C0.902999 38.2771 0.928999 38.3427 0.976299 38.3914C8.6331 46.1453 20.5811 47.9127 30.1549 42.7076C30.184 42.6926 30.1962 42.6568 30.1824 42.6272C30.1707 42.5981 30.1385 42.5824 30.1084 42.5912C21.1759 45.2369 11.5686 40.738 7.8815 32.1826C7.8509 32.1082 7.7847 32.054 7.7058 32.0387C7.626 32.0203 7.5423 32.0453 7.4856 32.1043Z" fill="url(#paint2_radial_0_1122)"/>
<path fill-rule="evenodd" clip-rule="evenodd" d="M24.2645 20.0034C29.0545 19.2225 33.5773 22.4773 34.3583 27.2673C35.1392 32.0572 31.8844 36.5801 27.0945 37.361C22.3045 38.142 17.7816 34.8872 17.0007 30.0972C16.2197 25.3073 19.4745 20.7844 24.2645 20.0034Z" fill="#FAA61A"/>
<path fill-rule="evenodd" clip-rule="evenodd" d="M33.2944 25.8628C31.741 21.659 27.0669 19.5071 22.863 21.0605C18.6591 22.6139 16.5073 27.2881 18.0607 31.4919C19.6141 35.6958 24.2882 37.8476 28.4921 36.2942C32.6959 34.7408 34.8478 30.0667 33.2944 25.8628Z" fill="url(#paint3_radial_0_1122)"/>
<defs>
<radialGradient id="paint0_radial_0_1122" cx="0" cy="0" r="1" gradientUnits="userSpaceOnUse" gradientTransform="translate(18.5 12.0002) rotate(-27.4744) scale(14.089 15.191)">
<stop stop-color="#EC008C" stop-opacity="0.407843"/>
<stop offset="1" stop-color="#621A4F"/>
</radialGradient>
<radialGradient id="paint1_radial_0_1122" cx="0" cy="0" r="1" gradientUnits="userSpaceOnUse" gradientTransform="translate(46 33.9999) rotate(-92.7263) scale(10.5119 55.1984)">
<stop stop-color="#EC008C" stop-opacity="0.407843"/>
<stop offset="1" stop-color="#621A4F"/>
</radialGradient>
<radialGradient id="paint2_radial_0_1122" cx="0" cy="0" r="1" gradientUnits="userSpaceOnUse" gradientTransform="translate(13 43.4998) rotate(19.179) scale(12.1758 11.458)">
<stop stop-color="#EC008C" stop-opacity="0.407843"/>
<stop offset="1" stop-color="#621A4F"/>
</radialGradient>
<radialGradient id="paint3_radial_0_1122" cx="0" cy="0" r="1" gradientUnits="userSpaceOnUse" gradientTransform="translate(21.9704 24.4219) rotate(180) scale(11.9031)">
<stop stop-color="#FFE293"/>
<stop offset="1" stop-color="#FAA61A"/>
</radialGradient>
</defs>
</svg>
