<svg width="48" height="48" viewBox="0 0 48 48" fill="none" xmlns="http://www.w3.org/2000/svg">
<path d="M24.5493 39.0123C24.5386 39.005 24.529 39.0009 24.5203 39.0003L24.5187 39.0002C24.5105 39.0003 24.502 39.0066 24.4932 39.019L24.1886 39.5344C24.1819 39.5462 24.1786 39.5546 24.1786 39.5597C24.1786 39.5649 24.1819 39.5725 24.1886 39.5828C24.242 39.6195 24.2911 39.6589 24.3359 39.7007C24.3807 39.7425 24.4264 39.784 24.4731 39.8251C24.4755 39.8271 24.478 39.8289 24.4806 39.8305C24.4839 39.8326 24.4875 39.8345 24.4912 39.8361C24.4971 39.8387 24.504 39.8394 24.5152 39.8373C24.5246 39.8351 24.536 39.8295 24.5493 39.8207C24.5627 39.8119 24.5781 39.7972 24.5955 39.7767C24.6235 39.7473 24.6492 39.7161 24.6725 39.683C24.6959 39.65 24.7191 39.6144 24.7417 39.5762C24.7698 39.5293 24.7895 39.4837 24.8009 39.4397C24.8122 39.3956 24.8126 39.353 24.8019 39.3119C24.7952 39.2766 24.7831 39.2447 24.7658 39.2161C24.7484 39.1874 24.7284 39.1606 24.7057 39.1357C24.683 39.1107 24.6579 39.0883 24.6305 39.0685C24.6031 39.0487 24.5761 39.03 24.5493 39.0123Z" fill="#1D93D1"/>
<path d="M37.4234 38.895C37.412 38.8872 37.4013 38.8828 37.3914 38.882C37.3814 38.8813 37.3715 38.8887 37.3614 38.9045L37.0196 39.4809C37.0125 39.4952 37.0086 39.5058 37.0079 39.5128C37.0072 39.5199 37.0118 39.5274 37.0218 39.5353C37.0816 39.5762 37.1364 39.6204 37.1863 39.6675C37.2361 39.7148 37.2867 39.7613 37.3379 39.807C37.3451 39.8164 37.3565 39.8183 37.3721 39.8129C37.3878 39.8074 37.4042 39.7983 37.4213 39.7857C37.4384 39.7731 37.4547 39.7597 37.4704 39.7456C37.4861 39.7313 37.4975 39.7196 37.5046 39.7101C37.5288 39.6833 37.552 39.6554 37.574 39.6262C37.5961 39.5971 37.6171 39.5644 37.6371 39.5282C37.6698 39.4746 37.6922 39.4234 37.7044 39.3746C37.7165 39.3258 37.7168 39.2785 37.7054 39.2329C37.6968 39.1935 37.683 39.1576 37.6638 39.1254C37.6445 39.0931 37.6222 39.0632 37.5965 39.0356C37.5709 39.0081 37.5431 38.9825 37.5132 38.9588C37.4833 38.9352 37.4533 38.9139 37.4234 38.895Z" fill="#1D93D1"/>
<path d="M24.8276 38.167C24.8162 38.1596 24.8059 38.1555 24.7967 38.1548L24.795 38.1547C24.7863 38.1549 24.7772 38.1611 24.768 38.1736L24.4987 38.6026L24.4957 38.5793L24.4836 38.5374C24.4823 38.533 24.4807 38.5286 24.4787 38.5243C24.4767 38.5199 24.4744 38.5155 24.4716 38.511C24.4597 38.4861 24.4476 38.4655 24.4356 38.4494L24.4236 38.4339L24.3895 38.3943L24.3453 38.3546L24.3134 38.3282L24.2732 38.2995L24.2331 38.2754L24.2271 38.271L24.2231 38.2687C24.2124 38.2658 24.2044 38.2673 24.1931 38.2798L24.1871 38.2885L23.8804 38.8018C23.8737 38.8135 23.8704 38.8227 23.8704 38.8293C23.8704 38.8359 23.8744 38.8429 23.8824 38.8502L23.9246 38.88C23.9379 38.8896 23.9512 38.9002 23.9646 38.9119L23.9786 38.9251L24.0087 38.9502L24.0388 38.9769C24.0588 38.9953 24.0781 39.0132 24.0968 39.0309L24.1169 39.0485C24.1276 39.0602 24.139 39.0705 24.151 39.0793L24.165 39.0925C24.1731 39.1014 24.1824 39.1058 24.1931 39.1058C24.1997 39.1072 24.2084 39.1058 24.2191 39.1014C24.2218 39.0999 24.2241 39.0988 24.2262 39.098C24.2282 39.0973 24.2305 39.0955 24.2331 39.0925L24.2567 39.0749L24.2873 39.0441C24.2926 39.0382 24.2976 39.0331 24.3023 39.0286C24.307 39.0242 24.3113 39.0192 24.3154 39.0132L24.3393 38.9846L24.3714 38.9406L24.3855 38.9185C24.3895 38.9141 24.3941 38.9075 24.3995 38.8987L24.4106 38.8822L24.4265 38.8536C24.4279 38.851 24.4295 38.8487 24.4312 38.8465C24.432 38.8455 24.4328 38.8445 24.4336 38.8436L24.4577 38.8018L24.4737 38.7665L24.4761 38.7585C24.5208 38.7891 24.5623 38.8214 24.6009 38.8553C24.6485 38.8971 24.697 38.9386 24.7467 38.9797C24.7524 38.9841 24.7587 38.9878 24.7659 38.9908C24.7721 38.9933 24.7793 38.9939 24.7914 38.9918C24.8013 38.9897 24.8133 38.9841 24.8276 38.9753C24.8417 38.9665 24.858 38.9518 24.8764 38.9313C24.9062 38.9019 24.9336 38.8707 24.9584 38.8377C24.9832 38.8047 25.0077 38.769 25.0318 38.7308C25.0616 38.6838 25.0825 38.6383 25.0946 38.5943C25.1066 38.5502 25.107 38.5076 25.0956 38.4665C25.0886 38.4312 25.0758 38.3993 25.0573 38.3707C25.0389 38.342 25.0176 38.3153 24.9935 38.2903C24.9694 38.2653 24.9428 38.2429 24.9137 38.2231C24.8847 38.2033 24.8559 38.1845 24.8276 38.167Z" fill="#1D93D1"/>
<path d="M28.0739 34.2205C28.0833 34.1709 28.0841 34.1387 28.0762 34.1237C28.0621 34.1146 28.0496 34.1199 28.0386 34.1394C27.9869 34.2491 27.945 34.3455 27.9129 34.4289C27.8808 34.5123 27.8429 34.6072 27.7991 34.7139C27.7598 34.81 27.7301 34.914 27.7098 35.0259C27.6913 35.1276 27.6643 35.3756 27.6291 35.7696L27.6252 35.7817L27.6256 35.8092L27.6181 35.8921C27.6087 35.9462 27.5821 36.0228 27.5383 36.1219L27.3378 36.5065L27.3316 36.514C27.2486 36.6777 27.2071 36.8196 27.2071 36.9397C27.2055 37.0404 27.227 37.1158 27.2717 37.1662C27.3163 37.2164 27.3747 37.2544 27.4467 37.2799C27.4765 37.292 27.5156 37.3039 27.5641 37.3159C27.6127 37.328 27.6597 37.3415 27.7051 37.3565C27.7505 37.3715 27.7893 37.3896 27.8213 37.4106C27.8534 37.4316 27.8687 37.4572 27.8672 37.4872C27.8672 37.5533 27.837 37.6343 27.7767 37.7305C27.7164 37.8266 27.6307 37.9197 27.5195 38.0099C27.4083 38.0999 27.2807 38.1758 27.1366 38.2374C26.9439 38.3215 26.7443 38.3635 26.5377 38.3635C26.2886 38.3635 26.0972 38.311 25.9633 38.2058C25.8294 38.1007 25.7554 37.9588 25.7412 37.7801C25.7241 37.6104 25.7664 37.3783 25.8682 37.0839C25.9135 36.9518 25.9711 36.8132 26.0407 36.6682C26.1105 36.5233 26.1798 36.3803 26.2487 36.2391C26.2628 36.2045 26.2718 36.1805 26.2757 36.167C26.2796 36.1534 26.2792 36.1445 26.2722 36.14C26.2581 36.134 26.2416 36.1452 26.2229 36.1738L26.1994 36.2121C26.1116 36.3593 26.0259 36.5132 25.9421 36.6738C25.8583 36.8346 25.7836 36.999 25.7178 37.1672C25.652 37.3355 25.598 37.506 25.5557 37.6787C25.5135 37.8514 25.49 38.0233 25.4853 38.1946C25.4853 38.2892 25.4986 38.3887 25.5252 38.4931C25.5518 38.5975 25.6004 38.6963 25.6709 38.7894C25.8259 38.9726 26.0529 39.0664 26.352 39.0709C26.6151 39.0709 26.8477 39.0041 27.0497 38.8705C27.1546 38.8118 27.2518 38.739 27.341 38.6519C27.4302 38.5647 27.5054 38.477 27.5664 38.3884C27.7121 38.1961 27.826 37.9697 27.9083 37.7091C27.9905 37.4485 28.0316 37.2176 28.0316 37.0163C28.0316 36.8826 27.9933 36.791 27.9165 36.7415C27.893 36.7234 27.8331 36.6979 27.7368 36.6649C27.6405 36.6318 27.5747 36.604 27.5395 36.5815C27.5048 36.5593 27.4895 36.5373 27.4961 36.514C27.5086 36.4719 27.5516 36.3878 27.6252 36.2616C27.6539 36.2149 27.6772 36.1848 27.6951 36.1711C27.7129 36.2154 27.7343 36.2576 27.7591 36.2977C27.8484 36.4403 27.9799 36.5124 28.1537 36.514C28.3166 36.514 28.4733 36.4058 28.6236 36.1895C28.7441 36.0123 28.8522 35.9057 28.9477 35.8696C28.9814 35.8583 29.0304 35.8577 29.0944 35.8675L29.1074 35.8696C29.1983 35.8861 29.2773 35.8531 29.3447 35.7705C29.4121 35.6879 29.4614 35.5988 29.4927 35.5035C29.524 35.4081 29.5451 35.3395 29.5561 35.2973C29.5671 35.2553 29.571 35.2253 29.5678 35.2073C29.5678 35.1923 29.56 35.1847 29.5443 35.1847C29.535 35.1847 29.5186 35.2028 29.4951 35.2388C29.4074 35.365 29.3612 35.4303 29.3565 35.4348C29.3185 35.4799 29.2395 35.4792 29.1192 35.4327L29.1074 35.4281C29.0574 35.4266 29.0002 35.4476 28.936 35.4911C28.8905 35.5331 28.8205 35.5936 28.7258 35.6725C28.631 35.7514 28.5194 35.79 28.391 35.7885C28.0837 35.7885 27.9295 35.6154 27.9282 35.2681C27.9282 35.178 27.9416 35.0319 27.9681 34.8299C27.9948 34.6279 28.03 34.4248 28.0739 34.2205Z" fill="#1D93D1"/>
<path d="M34.5201 33.3424C34.5265 33.2759 34.5261 33.2394 34.5111 33.2315L34.5189 33.2329C34.5117 33.2264 34.5026 33.2353 34.4914 33.2596C34.4277 33.4317 34.3651 33.6201 34.3039 33.8246L34.3026 33.829C34.242 34.0309 34.2047 34.1552 34.2007 34.3268C34.1967 34.4998 34.1947 34.6422 34.1947 34.7542C34.1931 34.8321 34.1891 34.9031 34.1827 34.9673C34.1764 35.0314 34.1676 35.091 34.1565 35.1462C34.1342 35.2193 34.0999 35.2794 34.0537 35.3264C33.9916 35.3897 33.9152 35.4214 33.8244 35.4214C33.7209 35.4214 33.6516 35.3864 33.6166 35.3166C33.5804 35.2537 33.5613 35.0982 33.5595 34.8505C33.5609 34.7811 33.5711 34.6549 33.5903 34.4717C33.611 34.2737 33.6667 33.9863 33.7575 33.6098C33.7671 33.574 33.7679 33.5473 33.7599 33.5294C33.7488 33.5165 33.7337 33.527 33.7145 33.5611C33.697 33.5968 33.6544 33.695 33.5867 33.8557C33.5191 34.0164 33.4685 34.1438 33.435 34.238C33.4159 34.2867 33.3761 34.4957 33.3155 34.865C33.2879 35.0339 33.2693 35.1883 33.2601 35.3282C33.2582 35.3367 33.2565 35.3453 33.255 35.3539C33.2526 35.3666 33.2505 35.3794 33.2487 35.3922C33.2479 35.4469 33.2494 35.4991 33.2529 35.5489C33.2535 35.6265 33.2576 35.6985 33.2654 35.7647C33.259 35.841 33.2324 35.9026 33.1854 35.9497C33.1413 35.9939 33.1109 36.0216 33.091 36.035C33.0624 36.0691 32.9668 36.08 32.8043 36.0679C32.6521 36.0564 32.5054 36.0646 32.3642 36.0925L32.336 36.0983C32.2692 36.1227 32.1991 36.1551 32.1258 36.1957C32.0526 36.2362 31.9773 36.2874 31.9001 36.3491C31.8228 36.4108 31.744 36.4838 31.6636 36.5682C31.5832 36.6526 31.5015 36.7508 31.4187 36.8629C31.3646 36.9392 31.2348 37.1266 31.0294 37.4254C30.8238 37.724 30.6531 37.9513 30.5169 38.1072C30.3807 38.263 30.2577 38.3867 30.1477 38.4785C30.0379 38.5702 29.9129 38.6619 29.7727 38.7537C29.6326 38.8453 29.5386 38.9074 29.4909 38.9399C29.4542 38.9626 29.4399 38.9772 29.4478 38.9837C29.459 39 29.4924 38.9967 29.5482 38.974C29.5816 38.9626 29.6585 38.9294 29.7787 38.8742C29.899 38.819 30.0491 38.7342 30.229 38.6197C30.409 38.5052 30.5655 38.3802 30.6984 38.2447C30.8315 38.1092 30.9716 37.9403 31.1189 37.7383C31.2662 37.5362 31.4064 37.3706 31.5393 37.2415C31.6724 37.1125 31.8053 37.0171 31.9383 36.9554C32.063 36.8976 32.1873 36.8576 32.3113 36.8354L32.336 36.8312C32.3615 36.8361 32.3935 36.8394 32.4317 36.841C32.4699 36.8426 32.5121 36.8385 32.5583 36.8288C32.5822 36.8255 32.6208 36.8141 32.6741 36.7947C32.7275 36.7752 32.7936 36.7228 32.8724 36.6376C32.9513 36.5525 33.0241 36.4635 33.091 36.371L33.1086 36.3529C33.1516 36.308 33.2087 36.245 33.2797 36.164C33.3328 36.1036 33.3753 36.0628 33.4074 36.042C33.4742 36.1347 33.5519 36.181 33.6405 36.181C33.7535 36.181 33.8635 36.1121 33.9701 35.9741C34.0641 35.8524 34.1541 35.6827 34.2401 35.4652C34.2847 35.3418 34.3173 35.2355 34.338 35.1462C34.354 35.0797 34.3715 34.9929 34.3906 34.8857C34.4193 34.7234 34.4336 34.5943 34.4336 34.4985L34.4675 33.9074C34.4675 33.8213 34.485 33.6331 34.5201 33.3424Z" fill="#1D93D1"/>
<path d="M47.3485 35.2077C47.3585 35.1611 47.3492 35.1355 47.3207 35.1309C47.315 35.1309 47.3062 35.1403 47.294 35.1591C47.2861 35.1715 47.2773 35.1851 47.2676 35.2001C47.2624 35.2081 47.257 35.2165 47.2512 35.2253C47.2349 35.2505 47.2178 35.2754 47.2001 35.2997C47.1822 35.3242 47.1648 35.3403 47.1477 35.3481C47.1377 35.3529 47.1238 35.3553 47.106 35.3553C47.0882 35.3553 47.0676 35.3561 47.0441 35.3576C47.0206 35.3592 46.9942 35.3624 46.965 35.3671C46.9358 35.3718 46.9041 35.3797 46.87 35.3907C46.8372 35.4033 46.8055 35.4214 46.7749 35.4451C46.7443 35.4687 46.7143 35.4963 46.6852 35.5277C46.656 35.5592 46.6286 35.5931 46.6029 35.6293C46.5773 35.6655 46.5538 35.7018 46.5324 35.738C46.484 35.8215 46.437 35.8927 46.3914 35.9518C46.3459 36.0108 46.3074 36.0467 46.276 36.0593C46.2433 36.0687 46.198 36.075 46.1403 36.0782C46.0826 36.0813 46.0186 36.0861 45.9481 36.0924C45.8776 36.0987 45.8028 36.1086 45.7237 36.1219C45.6448 36.1353 45.5675 36.1561 45.4919 36.1845C45.4322 36.2082 45.3695 36.2397 45.304 36.279C45.2385 36.3184 45.1711 36.3676 45.1021 36.4267C45.033 36.4857 44.9626 36.5562 44.8906 36.6381C44.8186 36.72 44.7457 36.8153 44.6716 36.924C44.6231 36.998 44.5071 37.1799 44.3233 37.4697C44.1397 37.7595 43.9869 37.9801 43.8651 38.1312C43.7433 38.2824 43.6333 38.4025 43.535 38.4915C43.4368 38.5805 43.3249 38.6695 43.1996 38.7584C43.0743 38.8474 42.9903 38.9077 42.9476 38.9392C42.9147 38.9613 42.9019 38.9754 42.9091 38.9817C42.919 38.9975 42.9489 38.9943 42.9988 38.9723C43.0288 38.9613 43.0974 38.929 43.205 38.8754C43.3125 38.8218 43.4467 38.7395 43.6077 38.6285C43.7687 38.5175 43.9086 38.3962 44.0275 38.2647C44.1464 38.1332 44.2718 37.9694 44.4035 37.7733C44.5353 37.5772 44.6606 37.4166 44.7795 37.2914C44.8984 37.1662 45.017 37.0736 45.1352 37.0137C45.2519 36.9555 45.3687 36.9161 45.4855 36.8956L45.5614 36.8839C45.592 36.8791 45.6244 36.8748 45.6586 36.8708C45.6928 36.8669 45.7263 36.8633 45.759 36.8602C45.7917 36.857 45.821 36.8555 45.8466 36.8555C45.8865 36.8413 45.9274 36.8165 45.9695 36.781C46.0115 36.7456 46.0528 36.7055 46.0933 36.6606C46.1339 36.6157 46.1724 36.5696 46.2087 36.5224C46.245 36.4751 46.2767 36.4317 46.3038 36.3924C46.375 36.2853 46.4376 36.1936 46.4918 36.1171C46.5459 36.0407 46.5965 35.9734 46.6434 35.9152C46.6919 35.8554 46.7468 35.8132 46.808 35.7888C46.8692 35.7644 46.9341 35.7482 47.0024 35.7404C47.0153 35.7404 47.0323 35.7317 47.0536 35.7144C47.075 35.697 47.0981 35.6734 47.1231 35.6435C47.148 35.6136 47.1733 35.5789 47.1989 35.5395C47.2246 35.5002 47.2481 35.4585 47.2695 35.4143C47.3122 35.323 47.3385 35.2541 47.3485 35.2077Z" fill="#1D93D1"/>
<path d="M28.0437 38.1699C28.0285 38.1593 28.0141 38.1497 27.9974 38.1413C27.9918 38.1385 27.9865 38.1366 27.9814 38.1367C27.9763 38.1368 27.9713 38.1389 27.9663 38.144C27.9622 38.1481 27.9598 38.1522 27.9571 38.1567C27.903 38.2471 27.8489 38.3375 27.7947 38.4278C27.7462 38.5087 27.6977 38.5896 27.6491 38.6705C27.6445 38.6784 27.6379 38.6896 27.6392 38.6992C27.6416 38.7162 27.6596 38.725 27.6714 38.7338C27.6783 38.7389 27.6852 38.7441 27.6919 38.7494C27.7182 38.7697 27.7434 38.7911 27.7687 38.8125C27.774 38.817 27.7794 38.8216 27.7848 38.8261C27.8075 38.8454 27.8292 38.8657 27.8509 38.886C27.8643 38.8986 27.8777 38.9112 27.8914 38.9236C27.9131 38.9431 27.9132 38.9425 27.935 38.9616C27.9424 38.9681 27.9489 38.9735 27.9593 38.9746C27.9896 38.9778 28.0174 38.9558 28.0377 38.9351C28.0922 38.8793 28.1393 38.8186 28.1805 38.7521C28.1837 38.747 28.187 38.7418 28.1904 38.7365C28.2039 38.7152 28.2181 38.6927 28.2289 38.6705L28.235 38.6602L28.239 38.6507L28.2395 38.6481L28.2561 38.66C28.312 38.7011 28.3631 38.7467 28.4147 38.7926C28.4243 38.8012 28.4339 38.8097 28.4436 38.8183C28.451 38.8249 28.4586 38.832 28.4662 38.8393C28.4853 38.8574 28.5052 38.8763 28.5266 38.889C28.5681 38.9137 28.6149 38.8686 28.6409 38.84C28.6498 38.8302 28.6497 38.8305 28.6588 38.8208L28.6907 38.7851C28.7009 38.7729 28.7109 38.7604 28.7204 38.7477C28.7434 38.7173 28.7648 38.6855 28.7854 38.6532C28.8279 38.5862 28.8693 38.5119 28.8752 38.4311C28.8792 38.3779 28.8657 38.3202 28.842 38.2725C28.7981 38.1842 28.7217 38.1202 28.6415 38.0661L28.6201 38.0517C28.6178 38.0503 28.6153 38.0484 28.6124 38.0464C28.5978 38.0359 28.5759 38.0202 28.5593 38.0264C28.5505 38.0297 28.5443 38.0375 28.5388 38.0446L28.2732 38.4919C28.2732 38.5311 28.2684 38.5716 28.255 38.6088L28.2486 38.6291L28.2395 38.6481L28.2724 38.4844L28.2712 38.4721C28.2664 38.4594 28.266 38.4444 28.263 38.4312C28.2538 38.3911 28.231 38.3505 28.2067 38.3177C28.1828 38.2853 28.1553 38.2571 28.125 38.2306C28.1114 38.2186 28.0997 38.2091 28.084 38.1975C28.0764 38.1921 28.0687 38.1869 28.0609 38.1817C28.0552 38.1778 28.0494 38.1739 28.0437 38.1699Z" fill="#1D93D1"/>
<path d="M37.1162 35.0918C37.1232 35.0463 37.1218 35.0188 37.1022 35.0082L37.1119 35.0095C37.1086 35.0074 37.1053 35.0069 37.1022 35.0082C37.0959 35.0106 37.0899 35.0197 37.0843 35.0354L36.8821 35.7343C36.8722 35.7782 36.8583 35.8539 36.8405 35.9614C36.8228 36.0688 36.8004 36.2488 36.7735 36.5015L36.7617 36.6127L36.7522 36.6473C36.7522 36.6642 36.7525 36.6809 36.7531 36.6974C36.7387 36.8384 36.7302 36.9324 36.7277 36.9792C36.7242 37.0451 36.7182 37.0991 36.7097 37.1415C36.687 37.2278 36.6423 37.3039 36.5756 37.3698C36.5117 37.431 36.4411 37.4556 36.3639 37.4439C36.2865 37.4322 36.2351 37.4216 36.2095 37.4122C36.1584 37.3964 36.1187 37.3886 36.0903 37.3886C36.0181 37.3886 35.9386 37.4122 35.8507 37.4608L35.8499 37.4592C35.7222 37.5392 35.6101 37.642 35.5136 37.7675C35.4171 37.893 35.3548 37.9911 35.3263 38.0616C35.3037 38.1212 35.2998 38.1573 35.3147 38.1699C35.3296 38.1824 35.3455 38.1817 35.3625 38.1675C35.5115 38.0672 35.6739 38.0248 35.8508 38.0386L35.8521 38.0405C35.896 38.0499 35.9563 38.0624 36.0329 38.0781C36.1095 38.0938 36.1946 38.0781 36.2883 38.0311C36.372 37.9887 36.4607 37.9181 36.5543 37.8192C36.6281 37.7267 36.6905 37.6239 36.7416 37.5109C36.8225 37.3227 36.8686 37.2286 36.8799 37.2286C36.8849 37.2286 36.8897 37.2263 36.8945 37.2218C36.9744 37.3473 37.2311 37.411 37.3756 37.4125C37.5231 37.4125 37.6649 37.2995 37.8011 37.0736C37.9104 36.8885 38.0083 36.7771 38.0948 36.7395C38.1255 36.7277 38.1698 36.7269 38.2277 36.7373L38.2396 36.7395C38.2793 36.7583 38.3197 36.7626 38.3609 36.7523C38.402 36.7422 38.4424 36.7246 38.4822 36.6994C38.5219 36.6743 38.5602 36.6457 38.5971 36.6136C38.6163 36.5968 38.6345 36.581 38.6518 36.5662C38.6678 36.5525 38.6829 36.5397 38.6972 36.5276C38.7241 36.5261 38.7531 36.5179 38.7844 36.503C38.8156 36.4881 38.8454 36.4697 38.8737 36.4477C38.9021 36.4257 38.9288 36.4018 38.9536 36.3759C38.9784 36.35 38.9993 36.3253 39.0163 36.3018C39.0844 36.2657 39.1412 36.2178 39.1866 36.1582C39.232 36.0986 39.2699 36.0323 39.3005 35.9594C39.3309 35.8864 39.3554 35.8095 39.3739 35.7287C39.3923 35.6479 39.4093 35.5683 39.4249 35.4899C39.4236 35.4679 39.4143 35.4545 39.3973 35.4499C39.3802 35.4452 39.3675 35.4538 39.359 35.4757C39.3476 35.5024 39.3369 35.5327 39.327 35.5664C39.3171 35.6001 39.3058 35.633 39.293 35.6652C39.2802 35.6973 39.2657 35.7263 39.2494 35.7522C39.233 35.7781 39.2136 35.7965 39.1908 35.8075C39.1795 35.8138 39.166 35.8181 39.1504 35.8205C39.1349 35.8229 39.1221 35.817 39.1121 35.8028C39.1051 35.7997 39.0987 35.8009 39.0929 35.8064C39.0873 35.8119 39.0795 35.8256 39.0695 35.8475C39.0582 35.8758 39.0479 35.9025 39.0387 35.9276C39.0295 35.9527 39.0184 35.975 39.0057 35.9946C38.9929 36.0143 38.9766 36.0315 38.9567 36.0464C38.9369 36.0613 38.9106 36.0719 38.878 36.0782C38.8482 36.0829 38.8241 36.0797 38.8056 36.0688C38.7929 36.0657 38.784 36.0648 38.779 36.0664C38.7741 36.068 38.768 36.0711 38.761 36.0758C38.7297 36.1292 38.6985 36.177 38.6674 36.2193C38.6361 36.2617 38.6056 36.2955 38.5758 36.3206C38.5474 36.341 38.5215 36.3547 38.4981 36.3617C38.4747 36.3688 38.4503 36.3699 38.4247 36.3653C38.4048 36.3621 38.3861 36.3563 38.3683 36.3476C38.3506 36.339 38.334 36.33 38.3183 36.3206C38.3085 36.3146 38.2991 36.309 38.2901 36.3037C38.2848 36.3006 38.2796 36.2976 38.2746 36.2947C38.2629 36.2878 38.2525 36.2828 38.2396 36.2782C38.1941 36.2766 38.1424 36.2986 38.0842 36.3441C38.043 36.388 37.9795 36.4512 37.8938 36.5335C37.8079 36.6159 37.7068 36.6563 37.5904 36.6547C37.3193 36.6547 37.0353 36.4828 37.027 36.1397C37.0284 36.1011 37.0301 36.0633 37.0321 36.026C37.0342 35.9869 37.0435 35.8536 37.0597 35.6261C37.0761 35.3986 37.0949 35.2205 37.1162 35.0918Z" fill="#1D93D1"/>
<path fill-rule="evenodd" clip-rule="evenodd" d="M16.2809 34.0655C16.5776 33.6646 16.5956 33.4245 16.5074 33.4702C16.4618 33.5421 16.2963 33.6959 16.063 33.9128C15.7852 34.1708 15.4115 34.5181 15.0295 34.9229C14.5193 35.4637 14.1496 35.8224 13.95 36.016C13.9191 36.046 13.8924 36.072 13.8697 36.0941L13.8049 36.1588C13.8164 36.0353 13.8348 35.8545 13.8601 35.6164C13.89 35.3353 13.9228 35.064 13.9584 34.8025C13.9528 34.7569 13.9399 34.7514 13.92 34.786C13.89 34.8632 13.8612 34.9412 13.8335 35.0199C13.8057 35.0987 13.7797 35.1766 13.7555 35.2538C13.7341 35.3467 13.712 35.4688 13.6893 35.62C13.6665 35.7712 13.6462 35.9141 13.6284 36.0488C13.6106 36.1834 13.5842 36.4067 13.5493 36.7185C13.5402 36.7999 13.5323 36.8727 13.5256 36.9369L13.5226 36.9643C13.5201 36.9882 13.5177 37.0128 13.5153 37.038C13.5044 37.1483 13.4984 37.2235 13.4972 37.2634L13.4969 37.2761C13.4969 37.5265 13.5333 37.7155 13.6059 37.8431C13.6757 37.977 13.7833 38.044 13.9285 38.044C14.0211 38.044 14.1087 38.0132 14.1913 37.9518C14.2711 37.8904 14.343 37.8093 14.4071 37.7085C14.4939 37.5619 14.5716 37.3761 14.6399 37.1509C14.7026 36.943 14.7339 36.7422 14.7339 36.5484C14.7339 36.3642 14.6791 36.2342 14.5695 36.1587C14.5011 36.1098 14.4071 36.0854 14.2874 36.0854C14.2703 36.0854 14.2362 36.0877 14.1849 36.0925C14.7689 35.4958 15.2334 35.0743 15.5839 34.7563C15.9188 34.4524 16.1496 34.243 16.2809 34.0655ZM13.89 36.8225C13.967 36.7658 14.0453 36.7374 14.1251 36.7374C14.2106 36.7296 14.2938 36.7532 14.375 36.8083C14.4576 36.8619 14.499 36.9351 14.499 37.0281C14.499 37.1178 14.4619 37.1871 14.3878 37.236C14.3109 37.2911 14.2149 37.3186 14.0995 37.3186C14.0054 37.3186 13.9285 37.2903 13.8687 37.2336C13.8047 37.1816 13.7726 37.1084 13.7726 37.0138C13.7726 36.943 13.8117 36.8792 13.89 36.8225Z" fill="#1D93D1"/>
<path d="M20.9799 35.4244C20.8394 35.3676 20.7305 35.3393 20.6534 35.3393C20.5475 35.3393 20.4633 35.3629 20.4005 35.4101C20.3378 35.4574 20.2852 35.5204 20.2428 35.5991C20.2127 35.6527 20.1858 35.7113 20.1623 35.7751C20.1389 35.8389 20.1363 35.8725 20.1544 35.8756C20.1681 35.8803 20.1847 35.8669 20.2043 35.8354C20.2436 35.7645 20.2837 35.7098 20.3245 35.6712C20.3654 35.6327 20.422 35.6134 20.4946 35.6134C20.5355 35.6134 20.5785 35.6204 20.6239 35.6346C20.6436 35.6409 20.6643 35.6484 20.6863 35.657C20.7081 35.6657 20.7305 35.6731 20.7531 35.6795C20.8091 35.7031 20.8552 35.7232 20.8915 35.7397C20.9278 35.7562 20.9618 35.7764 20.9936 35.8C20.9649 35.8378 20.9164 35.8898 20.8484 35.9559C20.8182 35.9874 20.7067 36.0906 20.5139 36.2654C20.3211 36.4402 20.1336 36.5647 19.9515 36.6387C19.7692 36.7127 19.6509 36.7497 19.5952 36.7517L19.5942 36.7497C19.5837 36.7497 19.5685 36.7501 19.5488 36.7509C19.5292 36.7517 19.5103 36.7513 19.4922 36.7497L19.5262 36.6623C19.5292 36.6482 19.5273 36.6367 19.5205 36.628C19.5137 36.6194 19.5046 36.6143 19.4933 36.6127C19.4819 36.6111 19.4694 36.6139 19.4559 36.6209C19.4422 36.628 19.4302 36.641 19.4196 36.6599C19.3621 36.7418 19.2597 36.8186 19.1122 36.8903C18.9649 36.962 18.7717 37.0301 18.5328 37.0946C18.4027 37.1308 18.2618 37.1631 18.1098 37.1915C17.9579 37.2198 17.6292 37.2583 17.4592 37.2663C17.2891 37.2741 17.1209 37.2765 16.9545 37.2733C16.3981 37.267 15.9846 37.204 15.7139 37.0843C15.6066 37.0339 15.5408 36.9575 15.5166 36.8551C15.506 36.8126 15.4977 36.7716 15.4917 36.7323C15.4841 36.6961 15.4762 36.6705 15.4679 36.6555C15.4596 36.6405 15.4509 36.6342 15.4418 36.6366C15.4327 36.639 15.4243 36.6481 15.4168 36.6638C15.4092 36.6796 15.4032 36.7 15.3986 36.7252L15.3783 36.848C15.3601 36.9567 15.3457 37.0654 15.3351 37.1741C15.3246 37.2828 15.3193 37.3663 15.3193 37.4245C15.3193 37.5742 15.3654 37.6923 15.4577 37.7789C15.5604 37.8907 15.7328 37.9663 15.9747 38.0057C16.113 38.0277 16.3079 38.0388 16.5595 38.0389L16.7005 38.0388C16.8018 38.0372 16.9111 38.0325 17.0282 38.0246C17.1454 38.0167 17.2611 38.0073 17.3752 37.9962C17.4894 37.9852 17.9208 37.9093 18.0712 37.8755C18.2217 37.8416 18.3691 37.7951 18.5135 37.7361C18.6579 37.677 18.7933 37.6022 18.9195 37.5116C19.0458 37.4211 19.1512 37.3089 19.2358 37.175C19.254 37.1482 19.2692 37.1269 19.2812 37.1112C19.2933 37.0954 19.3035 37.0828 19.3119 37.0733C19.3202 37.0639 19.3262 37.0576 19.33 37.0544C19.3337 37.0513 19.3372 37.049 19.3402 37.0474C19.3493 37.0411 19.3602 37.036 19.3731 37.032C19.386 37.0281 19.4018 37.0262 19.4207 37.0262C19.4396 37.0262 19.463 37.0285 19.491 37.0332C19.5051 37.0356 19.5209 37.0386 19.5385 37.0419C19.5557 37.0451 19.5746 37.0487 19.5954 37.0523L19.5965 37.0544L19.8482 37.1301C19.9117 37.1411 20.0549 37.0958 20.1244 37.0296C20.1652 36.9871 20.2045 36.9478 20.2424 36.9115C20.2802 36.8753 20.3157 36.8406 20.3489 36.8076L20.8706 36.3067C20.9583 36.22 21.0264 36.1554 21.0747 36.1129C21.1473 36.0436 21.2206 35.9775 21.2947 35.9145L21.4741 35.7729C21.5255 35.7304 21.5588 35.6874 21.5739 35.6441C21.589 35.6008 21.6003 35.5665 21.6079 35.5414C21.6154 35.5161 21.6237 35.4846 21.6328 35.4468C21.651 35.3854 21.6465 35.3641 21.6193 35.383C21.5889 35.4041 21.5294 35.426 21.477 35.4453C21.4509 35.4548 21.4266 35.4638 21.4086 35.4716C21.3496 35.4999 21.2975 35.5141 21.2521 35.5141C21.2068 35.5141 21.116 35.4841 20.9799 35.4244Z" fill="#1D93D1"/>
<path d="M44.5127 33.9318C44.4971 33.9034 44.4821 33.9081 44.4678 33.9459L44.3547 34.3169L44.2286 34.839L44.2243 35.6115C44.2243 35.7454 44.2179 35.851 44.2051 35.9281C44.1923 36.0053 44.1773 36.066 44.1602 36.11C44.1189 36.2077 44.0712 36.247 44.0171 36.2281C43.9664 36.2105 43.915 36.201 43.863 36.2L43.8526 36.1998C43.75 36.2234 43.666 36.2739 43.6005 36.351C43.5677 36.3872 43.5257 36.4435 43.4744 36.5199C43.4232 36.5963 43.3947 36.6369 43.389 36.6416C43.3306 36.7077 43.2512 36.7699 43.1508 36.8282C43.0504 36.8865 42.9247 36.94 42.7737 36.9889C42.5429 37.0676 42.3478 37.1188 42.1883 37.1425C42.0288 37.1661 41.8216 37.1842 41.5667 37.1967C41.3117 37.2093 40.9316 37.2134 40.7265 37.2086C40.4758 37.2071 40.285 37.1874 40.154 37.1496C40.023 37.1117 39.9278 37.0621 39.8687 37.0007C39.8097 36.9393 39.7751 36.8543 39.7651 36.7456C39.7494 36.6369 39.7331 36.5825 39.716 36.5825C39.689 36.5825 39.6647 36.6707 39.6433 36.8471C39.6192 37.0109 39.607 37.1716 39.607 37.3291C39.607 37.5747 39.6747 37.7441 39.81 37.837C39.8926 37.8984 40.0215 37.937 40.1967 37.9528C40.3505 37.9717 40.5143 37.9811 40.688 37.9811C41.1538 37.9811 41.7254 37.9355 42.1029 37.8441C42.486 37.7511 42.7787 37.6213 42.9809 37.4543C43.065 37.3929 43.1369 37.3173 43.1967 37.2275L43.3526 36.9747C43.4068 36.8897 43.4595 36.8235 43.5108 36.7762C43.5635 36.7243 43.6147 36.6928 43.6646 36.6818C43.714 36.6699 43.7722 36.6636 43.839 36.663L43.8526 36.6629C43.8625 36.6707 43.8839 36.6755 43.9167 36.677C43.9651 36.677 44.0185 36.6384 44.0769 36.5612C44.1339 36.4857 44.1895 36.3991 44.2435 36.3014C44.2962 36.2021 44.3376 36.0998 44.3675 35.9942C44.3974 35.8903 44.4209 35.7627 44.438 35.6115C44.4536 35.4761 44.47 35.1721 44.4871 34.6996C44.4928 34.594 44.4977 34.4811 44.502 34.3606C44.5063 34.2401 44.5121 34.1286 44.5191 34.0263C44.5191 33.9728 44.517 33.9413 44.5127 33.9318Z" fill="#1D93D1"/>
<path d="M12.135 36.4252C12.1321 36.4172 12.1268 36.4129 12.1193 36.4122C12.1118 36.4114 12.1066 36.4125 12.1035 36.4157C12.0961 36.4204 12.072 36.4511 12.0315 36.5079C11.9776 36.5787 11.916 36.639 11.847 36.6886C11.778 36.7382 11.6616 36.7996 11.498 36.8729C11.3345 36.946 11.133 37.0107 10.8937 37.0666C10.6543 37.1224 10.4146 37.1599 10.1745 37.1788C9.93442 37.1977 9.71762 37.2071 9.52404 37.2071C8.96877 37.2024 8.55609 37.1394 8.28601 37.0181C8.17942 36.9677 8.11419 36.8913 8.09013 36.7889C8.07962 36.7464 8.07141 36.7055 8.06539 36.6661C8.05794 36.6299 8.05001 36.6043 8.0418 36.5893C8.03349 36.5743 8.0249 36.5681 8.01592 36.5704C8.00684 36.5728 7.99863 36.5819 7.99109 36.5976C7.98364 36.6134 7.97762 36.6338 7.97313 36.659L7.95288 36.7819C7.93483 36.8905 7.9206 36.9992 7.9101 37.1079C7.89959 37.2166 7.89434 37.3001 7.89434 37.3583C7.89434 37.508 7.94009 37.6261 8.03168 37.7127C8.13367 37.8246 8.30472 37.9001 8.54482 37.9395C8.6919 37.9632 8.90354 37.9749 9.17964 37.9749C9.41822 37.9749 9.66471 37.9592 9.91904 37.9277C10.1734 37.8962 10.4086 37.8502 10.6247 37.7895C10.8408 37.7289 11.0261 37.6638 11.1807 37.5946C11.3353 37.5253 11.4778 37.4426 11.6083 37.3465C11.6999 37.2772 11.778 37.1953 11.8424 37.1008C11.907 37.0063 11.9648 36.9059 12.0158 36.7996C12.0668 36.6933 12.1029 36.6031 12.1239 36.5291C12.1373 36.4771 12.1411 36.4424 12.135 36.4252Z" fill="#1D93D1"/>
<path d="M34.9933 35.1725C35.0004 35.1426 34.9947 35.1276 34.9762 35.1276C34.9648 35.1276 34.9498 35.1512 34.9313 35.1985L34.7092 35.7773C34.6807 35.8577 34.6593 35.9545 34.6451 36.0679C34.6308 36.1813 34.6201 36.3195 34.613 36.4826C34.6059 36.6455 34.5973 36.768 34.5874 36.8499C34.5802 36.9365 34.5717 37.0283 34.5618 37.1251C34.5518 37.222 34.5404 37.3165 34.5276 37.4087C34.5147 37.5007 34.5002 37.587 34.4838 37.6673C34.4674 37.7476 34.45 37.8146 34.4314 37.8681C34.4158 37.9249 34.4129 37.9531 34.4229 37.9531C34.4613 37.9468 34.5119 37.8763 34.5746 37.7417C34.6372 37.607 34.6921 37.4606 34.739 37.3023C34.786 37.144 34.821 36.9428 34.8437 36.6987C34.8523 36.6184 34.8601 36.5278 34.8672 36.427C34.8744 36.3262 34.8814 36.2227 34.8886 36.1163C34.8958 36.01 34.9036 35.9065 34.9121 35.8056C34.9207 35.7049 34.9292 35.6143 34.9378 35.534C34.9434 35.4882 34.952 35.4249 34.9634 35.3438C34.9748 35.2627 34.9848 35.2056 34.9933 35.1725Z" fill="#1D93D1"/>
<path d="M23.2504 36.0854C23.1847 36.0216 23.1185 35.9621 23.0519 35.907C23.0471 35.9039 23.0426 35.9023 23.0383 35.9022C23.0297 35.902 23.0219 35.9079 23.0151 35.92C23.0047 35.9382 22.9933 35.9614 22.9806 35.9897L22.8237 36.3394L22.7119 36.5945C22.7088 36.6008 22.7075 36.6071 22.7083 36.6134C22.7092 36.6197 22.7143 36.6269 22.7238 36.6347C22.8458 36.7229 22.9513 36.819 23.04 36.9229C23.1288 37.0285 23.1668 37.1151 23.1541 37.1828C23.1478 37.2395 23.0935 37.3222 22.9913 37.4308C22.889 37.5395 22.7619 37.6498 22.6096 37.7616C22.5526 37.8057 22.5034 37.8435 22.4623 37.875C22.4433 37.8923 22.4322 37.9069 22.429 37.9188C22.4258 37.9305 22.4258 37.938 22.429 37.9412C22.4401 37.949 22.4599 37.949 22.4884 37.9412C22.7214 37.8687 22.8732 37.816 22.9437 37.7828C23.0143 37.7498 23.0689 37.7108 23.1078 37.666C23.1466 37.6211 23.1819 37.571 23.2135 37.5159C23.2992 37.3631 23.3669 37.2155 23.4168 37.073C23.4668 36.9304 23.4917 36.782 23.4917 36.6276C23.4917 36.4953 23.4679 36.3878 23.4204 36.3051C23.3728 36.2224 23.3162 36.1492 23.2504 36.0854Z" fill="#1D93D1"/>
<path d="M13.2044 36.1589C13.2185 36.1211 13.2144 36.0982 13.1926 36.0904C13.1731 36.086 13.1498 36.1105 13.1228 36.1639C13.0956 36.2173 13.0498 36.3197 12.9849 36.4712C12.9202 36.6226 12.8552 36.7673 12.7902 36.9052C12.7252 37.043 12.6578 37.1496 12.5881 37.2247C12.5184 37.2999 12.4175 37.3836 12.2857 37.4762C12.1537 37.5687 12.0398 37.6455 11.9441 37.7066C11.8483 37.7677 11.7841 37.8174 11.7512 37.8556C11.7319 37.88 11.7246 37.896 11.7292 37.9039C11.7338 37.9117 11.7466 37.9179 11.7675 37.9225C11.7889 37.9239 11.8434 37.9206 11.9309 37.9124C12.0183 37.9041 12.1288 37.8838 12.2623 37.8511C12.3957 37.8185 12.49 37.7775 12.5452 37.7281C12.6005 37.6787 12.6555 37.6034 12.7103 37.5023C12.765 37.4011 12.8312 37.2527 12.9088 37.0569C12.9864 36.8612 13.0849 36.5618 13.2044 36.1589Z" fill="#1D93D1"/>
<path d="M30.4387 36.1065C30.3846 36.0187 30.3119 35.9694 30.2115 35.9578L30.022 36.0587C29.9511 36.1309 29.8835 36.2241 29.819 36.3385C29.7545 36.4528 29.7114 36.5368 29.6895 36.5905C29.6677 36.644 29.6527 36.6908 29.6445 36.731C29.6343 36.8118 29.6556 36.8826 29.7085 36.9436C29.7614 37.0047 29.8316 37.0423 29.9189 37.0565C29.9372 37.0614 29.9586 37.0641 29.9835 37.0647L30.0248 37.0641L30.0617 37.0629L30.1408 37.0528C30.1661 37.0477 30.1876 37.0418 30.2052 37.0351C30.1657 37.1313 30.106 37.2216 30.0264 37.306C29.9466 37.3904 29.8579 37.4667 29.7602 37.5349C29.6625 37.603 29.5398 37.6771 29.392 37.7573C29.2443 37.8373 29.1759 37.886 29.1868 37.9033C29.1867 37.9049 29.1958 37.9065 29.2144 37.9081L29.4233 37.8911L29.4587 37.8851C29.5404 37.8708 29.6186 37.8533 29.6931 37.8328C29.7783 37.8092 29.845 37.7812 29.8929 37.7487C29.9409 37.7162 30.0006 37.6516 30.072 37.5551C30.1434 37.4584 30.2358 37.2967 30.3491 37.0699C30.3738 37.0181 30.3975 36.9619 30.4199 36.901C30.4424 36.8401 30.4596 36.7902 30.4716 36.7512C30.4835 36.7122 30.4949 36.6631 30.5056 36.6036C30.5163 36.5441 30.5227 36.4842 30.5249 36.424C30.5231 36.303 30.4943 36.1971 30.4387 36.1065Z" fill="#1D93D1"/>
<path d="M25.4983 35.8405C25.5161 35.7805 25.512 35.7465 25.4862 35.7384L25.4837 35.7377C25.4579 35.7391 25.432 35.7588 25.4059 35.7965C25.3799 35.8343 25.3569 35.8746 25.337 35.9174C25.301 36.0083 25.23 36.0793 25.1238 36.1307C25.0326 36.1721 24.9541 36.2147 24.8885 36.2585C24.8228 36.3023 24.7698 36.3482 24.7296 36.396C24.6907 36.444 24.6561 36.4918 24.6258 36.5395C24.5956 36.5872 24.5671 36.6355 24.5404 36.6843C24.5135 36.733 24.4878 36.7825 24.4631 36.8331C24.4384 36.8835 24.4113 36.9353 24.3822 36.9887C24.3312 37.0911 24.245 37.1864 24.1236 37.2748L24.0392 37.3378C24.0129 37.3566 23.9781 37.3804 23.9349 37.4091L23.767 37.52C23.6984 37.5652 23.6067 37.6242 23.492 37.6972C23.4355 37.7314 23.3997 37.7665 23.3844 37.8026C23.3692 37.8386 23.3776 37.8633 23.4095 37.8764C23.4147 37.878 23.4227 37.879 23.4332 37.8796L23.4446 37.88C23.4611 37.8803 23.4749 37.88 23.4864 37.8791L23.8814 37.8317C24.0254 37.8112 24.1365 37.761 24.2146 37.6808C24.2707 37.6309 24.3189 37.5658 24.3591 37.4855C24.3993 37.4053 24.4369 37.323 24.4717 37.2385C24.5066 37.1539 24.54 37.0736 24.5722 36.9977C24.6043 36.9217 24.6403 36.8629 24.6801 36.8213C24.7064 36.7899 24.739 36.7609 24.7779 36.7342C24.8168 36.7076 24.8633 36.6842 24.9174 36.6641C24.97 36.6454 25.0202 36.6204 25.0679 36.5888C25.1157 36.5571 25.1594 36.5222 25.1991 36.4837C25.2389 36.4422 25.2782 36.3871 25.317 36.3187C25.3557 36.2502 25.3895 36.1703 25.4183 36.0791C25.4359 36.0298 25.4513 35.9854 25.4646 35.946C25.4779 35.9067 25.4891 35.8714 25.4983 35.8405Z" fill="#1D93D1"/>
<path d="M22.1875 34.6526C22.193 34.6234 22.1866 34.6092 22.168 34.6103C22.1567 34.6108 22.143 34.6344 22.127 34.6809L21.9353 35.2505C21.9111 35.3294 21.8948 35.4239 21.8865 35.5338C21.8809 35.6072 21.8776 35.691 21.8764 35.7854L21.8762 35.9349C21.8775 36.0923 21.8754 36.2107 21.8697 36.2902C21.8671 36.374 21.8634 36.4629 21.8585 36.5567C21.8536 36.6505 21.8471 36.7421 21.8391 36.8316C21.8312 36.921 21.8211 37.0049 21.8089 37.0831C21.7968 37.1614 21.7829 37.2268 21.7671 37.2793C21.7545 37.3348 21.7531 37.3623 21.7631 37.3618C21.8011 37.3536 21.8479 37.283 21.9035 37.1498C21.9591 37.0168 22.0061 36.8728 22.0448 36.7178C22.0835 36.5628 22.1078 36.3671 22.1178 36.1307C22.1222 36.0529 22.1252 35.9652 22.1271 35.8677L22.1298 35.7195L22.1322 35.5673C22.1337 35.4646 22.1362 35.3644 22.1395 35.2668C22.1427 35.1693 22.1465 35.0816 22.1509 35.0038C22.1542 34.9594 22.1594 34.8979 22.1666 34.8191C22.1737 34.7404 22.1806 34.6849 22.1875 34.6526Z" fill="#1D93D1"/>
<path d="M10.1702 35.3786C10.1593 35.3711 10.1495 35.367 10.1406 35.3662L10.1389 35.3661C10.1306 35.3663 10.1219 35.3727 10.1129 35.3854L9.86489 35.8077C9.86384 35.8048 9.86327 35.8014 9.86327 35.7975C9.86193 35.7944 9.86126 35.7899 9.86126 35.7838C9.86053 35.7831 9.85997 35.7818 9.85961 35.78C9.85932 35.7786 9.85916 35.7769 9.85916 35.7749C9.85783 35.7718 9.85716 35.7695 9.85716 35.768C9.85716 35.7665 9.85649 35.765 9.85515 35.7635L9.84894 35.7431C9.84627 35.7341 9.8435 35.7273 9.84083 35.7227C9.83529 35.7076 9.82784 35.6925 9.81829 35.6774L9.79985 35.6503L9.77531 35.6186C9.76834 35.611 9.76141 35.6036 9.75449 35.5965C9.75051 35.5925 9.74653 35.5885 9.74255 35.5846C9.73157 35.5741 9.72001 35.5635 9.70769 35.553L9.67493 35.5269L9.63406 35.4987L9.62995 35.4947L9.62584 35.4919C9.62307 35.4903 9.6204 35.4888 9.61357 35.4837L9.60541 35.4797L9.6013 35.476L9.58697 35.4692C9.58554 35.4677 9.5842 35.4669 9.58287 35.4669L9.57876 35.4647C9.56787 35.4617 9.55765 35.4669 9.5481 35.4805C9.54667 35.482 9.546 35.4836 9.546 35.4851L9.23284 36.0125C9.22596 36.0246 9.22253 36.0337 9.22253 36.0397C9.22253 36.0457 9.22596 36.0525 9.23284 36.06C9.23284 36.0616 9.23351 36.0623 9.23485 36.0623C9.26216 36.0819 9.29014 36.1038 9.3188 36.1279C9.32835 36.1355 9.3379 36.1438 9.34745 36.1529L9.39324 36.1919L9.43646 36.2321C9.46444 36.2593 9.49347 36.2856 9.52346 36.3113C9.53168 36.3204 9.54123 36.3249 9.55211 36.3249H9.56644L9.57876 36.3204C9.58965 36.3159 9.60264 36.3068 9.61763 36.2932L9.62785 36.2842L9.64838 36.2616C9.65516 36.257 9.66061 36.2509 9.66471 36.2434L9.67703 36.2298C9.68114 36.2268 9.68487 36.2231 9.6883 36.2185C9.69165 36.214 9.6948 36.2102 9.69747 36.2072C9.69747 36.2057 9.69881 36.2034 9.70158 36.2004L9.73434 36.1552C9.73844 36.1506 9.74322 36.1438 9.74866 36.1347C9.75143 36.1318 9.75382 36.1279 9.75583 36.1235C9.75793 36.1189 9.76031 36.1151 9.76299 36.1121L9.77321 36.0962L9.79775 36.0555C9.79775 36.054 9.79918 36.0517 9.80186 36.0488C9.80463 36.0427 9.80807 36.037 9.81217 36.0318C9.81618 36.0264 9.81962 36.02 9.82239 36.0125L9.83261 35.9921L9.83285 35.9901L9.83414 35.988C9.87635 36.019 9.9157 36.0516 9.95228 36.086C9.99793 36.1291 10.0447 36.1717 10.0925 36.2139C10.0979 36.2185 10.104 36.2222 10.1109 36.2253C10.1168 36.2279 10.1239 36.2285 10.1355 36.2264C10.145 36.2241 10.1567 36.2185 10.1702 36.2094C10.1839 36.2003 10.1996 36.1852 10.2173 36.1641C10.2461 36.134 10.2723 36.1019 10.2962 36.068C10.3201 36.034 10.3436 35.9974 10.3668 35.9581C10.3954 35.9098 10.4156 35.8631 10.4271 35.8177C10.4388 35.7725 10.4392 35.7287 10.4282 35.6865C10.4214 35.6502 10.4091 35.6175 10.3913 35.5881C10.3736 35.5585 10.3531 35.531 10.3299 35.5053C10.3067 35.4797 10.2812 35.4567 10.2532 35.4364C10.2252 35.416 10.1975 35.3968 10.1702 35.3786Z" fill="#1D93D1"/>
<path d="M41.6892 35.3053C41.6748 35.2946 41.6516 35.2774 41.6356 35.2843C41.6267 35.2882 41.6207 35.2955 41.615 35.3032L41.3833 35.7095C41.3833 35.7513 41.3783 35.7949 41.3641 35.8347L41.3572 35.8564L41.3475 35.8769L41.3823 35.6993L41.3812 35.6882C41.379 35.6822 41.3776 35.6758 41.3766 35.6693C41.3752 35.6609 41.3743 35.6524 41.3725 35.6445C41.3628 35.6016 41.3385 35.5581 41.3128 35.5228C41.2873 35.488 41.2578 35.4567 41.2253 35.4286C41.2196 35.4237 41.2131 35.4183 41.2065 35.413C41.1978 35.4059 41.1891 35.3991 41.1825 35.3941C41.1611 35.3777 41.1363 35.3578 41.112 35.346C41.1079 35.344 41.1039 35.3416 41.1 35.3393C41.0851 35.3303 41.0713 35.322 41.0557 35.3386L41.0479 35.3503C40.9391 35.534 40.83 35.7174 40.7211 35.9008C40.7162 35.9089 40.7104 35.9195 40.7104 35.9292C40.7104 35.945 40.7258 35.9556 40.7379 35.9639C40.7404 35.9655 40.7427 35.9671 40.7447 35.9686L40.7665 35.9854C40.7945 36.0073 40.8214 36.0303 40.8484 36.0535C40.8539 36.0582 40.8594 36.0629 40.8649 36.0676C40.8895 36.0885 40.9129 36.1106 40.9363 36.1328C40.9502 36.1459 40.964 36.1591 40.9782 36.172C41.0012 36.1929 41.0013 36.1922 41.0244 36.2127C41.0278 36.2157 41.031 36.2186 41.0345 36.221C41.0379 36.2232 41.0415 36.225 41.046 36.226C41.0865 36.2349 41.1215 36.1968 41.1471 36.1689C41.1497 36.166 41.1523 36.1633 41.1547 36.1607C41.1984 36.1143 41.236 36.0644 41.2703 36.0101C41.2863 35.985 41.3043 35.9603 41.3199 35.9292L41.3321 35.938C41.3875 35.9801 41.4382 36.0266 41.4892 36.0735C41.4993 36.0828 41.5095 36.0921 41.5197 36.1014C41.5319 36.1125 41.5442 36.1236 41.5565 36.1346C41.5592 36.1371 41.5625 36.1403 41.5661 36.1439C41.5816 36.1594 41.6042 36.182 41.6258 36.1823C41.664 36.1829 41.696 36.1471 41.7197 36.1205C41.7212 36.1189 41.7226 36.1173 41.724 36.1158C41.7272 36.1123 41.7304 36.1087 41.7337 36.1052C41.7414 36.0967 41.7492 36.0883 41.7566 36.0796C41.7671 36.0672 41.7773 36.0546 41.7871 36.0416C41.814 36.0063 41.8384 35.9689 41.8617 35.931C41.9045 35.8616 41.9457 35.7849 41.9516 35.7019C41.9552 35.6513 41.9438 35.5972 41.924 35.5506C41.8829 35.4544 41.8016 35.3836 41.7179 35.3253L41.6963 35.3104C41.6943 35.3091 41.6919 35.3073 41.6892 35.3053Z" fill="#1D93D1"/>
<path d="M17.458 35.165C17.4474 35.1576 17.4378 35.1536 17.4291 35.1528L17.4274 35.1527C17.4193 35.1529 17.4109 35.1591 17.4021 35.1716L17.1551 35.5923V35.5909C17.1537 35.588 17.1531 35.5843 17.1531 35.5798C17.1517 35.577 17.1511 35.5725 17.1511 35.5667C17.1504 35.5659 17.1499 35.5647 17.1495 35.5632C17.1492 35.5618 17.1491 35.56 17.1491 35.5578C17.1477 35.5549 17.147 35.5527 17.145 35.5468L17.1391 35.5269C17.1364 35.5181 17.1338 35.5116 17.1311 35.5071C17.1258 35.4924 17.1185 35.4776 17.1092 35.463L17.0913 35.4365L17.0673 35.4056C17.0567 35.3939 17.046 35.3829 17.0354 35.3726L17.0015 35.3416L16.9696 35.3163L16.9297 35.2887C16.927 35.2858 16.9244 35.2836 16.9137 35.2778L16.9098 35.2742L16.9018 35.2703L16.8978 35.2667L16.8838 35.2601C16.8825 35.2587 16.8812 35.2579 16.8798 35.2579L16.8758 35.2557C16.8652 35.2527 16.8553 35.2579 16.8439 35.2756L16.5389 35.7894C16.5322 35.8011 16.5288 35.81 16.5288 35.8158C16.5288 35.8218 16.5322 35.8283 16.5408 35.8379C16.5674 35.857 16.5946 35.8783 16.6226 35.9019C16.6319 35.9092 16.6412 35.9173 16.6505 35.9261C16.6811 35.9512 16.71 35.9769 16.7372 36.0033C16.7645 36.0298 16.7927 36.0555 16.822 36.0805C16.83 36.0894 16.8393 36.0938 16.8499 36.0938H16.8639L16.8758 36.0894C16.8865 36.0849 16.8991 36.0761 16.9137 36.0628L16.9238 36.054L16.9436 36.032C16.9503 36.0276 16.9557 36.0216 16.9597 36.0143L16.9716 36.0011L16.9773 35.9961L16.9826 35.99C16.9858 35.9856 16.9889 35.982 16.9916 35.979C16.9916 35.9776 16.9929 35.9754 16.9955 35.9725L17.0274 35.9283C17.0314 35.9239 17.0361 35.9173 17.0451 35.9035L17.0484 35.8975C17.0504 35.893 17.0527 35.8894 17.0554 35.8864L17.0653 35.871L17.0893 35.8313C17.0893 35.8298 17.0906 35.8276 17.0933 35.8247C17.0959 35.8188 17.0992 35.8133 17.1032 35.8081L17.1087 35.7996L17.1232 35.7695C17.1232 35.7681 17.1235 35.7669 17.1241 35.7663C17.1245 35.7659 17.1248 35.7653 17.1253 35.7637C17.1258 35.7623 17.1265 35.7601 17.1277 35.7565C17.1699 35.7874 17.2092 35.8198 17.2456 35.8541C17.2901 35.8961 17.3357 35.9376 17.3822 35.9788C17.3875 35.9832 17.3935 35.9869 17.4001 35.9897C17.406 35.9923 17.4128 35.993 17.4241 35.9909C17.4334 35.9887 17.4447 35.9832 17.458 35.9744C17.4713 35.9655 17.4866 35.9508 17.5039 35.9302C17.5318 35.9008 17.5574 35.8696 17.5806 35.8365C17.6039 35.8034 17.6269 35.7678 17.6495 35.7295C17.6774 35.6825 17.697 35.6369 17.7083 35.5928C17.7196 35.5487 17.7199 35.5061 17.7093 35.4649C17.7026 35.4296 17.6907 35.3976 17.6734 35.369C17.6561 35.3403 17.6361 35.3135 17.6136 35.2885C17.591 35.2634 17.566 35.2411 17.5388 35.2212C17.5115 35.2014 17.4846 35.1826 17.458 35.165Z" fill="#1D93D1"/>
<path d="M40.1087 33.9252C40.1036 33.9232 40.0988 33.922 40.0942 33.9216H40.0925C40.0838 33.9217 40.0747 33.9282 40.0654 33.9412L39.8233 34.3419C39.8227 34.3401 39.8223 34.3379 39.822 34.3354C39.8218 34.3335 39.8217 34.3315 39.8217 34.3293L39.8155 34.3086L39.801 34.2671L39.7969 34.258L39.7783 34.2212L39.7659 34.2028C39.7548 34.1858 39.743 34.1706 39.7306 34.1567C39.7182 34.143 39.7044 34.1291 39.6892 34.1154L39.6664 34.0946C39.6485 34.0808 39.6305 34.0674 39.6126 34.0543L39.5588 34.0164C39.556 34.0164 39.5533 34.0149 39.5505 34.0118C39.545 34.0088 39.5415 34.0073 39.5401 34.0073L39.536 34.0049C39.5236 34.0018 39.5125 34.0088 39.5028 34.0256L39.186 34.5617C39.1791 34.5739 39.1756 34.5834 39.1756 34.5904C39.1756 34.5973 39.1798 34.6045 39.188 34.6122C39.2156 34.6321 39.244 34.6544 39.273 34.6789L39.2875 34.6904L39.4096 34.8009L39.4303 34.8215L39.4801 34.8653C39.4829 34.8683 39.4859 34.871 39.4894 34.8733C39.4928 34.8756 39.4973 34.8775 39.5028 34.879C39.5111 34.8822 39.5212 34.8814 39.5328 34.8767C39.5446 34.8721 39.5588 34.8622 39.5753 34.8468L39.5856 34.8377L39.6416 34.7756L39.6747 34.7341C39.683 34.7219 39.6913 34.71 39.6996 34.6985C39.705 34.6909 39.7101 34.6832 39.715 34.6754C39.7175 34.6712 39.7199 34.667 39.7223 34.6628L39.7575 34.6053L39.7831 34.5599C39.8238 34.5895 39.8619 34.6206 39.8975 34.6532C39.9452 34.6969 39.9941 34.7402 40.044 34.7831C40.0497 34.7877 40.0561 34.7915 40.0632 34.7946C40.0695 34.7973 40.0768 34.7979 40.0889 34.7957C40.0989 34.7934 40.111 34.7877 40.1252 34.7785C40.1395 34.7693 40.1559 34.754 40.1744 34.7325C40.2043 34.7019 40.2318 34.6692 40.2567 34.6347C40.2817 34.6002 40.3063 34.563 40.3305 34.5232C40.3605 34.4741 40.3815 34.4265 40.3936 34.3806C40.4057 34.3345 40.406 34.29 40.3947 34.2472C40.3875 34.2103 40.3747 34.177 40.3562 34.1471C40.3376 34.1172 40.3162 34.0892 40.292 34.0631C40.2677 34.0371 40.2411 34.0137 40.2119 33.9929C40.1826 33.9722 40.1537 33.9526 40.1252 33.9343C40.1194 33.9304 40.1139 33.9273 40.1087 33.9252Z" fill="#1D93D1"/>
<path d="M4.95021 33.7439C4.93684 33.7338 4.92471 33.7283 4.91382 33.7272L4.91182 33.7271C4.9016 33.7273 4.891 33.7359 4.88001 33.753L4.49876 34.4621C4.49035 34.4783 4.48615 34.4899 4.48615 34.497C4.48615 34.5041 4.49035 34.5147 4.49876 34.5288C4.56561 34.5793 4.62702 34.6334 4.68308 34.691C4.73914 34.7486 4.79635 34.8056 4.8549 34.8621C4.86158 34.8682 4.86913 34.8733 4.87753 34.8773C4.88479 34.8808 4.89338 34.8817 4.90761 34.8788C4.91927 34.8758 4.9335 34.8682 4.95021 34.8561C4.96692 34.844 4.98622 34.8238 5.00789 34.7955C5.04304 34.7551 5.07523 34.7122 5.10445 34.6667C5.13377 34.6213 5.16261 34.5723 5.19107 34.5197C5.22612 34.4551 5.25076 34.3924 5.26499 34.3318C5.27922 34.2712 5.2797 34.2126 5.26624 34.1561C5.25793 34.1075 5.24284 34.0636 5.22116 34.0243C5.19938 33.9848 5.17426 33.9479 5.1459 33.9136C5.11744 33.8793 5.08611 33.8484 5.05183 33.8212C5.01754 33.7939 4.98364 33.7681 4.95021 33.7439Z" fill="#1D93D1"/>
<path d="M40.6452 31.6371C40.6724 31.5547 40.6625 31.5325 40.6155 31.5705C40.6052 31.5869 40.4848 31.7054 40.2543 31.9264C40.2151 31.9641 40.156 32.0181 40.0766 32.0883L40.0315 32.1282C39.6851 32.4325 39.0171 32.9963 38.0277 33.8197C37.9352 33.8958 37.8434 33.9691 37.7524 34.0397C37.6614 34.1104 37.5696 34.1892 37.4771 34.2761C37.4183 34.334 37.3582 34.411 37.2965 34.5069C37.1981 34.67 37.1489 34.7614 37.1489 34.7813C37.1475 34.8284 37.1835 34.8248 37.2568 34.7704C37.2891 34.7488 37.3226 34.7247 37.357 34.6985C37.3916 34.6723 37.4272 34.6437 37.4639 34.6129C38.0131 34.2127 38.543 33.802 39.054 33.381C39.5649 32.9599 39.9863 32.5647 40.3182 32.1953C40.509 31.9056 40.618 31.7194 40.6452 31.6371Z" fill="#1D93D1"/>
<path d="M20.8599 33.5741C20.8496 33.5668 20.8398 33.5627 20.8309 33.5619C20.8218 33.5612 20.8128 33.5682 20.8037 33.583L20.4942 34.1231C20.4877 34.1364 20.4842 34.1463 20.4836 34.153C20.4829 34.1596 20.4871 34.1667 20.4961 34.174C20.5503 34.2124 20.5999 34.2537 20.6451 34.298C20.6903 34.3422 20.736 34.3857 20.7824 34.4285C20.7889 34.4374 20.7992 34.4392 20.8134 34.4341C20.8276 34.4289 20.8424 34.4204 20.8579 34.4087C20.8734 34.3968 20.8883 34.3843 20.9024 34.3709C20.9166 34.3577 20.9269 34.3467 20.9333 34.3378C20.9553 34.3127 20.9762 34.2865 20.9963 34.2592C21.0162 34.2319 21.0352 34.2013 21.0533 34.1673C21.083 34.1172 21.1033 34.0692 21.1142 34.0235C21.1252 33.9777 21.1256 33.9334 21.1153 33.8906C21.1075 33.8538 21.0949 33.8202 21.0776 33.79C21.0601 33.7597 21.0398 33.7316 21.0166 33.7058C20.9933 33.6801 20.9682 33.656 20.9411 33.6339C20.914 33.6118 20.8869 33.5918 20.8599 33.5741Z" fill="#1D93D1"/>
<path d="M29.5716 33.5145C29.5604 33.5067 29.55 33.5025 29.5402 33.5017C29.5305 33.501 29.5207 33.5082 29.5109 33.5237L29.1763 34.0881C29.1693 34.102 29.1655 34.1124 29.1647 34.1193C29.164 34.1263 29.1686 34.1336 29.1784 34.1412C29.2369 34.1814 29.2906 34.2245 29.3394 34.2708C29.3882 34.3171 29.4378 34.3625 29.4879 34.4073C29.4949 34.4166 29.506 34.4185 29.5214 34.4131C29.5367 34.4077 29.5527 34.3988 29.5695 34.3865C29.5863 34.3742 29.6023 34.361 29.6176 34.3472C29.633 34.3333 29.6441 34.3218 29.6511 34.3125C29.6748 34.2862 29.6974 34.2589 29.719 34.2304C29.7407 34.2018 29.7612 34.1698 29.7807 34.1344C29.8128 34.0819 29.8348 34.0318 29.8466 33.9839C29.8585 33.9362 29.8588 33.89 29.8477 33.8452C29.8394 33.8067 29.8257 33.7715 29.8069 33.7399C29.7881 33.7083 29.7661 33.6791 29.741 33.6521C29.716 33.625 29.6887 33.6 29.6594 33.5769C29.6302 33.5538 29.6009 33.533 29.5716 33.5145Z" fill="#1D93D1"/>
<path d="M46.6097 33.2848L46.6055 33.2824C46.5926 33.2792 46.5813 33.2863 46.5713 33.3037L46.2444 33.8541C46.2374 33.8667 46.2337 33.8765 46.2337 33.8837C46.2337 33.8907 46.238 33.8982 46.2466 33.9061L46.2899 33.9386L46.3491 33.9864L46.4752 34.0998L46.4966 34.1211L46.5478 34.166L46.5574 34.1742C46.561 34.1766 46.5656 34.1786 46.5713 34.1801C46.5798 34.1833 46.5902 34.1825 46.6023 34.1777C46.6144 34.173 46.629 34.1628 46.6461 34.1471L46.6568 34.1376L46.6781 34.1139L46.7145 34.0738L46.7486 34.0313L46.7743 33.9946C46.7828 33.9829 46.7906 33.9707 46.7978 33.9581L46.8341 33.8989L46.8598 33.8541L46.8726 33.8258C46.8754 33.8226 46.8772 33.8186 46.8779 33.8139C46.8786 33.8092 46.8796 33.8053 46.8811 33.8021L46.8875 33.788L46.8961 33.7596C46.8961 33.7582 46.8961 33.757 46.8963 33.7559C46.8965 33.7545 46.8967 33.7534 46.8971 33.7525C46.8979 33.7509 46.8982 33.7485 46.8982 33.7454C46.9039 33.7203 46.9068 33.6927 46.9068 33.6628C46.9068 33.6596 46.9064 33.6572 46.9048 33.6527L46.9043 33.6438L46.9035 33.6391C46.9031 33.6372 46.9028 33.6354 46.9026 33.6335C46.9025 33.6322 46.9025 33.6309 46.9025 33.6296C46.901 33.6265 46.9004 33.6218 46.9004 33.6155L46.894 33.5942L46.879 33.5517L46.8747 33.5422L46.8555 33.5044L46.8427 33.4855C46.8312 33.4682 46.8192 33.4525 46.8063 33.4383C46.7935 33.4241 46.7793 33.41 46.7636 33.3957L46.7401 33.3745L46.7123 33.3535L46.6845 33.3332C46.666 33.3198 46.6476 33.3068 46.629 33.2942C46.6262 33.2942 46.6233 33.2926 46.6204 33.2894C46.6148 33.2863 46.6112 33.2848 46.6097 33.2848Z" fill="#1D93D1"/>
<path d="M47.2849 33.2493C47.2735 33.2414 47.2632 33.2371 47.2539 33.2363L47.2522 33.2362C47.2434 33.2363 47.2344 33.2431 47.2251 33.2564L46.9004 33.8092C46.8932 33.8218 46.8897 33.8309 46.8897 33.8364C46.8897 33.8419 46.8932 33.8501 46.9004 33.8612C46.9573 33.9006 47.0096 33.9427 47.0574 33.9876C47.105 34.0325 47.1538 34.077 47.2037 34.1211C47.2094 34.1258 47.2158 34.1297 47.2229 34.1328C47.2292 34.1356 47.2364 34.1363 47.2486 34.1341C47.2585 34.1317 47.2706 34.1258 47.2849 34.1163C47.2991 34.1069 47.3155 34.0911 47.334 34.069C47.3639 34.0376 47.3913 34.0041 47.4163 33.9687C47.4412 33.9332 47.4657 33.895 47.49 33.8541C47.5199 33.8037 47.5409 33.7548 47.553 33.7077C47.5651 33.6604 47.5655 33.6147 47.5541 33.5706C47.5469 33.5328 47.5341 33.4985 47.5156 33.4678C47.4971 33.4371 47.4757 33.4083 47.4515 33.3816C47.4273 33.3549 47.4006 33.3308 47.3714 33.3095C47.3422 33.2883 47.3133 33.2682 47.2849 33.2493Z" fill="#1D93D1"/>
<path d="M39.8363 33.2349C39.8253 33.2273 39.8152 33.223 39.8063 33.2222H39.8046C39.7961 33.2223 39.7874 33.2289 39.7784 33.2418L39.4636 33.78C39.4567 33.7924 39.4533 33.8012 39.4533 33.8065C39.4533 33.8119 39.4567 33.82 39.4636 33.8307C39.5188 33.8691 39.5695 33.91 39.6158 33.9538C39.662 33.9975 39.7093 34.0408 39.7576 34.0838C39.7632 34.0883 39.7694 34.0922 39.7763 34.0952C39.7823 34.0979 39.7894 34.0986 39.8011 34.0964C39.8107 34.0941 39.8225 34.0883 39.8363 34.0792C39.8501 34.0699 39.8659 34.0546 39.8839 34.0331C39.9129 34.0025 39.9395 33.9699 39.9636 33.9353C39.9878 33.9009 40.0116 33.8637 40.0351 33.8238C40.0641 33.7747 40.0845 33.7271 40.0962 33.6812C40.108 33.6352 40.1082 33.5907 40.0973 33.5478C40.0903 33.5109 40.0779 33.4776 40.0599 33.4477C40.042 33.4178 40.0213 33.3898 39.9978 33.3637C39.9743 33.3377 39.9485 33.3143 39.9202 33.2935C39.8918 33.2728 39.8639 33.2533 39.8363 33.2349Z" fill="#1D93D1"/>
<path d="M32.5831 33.1039C32.5717 33.0964 32.5613 33.0923 32.5519 33.0916H32.5502C32.5414 33.0916 32.5322 33.098 32.5228 33.1107L32.2847 33.4922C32.2836 33.4892 32.2831 33.4853 32.2831 33.4804C32.2823 33.4796 32.2818 33.4782 32.281 33.4751C32.2804 33.4728 32.2798 33.4695 32.2788 33.4647C32.2788 33.4632 32.2782 33.4617 32.2766 33.4602L32.2702 33.44C32.2674 33.4311 32.2645 33.4243 32.2616 33.4198C32.2558 33.4049 32.248 33.3899 32.2379 33.375L32.2185 33.3481L32.1926 33.3167C32.1682 33.2913 32.1445 33.2696 32.1214 33.2516L32.087 33.2258L32.0439 33.1978C32.041 33.1948 32.0382 33.1925 32.0309 33.1888L32.0266 33.1866C32.0238 33.1835 32.0209 33.1817 32.018 33.1809C32.0152 33.1802 32.0123 33.1784 32.0094 33.1753L31.9856 33.1641C31.9742 33.1611 31.9634 33.1663 31.9534 33.1798C31.9519 33.1813 31.9512 33.1829 31.9512 33.1843L31.6214 33.707C31.6141 33.7189 31.6106 33.7279 31.6106 33.7339C31.6106 33.7398 31.6141 33.7466 31.6214 33.7541C31.6214 33.7556 31.6221 33.7564 31.6235 33.7564C31.6522 33.7757 31.6817 33.7974 31.7119 33.8214L31.727 33.8331L31.7421 33.846C31.7752 33.8714 31.8064 33.8976 31.8359 33.9245C31.8653 33.9515 31.8959 33.9776 31.9275 34.0031C31.9361 34.012 31.9462 34.0165 31.9577 34.0165H31.9727L31.9856 34.012C31.9972 34.0075 32.0109 33.9986 32.0266 33.9851L32.0374 33.9761L32.059 33.9537C32.0662 33.9492 32.0719 33.9433 32.0762 33.9358L32.0892 33.9223C32.0935 33.9193 32.0974 33.9156 32.101 33.9111C32.1046 33.9066 32.1078 33.9029 32.1108 33.8999C32.1108 33.8984 32.1121 33.8962 32.1151 33.8931L32.1495 33.8483C32.1538 33.8438 32.1589 33.8371 32.1646 33.8281C32.1675 33.8251 32.17 33.8214 32.1722 33.8169C32.1743 33.8124 32.1768 33.8087 32.1797 33.8056L32.1905 33.79L32.2163 33.7496C32.2163 33.7481 32.2178 33.7459 32.2207 33.7429C32.2235 33.7369 32.2271 33.7312 32.2315 33.726L32.2388 33.7145C32.2797 33.7432 32.3179 33.7734 32.3536 33.8049C32.4018 33.8476 32.4509 33.8898 32.5013 33.9316C32.507 33.9361 32.5135 33.9398 32.5207 33.9429C32.527 33.9455 32.5343 33.9461 32.5465 33.944C32.5566 33.9417 32.5688 33.9361 32.5831 33.9271C32.5975 33.9181 32.6141 33.9032 32.6328 33.8823C32.6629 33.8523 32.6906 33.8206 32.7157 33.7869C32.7409 33.7533 32.7656 33.717 32.7901 33.6781C32.8203 33.6303 32.8415 33.584 32.8537 33.5391C32.8659 33.4942 32.8663 33.4508 32.8547 33.409C32.8476 33.3731 32.8347 33.3405 32.816 33.3114C32.7972 33.2823 32.7758 33.255 32.7513 33.2296C32.7269 33.2042 32.6999 33.1813 32.6705 33.1611C32.641 33.1409 32.6119 33.1218 32.5831 33.1039Z" fill="#1D93D1"/>
<path d="M31.6211 30.8874C31.6452 30.8096 31.634 30.7895 31.5874 30.8272C31.5776 30.8429 31.4593 30.9591 31.2326 31.1759C31.0333 31.3678 30.2994 31.9914 29.0308 33.0469C28.9392 33.1222 28.8483 33.195 28.758 33.2652C28.6676 33.3354 28.5769 33.4132 28.4859 33.4986C28.4282 33.5553 28.3698 33.6298 28.3109 33.722C28.2173 33.8782 28.171 33.9656 28.1719 33.984C28.1726 34.0278 28.2095 34.0226 28.2823 33.9684C28.3146 33.9466 28.3479 33.9226 28.3821 33.8965C28.4163 33.8703 28.4517 33.842 28.488 33.8116C29.0341 33.4121 29.5601 33.0038 30.0659 32.5869C30.5718 32.17 30.9868 31.7817 31.3108 31.4219C31.4936 31.1433 31.597 30.9652 31.6211 30.8874Z" fill="#1D93D1"/>
<path d="M5.34503 32.6547C5.32927 32.6453 5.31504 32.64 5.30224 32.639H5.29985C5.28772 32.6391 5.27531 32.6473 5.26232 32.6633L4.91277 33.182L4.90208 33.1499L4.89424 33.1317C4.89119 33.1256 4.88765 33.1195 4.88374 33.1135C4.8654 33.0791 4.84735 33.0509 4.82959 33.0287L4.81182 33.0074L4.76178 32.9529L4.68604 32.8893C4.67439 32.8792 4.66274 32.8701 4.65118 32.862L4.59331 32.8226L4.52693 32.7832L4.5212 32.7802C4.50602 32.7761 4.49494 32.7781 4.48768 32.7862L4.47966 32.7953L4.47173 32.8074L4.07023 33.5136C4.06144 33.5297 4.05733 33.5423 4.05772 33.5514C4.058 33.5605 4.06402 33.5701 4.07577 33.5803C4.09697 33.5944 4.11722 33.608 4.13651 33.6211C4.1558 33.6343 4.17509 33.6489 4.19458 33.6651L4.21501 33.6833C4.24405 33.7055 4.27308 33.7292 4.3023 33.7545C4.33143 33.7798 4.35961 33.8045 4.38692 33.8288L4.41605 33.853C4.43171 33.8692 4.44824 33.8833 4.46562 33.8954L4.48606 33.9136C4.4978 33.9257 4.51117 33.9318 4.52617 33.9318C4.53562 33.9338 4.54775 33.9318 4.56246 33.9257C4.56618 33.9237 4.56934 33.9222 4.57211 33.9211C4.57488 33.9202 4.57812 33.9176 4.58166 33.9136C4.59999 33.9034 4.62444 33.8813 4.65491 33.8469C4.66207 33.8388 4.66885 33.8317 4.67516 33.8257C4.68146 33.8196 4.68728 33.8125 4.69254 33.8045L4.72472 33.7651L4.76722 33.7045L4.78566 33.6741C4.791 33.6681 4.79721 33.659 4.80428 33.6469L4.83971 33.5847C4.84229 33.5797 4.84535 33.5752 4.84897 33.5711L4.8804 33.5136L4.90093 33.4651L4.90475 33.4506C4.94897 33.4806 4.99089 33.512 5.03053 33.5444C5.09643 33.5985 5.16385 33.6521 5.23281 33.7053C5.24074 33.7109 5.24952 33.7157 5.25936 33.7195C5.26805 33.7228 5.27817 33.7236 5.29489 33.7209C5.30864 33.7181 5.32535 33.7109 5.34503 33.6995C5.3647 33.6882 5.38743 33.6692 5.41303 33.6426C5.45438 33.6047 5.4922 33.5643 5.52668 33.5216C5.56115 33.4789 5.59515 33.4329 5.62858 33.3835C5.66994 33.3228 5.69897 33.2639 5.71578 33.207C5.73249 33.1501 5.73297 33.0951 5.71721 33.0419C5.70737 32.9963 5.68961 32.9551 5.66401 32.9181C5.63842 32.8811 5.60891 32.8464 5.57548 32.8142C5.54196 32.7819 5.505 32.753 5.46469 32.7273C5.4243 32.7017 5.38447 32.6775 5.34503 32.6547Z" fill="#1D93D1"/>
<path d="M47.878 30.7719C47.9041 30.6929 47.8947 30.6716 47.8496 30.708C47.8487 30.7095 47.8469 30.7117 47.8442 30.7148C47.8386 30.7213 47.8289 30.7316 47.8153 30.7455L47.7293 30.8311C47.6733 30.8859 47.598 30.9587 47.5033 31.0496C47.3089 31.2372 46.5973 31.8428 45.3684 32.8664C45.2796 32.9393 45.1917 33.0097 45.1044 33.0775C45.0171 33.1452 44.9291 33.2209 44.8404 33.3042C44.7841 33.3598 44.7264 33.4337 44.6673 33.5258C44.5729 33.6823 44.5257 33.7699 44.5257 33.7891C44.5244 33.8343 44.5589 33.8308 44.6292 33.7786C44.6602 33.7578 44.6922 33.7348 44.7253 33.7096C44.7584 33.6843 44.7926 33.657 44.8277 33.6274C45.3542 33.2434 45.8625 32.8493 46.3523 32.4454C46.8423 32.0414 47.2463 31.662 47.5645 31.3076C47.7475 31.0295 47.8521 30.851 47.878 30.7719Z" fill="#1D93D1"/>
<path d="M37.2548 30.2983C37.2773 30.2236 37.2662 30.2046 37.2213 30.2413C37.212 30.2564 37.0984 30.3692 36.8805 30.5797C36.8435 30.6156 36.7873 30.6673 36.7121 30.7345L36.6691 30.7727C36.34 31.0646 35.7042 31.6068 34.7617 32.3997C34.6735 32.4731 34.586 32.5439 34.499 32.6123C34.4119 32.6807 34.3247 32.7563 34.2371 32.8393C34.1817 32.8944 34.1258 32.9664 34.0697 33.0555C33.9805 33.2062 33.9365 33.2903 33.9376 33.308C33.9389 33.3497 33.9746 33.3442 34.045 33.2914C34.0761 33.2701 34.1081 33.2467 34.1411 33.2212C34.174 33.1957 34.208 33.1681 34.243 33.1385C34.7693 32.7488 35.276 32.351 35.763 31.9452C36.2499 31.5395 36.6488 31.1624 36.9595 30.8138C37.1339 30.5449 37.2324 30.3731 37.2548 30.2983Z" fill="#1D93D1"/>
<path d="M46.99 32.3965C46.9787 32.3885 46.9684 32.3842 46.9591 32.3835L46.9574 32.3834C46.9486 32.3835 46.9396 32.3903 46.9302 32.4035L46.6055 32.9563C46.5984 32.9689 46.5948 32.978 46.5948 32.9835C46.5948 32.989 46.5984 32.9973 46.6055 33.0084C46.6625 33.0477 46.7148 33.0898 46.7625 33.1347C46.8102 33.1796 46.859 33.2241 46.9089 33.2682C46.9146 33.2729 46.921 33.2768 46.9281 33.28C46.9344 33.2828 46.9416 33.2834 46.9537 33.2812C46.9637 33.2788 46.9758 33.2729 46.99 33.2635C47.0043 33.254 47.0207 33.2382 47.0392 33.2162C47.0691 33.1848 47.0965 33.1512 47.1214 33.1158C47.1464 33.0804 47.1709 33.0422 47.1952 33.0012C47.2251 32.9509 47.2461 32.902 47.2582 32.8548C47.2702 32.8075 47.2706 32.7619 47.2593 32.7177C47.2521 32.6799 47.2393 32.6456 47.2208 32.615C47.2022 32.5842 47.1809 32.5555 47.1567 32.5287C47.1325 32.502 47.1058 32.4779 47.0766 32.4566C47.0473 32.4354 47.0185 32.4153 46.99 32.3965Z" fill="#1D93D1"/>
<path d="M3.66319 27.3304C3.68592 27.2154 3.69413 27.1517 3.68792 27.1394C3.68448 27.1353 3.68013 27.1326 3.67487 27.1312C3.66434 27.1285 3.65017 27.1312 3.63234 27.1394C3.59519 27.2113 3.53645 27.3648 3.45604 27.5998C3.37572 27.835 3.31794 28.0018 3.28298 28.1004C3.27057 28.1414 3.25614 28.2359 3.23962 28.3837C3.2232 28.5315 3.20772 28.8657 3.1933 29.3862C3.17888 29.9067 3.16026 30.2696 3.13762 30.4749C3.1211 30.6905 3.04794 30.8841 2.91815 31.0555C2.78827 31.2269 2.56049 31.3681 2.23481 31.479C1.99366 31.5672 1.72167 31.6114 1.41863 31.6114C1.31768 31.6114 1.19295 31.6042 1.04454 31.5898C0.904431 31.5713 0.784859 31.5436 0.685916 31.5066C0.467401 31.4163 0.358239 31.2531 0.358239 31.017C0.358239 30.9841 0.359194 30.9513 0.361295 30.9184C0.361295 30.8938 0.356138 30.8753 0.345823 30.8629C0.335509 30.8506 0.323666 30.8445 0.310295 30.8445C0.296925 30.8445 0.284032 30.8497 0.271616 30.8599C0.259296 30.8702 0.250987 30.8845 0.24688 30.9061C0.172673 31.173 0.121196 31.5056 0.0923532 31.9039C0.0923532 32.1155 0.154145 32.2798 0.277824 32.3968C0.436553 32.5323 0.705495 32.6 1.08474 32.6C1.50315 32.6 1.85767 32.5159 2.14829 32.3475C2.32765 32.2489 2.48628 32.1247 2.62438 31.9748C2.78311 31.8126 2.94289 31.5806 3.10362 31.2788C3.26436 30.9811 3.37982 30.5776 3.44992 30.0683C3.48908 29.6947 3.51172 29.3395 3.51792 29.0027C3.54466 28.3909 3.56845 27.9884 3.58898 27.7954C3.61582 27.6004 3.64055 27.4454 3.66319 27.3304Z" fill="#1D93D1"/>
<path d="M5.80202 29.6795C5.82332 29.5968 5.81262 29.5523 5.77012 29.5461C5.73182 29.5503 5.69515 29.5782 5.66 29.6299C5.62495 29.6816 5.59468 29.7365 5.56908 29.7943C5.52448 29.9164 5.42554 30.0156 5.27235 30.0922C5.14046 30.1542 5.02776 30.2168 4.93417 30.2799C4.84057 30.3429 4.76608 30.4076 4.71078 30.4738C4.65758 30.5399 4.61079 30.6057 4.57039 30.6708C4.52999 30.7359 4.49226 30.8016 4.45712 30.8678C4.42207 30.934 4.38855 31.0011 4.35665 31.0694C4.32475 31.1377 4.2896 31.208 4.25131 31.2804C4.18541 31.419 4.06631 31.5513 3.89402 31.6775C3.85143 31.7106 3.8116 31.7406 3.77435 31.7675C3.73711 31.7944 3.68764 31.8285 3.62594 31.8699C3.56424 31.9112 3.4845 31.9645 3.3867 32.0296C3.28881 32.0948 3.15797 32.1801 2.99417 32.2856C2.91338 32.3353 2.86343 32.3843 2.84423 32.433C2.82513 32.4816 2.84003 32.5131 2.88893 32.5276C2.89695 32.5291 2.90879 32.5298 2.92455 32.5296L3.00382 32.5244L3.58764 32.4283C3.80043 32.389 3.96097 32.3135 4.06946 32.2018C4.14816 32.1315 4.21358 32.042 4.26573 31.9335C4.31778 31.8249 4.36572 31.7137 4.40927 31.6C4.45292 31.4862 4.49494 31.3781 4.53534 31.2757C4.57574 31.1733 4.62358 31.0932 4.67888 31.0353C4.71508 30.9919 4.76082 30.951 4.81612 30.9128C4.87142 30.8745 4.93837 30.8398 5.01716 30.8088C5.09366 30.7799 5.16605 30.7426 5.23405 30.6971C5.30215 30.6517 5.36384 30.602 5.41914 30.5483C5.47444 30.4903 5.52763 30.4148 5.57863 30.3217C5.62973 30.2287 5.67223 30.1212 5.70632 29.9991C5.72762 29.9329 5.74615 29.8734 5.7621 29.8207C5.77814 29.768 5.79142 29.7209 5.80202 29.6795Z" fill="#1D93D1"/>
<path d="M6.52184 28.2591C6.51448 28.199 6.49787 28.1918 6.47208 28.2373C6.4335 28.3388 6.39625 28.4413 6.36034 28.5449C6.32443 28.6484 6.29081 28.7509 6.25958 28.8524C6.23198 28.9745 6.20343 29.1351 6.17401 29.3338C6.14459 29.5327 6.11833 29.7205 6.09531 29.8976C6.0723 30.0746 6.0383 30.3682 5.99322 30.7782C5.95091 31.1626 5.92847 31.4014 5.92579 31.4946L5.9256 31.5113C5.91815 31.7618 5.95129 31.9866 6.02493 32.1853C6.12435 32.409 6.28814 32.5208 6.5163 32.5208C6.72058 32.5208 6.90271 32.3872 7.06287 32.1201C7.16921 31.9519 7.25291 31.918 7.31396 31.8932C7.33636 31.8841 7.35572 31.8762 7.37202 31.8635C7.41624 31.8283 7.47507 31.8086 7.54871 31.8045C7.58003 31.8003 7.6127 31.7967 7.6467 31.7936C7.6807 31.7905 7.71345 31.7828 7.74468 31.7703C7.80905 31.7372 7.87629 31.6891 7.9462 31.6258C8.01611 31.5627 8.0778 31.4981 8.13119 31.4318C8.22679 31.4048 8.30501 31.364 8.36575 31.309C8.42649 31.2541 8.4859 31.1641 8.54387 31.0388C8.60184 30.9136 8.65102 30.7504 8.69152 30.5496C8.70441 30.4585 8.70164 30.4108 8.68321 30.4067C8.65742 30.3922 8.63078 30.4294 8.60318 30.5186C8.56641 30.6117 8.53413 30.6826 8.50653 30.7313C8.47892 30.78 8.45276 30.8136 8.42793 30.8323C8.403 30.8509 8.37817 30.8591 8.35334 30.8571C8.32851 30.855 8.30043 30.8488 8.2692 30.8385C8.25449 30.8323 8.2416 30.8353 8.23052 30.8478C8.22498 30.854 8.22135 30.8602 8.21944 30.8664C8.16242 30.9782 8.09757 31.0699 8.02489 31.1413C7.95222 31.2128 7.8698 31.2505 7.77782 31.2547C7.74841 31.2567 7.71431 31.2532 7.67563 31.2438C7.63705 31.2345 7.6021 31.235 7.57077 31.2453C7.51738 31.262 7.4383 31.3375 7.33334 31.4721C7.22848 31.6067 7.0411 31.6317 6.83872 31.6358C6.69881 31.6358 6.58382 31.6016 6.49366 31.5333C6.40895 31.4587 6.34869 31.3614 6.31287 31.2413C6.28769 31.1571 6.28609 31.0234 6.28484 30.9195C6.28431 30.8753 6.28384 30.8365 6.28164 30.8093V30.7658C6.28164 30.6933 6.28623 30.5721 6.29549 30.4023C6.29549 30.3755 6.30237 30.2823 6.31612 30.1228C6.32997 29.9634 6.35614 29.6988 6.39482 29.3291C6.4335 28.9595 6.47581 28.6028 6.52184 28.2591Z" fill="#1D93D1"/>
<path d="M2.29174 29.6878C2.284 29.6482 2.24924 29.6199 2.18744 29.6026C2.07675 29.5878 1.9802 29.6186 1.89778 29.6951C1.81794 29.7692 1.79349 29.8594 1.82443 29.9656C1.85528 30.0717 1.85012 30.1421 1.80896 30.1766C1.76264 30.2112 1.68662 30.2285 1.58108 30.2285H1.50764C1.45358 30.231 1.43038 30.2532 1.43811 30.2952C1.44843 30.3372 1.46648 30.3705 1.49226 30.3952C1.50506 30.4075 1.52053 30.418 1.53858 30.4267C1.55663 30.4353 1.58233 30.4421 1.61585 30.447C1.7549 30.4593 1.85662 30.4199 1.92099 30.3285C1.99051 30.2297 2.00589 30.139 1.96731 30.0563C1.92872 29.9736 1.9229 29.9106 1.94992 29.8674C1.97695 29.8241 2.03807 29.7988 2.13339 29.7915C2.23128 29.794 2.284 29.7594 2.29174 29.6878Z" fill="#1D93D1"/>
<path d="M13.654 28.7238C13.2649 28.5292 12.9081 28.5292 12.9081 28.5292C12.4141 28.5566 12.3612 28.8395 12.3566 28.9259L12.3565 28.9508C12.3565 29.5994 13.0703 29.4697 13.0703 29.4697C13.2721 29.4697 13.5523 29.3324 13.6669 29.2714L13.7189 29.2427H48V28.7238H13.654Z" fill="#1D93D1"/>
<path d="M8.31179 26.8305C8.29603 26.8207 8.28171 26.8154 8.26891 26.8144L8.26652 26.8143C8.25449 26.8145 8.24198 26.8228 8.22908 26.8393L7.88832 27.3609L7.87954 27.3334L7.84983 27.2713L7.83369 27.2465C7.81927 27.2237 7.80399 27.203 7.78776 27.1844C7.77162 27.1658 7.75366 27.1471 7.7338 27.1285L7.70419 27.1006C7.68079 27.082 7.65739 27.0639 7.63399 27.0463C7.61059 27.0287 7.58729 27.0116 7.56389 26.9951C7.56026 26.9951 7.55663 26.993 7.5531 26.9889C7.54584 26.9848 7.54135 26.9827 7.53963 26.9827L7.53419 26.9795C7.51805 26.9754 7.50363 26.9848 7.49102 27.0075L7.07825 27.7306C7.06927 27.7471 7.06478 27.7601 7.06478 27.7694C7.06478 27.7787 7.07013 27.7885 7.08092 27.7989C7.11693 27.8258 7.15379 27.8558 7.19161 27.8888L7.21043 27.9044L7.36964 28.0534L7.39657 28.0813L7.46132 28.1402C7.46495 28.1444 7.46896 28.148 7.47355 28.1511C7.47803 28.1542 7.48386 28.1568 7.49102 28.1588C7.50181 28.163 7.5149 28.162 7.53018 28.1558C7.54546 28.1496 7.56389 28.1361 7.58548 28.1154L7.59894 28.1029L7.67181 28.0192L7.71498 27.9633C7.72577 27.9468 7.73657 27.9308 7.74736 27.9153C7.75815 27.8997 7.76799 27.8837 7.77696 27.8671L7.8229 27.7896L7.85528 27.7306L7.87142 27.6933C7.87505 27.6892 7.87724 27.6841 7.8782 27.6779C7.87906 27.6716 7.8804 27.6665 7.88297 27.6605C7.9229 27.6889 7.96091 27.7184 7.99701 27.749C8.063 27.8048 8.13052 27.8602 8.19948 27.915C8.20741 27.9209 8.21619 27.9258 8.22612 27.9297C8.23472 27.9331 8.24484 27.9339 8.26156 27.9312C8.27531 27.9283 8.29212 27.9209 8.31179 27.9092L8.34357 27.8856L8.37979 27.8503C8.42114 27.8112 8.45906 27.7695 8.49354 27.7254C8.52802 27.6814 8.56201 27.6338 8.59554 27.5829C8.63689 27.5202 8.66602 27.4594 8.68273 27.4007C8.69945 27.342 8.70002 27.2851 8.68426 27.2302C8.67433 27.1832 8.65666 27.1406 8.63097 27.1024C8.60537 27.0642 8.57586 27.0284 8.54234 26.9951C8.50882 26.9619 8.47186 26.932 8.43146 26.9055C8.39106 26.8791 8.35124 26.854 8.31179 26.8305Z" fill="#1D93D1"/>
<path d="M15.5026 27.394L13.5243 27.0373H11.1243C10.3784 27.0373 10.4756 27.5886 10.4756 27.5886C10.4756 28.14 11.1568 28.0751 11.0919 28.0751H13.3946L15.4054 27.7508H19.9784C20.9838 28.1075 22.0216 28.0751 22.0216 28.0751C22.735 28.0751 24 27.8157 24 27.8157H48V27.2643H23.5783C23.0162 27.1238 22.3322 27.105 22.1598 27.1025L22.1188 27.1022C21.3351 27.0751 20.3486 27.2958 20.0416 27.3701L19.9459 27.394H15.5026Z" fill="#1D93D1"/>
<path d="M7.87065 25.8546C7.85595 25.8443 7.84277 25.8385 7.83121 25.8376L7.82911 25.8375C7.81822 25.8377 7.80753 25.8465 7.79692 25.8638L7.43391 26.5874C7.42598 26.6038 7.42226 26.6157 7.42264 26.6229C7.42302 26.6302 7.42808 26.641 7.43773 26.6554C7.51136 26.707 7.57946 26.7621 7.64202 26.8208C7.70448 26.8795 7.76837 26.9378 7.8335 26.9955C7.84086 27.0017 7.84917 27.0068 7.85824 27.0109C7.86617 27.0146 7.87533 27.0154 7.89014 27.0125C7.90236 27.0094 7.91697 27.0017 7.93397 26.9894C7.95097 26.9769 7.97017 26.9563 7.99156 26.9275C8.02642 26.8862 8.05803 26.8425 8.0864 26.7961C8.11477 26.7496 8.14246 26.6997 8.16959 26.6461C8.20301 26.5801 8.22555 26.5162 8.23711 26.4544C8.24866 26.3926 8.2458 26.3328 8.22842 26.2751C8.21686 26.2256 8.19843 26.1807 8.17321 26.1405C8.14791 26.1003 8.11935 26.0628 8.08726 26.0277C8.05527 25.9927 8.02031 25.9613 7.98249 25.9334C7.94477 25.9056 7.90742 25.8793 7.87065 25.8546Z" fill="#1D93D1"/>
<path d="M8.21887 22.9619C8.24905 22.8434 8.23329 22.8091 8.17178 22.8593C8.13148 22.9109 8.06415 22.983 7.96969 23.0758C7.87524 23.1684 7.76082 23.2752 7.62645 23.3961C7.49207 23.517 7.34213 23.6489 7.17662 23.7918C7.01121 23.9347 6.83834 24.0826 6.65822 24.2354C6.4781 24.3882 6.29492 24.5423 6.10878 24.6979C5.92264 24.8535 5.7407 25.005 5.56307 25.1524L5.05613 25.5733C4.89587 25.7064 4.7528 25.8257 4.62721 25.9314C4.50153 26.037 4.39666 26.1258 4.31243 26.198C4.2281 26.2701 4.1729 26.32 4.14663 26.3476C4.06402 26.451 3.97921 26.5711 3.89211 26.7076C3.80711 26.8622 3.76604 26.9506 3.76862 26.9726C3.78257 26.9832 3.81962 26.9666 3.87979 26.9228C3.92277 26.8932 4.16325 26.7113 4.60143 26.377C5.03951 26.0427 5.5835 25.6007 6.23332 25.0508C6.88313 24.501 7.43276 24.013 7.88202 23.5868C8.07647 23.2888 8.18878 23.0805 8.21887 22.9619Z" fill="#1D93D1"/>
<path d="M23.8054 25.9021C23.1568 25.7075 22.0216 25.5778 22.0216 25.5778H18.5838C17.8741 25.5778 17.2129 25.7232 16.8853 25.8088L16.7507 25.8456L16.7067 25.8585L16.6703 25.8697H15.5026C14.6513 25.7176 13.8285 25.6512 13.729 25.6435L10.0541 25.6427C9.43571 25.6427 9.37741 26.0325 9.37285 26.1364L9.37272 26.1616C9.37272 26.713 10.0216 26.6481 10.0216 26.6481H13.654C14.2378 26.6481 15.6 26.3562 15.6 26.3562H16.573C17.1835 26.6005 18.3398 26.6435 18.4738 26.6477L21.6323 26.6481C22.3459 26.6157 23.708 26.4535 23.708 26.4535H48V25.9021H23.8054Z" fill="#1D93D1"/>
<path d="M14.1081 24.2806L13.427 24.1184H9.72975C8.95139 24.0859 9.01624 24.6373 9.01624 24.6373C9.01624 25.2535 9.66491 25.1886 9.66491 25.1886H13.3946L14.3676 24.9616H15.4703L16.4108 25.1562H21.2108C21.9891 25.1562 23.1568 24.9292 23.1568 24.9292H48V24.3778H23.1892C22.3113 24.1357 21.716 24.1195 21.6405 24.1185L16.4756 24.1184L15.5676 24.2806H14.1081Z" fill="#1D93D1"/>
<path d="M13.1675 22.8211L12.973 22.6265H10.0541C9.3081 22.594 9.37295 23.113 9.37295 23.113C9.37295 23.7616 10.0865 23.6643 10.0865 23.6643H12.8108L12.973 23.567H14.8864L15.0162 23.6967H20.2378C21.0811 23.7292 22.2162 23.5021 22.2162 23.5021H48V22.9508H22.2811C21.0161 22.6589 20.3999 22.6265 20.3999 22.6265H14.9189L14.5946 22.8211H13.1675Z" fill="#1D93D1"/>
<path d="M18.427 21.171L18.3892 21.167H8.04323C7.26487 21.1346 7.32971 21.7184 7.32971 21.7184C7.36219 22.2373 8.01076 22.1724 8.01076 22.1724H18.2919C19.0054 22.1724 20.3351 22.0102 20.3351 22.0102H48V21.4589H20.4649C19.5968 21.3101 18.8426 21.2182 18.5357 21.1832L18.427 21.171Z" fill="#1D93D1"/>
<path d="M15.6649 20.0319C14.5621 19.6644 13.7487 19.6728 13.6618 19.6749L5.35133 19.6751C4.67026 19.6468 4.60999 20.115 4.60556 20.2325L4.60544 20.2589C4.57513 20.8038 5.13817 20.7836 5.21338 20.7785L13.5892 20.7778C14.5297 20.7454 15.5676 20.5508 15.5676 20.5508H48V20.0319H15.6649Z" fill="#1D93D1"/>
<path d="M18.8432 18.54C17.5954 18.1918 16.841 18.1811 16.696 18.1827L13.1027 18.1832L12.7135 18.3778H9.85945L9.43779 18.1832H3.7946C2.98376 18.1832 3.04861 18.7671 3.04861 18.7671C3.04861 19.246 3.65658 19.2829 3.75011 19.2857L10.4756 19.2859L10.573 19.1238H11.5135L11.6432 19.2536H16.6053C17.8054 19.2536 18.8107 19.0589 18.8107 19.0589H48V18.54H18.8432Z" fill="#1D93D1"/>
<path d="M10.3784 17.0157C10.0541 16.9184 9.59996 16.8211 9.59996 16.8211H2.62705C1.91354 16.8211 2.01086 17.34 2.01086 17.34C2.01086 17.786 2.47414 17.8231 2.55136 17.8262L9.37295 17.8265C9.72975 17.7941 10.3459 17.6644 10.3459 17.6644H11.3189C11.7081 17.8265 12.1946 17.8589 12.1946 17.8589H19.2C19.8162 17.8589 20.6919 17.6319 20.6919 17.6319H48V17.113H20.7243C20.173 16.8859 19.3946 16.8535 19.3946 16.8535L19.2805 16.853C18.7871 16.8506 16.7829 16.8414 15.0554 16.8395L14.0663 16.8393C13.2164 16.8402 12.5582 16.8442 12.3892 16.8535C11.8054 16.8859 11.3189 17.0157 11.3189 17.0157H10.3784Z" fill="#1D93D1"/>
<path d="M20.5296 15.3616H12.4865C11.8703 15.3292 11.1243 15.5887 11.1243 15.5887H9.66481C9.14341 15.3966 8.69169 15.367 8.56504 15.3625L1.7189 15.3616C1.16755 15.3616 1.2324 15.8805 1.2324 15.8805C1.2324 16.2859 1.52521 16.331 1.62282 16.3348L8.33509 16.3346C8.95139 16.367 9.69728 16.1075 9.69728 16.1075H11.1892C11.6432 16.3346 12.4216 16.367 12.4216 16.367H20.3351C21.3081 16.367 21.8594 16.14 21.8594 16.14H48V15.6535H21.9243C21.1338 15.39 20.7072 15.362 20.575 15.3608L20.5346 15.3614L20.5296 15.3616Z" fill="#1D93D1"/>
<path d="M8.30272 14.1292C7.42489 13.9173 6.99906 13.8749 6.94618 13.8702L1.36219 13.8698C0.843213 13.8698 0.875283 14.3563 0.875283 14.3563C0.875283 14.8751 1.29734 14.8102 1.29734 14.8102H6.71352C7.52435 14.7454 8.10808 14.5832 8.10808 14.5832H11.7081C12.1946 14.7778 13.0054 14.8751 13.0054 14.8751H21.4054C22.0865 14.8428 22.735 14.6157 22.735 14.6157H48V14.1616H22.7676C22.1051 13.9207 21.6102 13.9035 21.5429 13.9022L13.2649 13.9021C12.3892 13.8698 11.8054 14.1292 11.8054 14.1292H8.30272Z" fill="#1D93D1"/>
<path d="M6.03247 12.7021C5.35133 12.5075 4.67029 12.4103 4.67029 12.4103H0.778365C0.389182 12.4103 0.389182 12.9292 0.389182 12.9292C0.389182 13.3683 0.667828 13.4126 0.753565 13.4159L4.44327 13.4157C5.01407 13.3681 5.61975 13.2334 5.90218 13.1649L6.02203 13.135C6.04986 13.1279 6.06485 13.1239 6.06485 13.1239H12.7459C13.3297 13.2536 14.0757 13.3833 14.0757 13.3833H21.8919C22.6378 13.3508 23.3514 13.1562 23.3514 13.1562H48V12.6374H23.4162C22.6633 12.4265 22.1621 12.4114 22.0943 12.4103L14.2054 12.4103C13.4919 12.4427 12.7784 12.7021 12.7784 12.7021H6.03247Z" fill="#1D93D1"/>
<path d="M23.7405 11.2102C23.027 10.9832 22.5081 10.9185 22.5081 10.9185H16.1838C15.4378 10.9185 14.5946 11.1779 14.5946 11.1779H0V11.6644H14.4324C14.9189 11.8265 15.8919 11.9562 15.8919 11.9562H22.4108C23.1243 11.9562 23.9351 11.6644 23.9351 11.6644H48V11.2102H23.7405Z" fill="#1D93D1"/>
<path d="M24.0973 9.68598C23.5783 9.55618 22.6053 9.45896 22.6053 9.45896H19.4269C18.7459 9.49134 17.9027 9.68598 17.9027 9.68598H0V10.2049H17.8703C18.4865 10.3994 19.1675 10.4643 19.1675 10.4643H22.6378C23.3838 10.432 24.227 10.2373 24.227 10.2373H48V9.68598H24.0973Z" fill="#1D93D1"/>
<path d="M48 8.6805V8.16162H0V8.6805H48Z" fill="#1D93D1"/>
<path fill-rule="evenodd" clip-rule="evenodd" d="M2.25629 36.7458C2.22566 36.7933 2.20038 36.8325 2.18238 36.8512C2.17412 36.8597 2.15028 36.8586 2.12166 36.8572C2.07788 36.8551 2.02292 36.8525 1.99548 36.8832C1.96713 36.9149 1.96568 36.9966 1.9638 37.1027C1.96056 37.2855 1.95604 37.541 1.81068 37.7399C1.70667 37.8823 1.51729 38.0751 1.22819 38.053C0.668486 38.0101 0.841632 37.5525 0.935318 37.3049C0.970687 37.2114 0.99473 37.1479 0.96374 37.1479C0.925634 37.1479 0.75086 37.5501 0.724787 37.8541C0.699574 38.148 0.817904 38.3435 1.06574 38.3855C1.53295 38.4649 1.96349 37.9893 2.05106 37.1217C2.05221 37.1106 2.07842 37.1098 2.11861 37.1086C2.18514 37.1066 2.29 37.1034 2.38294 37.0502C2.49775 36.9843 2.58398 36.8417 2.62432 36.7749C2.63143 36.7632 2.63712 36.7537 2.64128 36.7475C2.67051 36.704 2.76964 36.4288 2.59697 36.4206C2.46974 36.4146 2.34205 36.6127 2.25629 36.7458ZM2.49421 36.5979C2.34923 36.6167 2.23329 36.8409 2.23997 36.849C2.25086 36.8619 2.37798 36.8515 2.46231 36.8086C2.52534 36.7764 2.60576 36.6659 2.60576 36.6659C2.60576 36.6659 2.59726 36.5844 2.49421 36.5979Z" fill="#1D93D1"/>
<path d="M5.19308 36.5848C5.21237 36.4693 5.03397 36.3778 4.96597 36.404C4.89797 36.4302 4.83112 36.6295 4.81526 36.6898C4.81097 36.7063 4.82905 36.7196 4.84499 36.7313C4.8588 36.7415 4.871 36.7505 4.86559 36.7593C4.84304 36.7958 4.78074 36.8609 4.71712 36.9274C4.65952 36.9875 4.60085 37.0488 4.56962 37.0911C4.53066 37.1438 4.47622 37.2263 4.47144 37.2926C4.45808 37.4755 4.56023 37.5062 4.64502 37.5317C4.70685 37.5503 4.75945 37.5661 4.75127 37.6361C4.74306 37.7067 4.63237 37.8578 4.4916 37.94C4.36658 38.013 4.21454 38.0216 4.13918 38.0211C3.91943 38.0198 3.82898 37.8986 3.8181 37.7375C3.80394 37.5279 3.924 37.2717 3.99974 37.1101C4.04256 37.0187 4.07122 36.9576 4.05342 36.9522C4.04263 36.949 3.8988 37.1754 3.79451 37.4908C3.61849 38.023 3.73959 38.3226 4.00529 38.3552C4.63944 38.4327 4.90351 37.5163 4.81517 37.3118C4.78354 37.2386 4.71148 37.2217 4.65991 37.2097C4.61851 37.2 4.59033 37.1935 4.60687 37.1633C4.6112 37.1553 4.61514 37.1476 4.61906 37.14C4.64278 37.0936 4.6657 37.0488 4.7698 36.9671C4.8391 36.9126 4.90463 36.8727 4.96262 36.8373C5.08395 36.7634 5.17227 36.7095 5.19308 36.5848Z" fill="#1D93D1"/>
<path d="M0.0741119 37.202C0.0741119 36.734 0.539221 36.2798 0.581147 36.3095C0.589315 36.3153 0.567329 36.3562 0.531937 36.4219C0.444837 36.5837 0.276542 36.8963 0.276678 37.2085C0.276817 37.588 0.45485 37.923 0.539784 38.0828C0.571574 38.1427 0.590322 38.178 0.581816 38.1818C0.565198 38.1894 0.0741119 37.9216 0.0741119 37.202Z" fill="#1D93D1"/>
<path d="M7.33268 37.1262C7.33268 36.6826 6.85219 36.2522 6.80902 36.2804C6.80058 36.2859 6.82329 36.3246 6.85986 36.387C6.94981 36.5403 7.12356 36.8365 7.12342 37.1323C7.12328 37.4921 6.93932 37.8097 6.85162 37.9611C6.81883 38.0177 6.7995 38.051 6.80826 38.0547C6.82545 38.062 7.33268 37.8081 7.33268 37.1262Z" fill="#1D93D1"/>
<path d="M6.58325 37.0019C6.75153 36.9436 6.77607 36.7056 6.75955 36.7006C6.75102 36.6981 6.7397 36.7223 6.72675 36.75C6.71099 36.7837 6.69282 36.8225 6.67436 36.8244C6.66309 36.8255 6.65512 36.8186 6.64758 36.812C6.63915 36.8046 6.63127 36.7978 6.61992 36.8032C6.60816 36.8088 6.60167 36.8276 6.5941 36.8494C6.5828 36.882 6.56909 36.9216 6.53187 36.9348C6.51442 36.941 6.50119 36.9375 6.48552 36.9333C6.46902 36.929 6.44981 36.9239 6.42013 36.9286C6.37041 36.9366 6.27207 37.0737 6.21566 37.1524C6.19242 37.1848 6.1763 37.2073 6.17363 37.2067C6.16112 37.2041 6.15344 37.1909 6.14379 37.1742C6.12387 37.1399 6.09555 37.091 5.99914 37.091C5.93041 37.091 5.89556 37.133 5.85652 37.1801C5.80736 37.2393 5.75157 37.3066 5.61311 37.3081C5.33877 37.3108 5.43487 36.7356 5.48915 36.4106C5.50967 36.2878 5.52421 36.2007 5.51054 36.1941C5.46078 36.1699 5.30348 36.9154 5.30519 37.1542C5.30528 37.1664 5.30528 37.1792 5.30528 37.1924C5.30534 37.3666 5.30541 37.6149 5.49955 37.6225C5.6302 37.6276 5.70737 37.5518 5.76343 37.442C5.82761 37.3161 5.89647 37.2888 5.94671 37.2919C5.9936 37.2949 6.04298 37.3298 6.05683 37.3741C6.07251 37.4245 6.05549 37.5083 6.04229 37.5733C6.03178 37.6251 6.0237 37.6649 6.03648 37.6663C6.04774 37.6676 6.07021 37.6027 6.09702 37.5254C6.12414 37.4471 6.1557 37.3561 6.18461 37.3076C6.23504 37.223 6.33178 37.1233 6.38154 37.0877C6.39453 37.0784 6.40225 37.0812 6.413 37.0852C6.4251 37.0896 6.44104 37.0954 6.47265 37.0869C6.504 37.0784 6.51797 37.0607 6.53192 37.0431C6.54465 37.0269 6.55736 37.0108 6.58325 37.0019Z" fill="#1D93D1"/>
<path fill-rule="evenodd" clip-rule="evenodd" d="M3.23217 37.1623C3.19919 37.2273 3.17086 37.2832 3.14307 37.3018C3.12206 37.3158 3.08538 37.2994 3.02607 37.2718C2.8659 37.1972 2.94907 36.6635 2.99451 36.3719C3.0121 36.2591 3.02403 36.1825 3.01404 36.1828C2.99417 36.1834 2.90621 36.4056 2.90411 36.4834C2.9026 36.5388 2.88591 36.6263 2.86633 36.7289C2.80061 37.0733 2.70235 37.5883 3.03658 37.6358C3.1552 37.6526 3.28728 37.6303 3.38871 37.5297C3.49833 37.421 3.58207 37.2761 3.65025 37.1581C3.69737 37.0765 3.73706 37.0078 3.77273 36.9728C3.78648 36.9594 3.78534 36.9239 3.77111 36.9151C3.76259 36.9098 3.74265 36.9116 3.72207 36.9134C3.70851 36.9147 3.69467 36.9159 3.68362 36.9151C3.66624 36.914 3.64587 36.9084 3.62326 36.9022C3.57445 36.8889 3.51519 36.8728 3.45298 36.8917C3.35418 36.9215 3.2868 37.0545 3.23217 37.1623ZM3.40762 37.0228C3.32481 37.0374 3.20476 37.2972 3.20992 37.3048C3.2189 37.3183 3.33885 37.3037 3.44467 37.242C3.54657 37.1826 3.62565 37.0629 3.61668 37.0529C3.59834 37.0323 3.49042 37.0082 3.40762 37.0228Z" fill="#1D93D1"/>
<path d="M3.33503 36.3248C3.33522 36.2931 3.46807 36.065 3.52604 36.046C3.58401 36.027 3.68563 36.1551 3.68296 36.2111C3.67436 36.3856 3.53072 36.4608 3.50847 36.4608C3.50112 36.4608 3.48833 36.4481 3.47179 36.4316C3.45887 36.4188 3.44367 36.4036 3.427 36.3905C3.40786 36.3755 3.38795 36.364 3.37158 36.3546C3.3503 36.3423 3.33498 36.3334 3.33503 36.3248Z" fill="#1D93D1"/>
</svg>
