<svg width="48" height="48" viewBox="0 0 48 48" fill="none" xmlns="http://www.w3.org/2000/svg">
<path fill-rule="evenodd" clip-rule="evenodd" d="M26.1324 0L13.8283 7.58904C13.4335 8.18399 13.1798 8.88961 13.1798 9.74722C13.1798 11.7878 14.8506 12.6283 16.5275 13.3737L22.2238 15.9034C21.2905 15.4553 20.2433 14.9187 20.2433 14.2228C20.2433 13.6116 20.7861 13.213 21.1897 12.9668L25.7468 10.1895C27.8162 8.9332 29.0419 7.29715 29.0419 4.84708C29.0419 2.55798 27.6075 0.844099 26.1324 0ZM27.482 27.225C28.3846 27.6384 28.6914 27.9644 28.6914 28.481C28.6914 28.9775 28.259 29.4339 26.9211 30.1792L25.3262 31.0814L34.6857 35.274C35.3245 34.7262 35.7724 33.9273 35.7724 33.1335C35.7724 31.7372 35.1216 30.626 33.0381 29.6839L27.482 27.225ZM8.5 41.9078L14.4593 38.3167L23.7487 42.5092L17.8245 46.2949C16.5802 47.043 15.4514 47.4801 14.2665 47.4801C11.2003 47.4801 8.6473 44.9553 8.5 41.9078Z" fill="#80B0D5"/>
<path fill-rule="evenodd" clip-rule="evenodd" d="M24.888 15.6201L35.8075 8.98633C37.2829 9.84522 38.7345 11.5277 38.7345 13.8157C38.7345 16.2656 37.542 17.9517 35.4219 19.1581L34.2826 19.8126L24.888 15.6201ZM13.0921 25.0489C13.0921 23.907 13.4268 23.3092 13.9685 22.7138L23.3631 26.8887L21.032 28.2331C20.3915 28.6309 19.9453 28.9907 19.9453 29.4891C19.9453 30.0282 20.5599 30.4751 21.3825 30.8512L16.9481 28.8876C16.8634 28.8494 16.7788 28.8115 16.6946 28.7737C14.8083 27.9271 13.0921 27.157 13.0921 25.0489Z" fill="#A2D993"/>
<path d="M13.8283 7.58887C11.2533 9.17708 9.62174 11.3337 9.62174 14.6295C9.62174 18.2088 11.845 20.2576 15.4057 21.8471L33.0381 29.6838C35.12 30.6258 35.7724 31.7388 35.7724 33.1333C35.7724 33.928 35.3245 34.7261 34.6857 35.2738L35.7198 34.6193C37.9378 33.2265 39.3304 31.3354 39.3304 28.3393C39.3304 24.4973 36.8038 22.3907 33.6867 20.9979L16.5275 13.3735C14.8506 12.6281 13.1798 11.7876 13.1798 9.74705C13.1798 8.88944 13.4335 8.18382 13.8283 7.58887Z" fill="#086DA9"/>
<path d="M37.3927 47.9355C35.0269 46.0967 32.5033 44.8529 29.435 43.448L15.2553 37.1159C11.6928 35.5136 9.33051 33.3772 9.33051 29.7823C9.33051 26.2878 11.0065 24.5961 13.185 23.2063L13.9724 22.708C13.4307 23.3034 13.0873 23.9014 13.0873 25.0433C13.0873 27.2455 14.9594 27.9908 16.9427 28.8852L33.4394 36.2225C36.3089 37.466 38.9351 39.6052 38.9351 43.2479C38.9351 45.2505 38.1802 47.0422 37.3927 47.9355Z" fill="#35AF3B"/>
</svg>
