<svg width="48" height="48" viewBox="0 0 48 48" fill="none" xmlns="http://www.w3.org/2000/svg">
<path fill-rule="evenodd" clip-rule="evenodd" d="M37.4956 48C35.1266 46.1587 32.5996 44.9132 29.5272 43.5064L15.3284 37.1658C11.7611 35.5614 9.3957 33.4221 9.3957 29.8224C9.3957 26.3233 11.0739 24.6293 13.2554 23.2376L14.0438 22.7386C13.5014 23.3348 13.1576 23.9336 13.1576 25.0771C13.1576 27.2822 15.0322 28.0285 17.0181 28.9242L33.5369 36.2713C36.4104 37.5164 39.04 39.6585 39.04 43.3061C39.04 45.3113 38.2841 47.1055 37.4956 48ZM14.5314 38.3681L8.5641 41.964C8.7116 45.0156 11.268 47.5438 14.3383 47.5438C15.5248 47.5438 16.6551 47.1062 17.9011 46.357L23.8333 42.5663L14.5314 38.3681ZM13.8995 7.5992C11.321 9.1896 9.6873 11.3491 9.6873 14.6493C9.6873 18.2335 11.9136 20.2849 15.4791 21.8765L33.1352 29.7238C35.2198 30.667 35.8731 31.7816 35.8731 33.1779C35.8731 33.9737 35.4246 34.7728 34.785 35.3213L35.8204 34.6659C38.0414 33.2713 39.4359 31.3776 39.4359 28.3775C39.4359 24.5304 36.9059 22.4209 33.7846 21.0263L16.6024 13.3916C14.9232 12.6452 13.2502 11.8036 13.2502 9.7603C13.2502 8.9015 13.5042 8.195 13.8995 7.5992ZM28.7608 28.2985C30.184 28.9326 31.6045 29.5725 33.0207 30.2221C33.137 30.2769 33.2527 30.3328 33.3668 30.3922C33.4722 30.447 33.5764 30.5042 33.6789 30.5643C34.3118 30.9347 34.9166 31.4313 35.192 32.1314C35.2746 32.3413 35.3256 32.5625 35.3512 32.7864C35.3745 32.9916 35.3844 33.2033 35.3564 33.4084C35.3229 33.654 35.2395 33.8914 35.125 34.1106C34.9798 34.3886 34.7846 34.6339 34.5593 34.8511C34.4691 34.934 34.3784 35.0164 34.2872 35.0984L25.4128 31.1231L27.01 30.2197C28.3496 29.4733 28.7826 29.0164 28.7826 28.5192C28.7826 28.4417 28.7757 28.3684 28.7608 28.2985ZM14.5179 22.9569L23.4471 26.925L21.1129 28.2712C20.4715 28.6696 20.0248 29.0299 20.0248 29.5289C20.0248 29.5983 20.0349 29.6661 20.0544 29.7324C18.9865 29.257 17.9192 28.7802 16.8529 28.301C16.6145 28.1935 16.3759 28.0861 16.1398 27.9735C15.9995 27.9067 15.8599 27.8383 15.7218 27.767C15.616 27.7124 15.511 27.6562 15.4073 27.5978C14.8246 27.2694 14.2429 26.8561 13.9249 26.2499C13.8714 26.1479 13.826 26.0417 13.7891 25.9325C13.7239 25.7399 13.6855 25.5388 13.6687 25.3363C13.6431 25.0268 13.6576 24.7076 13.7125 24.4018C13.7508 24.1892 13.8141 23.9812 13.9086 23.7866C13.9788 23.6419 14.0659 23.5078 14.161 23.3784C14.2134 23.31 14.2676 23.2434 14.3235 23.1778C14.3881 23.104 14.4529 23.0303 14.5179 22.9569ZM35.9082 8.9986L24.9741 15.6413L34.3813 19.8395L35.5221 19.184C37.645 17.976 38.8392 16.2876 38.8392 13.8345C38.8392 11.5434 37.3856 9.8587 35.9082 8.9986ZM14.8997 6.9824L26.2202 0C27.6972 0.8452 29.1336 2.5614 29.1336 4.8536C29.1336 7.3069 27.9062 8.9452 25.8341 10.2032L21.2709 12.9842C20.8667 13.2307 20.3231 13.6298 20.3231 14.2419C20.3231 14.3442 20.3457 14.443 20.3873 14.5385C19.0884 13.9613 17.7909 13.3808 16.4959 12.7948C16.3442 12.725 16.1927 12.6548 16.0428 12.5812C15.897 12.5096 15.753 12.4349 15.6103 12.3573C15.4964 12.2955 15.3844 12.23 15.2743 12.1616C14.7538 11.8386 14.2603 11.4277 13.9884 10.8665C13.931 10.7478 13.884 10.6241 13.848 10.4973C13.7797 10.2574 13.7515 10.0084 13.7509 9.7594C13.7501 9.4734 13.7836 9.1865 13.8538 8.9091C13.9424 8.5587 14.0922 8.2308 14.2844 7.9256L14.8997 6.9824Z" fill="black"/>
</svg>
