<svg width="48" height="48" viewBox="0 0 48 48" fill="none" xmlns="http://www.w3.org/2000/svg">
<path fill-rule="evenodd" clip-rule="evenodd" d="M16.5704 1.05199L4.04696 13.5755C3.37783 14.2496 3.00162 15.1604 3 16.1102L3 44.4033C3 45.3572 3.37894 46.272 4.05346 46.9465C4.72798 47.6211 5.64283 48 6.59674 48H28.5078C29.4626 47.9989 30.378 47.6187 31.0526 46.943L43.5761 34.4195C43.9105 34.0864 44.176 33.6907 44.3573 33.2549C44.5387 32.8191 44.6324 32.3518 44.6331 31.8798V3.59676C44.6331 3.12358 44.5397 2.65506 44.3583 2.21802C44.1769 1.78099 43.9111 1.38405 43.576 1.04993C43.241 0.715807 42.8433 0.451082 42.4058 0.270919C41.9682 0.0907557 41.4995 -0.00130408 41.0263 1.3955e-05H19.1102C18.1579 0.00164509 17.245 0.379801 16.5704 1.05199ZM37.7451 30.8779L33.5022 35.1209C32.9395 35.6816 32.1776 35.9968 31.3832 35.9975H22.7921C22.6146 35.9974 22.4411 35.9445 22.2936 35.8457C22.1461 35.7468 22.0313 35.6064 21.9637 35.4422C21.8961 35.2781 21.8787 35.0975 21.9139 34.9235C21.949 34.7494 22.035 34.5897 22.1609 34.4646L28.087 28.5535C28.213 28.4284 28.299 28.2687 28.3341 28.0947C28.3692 27.9207 28.3519 27.7401 28.2843 27.5759C28.2167 27.4118 28.1019 27.2714 27.9544 27.1725C27.8069 27.0737 27.6334 27.0208 27.4558 27.0207H19.1202C18.7216 27.0207 18.3394 26.8623 18.0576 26.5805C17.7757 26.2987 17.6174 25.9164 17.6174 25.5179V7.5141C17.6174 7.11553 17.7757 6.73328 18.0576 6.45145C18.3394 6.16962 18.7216 6.01128 19.1202 6.01128H37.129C37.5276 6.01128 37.9098 6.16962 38.1916 6.45145C38.4735 6.73328 38.6318 7.11553 38.6318 7.5141V28.7589C38.6284 29.5548 38.3096 30.3168 37.7451 30.8779Z" fill="#4C9F87"/>
</svg>
