<svg width="48" height="48" viewBox="0 0 48 48" fill="none" xmlns="http://www.w3.org/2000/svg">
<path fill-rule="evenodd" clip-rule="evenodd" d="M36.3767 1.99716L1.99757 36.3679C-0.665855 39.0307 -0.665855 43.34 1.99757 46.0029C4.64931 48.6657 8.97153 48.6657 11.6233 46.0029L46.0024 11.6205C48.6659 8.9693 48.6659 4.65993 46.0024 1.99716C43.3507 -0.665721 39.0402 -0.665721 36.3767 1.99716ZM1.28889 0H14.713C15.8489 0 16.4278 1.36731 15.6305 2.17034L2.23917 15.6156C1.43088 16.4295 0.0436911 15.8652 0.0436911 14.7258L5.96046e-08 1.2805C5.96046e-08 0.57514 0.567984 0 1.28889 0ZM46.7315 48H33.2879C32.1512 48 31.5719 46.6327 32.3698 45.8297L45.7588 32.3844C46.5676 31.5705 47.9556 32.1348 47.9556 33.2742L47.9994 46.7195C48.0213 47.4249 47.442 48 46.7315 48Z" fill="#FFD23F"/>
</svg>
