<svg width="48" height="48" viewBox="0 0 48 48" fill="none" xmlns="http://www.w3.org/2000/svg">
<path d="M35.4718 9.08565L31.5623 5.21562C31.2717 4.92813 30.7965 4.92813 30.5061 5.21562L23.6449 12.0072C23.3544 12.2949 23.3544 12.7652 23.6449 13.0527L27.5545 16.9228C27.8449 17.2103 28.3202 17.2103 28.6107 16.9228L35.4718 10.1311C35.7624 9.84357 35.7624 9.37314 35.4718 9.08565Z" fill="#3A3AE4"/>
<path d="M16.4978 10.9855L24.4264 18.8338C25.0154 19.4169 25.0154 20.3707 24.4264 20.9541L10.5122 34.7273C9.92303 35.3104 8.95938 35.3104 8.37023 34.7273L0.441748 26.879C-0.147249 26.2959 -0.147249 25.3421 0.441748 24.7588L14.356 10.9855C14.9452 10.4025 15.9088 10.4025 16.4978 10.9855Z" fill="#3A3AE4"/>
<path d="M39.6297 13.0974L47.5581 20.9457C48.1473 21.5287 48.1473 22.4826 47.5581 23.0659L33.6439 36.8391C33.0549 37.4222 32.0911 37.4222 31.5019 36.8391L23.5736 28.9909C22.9844 28.4078 22.9844 27.4539 23.5736 26.8707L37.4877 13.0974C38.0769 12.5142 39.0405 12.5142 39.6297 13.0974Z" fill="#3A3AE4"/>
<path d="M20.5408 31.0773L24.4504 34.9472C24.741 35.2347 24.741 35.7051 24.4504 35.9927L17.5892 42.7843C17.2988 43.072 16.8235 43.072 16.533 42.7843L12.6235 38.9144C12.3329 38.6269 12.3329 38.1565 12.6235 37.8689L19.4846 31.0773C19.7751 30.7896 20.2503 30.7896 20.5408 31.0773Z" fill="#3A3AE4"/>
</svg>
